<?xml version="1.0" encoding="utf-8"?>
<!-- Generator: Adobe Illustrator 26.3.1, SVG Export Plug-In . SVG Version: 6.00 Build 0)  -->
<svg version="1.1" id="Camada_1" xmlns="http://www.w3.org/2000/svg" xmlns:xlink="http://www.w3.org/1999/xlink" x="0px" y="0px"
	 viewBox="0 0 580.3 585.6" style="enable-background:new 0 0 580.3 585.6;" xml:space="preserve">
<style type="text/css">
	.st0{fill:none;}
	.st1{fill:#FFFFFF;}
</style>
<g>
	<path class="st0" d="M249,300.5h-18c-0.9,0-1.2-0.3-1.2-1.2v-79.8l0.2-8c0-2.5-0.9-3.4-3.4-3.4h-14.7c-2.5,0-3.4,0.9-3.4,3.4l0.2,8
		v88.9l-0.2,8c0,2.5,0.9,3.4,3.4,3.4H249c2.5,0,3.4-0.9,3.4-3.4v-12.4C252.4,301.4,251.5,300.5,249,300.5z"/>
	<path class="st0" d="M286.8,339.4c0-0.9-0.3-1.2-1.2-1.2h-5.3c-0.9,0-1.2,0.3-1.2,1.2l0.1,2.9v32.3l-0.1,2.9c0,0.9,0.3,1.2,1.2,1.2
		h5.3c0.9,0,1.2-0.3,1.2-1.2l-0.1-2.9v-32.3L286.8,339.4z"/>
	<path class="st0" d="M242.8,356l-2.9-2.1c-2.1-1.6-3.3-3.4-3.3-5.8c0-2.1,0.9-3.4,2.3-3.4c1.2,0,2,1,2.1,4c0.1,0.9,0.5,1.2,1.4,1.2
		h4.9c0.9,0,1.2-0.3,1.2-1.2c-0.2-8.1-3.7-11.2-9.3-11.2c-6.1,0-10.1,4-10.1,11.3c0,5.2,1.9,8.6,6.1,11.7l2.6,2
		c2.6,2,3.3,4.3,3.3,6.5c0,2.5-0.9,3.3-2.1,3.3c-1.5,0-2.4-1.3-2.5-4.3c-0.1-0.9-0.5-1.2-1.4-1.2H230c-0.9,0-1.2,0.3-1.2,1.2
		c0.2,8.1,4.1,11.5,9.9,11.5c6.1,0,10.1-3.9,10.1-11.8C248.7,361.3,246.1,358.5,242.8,356z"/>
	<path class="st0" d="M267.3,356l-2.9-2.1c-2.1-1.6-3.3-3.4-3.3-5.8c0-2.1,0.9-3.4,2.3-3.4c1.2,0,2,1,2.1,4c0.1,0.9,0.5,1.2,1.4,1.2
		h4.9c0.9,0,1.2-0.3,1.2-1.2c-0.2-8.1-3.7-11.2-9.3-11.2c-6.1,0-10.1,4-10.1,11.3c0,5.2,1.9,8.6,6.1,11.7l2.6,2
		c2.6,2,3.3,4.3,3.3,6.5c0,2.5-0.9,3.3-2.1,3.3c-1.5,0-2.4-1.3-2.5-4.3c-0.1-0.9-0.5-1.2-1.4-1.2h-5.2c-0.9,0-1.2,0.3-1.2,1.2
		c0.2,8.1,4.1,11.5,9.9,11.5c6.1,0,10.1-3.9,10.1-11.8C273.3,361.3,270.7,358.5,267.3,356z"/>
	<path class="st0" d="M194.8,277.7h-14.1c-2.5,0-3.4,0.9-3.4,3.4c0,16.1-0.6,21.4-6.2,21.4c-6.4,0-6.4-6.9-6.4-19.5v-38.3
		c0-13.8,0.5-19.5,6.4-19.5c5.6,0,5.9,5.2,5.9,16.6c0,2.5,0.9,3.4,3.4,3.4h14.1c2.5,0,3.4-0.9,3.4-3.4c-0.3-15-3.1-24.1-8.1-28.9
		c-4.4-4.2-11.2-6.7-19.4-6.7c-8,0-14.5,2.3-19.1,6.9c-5.8,5.8-8.3,15.8-8.3,36.1v29.5c0,19.2,2.2,30.2,8.3,36.2
		c4.4,4.4,10.6,6.7,19.4,6.7c8.4,0,14.5-2.2,18.9-6.7c5-5.1,8.4-14.5,8.6-33.7C198.2,278.6,197.3,277.7,194.8,277.7z"/>
	<path class="st0" d="M328.5,316.2c0,2.5,0.9,3.4,3.4,3.4h22c19.1,0,29.2-8.4,29.2-32.5v-0.3c0-12.3-4.5-21.4-16.4-24.1v-0.6
		c12.2-3.9,15.3-13,15.3-25.3v-0.3c0-17.5-9.8-28.6-28.7-28.6H332c-2.5,0-3.4,0.9-3.4,3.4l0.2,8v88.9L328.5,316.2z M349.8,226.3
		c0-0.5,0.2-0.6,0.6-0.6h0.9c8.1,0,10.3,4.8,10.3,12.6v0.5c0,8.1-2.2,14.5-9.8,14.5h-1.1c-0.6,0-0.9-0.3-0.9-0.9V226.3z M349.8,273
		c0-0.5,0.2-0.6,0.8-0.6h0.9c7.5,0,10.3,5.5,10.3,14.1v0.5c0,10.5-2.5,14.4-10.6,14.4h-0.8c-0.5,0-0.6-0.2-0.6-0.6L349.8,273
		L349.8,273z"/>
	<path class="st0" d="M159.4,340.5c-1.6-1.4-3.9-2.3-7.1-2.3h-7.9c-0.9,0-1.2,0.3-1.2,1.2l0.1,2.9v32.3l-0.1,2.9
		c0,0.9,0.3,1.2,1.2,1.2h7.9c3.3,0,5.6-0.9,7.1-2.3c2.3-2,3.5-5.4,3.5-11.3v-13.2C162.9,345.9,161.6,342.5,159.4,340.5z
		 M155.1,365.7c0,3.2-0.2,6.2-3.4,6.2h-0.5c-0.3,0-0.5-0.1-0.5-0.5v-26.1c0-0.3,0.1-0.4,0.5-0.4h0.5c3.4,0,3.4,3.4,3.4,6.2V365.7z"
		/>
	<path class="st0" d="M216.5,339.4c-0.2-0.9-0.6-1.2-1.5-1.2h-3.6c-0.9,0-1.3,0.3-1.5,1.2l-8.2,38.2c-0.2,0.8,0.1,1.2,1,1.2h4.9
		c0.9,0,1.3-0.3,1.5-1.2l0.7-4.1c0.1-0.3,0.2-0.5,0.5-0.5h5.5c0.3,0,0.5,0.1,0.5,0.5l0.7,4.1c0.2,0.9,0.6,1.2,1.5,1.2h5.3
		c0.9,0,1.2-0.4,1-1.2L216.5,339.4z M214.6,366.2h-3.2c-0.3,0-0.5-0.1-0.4-0.5l1.2-7.1c0.3-1.6,0.5-3.7,0.7-4.9h0.2
		c0.2,1.2,0.4,3.3,0.7,4.9l1.2,7.1C215.1,366.1,215,366.2,214.6,366.2z"/>
	<path class="st0" d="M185.5,371.7h-6.6c-0.3,0-0.5-0.1-0.5-0.5v-9c0-0.3,0.1-0.5,0.5-0.5h4.8c0.9,0,1.2-0.3,1.2-1.2v-5.2
		c0-0.9-0.3-1.2-1.2-1.2h-4.8c-0.3,0-0.5-0.1-0.5-0.5v-8.2c0-0.3,0.1-0.5,0.5-0.5h6.4c0.9,0,1.2-0.3,1.2-1.2v-4.4
		c0-0.9-0.3-1.2-1.2-1.2h-13.4c-0.9,0-1.2,0.3-1.2,1.2l0.1,2.9v32.3l-0.1,2.9c0,0.9,0.3,1.2,1.2,1.2h13.5c0.9,0,1.2-0.3,1.2-1.2V373
		C186.7,372.1,186.4,371.7,185.5,371.7z"/>
	<path class="st0" d="M313.7,339.4c0.1-0.9-0.3-1.2-1.2-1.2h-4.9c-0.9,0-1.2,0.3-1.2,1.2l0.1,2.9v8.9c0,1.4,0.1,3.4,0.1,4.8h-0.2
		c-0.6-1.5-0.7-2-1.6-4.2l-5.1-12.5c-0.3-0.9-0.8-1.1-1.7-1.1h-2.5c-0.9,0-1.2,0.3-1.2,1.2l0.1,2.9v32.3l-0.1,2.9
		c0,0.9,0.3,1.2,1.2,1.2h4.8c0.9,0,1.2-0.3,1.2-1.2l-0.1-2.9v-9.1c0-1.5-0.1-3.5-0.2-4.8h0.2c0.3,0.6,0.9,2.4,1.4,3.6l5.6,13.3
		c0.4,0.9,0.9,1.1,1.8,1.1h2.4c0.9,0,1.2-0.3,1.2-1.2l-0.1-2.9v-32.3L313.7,339.4z"/>
	<path class="st0" d="M411.4,371.7h-6.6c-0.3,0-0.5-0.1-0.5-0.5v-9c0-0.3,0.1-0.5,0.5-0.5h4.8c0.9,0,1.2-0.3,1.2-1.2v-5.2
		c0-0.9-0.3-1.2-1.2-1.2h-4.8c-0.3,0-0.5-0.1-0.5-0.5v-8.2c0-0.3,0.1-0.5,0.5-0.5h6.4c0.9,0,1.2-0.3,1.2-1.2v-4.4
		c0-0.9-0.3-1.2-1.2-1.2h-13.4c-0.9,0-1.2,0.3-1.2,1.2l0.1,2.9v32.3l-0.1,2.9c0,0.9,0.3,1.2,1.2,1.2h13.5c0.9,0,1.2-0.3,1.2-1.2V373
		C412.6,372.1,412.3,371.7,411.4,371.7z"/>
	<path class="st0" d="M312.7,208h-14.7c-2.5,0-3.4,0.9-3.4,3.4v81.1c0,6.4-1.4,10-5.9,10s-5.9-3.6-5.9-10v-73.1l0.2-8
		c0-2.5-0.9-3.4-3.4-3.4h-14.7c-2.5,0-3.4,0.9-3.4,3.4l0.2,8v72.5c0,19.1,10,29.7,27.2,29.7c17,0,27.3-10.6,27.3-29.7v-72.5l0.2-8
		C316.2,208.9,315.2,208,312.7,208z"/>
	<path class="st0" d="M437.2,316.2v-12.3c0-2.5-0.9-3.4-3.4-3.4h-18.1c-0.9,0-1.2-0.3-1.2-1.2v-24.8c0-0.9,0.3-1.2,1.2-1.2H429
		c2.5,0,3.4-0.9,3.4-3.4v-14.4c0-2.5-0.9-3.4-3.4-3.4h-13.3c-0.9,0-1.2-0.3-1.2-1.2v-22.5c0-0.9,0.3-1.2,1.2-1.2h17.6
		c2.5,0,3.4-0.9,3.4-3.4v-12c0-2.5-0.9-3.4-3.4-3.4h-36.9c-2.5,0-3.4,0.9-3.4,3.4l0.2,8v88.9l-0.2,8c0,2.5,0.9,3.4,3.4,3.4h37.3
		C436.3,319.7,437.2,318.8,437.2,316.2z"/>
	<path class="st0" d="M431.4,356l-2.9-2.1c-2.1-1.6-3.3-3.4-3.3-5.8c0-2.1,0.9-3.4,2.3-3.4c1.2,0,2,1,2.1,4c0.1,0.9,0.4,1.2,1.4,1.2
		h4.9c0.9,0,1.2-0.3,1.2-1.2c-0.2-8.1-3.7-11.2-9.3-11.2c-6.1,0-10.1,4-10.1,11.3c0,5.2,1.9,8.6,6.1,11.7l2.6,2
		c2.6,2,3.3,4.3,3.3,6.5c0,2.5-0.9,3.3-2.1,3.3c-1.5,0-2.4-1.3-2.5-4.3c-0.1-0.9-0.4-1.2-1.4-1.2h-5.2c-0.9,0-1.2,0.3-1.2,1.2
		c0.2,8.1,4.1,11.5,9.9,11.5c6.1,0,10.1-3.9,10.1-11.8C437.3,361.3,434.7,358.5,431.4,356z"/>
	<path class="st0" d="M333.7,339.4c-0.2-0.9-0.6-1.2-1.5-1.2h-3.6c-0.9,0-1.3,0.3-1.5,1.2l-8.2,38.2c-0.2,0.8,0.1,1.2,1,1.2h4.9
		c0.9,0,1.3-0.3,1.5-1.2l0.7-4.1c0.1-0.3,0.2-0.5,0.5-0.5h5.5c0.3,0,0.4,0.1,0.5,0.5l0.7,4.1c0.2,0.9,0.6,1.2,1.5,1.2h5.3
		c0.9,0,1.2-0.4,1-1.2L333.7,339.4z M331.8,366.2h-3.2c-0.3,0-0.4-0.1-0.4-0.5l1.2-7.1c0.3-1.6,0.5-3.7,0.7-4.9h0.2
		c0.2,1.2,0.4,3.3,0.7,4.9l1.2,7.1C332.2,366.1,332.1,366.2,331.8,366.2z"/>
	<path class="st0" d="M366.7,339.4c0.1-0.9-0.3-1.2-1.2-1.2h-4.9c-0.9,0-1.2,0.3-1.2,1.2l0.1,2.9v8.9c0,1.4,0.1,3.4,0.1,4.8h-0.2
		c-0.6-1.5-0.7-2-1.6-4.2l-5.1-12.5c-0.3-0.9-0.8-1.1-1.7-1.1h-2.5c-0.9,0-1.2,0.3-1.2,1.2l0.1,2.9v32.3l-0.1,2.9
		c0,0.9,0.3,1.2,1.2,1.2h4.8c0.9,0,1.2-0.3,1.2-1.2l-0.1-2.9v-9.1c0-1.5-0.1-3.5-0.2-4.8h0.2c0.3,0.6,0.9,2.4,1.4,3.6l5.6,13.3
		c0.4,0.9,0.9,1.1,1.8,1.1h2.4c0.9,0,1.2-0.3,1.2-1.2l-0.1-2.9v-32.3L366.7,339.4z"/>
	<path class="st0" d="M389.7,338.2h-16.1c-0.9,0-1.2,0.3-1.2,1.2v4.4c0,0.9,0.3,1.2,1.2,1.2h3.8c0.3,0,0.5,0.1,0.5,0.5v29.1
		l-0.1,2.9c0,0.9,0.3,1.2,1.2,1.2h5.3c0.9,0,1.2-0.3,1.2-1.2l-0.1-2.9v-29.1c0-0.3,0.1-0.5,0.5-0.5h3.7c0.9,0,1.2-0.3,1.2-1.2v-4.4
		C390.9,338.5,390.6,338.2,389.7,338.2z"/>
	<path class="st1" d="M331,358.6c-0.3-1.6-0.5-3.7-0.7-4.9h-0.2c-0.2,1.2-0.4,3.3-0.7,4.9l-1.2,7.1c-0.1,0.3,0.1,0.5,0.4,0.5h3.2
		c0.3,0,0.4-0.1,0.4-0.5L331,358.6z"/>
	<path class="st1" d="M151.8,345h-0.5c-0.3,0-0.5,0.1-0.5,0.4v26.1c0,0.3,0.1,0.5,0.5,0.5h0.5c3.2,0,3.4-3,3.4-6.2v-14.6
		C155.1,348.3,155.1,345,151.8,345z"/>
	<path class="st1" d="M213.8,358.6c-0.3-1.6-0.5-3.7-0.7-4.9H213c-0.2,1.2-0.4,3.3-0.7,4.9l-1.2,7.1c-0.1,0.3,0.1,0.5,0.4,0.5h3.2
		c0.3,0,0.5-0.1,0.4-0.5L213.8,358.6z"/>
	<path class="st1" d="M350.7,253.3h1.1c7.6,0,9.8-6.4,9.8-14.5v-0.5c0-7.8-2.2-12.6-10.3-12.6h-0.9c-0.5,0-0.6,0.2-0.6,0.6v26.1
		C349.8,253,350.1,253.3,350.7,253.3z"/>
	<path class="st1" d="M350.4,301.3h0.8c8.1,0,10.6-3.9,10.6-14.4v-0.5c0-8.6-2.8-14.1-10.3-14.1h-0.9c-0.6,0-0.8,0.2-0.8,0.6v27.6
		C349.8,301.1,349.9,301.3,350.4,301.3z"/>
	<path class="st1" d="M459.2,173h-338c-3.4,0-6.1,2.8-6.1,6.1v227.2c0,3.4,2.8,6.1,6.1,6.1h338c3.4,0,6.1-2.8,6.1-6.1V179.2
		C465.3,175.8,462.6,173,459.2,173z M328.5,211.4c0-2.5,0.9-3.4,3.4-3.4h21.4c18.9,0,28.7,11.1,28.7,28.6v0.3
		c0,12.3-3.1,21.4-15.3,25.3v0.6c11.9,2.7,16.4,11.7,16.4,24.1v0.3c0,24.1-10.1,32.5-29.2,32.5h-22c-2.5,0-3.4-0.9-3.4-3.4l0.2-8
		v-88.8L328.5,211.4z M162.9,365.1c0,6-1.2,9.4-3.5,11.3c-1.6,1.4-3.9,2.3-7.1,2.3h-7.9c-0.9,0-1.2-0.3-1.2-1.2l0.1-2.9v-32.3
		l-0.1-2.9c0-0.9,0.3-1.2,1.2-1.2h7.9c3.3,0,5.6,0.9,7.1,2.3c2.3,2,3.5,5.4,3.5,11.3V365.1z M186.7,377.5c0,0.9-0.3,1.2-1.2,1.2
		h-13.5c-0.9,0-1.2-0.3-1.2-1.2l0.1-2.9v-32.3l-0.1-2.9c0-0.9,0.3-1.2,1.2-1.2h13.4c0.9,0,1.2,0.3,1.2,1.2v4.4
		c0,0.9-0.3,1.2-1.2,1.2h-6.4c-0.3,0-0.5,0.1-0.5,0.5v8.2c0,0.3,0.1,0.5,0.5,0.5h4.8c0.9,0,1.2,0.3,1.2,1.2v5.2
		c0,0.9-0.3,1.2-1.2,1.2h-4.8c-0.3,0-0.5,0.1-0.5,0.5v9c0,0.3,0.1,0.5,0.5,0.5h6.6c0.9,0,1.2,0.3,1.2,1.2V377.5z M189.7,314.9
		c-4.4,4.5-10.5,6.7-18.9,6.7c-8.8,0-15-2.3-19.4-6.7c-6.1-6.1-8.3-17-8.3-36.2v-29.5c0-20.3,2.5-30.3,8.3-36.1
		c4.5-4.5,11.1-6.9,19.1-6.9c8.1,0,15,2.5,19.4,6.7c5,4.8,7.8,13.9,8.1,28.9c0,2.5-0.9,3.4-3.4,3.4h-14.1c-2.5,0-3.4-0.9-3.4-3.4
		c0-11.4-0.3-16.6-5.9-16.6c-5.9,0-6.4,5.8-6.4,19.5V283c0,12.6,0,19.5,6.4,19.5c5.6,0,6.2-5.3,6.2-21.4c0-2.5,0.9-3.4,3.4-3.4h14.1
		c2.5,0,3.4,0.9,3.4,3.4C198.1,300.3,194.7,309.7,189.7,314.9z M223.8,378.7h-5.3c-0.9,0-1.3-0.3-1.5-1.2l-0.7-4.1
		c-0.1-0.3-0.2-0.5-0.5-0.5h-5.5c-0.3,0-0.5,0.1-0.5,0.5l-0.7,4.1c-0.2,0.9-0.6,1.2-1.5,1.2h-4.9c-0.9,0-1.2-0.4-1-1.2l8.2-38.2
		c0.2-0.9,0.6-1.2,1.5-1.2h3.6c0.9,0,1.3,0.3,1.5,1.2l8.3,38.2C225,378.3,224.7,378.7,223.8,378.7z M238.6,379.5
		c-5.7,0-9.6-3.4-9.9-11.5c0-0.9,0.3-1.2,1.2-1.2h5.2c0.9,0,1.3,0.3,1.4,1.2c0.1,3,1,4.3,2.5,4.3c1.2,0,2.1-0.8,2.1-3.3
		c0-2.2-0.7-4.5-3.3-6.5l-2.6-2c-4.2-3.2-6.1-6.5-6.1-11.7c0-7.3,4-11.3,10.1-11.3c5.6,0,9.1,3.1,9.3,11.2c0,0.9-0.3,1.2-1.2,1.2
		h-4.9c-0.9,0-1.3-0.3-1.4-1.2c-0.1-3-0.9-4-2.1-4c-1.5,0-2.3,1.3-2.3,3.4c0,2.4,1.1,4.2,3.3,5.8l2.9,2.1c3.4,2.5,6,5.3,6,11.7
		C248.7,375.6,244.7,379.5,238.6,379.5z M252.4,316.2c0,2.5-0.9,3.4-3.4,3.4h-37.2c-2.5,0-3.4-0.9-3.4-3.4l0.2-8v-88.9l-0.2-8
		c0-2.5,0.9-3.4,3.4-3.4h14.7c2.5,0,3.4,0.9,3.4,3.4l-0.2,8v79.8c0,0.9,0.3,1.2,1.2,1.2h18c2.5,0,3.4,0.9,3.4,3.4L252.4,316.2
		L252.4,316.2z M263.2,379.5c-5.7,0-9.6-3.4-9.9-11.5c0-0.9,0.3-1.2,1.2-1.2h5.2c0.9,0,1.3,0.3,1.4,1.2c0.1,3,1,4.3,2.5,4.3
		c1.2,0,2.1-0.8,2.1-3.3c0-2.2-0.7-4.5-3.3-6.5l-2.6-2c-4.2-3.2-6.1-6.5-6.1-11.7c0-7.3,4-11.3,10.1-11.3c5.6,0,9.1,3.1,9.3,11.2
		c0,0.9-0.3,1.2-1.2,1.2h-4.9c-0.9,0-1.3-0.3-1.4-1.2c-0.1-3-0.9-4-2.1-4c-1.5,0-2.3,1.3-2.3,3.4c0,2.4,1.1,4.2,3.3,5.8l2.9,2.1
		c3.4,2.5,6,5.3,6,11.7C273.3,375.6,269.2,379.5,263.2,379.5z M286.8,377.5c0,0.9-0.3,1.2-1.2,1.2h-5.3c-0.9,0-1.2-0.3-1.2-1.2
		l0.1-2.9v-32.3l-0.1-2.9c0-0.9,0.3-1.2,1.2-1.2h5.3c0.9,0,1.2,0.3,1.2,1.2l-0.1,2.9v32.3L286.8,377.5z M313.7,377.5
		c0.1,0.9-0.3,1.2-1.2,1.2h-2.4c-0.9,0-1.4-0.3-1.8-1.1l-5.6-13.3c-0.6-1.2-1.1-3-1.4-3.6h-0.2c0.1,1.3,0.2,3.3,0.2,4.8v9.1l0.1,2.9
		c0,0.9-0.3,1.2-1.2,1.2h-4.8c-0.9,0-1.2-0.3-1.2-1.2l0.1-2.9v-32.3l-0.1-2.9c0-0.9,0.3-1.2,1.2-1.2h2.5c0.9,0,1.4,0.3,1.7,1.1
		l5.1,12.5c1,2.2,1,2.7,1.6,4.2h0.2c-0.1-1.4-0.1-3.3-0.1-4.8v-8.9l-0.1-2.9c-0.1-0.9,0.3-1.2,1.2-1.2h4.9c0.9,0,1.2,0.3,1.2,1.2
		l-0.1,2.9v32.3L313.7,377.5z M316,219.4v72.5c0,19.1-10.3,29.7-27.3,29.7c-17.2,0-27.2-10.6-27.2-29.7v-72.5l-0.2-8
		c0-2.5,0.9-3.4,3.4-3.4h14.7c2.5,0,3.4,0.9,3.4,3.4l-0.2,8v73.1c0,6.4,1.4,10,5.9,10s5.9-3.6,5.9-10v-81.1c0-2.5,0.9-3.4,3.4-3.4
		h14.7c2.5,0,3.4,0.9,3.4,3.4L316,219.4z M341,378.7h-5.3c-0.9,0-1.3-0.3-1.5-1.2l-0.7-4.1c-0.1-0.3-0.2-0.5-0.5-0.5h-5.5
		c-0.3,0-0.5,0.1-0.5,0.5l-0.7,4.1c-0.2,0.9-0.6,1.2-1.5,1.2h-4.9c-0.9,0-1.2-0.4-1-1.2l8.2-38.2c0.2-0.9,0.6-1.2,1.5-1.2h3.6
		c0.9,0,1.3,0.3,1.5,1.2l8.3,38.2C342.2,378.3,341.8,378.7,341,378.7z M366.7,377.5c0.1,0.9-0.3,1.2-1.2,1.2h-2.4
		c-0.9,0-1.4-0.3-1.8-1.1l-5.6-13.3c-0.6-1.2-1.1-3-1.4-3.6h-0.2c0.1,1.3,0.2,3.3,0.2,4.8v9.1l0.1,2.9c0,0.9-0.3,1.2-1.2,1.2h-4.8
		c-0.9,0-1.2-0.3-1.2-1.2l0.1-2.9v-32.3l-0.1-2.9c0-0.9,0.3-1.2,1.2-1.2h2.6c0.9,0,1.4,0.3,1.7,1.1l5.1,12.5c1,2.2,1,2.7,1.6,4.2
		h0.2c-0.1-1.4-0.1-3.3-0.1-4.8v-8.9l-0.1-2.9c-0.1-0.9,0.3-1.2,1.2-1.2h4.9c0.9,0,1.2,0.3,1.2,1.2l-0.1,2.9v32.3L366.7,377.5z
		 M390.9,343.8c0,0.9-0.3,1.2-1.2,1.2H386c-0.3,0-0.5,0.1-0.5,0.5v29.1l0.1,2.9c0,0.9-0.3,1.2-1.2,1.2H379c-0.9,0-1.2-0.3-1.2-1.2
		l0.1-2.9v-29.1c0-0.3-0.1-0.5-0.5-0.5h-3.8c-0.9,0-1.2-0.3-1.2-1.2v-4.4c0-0.9,0.3-1.2,1.2-1.2h16.1c0.9,0,1.2,0.3,1.2,1.2V343.8z
		 M393,316.2l0.2-8v-88.9l-0.2-8c0-2.5,0.9-3.4,3.4-3.4h36.9c2.5,0,3.4,0.9,3.4,3.4v12c0,2.5-0.9,3.4-3.4,3.4h-17.6
		c-0.9,0-1.2,0.3-1.2,1.2v22.5c0,0.9,0.3,1.2,1.2,1.2H429c2.5,0,3.4,0.9,3.4,3.4v14.4c0,2.5-0.9,3.4-3.4,3.4h-13.3
		c-0.9,0-1.2,0.3-1.2,1.2v24.8c0,0.9,0.3,1.2,1.2,1.2h18.1c2.5,0,3.4,0.9,3.4,3.4v12.3c0,2.5-0.9,3.4-3.4,3.4h-37.3
		C394,319.7,393,318.8,393,316.2z M412.6,377.5c0,0.9-0.3,1.2-1.2,1.2h-13.5c-0.9,0-1.2-0.3-1.2-1.2l0.1-2.9v-32.3l-0.1-2.9
		c0-0.9,0.3-1.2,1.2-1.2h13.4c0.9,0,1.2,0.3,1.2,1.2v4.4c0,0.9-0.3,1.2-1.2,1.2h-6.4c-0.3,0-0.5,0.1-0.5,0.5v8.2
		c0,0.3,0.1,0.5,0.5,0.5h4.8c0.9,0,1.2,0.3,1.2,1.2v5.2c0,0.9-0.3,1.2-1.2,1.2h-4.8c-0.3,0-0.5,0.1-0.5,0.5v9c0,0.3,0.1,0.5,0.5,0.5
		h6.6c0.9,0,1.2,0.3,1.2,1.2V377.5z M427.2,379.5c-5.7,0-9.6-3.4-9.9-11.5c0-0.9,0.3-1.2,1.2-1.2h5.2c0.9,0,1.3,0.3,1.4,1.2
		c0.1,3,1,4.3,2.5,4.3c1.2,0,2.1-0.8,2.1-3.3c0-2.2-0.7-4.5-3.3-6.5l-2.6-2c-4.2-3.2-6.1-6.5-6.1-11.7c0-7.3,4-11.3,10.1-11.3
		c5.6,0,9.1,3.1,9.3,11.2c0,0.9-0.3,1.2-1.2,1.2H431c-0.9,0-1.3-0.3-1.4-1.2c-0.1-3-0.9-4-2.1-4c-1.5,0-2.3,1.3-2.3,3.4
		c0,2.4,1.1,4.2,3.3,5.8l2.9,2.1c3.4,2.5,6,5.3,6,11.7C437.3,375.6,433.3,379.5,427.2,379.5z"/>
</g>
</svg>
