<?xml version="1.0" encoding="utf-8"?>
<!-- Generator: Adobe Illustrator 26.3.1, SVG Export Plug-In . SVG Version: 6.00 Build 0)  -->
<svg version="1.1" id="Camada_1" xmlns="http://www.w3.org/2000/svg" xmlns:xlink="http://www.w3.org/1999/xlink" x="0px" y="0px"
	 viewBox="0 0 580.32 585.57" style="enable-background:new 0 0 580.32 585.57;" xml:space="preserve">
<style type="text/css">
	.st0{fill:none;}
	.st1{fill:#FFFFFF;}
</style>
<g>
	<path class="st0" d="M-323.1,277.57h-17.96c-0.94,0-1.25-0.31-1.25-1.25V196.5l0.16-7.97c0-2.5-0.94-3.44-3.44-3.44h-14.68
		c-2.5,0-3.44,0.94-3.44,3.44l0.16,7.97v88.88l-0.16,7.97c0,2.5,0.94,3.44,3.44,3.44h37.18c2.5,0,3.44-0.94,3.44-3.44V281
		C-319.67,278.5-320.6,277.57-323.1,277.57z"/>
	<path class="st0" d="M-285.29,316.51c0-0.91-0.34-1.25-1.25-1.25h-5.33c-0.91,0-1.25,0.34-1.25,1.25l0.06,2.89v32.26l-0.06,2.89
		c0,0.91,0.34,1.25,1.25,1.25h5.33c0.91,0,1.25-0.34,1.25-1.25l-0.06-2.89V319.4L-285.29,316.51z"/>
	<path class="st0" d="M-329.35,333.07l-2.89-2.15c-2.15-1.59-3.29-3.35-3.29-5.78c0-2.1,0.85-3.4,2.32-3.4
		c1.25,0,1.98,1.02,2.1,3.97c0.06,0.91,0.45,1.25,1.36,1.25h4.88c0.91,0,1.25-0.34,1.25-1.25c-0.17-8.11-3.69-11.17-9.3-11.17
		c-6.12,0-10.15,3.97-10.15,11.28c0,5.22,1.93,8.56,6.12,11.74l2.61,1.98c2.61,1.98,3.29,4.31,3.29,6.52c0,2.49-0.91,3.29-2.1,3.29
		c-1.53,0-2.38-1.3-2.49-4.31c-0.06-0.91-0.45-1.25-1.36-1.25h-5.16c-0.85,0-1.19,0.34-1.19,1.25c0.23,8.11,4.14,11.51,9.87,11.51
		c6.07,0,10.09-3.86,10.09-11.79C-323.4,338.4-326,335.56-329.35,333.07z"/>
	<path class="st0" d="M-304.8,333.07l-2.89-2.15c-2.15-1.59-3.29-3.35-3.29-5.78c0-2.1,0.85-3.4,2.32-3.4c1.25,0,1.98,1.02,2.1,3.97
		c0.06,0.91,0.45,1.25,1.36,1.25h4.88c0.91,0,1.25-0.34,1.25-1.25c-0.17-8.11-3.69-11.17-9.3-11.17c-6.12,0-10.15,3.97-10.15,11.28
		c0,5.22,1.93,8.56,6.12,11.74l2.61,1.98c2.61,1.98,3.29,4.31,3.29,6.52c0,2.49-0.91,3.29-2.1,3.29c-1.53,0-2.38-1.3-2.49-4.31
		c-0.06-0.91-0.45-1.25-1.36-1.25h-5.16c-0.85,0-1.19,0.34-1.19,1.25c0.23,8.11,4.14,11.51,9.87,11.51
		c6.07,0,10.09-3.86,10.09-11.79C-298.84,338.4-301.45,335.56-304.8,333.07z"/>
	<path class="st0" d="M-377.31,254.76h-14.06c-2.5,0-3.44,0.94-3.44,3.44c0,16.09-0.62,21.4-6.25,21.4c-6.4,0-6.4-6.87-6.4-19.53
		V221.8c0-13.75,0.47-19.53,6.4-19.53c5.62,0,5.94,5.16,5.94,16.56c0,2.5,0.94,3.44,3.44,3.44h14.06c2.5,0,3.44-0.94,3.44-3.44
		c-0.31-15-3.12-24.05-8.12-28.9c-4.37-4.22-11.25-6.72-19.37-6.72c-7.97,0-14.53,2.34-19.06,6.87c-5.78,5.78-8.28,15.78-8.28,36.08
		v29.52c0,19.21,2.19,30.15,8.28,36.24c4.37,4.37,10.62,6.72,19.37,6.72c8.44,0,14.53-2.19,18.9-6.72c5-5.15,8.43-14.53,8.59-33.74
		C-373.87,255.7-374.81,254.76-377.31,254.76z"/>
	<path class="st0" d="M-243.6,293.34c0,2.5,0.94,3.44,3.44,3.44h22.02c19.06,0,29.21-8.43,29.21-32.49v-0.31
		c0-12.34-4.53-21.4-16.4-24.06v-0.62c12.18-3.91,15.31-12.96,15.31-25.3v-0.31c0-17.5-9.84-28.58-28.74-28.58h-21.4
		c-2.5,0-3.44,0.94-3.44,3.44l0.16,7.97v88.88L-243.6,293.34z M-222.35,203.37c0-0.47,0.16-0.62,0.62-0.62h0.94
		c8.12,0,10.31,4.84,10.31,12.65v0.47c0,8.12-2.19,14.53-9.84,14.53h-1.09c-0.62,0-0.94-0.31-0.94-0.94V203.37z M-222.35,250.07
		c0-0.47,0.16-0.62,0.78-0.62h0.94c7.5,0,10.31,5.47,10.31,14.06v0.47c0,10.47-2.5,14.37-10.62,14.37h-0.78
		c-0.47,0-0.62-0.16-0.62-0.62V250.07z"/>
	<path class="st0" d="M-412.76,317.59c-1.59-1.42-3.86-2.32-7.14-2.32h-7.94c-0.91,0-1.25,0.34-1.25,1.25l0.06,2.89v32.26
		l-0.06,2.89c0,0.91,0.34,1.25,1.25,1.25h7.94c3.29,0,5.56-0.91,7.14-2.33c2.27-1.98,3.52-5.39,3.52-11.34v-13.21
		C-409.25,322.97-410.49,319.57-412.76,317.59z M-417.01,342.82c0,3.18-0.17,6.18-3.35,6.18h-0.51c-0.34,0-0.45-0.11-0.45-0.45
		v-26.08c0-0.28,0.11-0.4,0.45-0.4h0.51c3.35,0,3.35,3.35,3.35,6.18V342.82z"/>
	<path class="st0" d="M-355.6,316.45c-0.23-0.85-0.62-1.19-1.53-1.19h-3.57c-0.91,0-1.3,0.34-1.53,1.19l-8.16,38.16
		c-0.23,0.79,0.11,1.19,0.96,1.19h4.88c0.91,0,1.3-0.34,1.47-1.25l0.74-4.08c0.06-0.34,0.17-0.45,0.51-0.45h5.5
		c0.34,0,0.45,0.11,0.51,0.45l0.74,4.08c0.17,0.91,0.57,1.25,1.47,1.25h5.33c0.85,0,1.19-0.4,0.96-1.19L-355.6,316.45z
		 M-357.47,343.27h-3.17c-0.34,0-0.45-0.11-0.4-0.45l1.25-7.09c0.28-1.65,0.51-3.74,0.68-4.93h0.17c0.17,1.19,0.4,3.29,0.68,4.93
		l1.19,7.09C-357.02,343.16-357.13,343.27-357.47,343.27z"/>
	<path class="st0" d="M-386.62,348.83h-6.58c-0.34,0-0.45-0.11-0.45-0.45v-9.01c0-0.34,0.11-0.45,0.45-0.45h4.82
		c0.91,0,1.25-0.34,1.25-1.25v-5.22c0-0.91-0.34-1.25-1.25-1.25h-4.82c-0.34,0-0.45-0.11-0.45-0.45v-8.17
		c0-0.34,0.11-0.45,0.45-0.45h6.41c0.91,0,1.25-0.34,1.25-1.25v-4.37c0-0.91-0.34-1.25-1.25-1.25h-13.38
		c-0.91,0-1.25,0.34-1.25,1.25l0.06,2.89v32.26l-0.06,2.89c0,0.91,0.34,1.25,1.25,1.25h13.55c0.91,0,1.25-0.34,1.25-1.25v-4.48
		C-385.37,349.17-385.71,348.83-386.62,348.83z"/>
	<path class="st0" d="M-258.41,316.51c0.06-0.91-0.28-1.25-1.19-1.25h-4.93c-0.91,0-1.25,0.34-1.19,1.25l0.06,2.89v8.9
		c0,1.42,0.06,3.4,0.11,4.76h-0.23c-0.62-1.53-0.68-1.98-1.64-4.2l-5.1-12.47c-0.34-0.85-0.79-1.13-1.7-1.13h-2.55
		c-0.91,0-1.25,0.34-1.25,1.25l0.06,2.89v32.26l-0.06,2.89c0,0.91,0.34,1.25,1.25,1.25h4.82c0.91,0,1.25-0.34,1.25-1.25l-0.06-2.89
		v-9.13c0-1.47-0.06-3.46-0.17-4.76h0.23c0.28,0.57,0.85,2.38,1.42,3.57l5.56,13.32c0.4,0.85,0.85,1.13,1.76,1.13h2.38
		c0.91,0,1.25-0.34,1.19-1.25l-0.06-2.89V319.4L-258.41,316.51z"/>
	<path class="st0" d="M-160.71,348.83h-6.58c-0.34,0-0.45-0.11-0.45-0.45v-9.01c0-0.34,0.11-0.45,0.45-0.45h4.82
		c0.91,0,1.25-0.34,1.25-1.25v-5.22c0-0.91-0.34-1.25-1.25-1.25h-4.82c-0.34,0-0.45-0.11-0.45-0.45v-8.17
		c0-0.34,0.11-0.45,0.45-0.45h6.41c0.91,0,1.25-0.34,1.25-1.25v-4.37c0-0.91-0.34-1.25-1.25-1.25h-13.38
		c-0.91,0-1.25,0.34-1.25,1.25l0.06,2.89v32.26l-0.06,2.89c0,0.91,0.34,1.25,1.25,1.25h13.55c0.91,0,1.25-0.34,1.25-1.25v-4.48
		C-159.46,349.17-159.8,348.83-160.71,348.83z"/>
	<path class="st0" d="M-259.37,185.09h-14.68c-2.5,0-3.44,0.94-3.44,3.44v81.07c0,6.4-1.41,10-5.94,10c-4.53,0-5.94-3.59-5.94-10
		v-73.1l0.16-7.97c0-2.5-0.94-3.44-3.44-3.44h-14.68c-2.5,0-3.44,0.94-3.44,3.44l0.16,7.97v72.48c0,19.06,10,29.68,27.18,29.68
		c17.03,0,27.34-10.62,27.34-29.68V196.5l0.16-7.97C-255.94,186.03-256.87,185.09-259.37,185.09z"/>
	<path class="st0" d="M-134.88,293.34V281c0-2.5-0.94-3.44-3.44-3.44h-18.12c-0.94,0-1.25-0.31-1.25-1.25v-24.84
		c0-0.94,0.31-1.25,1.25-1.25h13.28c2.5,0,3.44-0.94,3.44-3.44v-14.37c0-2.5-0.94-3.44-3.44-3.44h-13.28
		c-0.94,0-1.25-0.31-1.25-1.25v-22.49c0-0.94,0.31-1.25,1.25-1.25h17.65c2.5,0,3.44-0.94,3.44-3.44v-12.03
		c0-2.5-0.94-3.44-3.44-3.44h-36.86c-2.5,0-3.44,0.94-3.44,3.44l0.16,7.97v88.88l-0.16,7.97c0,2.5,0.94,3.44,3.44,3.44h37.33
		C-135.82,296.78-134.88,295.84-134.88,293.34z"/>
	<path class="st0" d="M-140.75,333.07l-2.89-2.15c-2.15-1.59-3.29-3.35-3.29-5.78c0-2.1,0.85-3.4,2.32-3.4
		c1.25,0,1.98,1.02,2.1,3.97c0.06,0.91,0.45,1.25,1.36,1.25h4.88c0.91,0,1.25-0.34,1.25-1.25c-0.17-8.11-3.69-11.17-9.3-11.17
		c-6.12,0-10.15,3.97-10.15,11.28c0,5.22,1.93,8.56,6.12,11.74l2.61,1.98c2.61,1.98,3.29,4.31,3.29,6.52c0,2.49-0.91,3.29-2.1,3.29
		c-1.53,0-2.38-1.3-2.49-4.31c-0.06-0.91-0.45-1.25-1.36-1.25h-5.16c-0.85,0-1.19,0.34-1.19,1.25c0.23,8.11,4.14,11.51,9.87,11.51
		c6.07,0,10.09-3.86,10.09-11.79C-134.8,338.4-137.4,335.56-140.75,333.07z"/>
	<path class="st0" d="M-238.45,316.45c-0.23-0.85-0.62-1.19-1.53-1.19h-3.57c-0.91,0-1.3,0.34-1.53,1.19l-8.16,38.16
		c-0.23,0.79,0.11,1.19,0.96,1.19h4.88c0.91,0,1.3-0.34,1.47-1.25l0.74-4.08c0.06-0.34,0.17-0.45,0.51-0.45h5.5
		c0.34,0,0.45,0.11,0.51,0.45l0.74,4.08c0.17,0.91,0.57,1.25,1.47,1.25h5.33c0.85,0,1.19-0.4,0.96-1.19L-238.45,316.45z
		 M-240.32,343.27h-3.17c-0.34,0-0.45-0.11-0.4-0.45l1.25-7.09c0.28-1.65,0.51-3.74,0.68-4.93h0.17c0.17,1.19,0.4,3.29,0.68,4.93
		l1.19,7.09C-239.87,343.16-239.98,343.27-240.32,343.27z"/>
	<path class="st0" d="M-205.45,316.51c0.06-0.91-0.28-1.25-1.19-1.25h-4.93c-0.91,0-1.25,0.34-1.19,1.25l0.06,2.89v8.9
		c0,1.42,0.06,3.4,0.11,4.76h-0.23c-0.62-1.53-0.68-1.98-1.64-4.2l-5.1-12.47c-0.34-0.85-0.79-1.13-1.7-1.13h-2.55
		c-0.91,0-1.25,0.34-1.25,1.25l0.06,2.89v32.26l-0.06,2.89c0,0.91,0.34,1.25,1.25,1.25h4.82c0.91,0,1.25-0.34,1.25-1.25l-0.06-2.89
		v-9.13c0-1.47-0.06-3.46-0.17-4.76h0.23c0.28,0.57,0.85,2.38,1.42,3.57l5.56,13.32c0.4,0.85,0.85,1.13,1.76,1.13h2.38
		c0.91,0,1.25-0.34,1.19-1.25l-0.06-2.89V319.4L-205.45,316.51z"/>
	<path class="st0" d="M-182.43,315.26h-16.1c-0.91,0-1.25,0.34-1.25,1.25v4.37c0,0.91,0.34,1.25,1.25,1.25h3.8
		c0.34,0,0.45,0.11,0.45,0.45v29.09l-0.06,2.89c0,0.91,0.34,1.25,1.25,1.25h5.33c0.91,0,1.25-0.34,1.25-1.25l-0.06-2.89v-29.09
		c0-0.34,0.11-0.45,0.45-0.45h3.69c0.91,0,1.25-0.34,1.25-1.25v-4.37C-181.18,315.6-181.52,315.26-182.43,315.26z"/>
	<path class="st1" d="M-241.12,335.73c-0.28-1.65-0.51-3.74-0.68-4.93h-0.17c-0.17,1.19-0.4,3.29-0.68,4.93l-1.25,7.09
		c-0.06,0.34,0.06,0.45,0.4,0.45h3.17c0.34,0,0.45-0.11,0.4-0.45L-241.12,335.73z"/>
	<path class="st1" d="M-420.36,322.07h-0.51c-0.34,0-0.45,0.11-0.45,0.4v26.08c0,0.34,0.11,0.45,0.45,0.45h0.51
		c3.17,0,3.35-3.01,3.35-6.18v-14.57C-417.01,325.41-417.01,322.07-420.36,322.07z"/>
	<path class="st1" d="M-358.27,335.73c-0.28-1.65-0.51-3.74-0.68-4.93h-0.17c-0.17,1.19-0.4,3.29-0.68,4.93l-1.25,7.09
		c-0.06,0.34,0.06,0.45,0.4,0.45h3.17c0.34,0,0.45-0.11,0.4-0.45L-358.27,335.73z"/>
	<path class="st1" d="M-221.42,230.39h1.09c7.65,0,9.84-6.4,9.84-14.53v-0.47c0-7.81-2.19-12.65-10.31-12.65h-0.94
		c-0.47,0-0.62,0.16-0.62,0.62v26.09C-222.35,230.08-222.04,230.39-221.42,230.39z"/>
	<path class="st1" d="M-221.73,278.35h0.78c8.12,0,10.62-3.91,10.62-14.37v-0.47c0-8.59-2.81-14.06-10.31-14.06h-0.94
		c-0.62,0-0.78,0.16-0.78,0.62v27.65C-222.35,278.19-222.2,278.35-221.73,278.35z"/>
	<path class="st1" d="M-112.94,150.13h-338.02c-3.39,0-6.14,2.75-6.14,6.14v227.21c0,3.39,2.75,6.14,6.14,6.14h338.02
		c3.39,0,6.14-2.75,6.14-6.14V156.27C-106.8,152.88-109.54,150.13-112.94,150.13z M-243.6,188.53c0-2.5,0.94-3.44,3.44-3.44h21.4
		c18.9,0,28.74,11.09,28.74,28.58v0.31c0,12.34-3.12,21.4-15.31,25.3v0.62c11.87,2.66,16.4,11.72,16.4,24.06v0.31
		c0,24.06-10.15,32.49-29.21,32.49h-22.02c-2.5,0-3.44-0.94-3.44-3.44l0.16-7.97V196.5L-243.6,188.53z M-409.25,342.14
		c0,5.95-1.25,9.36-3.52,11.34c-1.59,1.42-3.86,2.33-7.14,2.33h-7.94c-0.91,0-1.25-0.34-1.25-1.25l0.06-2.89V319.4l-0.06-2.89
		c0-0.91,0.34-1.25,1.25-1.25h7.94c3.29,0,5.56,0.91,7.14,2.32c2.27,1.98,3.52,5.39,3.52,11.34V342.14z M-385.37,354.55
		c0,0.91-0.34,1.25-1.25,1.25h-13.55c-0.91,0-1.25-0.34-1.25-1.25l0.06-2.89V319.4l-0.06-2.89c0-0.91,0.34-1.25,1.25-1.25h13.38
		c0.91,0,1.25,0.34,1.25,1.25v4.37c0,0.91-0.34,1.25-1.25,1.25h-6.41c-0.34,0-0.45,0.11-0.45,0.45v8.17c0,0.34,0.11,0.45,0.45,0.45
		h4.82c0.91,0,1.25,0.34,1.25,1.25v5.22c0,0.91-0.34,1.25-1.25,1.25h-4.82c-0.34,0-0.45,0.11-0.45,0.45v9.01
		c0,0.34,0.11,0.45,0.45,0.45h6.58c0.91,0,1.25,0.34,1.25,1.25V354.55z M-382.46,291.94c-4.37,4.53-10.47,6.72-18.9,6.72
		c-8.75,0-15-2.34-19.37-6.72c-6.09-6.09-8.28-17.03-8.28-36.24v-29.52c0-20.31,2.5-30.3,8.28-36.08
		c4.53-4.53,11.09-6.87,19.06-6.87c8.12,0,15,2.5,19.37,6.72c5,4.84,7.81,13.9,8.12,28.9c0,2.5-0.94,3.44-3.44,3.44h-14.06
		c-2.5,0-3.44-0.94-3.44-3.44c0-11.4-0.31-16.56-5.94-16.56c-5.94,0-6.4,5.78-6.4,19.53v38.27c0,12.65,0,19.53,6.4,19.53
		c5.62,0,6.25-5.31,6.25-21.4c0-2.5,0.94-3.44,3.44-3.44h14.06c2.5,0,3.44,0.94,3.44,3.44
		C-374.03,277.41-377.46,286.78-382.46,291.94z M-348.29,355.8h-5.33c-0.91,0-1.3-0.34-1.47-1.25l-0.74-4.08
		c-0.06-0.34-0.17-0.45-0.51-0.45h-5.5c-0.34,0-0.45,0.11-0.51,0.45l-0.74,4.08c-0.17,0.91-0.57,1.25-1.47,1.25h-4.88
		c-0.85,0-1.19-0.4-0.96-1.19l8.16-38.16c0.23-0.85,0.62-1.19,1.53-1.19h3.57c0.91,0,1.3,0.34,1.53,1.19l8.28,38.16
		C-347.1,355.4-347.44,355.8-348.29,355.8z M-333.49,356.54c-5.73,0-9.64-3.4-9.87-11.51c0-0.91,0.34-1.25,1.19-1.25h5.16
		c0.91,0,1.3,0.34,1.36,1.25c0.11,3,0.96,4.31,2.49,4.31c1.19,0,2.1-0.79,2.1-3.29c0-2.21-0.68-4.54-3.29-6.52l-2.61-1.98
		c-4.2-3.17-6.12-6.52-6.12-11.74c0-7.31,4.03-11.28,10.15-11.28c5.61,0,9.13,3.06,9.3,11.17c0,0.91-0.34,1.25-1.25,1.25h-4.88
		c-0.91,0-1.3-0.34-1.36-1.25c-0.11-2.95-0.85-3.97-2.1-3.97c-1.47,0-2.32,1.3-2.32,3.4c0,2.44,1.13,4.2,3.29,5.78l2.89,2.15
		c3.35,2.49,5.95,5.33,5.95,11.68C-323.4,352.68-327.42,356.54-333.49,356.54z M-319.67,293.34c0,2.5-0.94,3.44-3.44,3.44h-37.18
		c-2.5,0-3.44-0.94-3.44-3.44l0.16-7.97V196.5l-0.16-7.97c0-2.5,0.94-3.44,3.44-3.44h14.68c2.5,0,3.44,0.94,3.44,3.44l-0.16,7.97
		v79.82c0,0.94,0.31,1.25,1.25,1.25h17.96c2.5,0,3.44,0.94,3.44,3.44V293.34z M-308.94,356.54c-5.73,0-9.64-3.4-9.87-11.51
		c0-0.91,0.34-1.25,1.19-1.25h5.16c0.91,0,1.3,0.34,1.36,1.25c0.11,3,0.96,4.31,2.49,4.31c1.19,0,2.1-0.79,2.1-3.29
		c0-2.21-0.68-4.54-3.29-6.52l-2.61-1.98c-4.2-3.17-6.12-6.52-6.12-11.74c0-7.31,4.03-11.28,10.15-11.28c5.61,0,9.13,3.06,9.3,11.17
		c0,0.91-0.34,1.25-1.25,1.25h-4.88c-0.91,0-1.3-0.34-1.36-1.25c-0.11-2.95-0.85-3.97-2.1-3.97c-1.47,0-2.32,1.3-2.32,3.4
		c0,2.44,1.13,4.2,3.29,5.78l2.89,2.15c3.35,2.49,5.95,5.33,5.95,11.68C-298.84,352.68-302.87,356.54-308.94,356.54z
		 M-285.29,354.55c0,0.91-0.34,1.25-1.25,1.25h-5.33c-0.91,0-1.25-0.34-1.25-1.25l0.06-2.89V319.4l-0.06-2.89
		c0-0.91,0.34-1.25,1.25-1.25h5.33c0.91,0,1.25,0.34,1.25,1.25l-0.06,2.89v32.26L-285.29,354.55z M-258.41,354.55
		c0.06,0.91-0.28,1.25-1.19,1.25h-2.38c-0.91,0-1.36-0.28-1.76-1.13l-5.56-13.32c-0.57-1.19-1.13-3-1.42-3.57h-0.23
		c0.11,1.3,0.17,3.29,0.17,4.76v9.13l0.06,2.89c0,0.91-0.34,1.25-1.25,1.25h-4.82c-0.91,0-1.25-0.34-1.25-1.25l0.06-2.89V319.4
		l-0.06-2.89c0-0.91,0.34-1.25,1.25-1.25h2.55c0.91,0,1.36,0.28,1.7,1.13l5.1,12.47c0.96,2.21,1.02,2.66,1.64,4.2h0.23
		c-0.06-1.36-0.11-3.34-0.11-4.76v-8.9l-0.06-2.89c-0.06-0.91,0.28-1.25,1.19-1.25h4.93c0.91,0,1.25,0.34,1.19,1.25l-0.06,2.89
		v32.26L-258.41,354.55z M-256.09,196.5v72.48c0,19.06-10.31,29.68-27.34,29.68c-17.18,0-27.18-10.62-27.18-29.68V196.5l-0.16-7.97
		c0-2.5,0.94-3.44,3.44-3.44h14.68c2.5,0,3.44,0.94,3.44,3.44l-0.16,7.97v73.1c0,6.4,1.41,10,5.94,10c4.53,0,5.94-3.59,5.94-10
		v-81.07c0-2.5,0.94-3.44,3.44-3.44h14.68c2.5,0,3.44,0.94,3.44,3.44L-256.09,196.5z M-231.14,355.8h-5.33
		c-0.91,0-1.3-0.34-1.47-1.25l-0.74-4.08c-0.06-0.34-0.17-0.45-0.51-0.45h-5.5c-0.34,0-0.45,0.11-0.51,0.45l-0.74,4.08
		c-0.17,0.91-0.57,1.25-1.47,1.25h-4.88c-0.85,0-1.19-0.4-0.96-1.19l8.16-38.16c0.23-0.85,0.62-1.19,1.53-1.19h3.57
		c0.91,0,1.3,0.34,1.53,1.19l8.28,38.16C-229.95,355.4-230.29,355.8-231.14,355.8z M-205.45,354.55c0.06,0.91-0.28,1.25-1.19,1.25
		h-2.38c-0.91,0-1.36-0.28-1.76-1.13l-5.56-13.32c-0.57-1.19-1.13-3-1.42-3.57h-0.23c0.11,1.3,0.17,3.29,0.17,4.76v9.13l0.06,2.89
		c0,0.91-0.34,1.25-1.25,1.25h-4.82c-0.91,0-1.25-0.34-1.25-1.25l0.06-2.89V319.4l-0.06-2.89c0-0.91,0.34-1.25,1.25-1.25h2.55
		c0.91,0,1.36,0.28,1.7,1.13l5.1,12.47c0.96,2.21,1.02,2.66,1.64,4.2h0.23c-0.06-1.36-0.11-3.34-0.11-4.76v-8.9l-0.06-2.89
		c-0.06-0.91,0.28-1.25,1.19-1.25h4.93c0.91,0,1.25,0.34,1.19,1.25l-0.06,2.89v32.26L-205.45,354.55z M-181.18,320.88
		c0,0.91-0.34,1.25-1.25,1.25h-3.69c-0.34,0-0.45,0.11-0.45,0.45v29.09l0.06,2.89c0,0.91-0.34,1.25-1.25,1.25h-5.33
		c-0.91,0-1.25-0.34-1.25-1.25l0.06-2.89v-29.09c0-0.34-0.11-0.45-0.45-0.45h-3.8c-0.91,0-1.25-0.34-1.25-1.25v-4.37
		c0-0.91,0.34-1.25,1.25-1.25h16.1c0.91,0,1.25,0.34,1.25,1.25V320.88z M-179.08,293.34l0.16-7.97V196.5l-0.16-7.97
		c0-2.5,0.94-3.44,3.44-3.44h36.86c2.5,0,3.44,0.94,3.44,3.44v12.03c0,2.5-0.94,3.44-3.44,3.44h-17.65c-0.94,0-1.25,0.31-1.25,1.25
		v22.49c0,0.94,0.31,1.25,1.25,1.25h13.28c2.5,0,3.44,0.94,3.44,3.44v14.37c0,2.5-0.94,3.44-3.44,3.44h-13.28
		c-0.94,0-1.25,0.31-1.25,1.25v24.84c0,0.94,0.31,1.25,1.25,1.25h18.12c2.5,0,3.44,0.94,3.44,3.44v12.34c0,2.5-0.94,3.44-3.44,3.44
		h-37.33C-178.15,296.78-179.08,295.84-179.08,293.34z M-159.46,354.55c0,0.91-0.34,1.25-1.25,1.25h-13.55
		c-0.91,0-1.25-0.34-1.25-1.25l0.06-2.89V319.4l-0.06-2.89c0-0.91,0.34-1.25,1.25-1.25h13.38c0.91,0,1.25,0.34,1.25,1.25v4.37
		c0,0.91-0.34,1.25-1.25,1.25h-6.41c-0.34,0-0.45,0.11-0.45,0.45v8.17c0,0.34,0.11,0.45,0.45,0.45h4.82c0.91,0,1.25,0.34,1.25,1.25
		v5.22c0,0.91-0.34,1.25-1.25,1.25h-4.82c-0.34,0-0.45,0.11-0.45,0.45v9.01c0,0.34,0.11,0.45,0.45,0.45h6.58
		c0.91,0,1.25,0.34,1.25,1.25V354.55z M-144.89,356.54c-5.73,0-9.64-3.4-9.87-11.51c0-0.91,0.34-1.25,1.19-1.25h5.16
		c0.91,0,1.3,0.34,1.36,1.25c0.11,3,0.96,4.31,2.49,4.31c1.19,0,2.1-0.79,2.1-3.29c0-2.21-0.68-4.54-3.29-6.52l-2.61-1.98
		c-4.2-3.17-6.12-6.52-6.12-11.74c0-7.31,4.03-11.28,10.15-11.28c5.61,0,9.13,3.06,9.3,11.17c0,0.91-0.34,1.25-1.25,1.25h-4.88
		c-0.91,0-1.3-0.34-1.36-1.25c-0.11-2.95-0.85-3.97-2.1-3.97c-1.47,0-2.32,1.3-2.32,3.4c0,2.44,1.13,4.2,3.29,5.78l2.89,2.15
		c3.35,2.49,5.95,5.33,5.95,11.68C-134.8,352.68-138.82,356.54-144.89,356.54z"/>
</g>
</svg>
