<?xml version="1.0" encoding="utf-8"?>
<!-- Generator: Adobe Illustrator 26.3.1, SVG Export Plug-In . SVG Version: 6.00 Build 0)  -->
<svg version="1.1" id="Camada_1" xmlns="http://www.w3.org/2000/svg" xmlns:xlink="http://www.w3.org/1999/xlink" x="0px" y="0px"
	 viewBox="0 0 24 24" style="enable-background:new 0 0 24 24;" xml:space="preserve">
<style type="text/css">
	.st0{fill:#FFFFFF;}
	.st1{fill:#3C5F75;}
</style>
<circle class="st0" cx="11.97" cy="11.88" r="10.26"/>
<path class="st1" d="M12.03,6.17c-3.18,0-5.77,2.59-5.77,5.77c0,1.3,0.38,2.27,1.02,3.29L6.7,17.35l2.18-0.57
	c0.98,0.58,1.91,0.93,3.15,0.93c3.18,0,5.77-2.59,5.77-5.77C17.8,8.76,15.22,6.17,12.03,6.17z M15.42,14.42
	c-0.14,0.4-0.84,0.77-1.17,0.82c-0.3,0.05-0.68,0.06-1.09-0.07c-0.25-0.08-0.57-0.19-0.99-0.36c-1.74-0.75-2.87-2.5-2.96-2.62
	C9.12,12.07,8.5,11.25,8.5,10.4s0.45-1.27,0.61-1.45s0.35-0.22,0.46-0.22L9.9,8.74c0.11,0.01,0.25-0.04,0.39,0.3
	c0.14,0.35,0.49,1.2,0.53,1.29s0.07,0.19,0.01,0.3s-0.09,0.19-0.17,0.29l-0.26,0.3c-0.09,0.09-0.18,0.18-0.08,0.35
	s0.45,0.74,0.96,1.2c0.66,0.59,1.22,0.77,1.39,0.86s0.27,0.07,0.38-0.04c0.1-0.12,0.43-0.51,0.55-0.68
	c0.12-0.17,0.23-0.15,0.39-0.09s1.01,0.48,1.18,0.56s0.29,0.13,0.33,0.2C15.57,13.66,15.57,14.01,15.42,14.42z M12,0
	C5.37,0,0,5.37,0,12s5.37,12,12,12s12-5.37,12-12S18.63,0,12,0z M12.03,18.88c-1.16,0-2.31-0.29-3.32-0.84L5.03,19l0.98-3.6
	c-0.61-1.05-0.93-2.25-0.93-3.47C5.09,8.11,8.2,5,12.03,5c1.86,0,3.6,0.72,4.91,2.03c1.31,1.31,2.03,3.05,2.03,4.91
	C18.97,15.77,15.85,18.88,12.03,18.88z"/>
</svg>
