<?xml version="1.0" encoding="utf-8"?>
<!-- Generator: Adobe Illustrator 26.3.1, SVG Export Plug-In . SVG Version: 6.00 Build 0)  -->
<svg version="1.1" id="Layer_1" xmlns="http://www.w3.org/2000/svg" xmlns:xlink="http://www.w3.org/1999/xlink" x="0px" y="0px"
	 viewBox="0 0 841.89 595.28" style="enable-background:new 0 0 841.89 595.28;" xml:space="preserve">
<style type="text/css">
	.st0{fill:#FEDFC7;}
	.st1{fill:#E56837;}
	.st2{fill:#E88539;}
	.st3{fill:#F26531;}
	.st4{fill:#F68833;}
	.st5{fill:#FDD1B0;}
	.st6{fill:#003740;}
	.st7{fill:#042F5F;}
	.st8{fill:#003042;}
	.st9{fill:#4A81C2;}
	.st10{fill:#3069B3;}
</style>
<g>
	<g>
		<circle class="st0" cx="517.4" cy="186.32" r="91.15"/>
		<path class="st1" d="M517.4,141.06c24.65,0,44.63,19.98,44.63,44.63c0,0.98-0.04,1.94-0.1,2.9c5.69,2.38,12.05,4.59,17,5.68
			c0.39-2.81,0.6-5.67,0.6-8.58c0-34.32-27.82-62.13-62.13-62.13c-32.83,0-59.69,25.47-61.96,57.72c5.3-3.47,12.62-6.6,19.18-8.3
			C480.1,154.52,497.18,141.06,517.4,141.06z"/>
		<path class="st2" d="M494.26,175.62c3.89-8.93,12.79-15.17,23.15-15.17c13.23,0,24.07,10.18,25.15,23.13
			c3.13-1.09,6.09-1.52,10.44,0.82c2.45,1.33,5.58,2.79,8.94,4.19c0.06-0.96,0.1-1.93,0.1-2.9c0-24.65-19.98-44.63-44.63-44.63
			c-20.23,0-37.3,13.46-42.78,31.91c1.49-0.39,2.95-0.71,4.33-0.93C484.63,171.11,489.33,173.25,494.26,175.62z"/>
		<circle class="st3" cx="517.74" cy="186.06" r="61.19"/>
		<circle class="st4" cx="517.43" cy="185.37" r="42.66"/>
		<circle class="st5" cx="517.43" cy="185.37" r="27.35"/>
		<path class="st6" d="M561.93,188.59c-3.36-1.41-6.49-2.87-8.94-4.19c-4.35-2.35-7.31-1.91-10.44-0.82
			c-2.54,0.88-5.18,2.18-8.78,2.78c-12.75,2.12-23.77-4.1-29.49-6.25c-3.36-1.26-7.01-3.03-10.02-4.48
			c-4.93-2.36-9.63-4.51-15.3-3.58c-1.38,0.22-2.84,0.55-4.33,0.93c-6.56,1.7-13.88,4.84-19.18,8.3c-0.1,1.46-0.17,2.93-0.17,4.41
			c0,5.91,0.84,11.62,2.38,17.04h18.49h22.63h37.24h22.63h18.49c0.78-2.75,1.38-5.57,1.78-8.45
			C573.98,193.18,567.62,190.97,561.93,188.59z"/>
		<path class="st7" d="M558.66,202.73h-22.63h-37.24h-22.63h-18.49c1.38,4.84,3.32,9.43,5.77,13.71h21.65h64.66h21.65
			c2.44-4.28,4.39-8.87,5.77-13.71H558.66z"/>
		<g>
			<polygon class="st8" points="510.08,173.62 513.53,172.6 517.71,174.63 521.54,172.6 525.65,173.62 521.54,170.77 517.71,173.36 
				513.53,170.77 			"/>
			<path class="st8" d="M485,172.17c-7.04-0.09-17.76,5.15-2.98,12.25c18.6,8.93,10.81,15.51,5.4,18.31h57.97
				c0,0-24.32-16.06-30.89-18.41C507.26,181.73,485,172.17,485,172.17z"/>
		</g>
		<g>
			<path class="st8" d="M434.04,183.37l0.01-0.84l0.07-0.84l-0.04-0.84l0.19-0.32c0.05-0.19,0.09-0.29,0.12-0.31
				c0.06-0.04,0.1-0.06,0.13-0.06c0.02,0,0.05,0.01,0.1,0.04c0.09,0.04,0.36,0.1,0.82,0.18l0.95,0.19l0.8,0.05l0.97,0.09l0.98-0.04
				l0.97,0.13l0.98-0.03l0.97,0.06l0.97,0.05l0.97,0.12l0.98,0.03l0.97,0.1l0.32-0.12c0.16-0.03,0.25-0.05,0.27-0.07
				c0.04-0.04,0.07-0.09,0.09-0.15c0.08-0.17,0.11-0.26,0.11-0.27c0-0.04-0.03-0.12-0.08-0.25c-0.03-0.08-0.05-0.12-0.05-0.12
				l0.12-1.38c0-0.05-0.06-0.17-0.18-0.35c-0.06-0.1-0.1-0.15-0.11-0.17l-0.11-0.53l-0.06-0.27c0-0.03,0.08-0.12,0.23-0.27
				c0.14-0.15,0.22-0.23,0.25-0.25c0.06-0.02,0.1-0.03,0.13-0.03c0.04,0,0.11,0.02,0.19,0.05c0.22,0.08,0.48,0.13,0.79,0.15
				c0.11,0,0.18,0.02,0.22,0.05c0.01,0.01,0.04,0.09,0.09,0.24c0.01,0.03,0.06,0.08,0.13,0.15l0.03,0.03l-0.2,1.01
				c0,0.01,0.02,0.1,0.07,0.29c0.03,0.12,0.04,0.25,0.03,0.41c-0.01,0.18-0.02,0.38-0.05,0.6c-0.06,0.55-0.1,0.89-0.1,1.01
				l-0.03,1.01l-0.1,1.53c0,0.1,0,0.27,0.01,0.5c0.01,0.25,0.02,0.38,0.01,0.39l-0.16,2.28c0,0.01,0.01,0.13,0.03,0.36
				c0.01,0.22,0.01,0.4,0.01,0.53c-0.02,0.41-0.1,0.7-0.25,0.88c-0.15,0.17-0.24,0.26-0.27,0.26l-0.53-0.04
				c-0.03,0-0.17,0.03-0.43,0.08c-0.07,0.02-0.12,0.03-0.17,0.02c-0.14,0-0.26-0.04-0.36-0.12c-0.07-0.05-0.11-0.18-0.11-0.38
				c0-0.12-0.01-0.21-0.04-0.29c-0.01-0.03-0.02-0.04-0.02-0.05c0-0.02,0.01-0.05,0.04-0.08c0.09-0.12,0.23-0.37,0.44-0.74
				c0.11-0.21,0.17-0.34,0.17-0.4c0-0.04-0.01-0.1-0.03-0.18c-0.04-0.12-0.06-0.19-0.06-0.21l0.11-0.86l-0.02-0.21l0.04-0.31
				c0-0.09-0.07-0.18-0.23-0.25c-0.09-0.04-0.5-0.12-1.22-0.21l-1.47-0.05c-0.1,0-0.3-0.03-0.62-0.07
				c-0.26-0.03-0.45-0.05-0.58-0.05c-0.11,0-0.24,0-0.39,0c-0.62,0.02-0.96,0.03-1.02,0.03c-0.08,0-0.4-0.04-0.94-0.1
				c-0.64-0.08-1.38-0.14-2.23-0.17c-0.25-0.01-0.48,0-0.69,0.03c-0.19,0.03-0.28,0.04-0.29,0.04l-1.43-0.14l-0.45,0.1l-0.18-0.04
				l-0.25,0.08l-0.2-0.18c-0.17-0.12-0.25-0.21-0.25-0.25C433.94,183.64,433.97,183.54,434.04,183.37z"/>
			<path class="st8" d="M434.42,193.54c0-0.05-0.03-0.18-0.09-0.39c-0.04-0.13-0.06-0.24-0.07-0.32c-0.01-0.12-0.01-0.36,0-0.73
				c0-0.24,0.04-0.38,0.1-0.43c0.08-0.06,0.15-0.1,0.21-0.1s0.15,0,0.27,0.02c0.33,0.06,0.71,0.07,1.12,0.03
				c0.12-0.01,0.26-0.04,0.43-0.07c0.2-0.04,0.3-0.06,0.3-0.06l1.48-0.02l0.98-0.17l1-0.04l0.97-0.21l1-0.05l1.12-0.22
				c0.01,0,0.3,0.01,0.85,0.03c0.14,0.01,0.27,0,0.39-0.01c0.2-0.02,0.4-0.06,0.59-0.14c0.33-0.11,0.5-0.17,0.54-0.18l1.23-0.08
				c0.02,0,0.15-0.09,0.38-0.25c0.03-0.02,0.04-0.04,0.06-0.04s0.05,0.01,0.09,0.02c0.03,0.02,0.11,0.03,0.24,0.04
				c0.27,0.01,0.43,0.2,0.47,0.58l0.06,0.84l0.19,0.82l0.02,0.83l0.09,0.37c-0.01,0.07-0.06,0.15-0.14,0.23
				c-0.11,0.11-0.19,0.16-0.24,0.17c-0.03,0-0.11-0.02-0.24-0.06c-0.4,0-0.92-0.01-1.56-0.03l-0.78,0.18l-1.01,0.03l-0.99,0.1
				l-0.99,0.07l-1.56,0.26c-0.03,0-0.17,0-0.41,0c-0.19-0.01-0.35-0.01-0.46,0c-0.12,0.01-0.29,0.04-0.53,0.09
				c-0.51,0.11-1.17,0.21-1.97,0.29l-0.77,0.12l-0.96,0.1c-0.4,0.19-0.63,0.29-0.69,0.29c-0.12,0.01-0.22,0-0.32-0.03
				c-0.04-0.01-0.1-0.1-0.16-0.28l-0.22-0.44L434.42,193.54z"/>
			<path class="st8" d="M449.09,197.7l0.13,0.95l0.25,1c0.1,0.44,0.13,0.79,0.08,1.06c-0.02,0.14-0.1,0.22-0.25,0.26
				c-0.05,0.01-0.14,0.01-0.27,0.01c-0.41-0.02-0.75,0-1.03,0.06l-1.08,0.27c-0.03,0.01-0.1,0.01-0.21,0.02
				c-0.54,0.02-0.84,0.04-0.9,0.06l-1.02,0.28l-0.96,0.13l-0.94,0.29l-0.96,0.14l-0.95,0.28l-0.97,0.07l-0.94,0.25l-0.7,0.14
				c-0.23,0.09-0.46,0.22-0.7,0.41c-0.11,0.09-0.16,0.17-0.15,0.22l0.26,0.94c0.01,0.03,0,0.17-0.02,0.42
				c-0.01,0.19,0,0.38,0.04,0.55c0.03,0.15,0.11,0.34,0.24,0.58l0.3,0.93l0.13,0.3c0.13,0.37,0.21,0.56,0.22,0.58
				c0.01,0.01,0.07,0.03,0.17,0.08l-0.01,0.3c0.01,0.22,0,0.35-0.02,0.37c-0.09,0.11-0.22,0.18-0.38,0.21
				c-0.04,0.01-0.32-0.03-0.85-0.11l-0.3-0.02l-0.13-0.13c-0.15-0.06-0.23-0.11-0.24-0.13c-0.01-0.04,0-0.13,0.02-0.27
				c0.01-0.07-0.02-0.27-0.1-0.6c-0.02-0.11-0.11-0.55-0.25-1.32l-0.37-1.27c-0.01-0.04-0.03-0.25-0.07-0.62
				c-0.02-0.23-0.04-0.42-0.08-0.57c-0.01-0.05-0.14-0.49-0.37-1.32c-0.08-0.29-0.13-0.49-0.16-0.61c-0.02-0.11-0.04-0.22-0.04-0.35
				c-0.01-0.26-0.02-0.4-0.02-0.42l-0.23-0.79c0.01-0.05,0.02-0.08,0.02-0.1c0-0.01,0.07-0.09,0.19-0.21
				c0.12-0.17,0.2-0.26,0.24-0.27c0.04-0.01,0.09-0.01,0.16,0c0.21,0.02,0.72-0.04,1.55-0.16l0.79-0.02l0.63-0.17l0.43-0.12
				c0.01,0,0.31-0.04,0.89-0.11c0.16-0.02,0.32-0.04,0.46-0.07c0.13-0.03,0.31-0.08,0.52-0.15c0.29-0.09,0.44-0.14,0.47-0.15
				l1.47-0.26l0.97-0.22l0.97-0.2l0.96-0.26c0.79-0.19,1.48-0.41,2.1-0.68c0.08-0.05,0.13-0.07,0.16-0.08
				c0.09-0.02,0.24,0.02,0.47,0.12c0.12,0.04,0.19,0.09,0.23,0.13C449.01,197.42,449.06,197.54,449.09,197.7z"/>
			<path class="st8" d="M444.79,216.51l-0.42-0.93l-0.5-1.25c-0.3-0.58-0.49-0.91-0.58-0.99c-0.07-0.07-0.18-0.07-0.33-0.02
				c-0.07,0.02-0.45,0.03-1.14,0.03l-0.45,0.12l-0.98,0.14l-0.12,0.13l-0.65,0.14l-0.17,0.17l-0.24-0.06l-0.22,0
				c-0.26-0.2-0.4-0.32-0.42-0.37l-0.2-0.78l-0.22-0.36c-0.06-0.15,0.11-0.31,0.51-0.48c0.04-0.02,0.24-0.02,0.59,0l0.91-0.1
				l0.71-0.04l0.72-0.19l0.68,0c0.64-0.12,0.99-0.19,1.05-0.2c0.06-0.01,0.66-0.05,1.8-0.14l0.97,0.01l0.69-0.06l0.99,0.01
				l0.97-0.13l0.88,0.09l0.99,0.04l0.97,0.08c0.54,0,0.83,0,0.85,0c0.03,0,0.1,0.03,0.21,0.08c0.07,0.03,0.16,0.05,0.28,0.05
				c0.07,0,0.12,0.04,0.15,0.12c0.02,0.06,0.04,0.14,0.06,0.24c0.03,0.18,0.1,0.41,0.21,0.67c0.11,0.25,0.21,0.45,0.32,0.59
				c0.05,0.07,0.08,0.12,0.1,0.15c0.05,0.11,0.05,0.25,0,0.41c-0.03,0.09-0.04,0.14-0.05,0.14l-0.29,0.21l-0.58,0.79
				c-0.52,0.54-0.88,0.94-1.07,1.2c-0.36,0.48-0.57,0.73-0.62,0.76l-0.7,0.69c-0.23,0.27-0.57,0.62-1.02,1.06
				c-0.17,0.17-0.4,0.41-0.67,0.72c-0.34,0.38-0.64,0.66-0.88,0.86c-0.05,0.04-0.28,0.27-0.7,0.68c-0.48,0.47-0.97,0.86-1.44,1.19
				c-0.27,0.18-0.62,0.49-1.07,0.91l-0.62,0.49l-0.25,0.27c-0.19,0.14-0.28,0.21-0.29,0.21c-0.07,0.03-0.14,0.03-0.22-0.01
				c-0.06-0.03-0.13-0.09-0.21-0.18c-0.27-0.29-0.42-0.49-0.47-0.59c-0.03-0.06-0.06-0.23-0.09-0.49c-0.03-0.2-0.07-0.38-0.13-0.52
				c-0.02-0.05-0.21-0.38-0.56-0.99c-0.04-0.05-0.06-0.09-0.07-0.1c-0.05-0.11-0.07-0.25-0.06-0.4c0.01-0.13,0.35-0.38,1.02-0.76
				c0.15-0.08,0.42-0.26,0.8-0.54c0.13-0.09,0.23-0.16,0.29-0.19c0.54-0.3,0.82-0.46,0.84-0.49l0.29-0.42l0.01-0.02
				c0.01,0,0.01-0.01,0.02-0.02c0.01-0.01,0.02-0.02,0.02-0.02c0.01,0,0.02,0,0.04,0c0.07,0.02,0.12,0.02,0.15,0
				c0.03-0.01,0.06-0.1,0.07-0.25c0.04-0.14,0.07-0.21,0.06-0.22l-0.44-0.61L444.79,216.51z M450.28,213.23
				c-0.04-0.05-0.07-0.09-0.08-0.11c0-0.01,0-0.04,0.02-0.11c0-0.01,0-0.02,0-0.03c-0.02-0.04-0.24-0.07-0.67-0.07l-0.98-0.07
				l-0.98,0.14l-0.31-0.03l-0.98,0.05l-0.99-0.01l-0.12,0.1c-0.15,0.12-0.2,0.23-0.17,0.32l0.07,0.12l0.4,0.96l0.44,0.94l0.37,0.98
				c0.16,0.23,0.28,0.33,0.37,0.29c0.01-0.01,0.04-0.02,0.09-0.06c0.02-0.01,0.07-0.03,0.14-0.06c0.07-0.04,0.12-0.06,0.13-0.08
				l0.66-0.74l0.31-0.23l0.66-0.73l0.26-0.12l0.64-0.75L450.28,213.23z M458.34,212.27l0.1,0.7c0.01,0.01,0.12,0.1,0.34,0.27
				c0.02,0.02,0.04,0.04,0.04,0.05c0.03,0.08,0.02,0.18-0.04,0.31c-0.04,0.08-0.1,0.16-0.19,0.25c-0.11,0.12-0.2,0.18-0.25,0.21
				c-0.13,0.05-0.27,0.05-0.43-0.01l-1.01-0.38c-0.79-0.22-1.46-0.44-1.99-0.63l-0.04-0.01l-0.13,0.09c-0.01,0-0.06-0.02-0.17-0.07
				c-0.05-0.02-0.1-0.1-0.16-0.22c-0.16-0.36-0.27-0.55-0.33-0.59c-0.03-0.04-0.05-0.06-0.06-0.08c-0.02-0.05-0.03-0.1-0.01-0.16
				c0.01-0.02,0.08-0.09,0.21-0.2l0.15-0.2c0.01,0,0.12,0.01,0.35,0.05l1.02,0.05l1,0.21c0.72,0.09,1.12,0.15,1.18,0.16
				c0.04,0.01,0.11,0.05,0.21,0.12L458.34,212.27z"/>
			<path class="st8" d="M446.25,229.05l-0.5-0.69l-0.37-0.75l-0.24-0.31c-0.01-0.06,0.02-0.14,0.09-0.25
				c0.07-0.11,0.1-0.2,0.08-0.26l0-0.02l0.02,0.01c0.05,0.04,0.14,0.04,0.27-0.03c0.16-0.09,0.34-0.17,0.55-0.25
				c0.43-0.16,0.68-0.27,0.73-0.31l0.78-0.57l0.91-0.41l1.13-0.89c0.04-0.02,0.21-0.1,0.53-0.23c0.36-0.16,0.93-0.5,1.71-1
				c0.12-0.08,0.41-0.24,0.88-0.48c0.17-0.09,0.27-0.14,0.31-0.17l1.14-0.78c0.04-0.03,0.12-0.07,0.23-0.12
				c0.26-0.12,0.4-0.19,0.4-0.19l1-0.87l0.35-0.29c0.05-0.07,0.08-0.12,0.09-0.12c0.01,0,0.17-0.04,0.49-0.12
				c0.01,0,0.08,0.04,0.2,0.12c0.26,0.17,0.41,0.29,0.47,0.38l0.29,0.72l0.5,0.83l0.48,0.85l0.7,0.95c0.02,0.03,0.13,0.26,0.35,0.69
				c0.08,0.19,0.24,0.47,0.48,0.85c0.26,0.43,0.43,0.74,0.52,0.91c0.14,0.29,0.26,0.75,0.36,1.37c0.07,0.38,0.09,0.59,0.07,0.64
				c-0.02,0.07-0.05,0.15-0.08,0.23c-0.1,0.75-0.19,1.19-0.25,1.32c-0.14,0.26-0.42,0.61-0.84,1.05c-0.22,0.23-0.34,0.35-0.37,0.37
				c-0.03,0.02-0.4,0.16-1.12,0.42c-0.5,0.17-0.95,0.24-1.35,0.19c-0.13-0.02-0.57-0.12-1.32-0.29c-0.19-0.03-0.37-0.11-0.55-0.22
				c-0.2-0.12-0.58-0.37-1.15-0.75c-0.19-0.12-0.44-0.33-0.75-0.61c-0.34-0.34-0.58-0.56-0.72-0.66c-0.3-0.24-0.48-0.41-0.54-0.49
				l-0.45-0.75l-0.18-0.14c-0.11-0.1-0.23-0.17-0.34-0.22c-0.12-0.05-0.2-0.06-0.24-0.03l-0.44,0.32c-0.04,0.03-0.19,0.08-0.44,0.17
				c-0.07,0.02-0.11,0.04-0.12,0.04l-0.89,0.63c-0.02,0.01-0.12,0.06-0.3,0.15c-0.12,0.06-0.24,0.13-0.35,0.21
				c-0.18,0.12-0.32,0.24-0.42,0.37c-0.17,0.22-0.28,0.35-0.33,0.39c-0.13,0.1-0.28,0.16-0.46,0.17c-0.28,0.02-0.47-0.04-0.56-0.18
				L446.25,229.05z M453.15,227.17c0.01,0.02,0.04,0.11,0.08,0.29c0.02,0.08,0.04,0.14,0.08,0.19c0.09,0.14,0.25,0.27,0.47,0.39
				c0.06,0.04,0.28,0.1,0.67,0.2c0.5,0.27,0.8,0.43,0.91,0.48c0.11,0.05,0.24,0.07,0.4,0.08c0.71,0.03,1.35-0.14,1.91-0.51
				c0.21-0.14,0.46-0.42,0.74-0.84c0.19-0.3,0.3-0.52,0.31-0.66c0.02-0.27,0.02-0.56-0.01-0.89c0-0.04-0.16-0.35-0.47-0.94
				c-0.18-0.32-0.32-0.55-0.43-0.7c-0.14-0.18-0.34-0.24-0.58-0.19c-0.44,0.09-0.7,0.17-0.79,0.22l-0.61,0.42l-0.49,0.31l-0.75,0.47
				l-0.79,0.42l-0.66,0.46c-0.08,0.04-0.17,0.08-0.27,0.11l-0.01,0l-0.01,0.03l-0.02,0.03l0.05,0.17c-0.04,0.1-0.06,0.15-0.05,0.16
				L453.15,227.17z"/>
			<path class="st8" d="M455.14,241.03c-0.03-0.04-0.13-0.12-0.3-0.26c-0.11-0.08-0.19-0.16-0.25-0.22
				c-0.08-0.09-0.22-0.28-0.43-0.59c-0.14-0.2-0.2-0.33-0.17-0.41c0.02-0.1,0.06-0.16,0.11-0.2c0.05-0.04,0.12-0.09,0.23-0.15
				c0.3-0.15,0.61-0.37,0.92-0.64c0.09-0.08,0.19-0.19,0.3-0.31c0.13-0.15,0.21-0.22,0.21-0.23l1.19-0.89l0.7-0.71l0.78-0.62
				l0.66-0.74l0.78-0.64l0.78-0.84c0.01-0.01,0.24-0.17,0.7-0.47c0.12-0.08,0.22-0.16,0.31-0.24c0.15-0.13,0.28-0.29,0.4-0.46
				c0.2-0.28,0.31-0.44,0.33-0.46l0.95-0.79c0.01-0.01,0.07-0.16,0.16-0.43c0.01-0.03,0.02-0.05,0.03-0.06
				c0.01-0.01,0.04-0.02,0.09-0.04c0.03,0,0.11-0.04,0.22-0.11c0.23-0.16,0.47-0.09,0.72,0.2l0.54,0.64l0.64,0.55l0.51,0.66
				l0.29,0.25c0.04,0.06,0.04,0.15,0.02,0.27c-0.03,0.15-0.06,0.25-0.1,0.28c-0.02,0.02-0.1,0.05-0.23,0.09
				c-0.32,0.23-0.75,0.53-1.27,0.9l-0.52,0.6l-0.79,0.62l-0.74,0.67l-0.76,0.65l-1.11,1.13c-0.03,0.02-0.14,0.1-0.33,0.24
				c-0.16,0.11-0.29,0.2-0.37,0.28s-0.21,0.21-0.37,0.38c-0.35,0.39-0.82,0.86-1.42,1.4l-0.55,0.56l-0.71,0.65
				c-0.21,0.39-0.34,0.6-0.39,0.64c-0.09,0.08-0.18,0.13-0.28,0.17c-0.04,0.02-0.14-0.03-0.3-0.13l-0.44-0.23L455.14,241.03z"/>
			<path class="st8" d="M466.46,246.01l-0.8-0.65l-1.01-0.89c-0.53-0.38-0.85-0.59-0.96-0.62c-0.09-0.03-0.2,0.02-0.3,0.13
				c-0.06,0.05-0.39,0.23-1,0.54l-0.34,0.31l-0.81,0.56l-0.05,0.17l-0.52,0.42l-0.07,0.23l-0.24,0.05l-0.19,0.1
				c-0.33-0.06-0.5-0.11-0.54-0.14l-0.53-0.61l-0.36-0.22c-0.12-0.11-0.04-0.33,0.24-0.66c0.03-0.03,0.2-0.12,0.53-0.26l0.77-0.49
				l0.61-0.36l0.56-0.49l0.61-0.31c0.52-0.4,0.8-0.61,0.85-0.65s0.57-0.34,1.54-0.93l0.87-0.43l0.59-0.36l0.89-0.43l0.81-0.55
				l0.83-0.31l0.9-0.41l0.91-0.36c0.48-0.24,0.74-0.37,0.77-0.38c0.03-0.01,0.1-0.02,0.22-0.02c0.08-0.01,0.17-0.03,0.27-0.08
				c0.06-0.03,0.13-0.01,0.19,0.04c0.05,0.04,0.1,0.1,0.16,0.19c0.1,0.15,0.27,0.32,0.49,0.5c0.21,0.18,0.39,0.3,0.55,0.38
				c0.08,0.04,0.13,0.07,0.15,0.09c0.09,0.08,0.16,0.2,0.18,0.37c0.02,0.1,0.02,0.15,0.02,0.15l-0.16,0.32l-0.16,0.97
				c-0.22,0.72-0.36,1.24-0.42,1.56c-0.11,0.59-0.18,0.91-0.22,0.96l-0.31,0.93c-0.09,0.35-0.23,0.82-0.44,1.41
				c-0.08,0.23-0.17,0.54-0.28,0.95c-0.14,0.49-0.27,0.88-0.4,1.16c-0.02,0.06-0.13,0.37-0.32,0.92c-0.22,0.63-0.48,1.2-0.76,1.71
				c-0.16,0.28-0.34,0.71-0.55,1.3l-0.33,0.71l-0.1,0.36c-0.1,0.21-0.16,0.31-0.16,0.32c-0.05,0.06-0.11,0.09-0.2,0.09
				c-0.06,0-0.15-0.02-0.27-0.07c-0.37-0.14-0.6-0.25-0.68-0.32c-0.05-0.04-0.15-0.18-0.3-0.4c-0.12-0.17-0.23-0.31-0.35-0.41
				c-0.04-0.04-0.36-0.25-0.94-0.63c-0.06-0.03-0.09-0.05-0.11-0.06c-0.09-0.08-0.17-0.19-0.23-0.33c-0.05-0.12,0.14-0.5,0.57-1.14
				c0.1-0.14,0.26-0.42,0.47-0.85c0.08-0.14,0.13-0.24,0.17-0.3c0.35-0.51,0.53-0.78,0.53-0.81l0.07-0.51l0.01-0.02
				c0,0,0.01-0.01,0.01-0.03c0-0.01,0.01-0.03,0.01-0.03c0,0,0.02-0.01,0.04-0.02c0.07-0.01,0.11-0.04,0.13-0.06
				c0.02-0.03,0.01-0.11-0.05-0.26c-0.02-0.14-0.04-0.22-0.04-0.22l-0.67-0.35L466.46,246.01z M469.89,240.61
				c-0.06-0.02-0.1-0.04-0.12-0.06c-0.01,0-0.02-0.04-0.03-0.11c0-0.01-0.01-0.02-0.02-0.03c-0.04-0.03-0.25,0.05-0.63,0.23
				l-0.91,0.38l-0.81,0.56l-0.3,0.11l-0.85,0.49l-0.89,0.43l-0.07,0.14c-0.08,0.18-0.08,0.3-0.01,0.36l0.12,0.07l0.78,0.68
				l0.81,0.65l0.77,0.71c0.24,0.14,0.4,0.17,0.46,0.09c0.01-0.01,0.03-0.04,0.05-0.09c0.01-0.02,0.05-0.05,0.1-0.12
				c0.05-0.07,0.08-0.11,0.08-0.13l0.25-0.95l0.17-0.35l0.26-0.95l0.18-0.23l0.23-0.96L469.89,240.61z"/>
			<path class="st8" d="M482.6,246.5c-0.08-0.05-0.42-0.12-1.01-0.22c-0.34-0.06-0.57-0.06-0.71-0.02c-0.21,0.08-0.45,0.21-0.72,0.4
				c-0.27,0.19-0.44,0.33-0.5,0.44c-0.11,0.19-0.17,0.58-0.18,1.17c-0.01,0.22,0.05,0.43,0.18,0.61c0.26,0.39,0.51,0.69,0.75,0.92
				c0.05,0.04,0.36,0.29,0.95,0.76l0.73,0.75l0.7,0.68l0.22,0.38c0.38,0.57,0.58,0.91,0.62,1.03c0.03,0.14,0.09,0.5,0.17,1.09
				c-0.03,0.37-0.05,0.59-0.06,0.65l-0.15,0.94l-0.23,0.3l-0.48,0.86c-0.11,0.19-0.41,0.46-0.9,0.82c-0.25,0.17-0.72,0.37-1.41,0.59
				c-0.35,0.11-0.56,0.16-0.61,0.16l-0.21,0c-0.67,0.09-1.02,0.13-1.04,0.13c-0.02,0-0.19-0.04-0.52-0.13
				c-0.17-0.04-0.38-0.09-0.64-0.16c-1.21-0.46-1.84-0.71-1.9-0.74c-0.09-0.05-0.29-0.21-0.58-0.46c-0.11-0.09-0.23-0.2-0.39-0.31
				c-0.66-0.53-1.09-0.93-1.28-1.21c-0.18-0.27-0.36-0.54-0.55-0.81c-0.35-0.34-0.49-0.55-0.44-0.62l0.08-0.1
				c-0.09-0.09-0.14-0.15-0.15-0.2c0-0.21,0.01-0.32,0.03-0.35l0.51-0.73l0.15-0.23c0.01,0,0.1,0,0.27,0.01
				c0.11,0.01,0.2,0.03,0.27,0.07c0.04,0.02,0.09,0.07,0.14,0.15c0.01,0.02,0.12,0.31,0.33,0.85c0.1,0.26,0.34,0.64,0.73,1.14
				c0.4,0.53,0.85,0.93,1.35,1.22c0.48,0.27,0.8,0.44,0.96,0.5c0.11,0.05,0.24,0.07,0.37,0.05c0.66,0.02,1.02,0.03,1.08,0.03
				c0.29-0.04,0.57-0.14,0.82-0.28c0.26-0.14,0.44-0.31,0.55-0.5c0.14-0.24,0.21-0.57,0.23-0.99c0.01-0.36-0.11-0.7-0.35-1.02
				c-0.17-0.21-0.39-0.43-0.67-0.65c-0.42-0.34-0.64-0.52-0.65-0.54c-0.19-0.2-0.39-0.4-0.59-0.6c-0.53-0.42-0.83-0.65-0.88-0.69
				c-0.05-0.05-0.13-0.15-0.24-0.3c-0.08-0.13-0.3-0.51-0.64-1.15c-0.19-0.33-0.3-0.54-0.34-0.64c-0.04-0.1-0.07-0.27-0.11-0.52
				c-0.06-0.4-0.08-0.69-0.06-0.86c0.03-0.26,0.18-0.68,0.44-1.26c0.13-0.29,0.21-0.47,0.26-0.55c0.3-0.52,0.79-0.99,1.47-1.39
				c0.48-0.28,0.96-0.45,1.42-0.5c1.13-0.15,1.72-0.19,1.78-0.13c0.07,0.07,0.12,0.16,0.15,0.27l0.96,0.21l0.88,0.45
				c0.13-0.04,0.21-0.04,0.24-0.03l0.74,0.53l0.46,0.32c0.47,0.46,0.83,0.8,1.08,1c0.35,0.29,0.56,0.55,0.61,0.77
				c0.04,0.12,0.08,0.19,0.11,0.23c0.07,0.07,0.11,0.1,0.11,0.11l-0.1,0.14c0.02,0.02,0.03,0.06,0.03,0.13l0.01,0.25
				c0,0.2-0.1,0.49-0.32,0.87c-0.1,0.18-0.23,0.3-0.39,0.35c-0.21,0.06-0.36,0.06-0.45,0.02c-0.06-0.03-0.18-0.34-0.35-0.91
				c-0.13-0.44-0.38-0.86-0.75-1.23c-0.1-0.1-0.42-0.39-0.97-0.85L482.6,246.5z"/>
			<path class="st8" d="M495.68,257.79c-0.03-0.01-0.11,0.01-0.22,0.04c-0.15,0.04-0.26,0.18-0.34,0.41
				c-0.03,0.09-0.21,0.68-0.55,1.77c0,0.01-0.03,0.22-0.08,0.63c-0.01,0.1-0.02,0.15-0.02,0.17l-0.37,1.46
				c-0.01,0.05-0.03,0.21-0.07,0.5c-0.05,0.45-0.08,0.71-0.08,0.78c0.01,0.23,0.01,0.36,0,0.38l-0.24,0.83l0.01,0.41
				c0,0.02-0.05,0.09-0.14,0.22c-0.06,0.08-0.15,0.14-0.25,0.16c-0.02,0-0.15,0.03-0.4,0.08l-0.63-0.21l-0.38-0.05
				c-0.05-0.01-0.09-0.06-0.14-0.14c-0.09-0.17-0.12-0.29-0.1-0.37c0-0.02,0.05-0.08,0.13-0.19c0.13-0.38,0.31-0.87,0.53-1.47
				l0.08-0.79l0.3-0.95l0.21-0.97l0.24-0.96l0.26-1.54c0.01-0.04,0.06-0.18,0.15-0.41c0.07-0.19,0.11-0.33,0.14-0.44
				c0.03-0.12,0.06-0.29,0.08-0.53c0.06-0.52,0.18-1.17,0.36-1.96l0.13-0.78l0.21-0.94l-0.05-0.45c-0.01-0.17-0.01-0.27-0.01-0.29
				c0.04-0.15,0.09-0.27,0.17-0.34c0.03-0.02,0.39-0.02,1.08,0.01l0.49,0.22c0.11,0.05,0.21,0.08,0.29,0.1
				c0.19,0.04,0.41,0.07,0.66,0.08c0.31,0.01,0.53,0.03,0.64,0.06c0.17,0.04,0.39,0.13,0.64,0.27c0.17,0.1,0.3,0.55,0.39,1.37
				c0.06,0.56,0.16,1.18,0.29,1.88c0.21,1.19,0.33,2.13,0.36,2.81c0.04,0.71,0.14,1.16,0.3,1.35c0.14,0.14,0.25,0.22,0.33,0.24
				c0.07,0.02,0.17-0.01,0.28-0.07c0.1-0.07,0.37-0.45,0.81-1.15l0.58-0.75l0.45-0.84c0.01-0.07,0.2-0.32,0.57-0.76
				c0.3-0.37,0.5-0.63,0.57-0.77l0.43-0.85c0.33-0.53,0.51-0.83,0.55-0.9c0.05-0.09,0.09-0.15,0.11-0.16l0.2-0.04
				c0.23-0.07,0.47-0.08,0.7-0.03l1.18,0.3c0.05,0.01,0.14,0.01,0.25,0.01l0.33-0.02l0.79,0.45c0.19,0.07,0.3,0.13,0.33,0.17
				c0.03,0.06,0.04,0.11,0.03,0.14c0,0.02-0.02,0.05-0.06,0.08c-0.1,0.1-0.16,0.17-0.17,0.2l-0.17,0.58l-0.35,0.9l-0.08,0.8
				l-0.25,0.96l-0.19,0.98l-0.27,1c-0.01,0.03-0.05,0.34-0.13,0.95c-0.03,0.21-0.06,0.4-0.1,0.58c-0.02,0.11-0.06,0.24-0.1,0.4
				c-0.1,0.35-0.16,0.53-0.16,0.54c-0.27,1.16-0.45,1.95-0.53,2.36c-0.04,0.25-0.08,0.41-0.09,0.48c-0.02,0.07-0.05,0.17-0.09,0.29
				c-0.06,0.17-0.1,0.29-0.11,0.34c-0.04,0.17-0.06,0.38-0.05,0.62c0.01,0.2,0.05,0.33,0.11,0.41c0.02,0.01,0.03,0.02,0.02,0.03
				l-0.02,0.02c-0.03,0.01-0.06,0.06-0.08,0.14c-0.04,0.17-0.09,0.29-0.15,0.35c-0.15,0.18-0.31,0.24-0.46,0.21l-1.99-0.51
				c-0.07-0.02-0.26-0.02-0.55-0.02c-0.08,0-0.14,0-0.19-0.01c-0.05-0.01-0.1-0.04-0.15-0.09c-0.02-0.01-0.06-0.1-0.12-0.26
				c-0.08-0.17-0.12-0.26-0.12-0.27c0.01-0.04,0.05-0.1,0.12-0.17c0.03-0.04,0.04-0.06,0.05-0.06l0.16-0.84
				c0-0.01,0.09-0.21,0.25-0.58c0.05-0.12,0.09-0.25,0.12-0.38c0.03-0.11,0.05-0.24,0.07-0.38c0.07-0.52,0.1-0.79,0.11-0.81
				l0.35-1.33l0.22-1.07l0.3-0.77c0.02-0.09-0.03-0.34-0.15-0.75c-0.08-0.26-0.17-0.4-0.27-0.42c-0.07-0.02-0.17,0-0.3,0.05
				s-0.24,0.12-0.31,0.19c-0.07,0.07-0.48,0.73-1.24,1.98c-0.37,0.63-0.77,1.22-1.18,1.78c-0.28,0.37-0.47,0.67-0.57,0.89
				c-0.09,0.18-0.2,0.29-0.34,0.32c-0.17,0.04-0.32,0.06-0.45,0.05c-0.09-0.01-0.44-0.1-1.05-0.29c-0.18-0.06-0.32-0.14-0.4-0.24
				c-0.11-0.14-0.21-0.55-0.28-1.22c-0.04-0.38-0.17-0.97-0.37-1.76c-0.11-0.43-0.16-0.73-0.17-0.89l-0.04-0.9
				c-0.21-0.83-0.33-1.29-0.37-1.37C495.86,257.9,495.78,257.82,495.68,257.79z"/>
			<path class="st8" d="M515.96,264.64l-1.03,0l-1.34-0.06c-0.65,0.03-1.03,0.07-1.14,0.12c-0.09,0.04-0.14,0.14-0.15,0.29
				c-0.02,0.08-0.16,0.42-0.44,1.05l-0.07,0.46l-0.28,0.95l0.07,0.17l-0.14,0.65l0.09,0.23l-0.16,0.19l-0.09,0.2
				c-0.29,0.16-0.46,0.23-0.51,0.22l-0.8-0.14l-0.42,0.05c-0.16-0.01-0.24-0.23-0.23-0.66c0-0.04,0.08-0.22,0.25-0.54l0.28-0.87
				l0.25-0.66l0.13-0.74l0.28-0.62c0.15-0.63,0.23-0.98,0.25-1.04c0.02-0.06,0.22-0.62,0.62-1.69l0.41-0.88l0.23-0.65l0.42-0.89
				l0.29-0.94l0.45-0.76l0.44-0.88l0.48-0.85c0.22-0.5,0.34-0.75,0.35-0.78c0.01-0.02,0.07-0.07,0.16-0.15
				c0.06-0.05,0.11-0.13,0.16-0.23c0.03-0.06,0.09-0.09,0.18-0.09c0.06,0,0.14,0.02,0.25,0.05c0.18,0.05,0.41,0.08,0.7,0.09
				c0.27,0.01,0.5-0.01,0.67-0.05c0.08-0.02,0.14-0.03,0.17-0.03c0.12,0,0.25,0.06,0.38,0.17c0.07,0.06,0.11,0.1,0.11,0.11
				l0.08,0.35l0.48,0.85c0.28,0.7,0.5,1.19,0.66,1.47c0.29,0.53,0.43,0.82,0.43,0.88l0.34,0.92c0.15,0.32,0.33,0.78,0.55,1.37
				c0.08,0.23,0.21,0.53,0.38,0.91c0.2,0.47,0.34,0.86,0.42,1.16c0.02,0.06,0.13,0.37,0.33,0.92c0.23,0.63,0.39,1.24,0.49,1.8
				c0.05,0.32,0.19,0.77,0.39,1.35l0.19,0.76l0.15,0.34c0.05,0.23,0.07,0.34,0.07,0.35c0,0.08-0.03,0.14-0.1,0.19
				c-0.05,0.04-0.13,0.08-0.25,0.12c-0.38,0.12-0.62,0.18-0.73,0.18c-0.07,0-0.23-0.04-0.48-0.12c-0.2-0.06-0.37-0.09-0.53-0.09
				c-0.05,0-0.43,0.03-1.13,0.1c-0.06,0.01-0.1,0.02-0.12,0.02c-0.12,0-0.25-0.04-0.39-0.11c-0.11-0.07-0.21-0.48-0.27-1.25
				c-0.01-0.17-0.06-0.49-0.16-0.96c-0.03-0.16-0.05-0.27-0.05-0.34c-0.05-0.62-0.08-0.94-0.1-0.97l-0.27-0.44l-0.01-0.02
				c0-0.01,0-0.02-0.01-0.03c-0.01-0.01-0.01-0.02-0.01-0.03c0-0.01,0.01-0.02,0.02-0.04c0.04-0.05,0.06-0.1,0.06-0.13
				s-0.07-0.09-0.2-0.17c-0.11-0.1-0.16-0.15-0.17-0.15l-0.74,0.15L515.96,264.64z M515.23,258.28c-0.06,0.02-0.11,0.03-0.13,0.03
				c-0.01,0-0.04-0.02-0.09-0.06c-0.01-0.01-0.02-0.01-0.03-0.01c-0.05,0-0.16,0.19-0.34,0.58l-0.47,0.86l-0.28,0.95l-0.16,0.27
				l-0.36,0.92l-0.42,0.89l0.04,0.16c0.05,0.19,0.12,0.28,0.22,0.28l0.13-0.02l1.04,0.03l1.04-0.01l1.04,0.06
				c0.27-0.05,0.41-0.12,0.41-0.22c0-0.01-0.01-0.05-0.02-0.1c0-0.02,0-0.07,0-0.16c0-0.08-0.01-0.13-0.02-0.15l-0.4-0.9l-0.08-0.38
				l-0.39-0.9l0-0.29l-0.42-0.89L515.23,258.28z"/>
			<path class="st8" d="M535.63,258.69l0.16,0.92c0.07,0.38,0.12,0.68,0.17,0.92c0.06,0.25,0.1,0.44,0.12,0.55
				c0.02,0.11,0.03,0.24,0.03,0.37l0.03,0.46l0.41,1.37l0.03,0.94l0.23,0.92l0.08,0.93l0.08,0.32l-0.14,0.17
				c-0.08,0.2-0.17,0.3-0.25,0.3c-0.94,0.12-1.44,0.17-1.5,0.16c-0.11-0.02-0.2-0.05-0.27-0.09c-0.11-0.06-0.34-0.32-0.71-0.76
				c-0.08-0.12-0.32-0.35-0.7-0.69c-0.39-0.33-0.62-0.57-0.69-0.71l-0.46-0.73c-0.04-0.04-0.11-0.06-0.2-0.06l-0.75-0.84l-0.87-0.73
				l-0.75-0.84l-0.75-0.64l-0.62-0.77c-0.5-0.42-0.78-0.66-0.86-0.73c-0.12-0.12-0.27-0.2-0.43-0.24c-0.19-0.05-0.31-0.07-0.35-0.06
				c-0.09,0.01-0.15,0.12-0.19,0.3c-0.08,0.39-0.09,0.74-0.04,1.05l0.27,1.23l0.11,0.92l0.17,0.91l0.13,0.91l0.26,0.89l0.08,0.8
				c0.21,0.54,0.37,0.98,0.49,1.33c0.05,0.08,0.07,0.13,0.08,0.13l-0.04,0.26c-0.03,0.16-0.04,0.25-0.04,0.25
				c0,0-0.04,0.03-0.1,0.09c-0.03,0.02-0.16,0.11-0.39,0.27c-0.67,0.03-1.01,0.05-1.03,0.04c-0.04-0.02-0.1-0.06-0.17-0.12
				c-0.17-0.16-0.26-0.26-0.27-0.29c0-0.01,0.01-0.06,0.05-0.14c0.05-0.11,0.05-0.31,0.01-0.61c-0.05-0.31-0.1-0.64-0.16-0.99
				c-0.06-0.37-0.13-0.91-0.22-1.63l-0.24-1.07l-0.1-1.17c0-0.01-0.08-0.27-0.22-0.78c-0.05-0.16-0.09-0.32-0.12-0.48
				c-0.02-0.1-0.04-0.27-0.07-0.5c-0.02-0.22-0.05-0.38-0.07-0.5c-0.02-0.14-0.06-0.3-0.1-0.48c-0.1-0.36-0.15-0.57-0.16-0.62
				c-0.02-0.12-0.06-0.57-0.12-1.35c-0.03-0.31-0.07-0.64-0.13-0.98c-0.06-0.34-0.14-0.59-0.25-0.74c-0.12-0.16-0.18-0.25-0.18-0.28
				l-0.02-0.28l-0.07-0.24c-0.01-0.07,0.04-0.18,0.15-0.34c0.09-0.13,0.2-0.21,0.3-0.23l1.99-0.3c0.05-0.01,0.14-0.05,0.28-0.11
				c0.06-0.02,0.1-0.04,0.14-0.04c0.07-0.01,0.15,0.02,0.25,0.1c0.06,0.04,0.14,0.08,0.24,0.11c0.1,0.03,0.29,0.24,0.59,0.63
				c0.12,0.14,0.61,0.57,1.46,1.29l0.42,0.35l0.68,0.71l0.77,0.63c0.07,0.02,0.26,0.25,0.58,0.7c0.29,0.42,0.49,0.67,0.61,0.78
				l0.75,0.64c0.47,0.44,0.75,0.67,0.82,0.69c0.16,0.06,0.27,0.09,0.33,0.08c0.18-0.03,0.24-0.2,0.18-0.52
				c-0.02-0.1-0.16-0.81-0.41-2.12l-0.13-0.6c-0.03-0.15-0.04-0.3-0.05-0.46c-0.02-0.37-0.04-0.56-0.04-0.57l-0.28-1.27l-0.14-0.96
				c-0.12-0.17-0.19-0.26-0.19-0.27l-0.01-0.3l-0.15-0.22c0.09-0.2,0.15-0.33,0.18-0.38c0.03-0.04,0.17-0.09,0.44-0.15l0.91-0.24
				c0.03,0,0.1,0.03,0.23,0.11c0.09,0.06,0.21,0.23,0.36,0.52c0,0.02-0.04,0.23-0.13,0.64c0.07,0.65,0.13,1.23,0.18,1.76l0.32,0.94
				c0.04,0.7,0.07,1.1,0.08,1.2L535.63,258.69z"/>
			<path class="st8" d="M544.69,250.78c-0.58,0.42-0.94,0.68-1.1,0.79c-0.19,0.15-0.29,0.26-0.32,0.36l-0.05,0.15l-0.52,0.83
				l-0.2,0.96l-0.13,0.07l-0.04,0.98c-0.1,0.47-0.14,0.73-0.12,0.79c0.03,0.06,0.08,0.13,0.15,0.19c0.07,0.06,0.1,0.09,0.1,0.09
				l0.08,1.06l0.4,0.78l0.49,1.33c0.02,0.05,0.22,0.31,0.61,0.76c0.32,0.39,0.56,0.67,0.73,0.85c0.04,0.04,0.36,0.27,0.96,0.67
				c0.4,0.27,0.65,0.41,0.75,0.42c0.04,0.01,0.07,0.01,0.08,0.01c0.02,0,0.04,0.01,0.05,0c0.01,0,0.03-0.03,0.06-0.09l1.04,0.15
				c0.09,0.01,0.31-0.04,0.66-0.18c0.57-0.22,0.99-0.47,1.26-0.75c0.37-0.37,0.55-0.69,0.56-0.94c0.01-0.62-0.01-0.99-0.06-1.09
				l-0.39-0.76l-0.37-1.15c-0.07-0.18-0.19-0.35-0.37-0.52c-0.25-0.23-0.4-0.39-0.45-0.48c-0.06-0.09-0.11-0.17-0.15-0.24
				c-0.04-0.05-0.07-0.09-0.08-0.11c-0.06-0.16-0.04-0.3,0.06-0.41c0.03-0.04,0.45-0.23,1.24-0.56l0.85-0.22l0.88-0.41
				c0.15-0.06,0.3-0.06,0.45-0.01c0.2,0.07,0.31,0.14,0.33,0.2l-0.04,0.27l0.26,0.96l0.25,1.09l0.07,0.08
				c0.15,0.17,0.24,0.29,0.26,0.36l0.22,0.75c0.33,0.57,0.51,0.87,0.55,0.9c0.09,0.09,0.13,0.14,0.13,0.15l0.01,0.16
				c0.02,0.15,0,0.29-0.06,0.4c-0.24,0.37-0.62,0.82-1.13,1.37c-0.47,0.51-0.74,0.78-0.81,0.83l-0.81,0.54l-0.13,0.11l-0.84,0.5
				l-0.5,0.33l-0.6,0.09c-0.64,0.25-0.98,0.38-1.02,0.39c-0.04,0.01-0.2,0.03-0.49,0.05c-0.65,0.06-1.07,0.06-1.26,0
				c-0.03-0.01-0.06-0.01-0.07-0.01s-0.03,0.02-0.05,0.05c0,0.1-0.01,0.15-0.03,0.15c-0.02,0.01-0.04,0.01-0.08,0
				c-0.13-0.04-0.42-0.06-0.88-0.08c-0.48-0.02-0.8-0.07-0.98-0.16l-0.9-0.4c-0.65-0.26-1.26-0.65-1.84-1.16
				c-0.38-0.34-0.67-0.65-0.87-0.9c-0.11-0.14-0.31-0.55-0.6-1.24l-0.5-0.87l-0.14-1l-0.21-0.96l0.04-0.89l-0.02-0.98
				c0.23-0.88,0.4-1.44,0.49-1.66c0.08-0.19,0.38-0.69,0.91-1.5c0.24-0.4,0.64-0.82,1.21-1.27c0.19-0.15,0.63-0.43,1.33-0.84
				l0.79-0.47c0.03-0.01,0.13,0.01,0.28,0.04l0.92-0.32l0.76-0.12l0.96-0.23l0.64,0.08l0.98,0.11l0.4,0.09
				c0.11,0.02,0.18,0.03,0.2,0.04c0.02,0.01,0.06,0.05,0.11,0.12c0.13-0.01,0.2-0.01,0.21,0.02l0.07,0.2l0.45,1.06
				c0.04,0.09,0.01,0.22-0.07,0.37c-0.1,0.18-0.18,0.28-0.25,0.31c-0.08,0.03-0.2,0.01-0.38-0.07c-0.62-0.27-1.02-0.43-1.21-0.48
				c-0.46-0.13-0.9-0.17-1.32-0.12c-0.18,0.03-0.37,0.06-0.57,0.08c-0.19,0.03-0.38,0.06-0.57,0.09L544.69,250.78z"/>
			<path class="st8" d="M560.76,251.73l-0.85,0.58l-1.14,0.71c-0.52,0.39-0.81,0.64-0.88,0.74c-0.05,0.08-0.04,0.19,0.04,0.33
				c0.03,0.07,0.1,0.44,0.22,1.11l0.2,0.42l0.31,0.94l0.15,0.1l0.25,0.62l0.2,0.14l-0.02,0.25l0.04,0.22
				c-0.15,0.29-0.25,0.45-0.29,0.47l-0.74,0.33l-0.32,0.28c-0.14,0.08-0.33-0.05-0.56-0.42c-0.02-0.03-0.05-0.23-0.1-0.58
				l-0.25-0.88l-0.17-0.69l-0.31-0.68l-0.12-0.67c-0.23-0.61-0.36-0.94-0.38-1s-0.17-0.64-0.45-1.75l-0.16-0.96l-0.18-0.67
				l-0.16-0.97l-0.29-0.94l-0.06-0.88l-0.13-0.98l-0.08-0.97c-0.09-0.54-0.14-0.82-0.14-0.84c0-0.03,0.01-0.1,0.04-0.22
				c0.02-0.08,0.02-0.17,0-0.28c-0.01-0.07,0.02-0.12,0.1-0.17c0.05-0.03,0.13-0.07,0.23-0.1c0.17-0.06,0.38-0.16,0.62-0.32
				c0.23-0.15,0.4-0.29,0.52-0.42c0.06-0.06,0.1-0.1,0.13-0.12c0.1-0.07,0.24-0.09,0.41-0.07c0.1,0.01,0.15,0.02,0.15,0.02
				l0.26,0.25l0.88,0.43c0.62,0.42,1.08,0.7,1.37,0.85c0.54,0.27,0.82,0.43,0.85,0.49l0.8,0.57c0.31,0.18,0.71,0.46,1.22,0.82
				c0.2,0.14,0.47,0.32,0.83,0.54c0.43,0.27,0.76,0.51,1,0.72c0.05,0.04,0.31,0.23,0.79,0.58c0.54,0.4,1.02,0.8,1.42,1.22
				c0.22,0.23,0.58,0.53,1.08,0.9l0.59,0.52l0.31,0.2c0.17,0.16,0.25,0.24,0.26,0.25c0.04,0.06,0.05,0.13,0.03,0.21
				c-0.02,0.06-0.06,0.14-0.14,0.24c-0.24,0.31-0.41,0.5-0.5,0.56c-0.06,0.04-0.21,0.09-0.47,0.17c-0.2,0.06-0.36,0.14-0.49,0.22
				c-0.05,0.03-0.34,0.27-0.88,0.72c-0.04,0.04-0.08,0.07-0.09,0.08c-0.1,0.07-0.23,0.11-0.38,0.13c-0.13,0.01-0.44-0.28-0.93-0.88
				c-0.11-0.14-0.33-0.37-0.67-0.7c-0.12-0.11-0.19-0.2-0.24-0.25c-0.39-0.48-0.6-0.73-0.63-0.74l-0.47-0.21l-0.02-0.01
				c0-0.01-0.01-0.01-0.03-0.02c-0.01-0.01-0.02-0.01-0.03-0.02c0,0,0-0.02,0-0.04c0-0.07,0-0.12-0.02-0.15
				c-0.02-0.03-0.1-0.04-0.26-0.03c-0.14-0.02-0.22-0.03-0.22-0.03l-0.53,0.54L560.76,251.73z M556.58,246.89
				c-0.04,0.05-0.07,0.08-0.09,0.1c-0.01,0-0.04,0-0.11,0c-0.01,0-0.02,0-0.03,0.01c-0.04,0.03-0.03,0.25,0.04,0.67l0.1,0.98
				l0.31,0.94l0.02,0.32l0.22,0.96l0.16,0.98l0.12,0.11c0.15,0.13,0.26,0.16,0.34,0.11l0.1-0.09l0.87-0.56l0.85-0.59l0.9-0.54
				c0.2-0.19,0.27-0.33,0.22-0.41c-0.01-0.01-0.03-0.04-0.07-0.08c-0.01-0.02-0.04-0.06-0.08-0.13c-0.05-0.06-0.08-0.1-0.1-0.12
				l-0.84-0.52l-0.28-0.27l-0.83-0.53l-0.17-0.23l-0.85-0.5L556.58,246.89z"/>
			<path class="st8" d="M573.57,246.2l0.11,0.11c0.16,0.17,0.26,0.31,0.3,0.42c0.05,0.15,0.03,0.24-0.03,0.29l-0.32,0.21l-0.57,0.62
				l-0.66,0.52l-0.54,0.63c-0.2,0.09-0.34,0.16-0.43,0.2c-0.08,0.04-0.13,0.06-0.15,0.06l-0.2-0.19l-0.19-0.16l-0.31-0.51
				l-0.65-0.71l-0.44-0.68l-1.16-0.99c-0.03-0.03-0.12-0.16-0.27-0.4c-0.16-0.27-0.33-0.49-0.49-0.66l-0.84-0.83l-0.64-0.77
				l-0.69-0.72l-0.92-1.05c-0.05-0.05-0.2-0.18-0.45-0.38c-0.31-0.25-0.53-0.44-0.63-0.57c-0.33-0.35-0.55-0.55-0.68-0.6
				c-0.14-0.06-0.21-0.09-0.22-0.1l-0.21-0.31l-0.19-0.16l-0.03-0.24c-0.05-0.21-0.05-0.33-0.01-0.37c0.04-0.04,0.12-0.09,0.26-0.15
				c0.48-0.44,0.96-0.87,1.45-1.29l0.87-0.95c0.02-0.02,0.2-0.15,0.53-0.4c0.19-0.15,0.35-0.28,0.48-0.4
				c0.26-0.25,0.56-0.57,0.9-0.97c0.13-0.15,0.24-0.27,0.33-0.36c0.11-0.11,0.25-0.2,0.41-0.29c0.41-0.23,0.66-0.39,0.76-0.49
				c0.03-0.03,0.06-0.09,0.08-0.16c0-0.03,0.01-0.04,0.02-0.05c0,0,0.02-0.01,0.06-0.01c0.02,0.04,0.29-0.07,0.81-0.31
				c0.67-0.31,1.26-0.37,1.79-0.18c0.73,0.26,1.11,0.4,1.12,0.42l0.43,0.62l0.6,0.77l0.07,0.31c0.19,0.67,0.29,1.05,0.31,1.14
				c0,0.06-0.06,0.43-0.19,1.11c-0.04,0.27-0.08,0.53-0.12,0.8c-0.02,0.11,0,0.19,0.06,0.25c0.05,0.05,0.15,0.11,0.29,0.17
				c0.04,0.01,0.4,0.09,1.07,0.22c0.49,0.11,1.31,0.45,2.45,1.04l0.84,0.4c0.68,0.46,1.2,0.75,1.56,0.87
				c0.09,0.03,0.15,0.06,0.19,0.09c0.02,0.02,0.04,0.14,0.07,0.35c0.04,0.17,0.06,0.27,0.06,0.3c0,0.03-0.02,0.07-0.06,0.11
				c-0.05,0.05-0.12,0.1-0.23,0.15c-0.21,0.09-0.33,0.17-0.39,0.23l-0.8,0.93l-0.6,0.58l-0.15,0.17c-0.07,0.07-0.24,0.07-0.52,0.01
				c-0.15-0.04-0.36-0.19-0.62-0.45c-0.21-0.21-0.48-0.4-0.8-0.55c-0.47-0.24-0.75-0.4-0.84-0.49l-0.26-0.25l-0.95-0.24
				c-0.09-0.03-0.21-0.08-0.36-0.17c-0.45-0.27-0.75-0.4-0.9-0.4c-0.19,0.01-0.31,0-0.35-0.02c-0.14-0.09-0.22-0.12-0.24-0.11
				l-0.15,0.11l-0.17-0.01l-0.12,0.1l-0.18,0.09l-0.23,0.45c-0.03,0.06-0.13,0.18-0.31,0.36c-0.17,0.18-0.21,0.33-0.12,0.46
				c0.18,0.29,0.34,0.52,0.47,0.68c0.17,0.2,0.57,0.63,1.2,1.29l0.36,0.39L573.57,246.2z M567.57,235.94
				c0.05,0.13,0.05,0.21,0.01,0.25c-0.05,0.05-0.31,0.19-0.78,0.42c-0.09,0.05-0.16,0.1-0.21,0.15c-0.19,0.18-0.35,0.43-0.49,0.72
				c-0.13,0.29-0.12,0.57,0.02,0.85c0.25,0.47,0.41,0.74,0.49,0.81l0.8,0.64l0.62,0.72l0.58,0.57l0.2,0.38
				c0.13-0.08,0.22-0.12,0.26-0.13c0.02-0.01,0.1-0.01,0.22,0c0.06,0,0.11-0.03,0.15-0.06c0.06-0.06,0.33-0.46,0.8-1.19
				c0.12-0.19,0.21-0.41,0.26-0.66c0.16-0.73,0.24-1.17,0.24-1.31c0-0.25-0.1-0.56-0.31-0.91l-0.37-0.65
				c-0.67-0.45-1.1-0.71-1.29-0.78c-0.07-0.01-0.14,0.02-0.22,0.1L567.57,235.94z"/>
			<path class="st8" d="M581.96,231.3l-0.58,0.85l-0.8,1.08c-0.34,0.56-0.52,0.89-0.54,1.01c-0.02,0.1,0.04,0.19,0.16,0.29
				c0.05,0.05,0.26,0.37,0.62,0.95l0.34,0.32l0.63,0.76l0.17,0.04l0.46,0.48l0.24,0.05l0.07,0.24l0.12,0.19
				c-0.03,0.33-0.07,0.51-0.1,0.54l-0.56,0.58l-0.19,0.38c-0.1,0.13-0.33,0.07-0.68-0.18c-0.03-0.02-0.14-0.19-0.31-0.51l-0.56-0.72
				l-0.41-0.58l-0.54-0.52l-0.36-0.58c-0.44-0.48-0.68-0.74-0.71-0.79c-0.04-0.05-0.39-0.54-1.06-1.46l-0.5-0.83l-0.41-0.55
				l-0.5-0.85l-0.61-0.76l-0.38-0.8l-0.48-0.86l-0.43-0.88c-0.29-0.46-0.43-0.71-0.44-0.73s-0.03-0.1-0.04-0.22
				c-0.01-0.08-0.05-0.16-0.1-0.26c-0.04-0.06-0.03-0.12,0.03-0.2c0.04-0.05,0.09-0.11,0.18-0.18c0.14-0.12,0.3-0.29,0.46-0.53
				c0.16-0.22,0.27-0.42,0.34-0.58c0.03-0.08,0.06-0.13,0.08-0.16c0.07-0.1,0.19-0.17,0.35-0.21c0.09-0.03,0.14-0.04,0.15-0.03
				l0.33,0.13l0.98,0.08c0.73,0.16,1.26,0.25,1.59,0.28c0.6,0.05,0.92,0.1,0.97,0.14l0.95,0.24c0.35,0.06,0.83,0.16,1.44,0.32
				c0.24,0.06,0.56,0.12,0.97,0.2c0.5,0.1,0.9,0.2,1.19,0.31c0.06,0.02,0.38,0.1,0.95,0.24c0.65,0.17,1.24,0.37,1.77,0.61
				c0.29,0.13,0.74,0.28,1.34,0.43l0.74,0.27l0.37,0.07c0.21,0.09,0.33,0.13,0.33,0.13c0.06,0.04,0.1,0.11,0.11,0.19
				c0.01,0.06-0.01,0.16-0.04,0.27c-0.11,0.38-0.2,0.62-0.26,0.71c-0.04,0.06-0.16,0.16-0.37,0.33c-0.16,0.13-0.29,0.26-0.38,0.39
				c-0.03,0.04-0.22,0.38-0.55,0.99c-0.02,0.06-0.04,0.09-0.05,0.11c-0.07,0.1-0.17,0.19-0.31,0.26c-0.12,0.06-0.51-0.1-1.18-0.48
				c-0.15-0.09-0.44-0.22-0.88-0.4c-0.15-0.06-0.25-0.11-0.31-0.14c-0.54-0.31-0.82-0.46-0.86-0.46l-0.51-0.02l-0.02,0
				c0,0-0.02-0.01-0.03-0.01c-0.02,0-0.03-0.01-0.03-0.01c-0.01,0-0.01-0.02-0.02-0.04c-0.02-0.07-0.05-0.11-0.07-0.13
				c-0.03-0.02-0.11,0-0.25,0.07c-0.14,0.04-0.21,0.05-0.22,0.06l-0.29,0.7L581.96,231.3z M576.29,228.34
				c-0.02,0.06-0.04,0.1-0.05,0.13c0,0-0.04,0.02-0.1,0.04c-0.01,0-0.02,0.01-0.03,0.02c-0.03,0.04,0.07,0.24,0.29,0.61l0.45,0.87
				l0.63,0.76l0.14,0.29l0.56,0.81l0.5,0.85l0.15,0.05c0.18,0.06,0.3,0.05,0.36-0.02l0.06-0.12l0.61-0.84l0.57-0.86l0.64-0.83
				c0.11-0.25,0.13-0.41,0.05-0.46c-0.01-0.01-0.04-0.02-0.1-0.04c-0.02-0.01-0.06-0.04-0.13-0.09c-0.07-0.04-0.12-0.07-0.14-0.07
				l-0.97-0.17l-0.36-0.14l-0.96-0.18l-0.24-0.16l-0.97-0.15L576.29,228.34z"/>
			<path class="st8" d="M592.8,221.37l-0.35,0.76l-0.4,0.74l-0.31,0.79l-0.3,0.22c-0.12,0.15-0.2,0.23-0.23,0.24
				c-0.07,0.01-0.11,0.01-0.14,0c-0.02-0.01-0.04-0.03-0.08-0.07c-0.06-0.07-0.29-0.23-0.68-0.5l-0.79-0.56l-0.71-0.37l-0.85-0.48
				l-0.91-0.36l-0.83-0.51l-0.91-0.37l-0.87-0.45l-0.87-0.44l-0.84-0.5l-0.89-0.43l-0.85-0.49l-0.34-0.02
				c-0.16-0.04-0.25-0.05-0.28-0.04c-0.05,0.02-0.1,0.06-0.14,0.1c-0.14,0.12-0.21,0.19-0.21,0.2c-0.01,0.03-0.02,0.12-0.03,0.26
				c0,0.08,0,0.13-0.01,0.13l-0.67,1.21c-0.02,0.05-0.02,0.18,0.03,0.39c0.02,0.12,0.03,0.18,0.03,0.2l-0.11,0.53l-0.05,0.27
				c-0.01,0.03-0.12,0.08-0.31,0.15c-0.19,0.08-0.29,0.13-0.33,0.13c-0.06-0.01-0.1-0.02-0.13-0.03c-0.04-0.02-0.09-0.06-0.16-0.12
				c-0.17-0.16-0.39-0.31-0.67-0.46c-0.1-0.05-0.16-0.09-0.18-0.14c-0.01-0.01-0.01-0.1,0.01-0.26c0-0.03-0.02-0.09-0.06-0.19
				l-0.01-0.04l0.59-0.84c0-0.01,0.02-0.1,0.05-0.29c0.02-0.12,0.07-0.25,0.14-0.39c0.08-0.16,0.17-0.34,0.29-0.54
				c0.28-0.48,0.45-0.77,0.5-0.88l0.44-0.92l0.71-1.35c0.04-0.09,0.11-0.25,0.19-0.46c0.09-0.23,0.14-0.35,0.14-0.36l1.07-2.02
				c0.01-0.01,0.05-0.13,0.12-0.34c0.08-0.21,0.15-0.37,0.21-0.49c0.18-0.37,0.38-0.6,0.59-0.71c0.21-0.1,0.32-0.14,0.35-0.13
				l0.47,0.25c0.02,0.01,0.17,0.04,0.43,0.1c0.07,0.01,0.12,0.03,0.16,0.04c0.12,0.06,0.22,0.15,0.29,0.25
				c0.05,0.08,0.03,0.21-0.06,0.39c-0.05,0.11-0.08,0.2-0.08,0.28c0,0.03,0,0.05,0,0.06c-0.01,0.02-0.03,0.04-0.06,0.06
				c-0.13,0.07-0.36,0.24-0.7,0.5c-0.19,0.15-0.29,0.24-0.32,0.3c-0.02,0.04-0.03,0.1-0.04,0.17c-0.01,0.13-0.02,0.2-0.03,0.22
				l-0.44,0.74l-0.06,0.2l-0.16,0.26c-0.04,0.09-0.01,0.19,0.11,0.32c0.06,0.08,0.41,0.31,1.03,0.69l1.32,0.64
				c0.09,0.04,0.27,0.15,0.54,0.31c0.22,0.13,0.39,0.23,0.51,0.29c0.1,0.05,0.22,0.1,0.36,0.15c0.57,0.23,0.89,0.36,0.94,0.38
				c0.07,0.04,0.35,0.19,0.82,0.47c0.55,0.33,1.21,0.69,1.97,1.06c0.22,0.11,0.44,0.19,0.64,0.25c0.18,0.05,0.27,0.08,0.28,0.08
				l1.25,0.71l0.45,0.08l0.15,0.11l0.26,0.03l0.11,0.25c0.1,0.18,0.14,0.29,0.12,0.32C593,221.18,592.93,221.25,592.8,221.37z"/>
			<path class="st8" d="M596.57,211.95c-0.02,0.04-0.04,0.18-0.08,0.39c-0.02,0.14-0.04,0.25-0.07,0.32
				c-0.04,0.11-0.14,0.33-0.3,0.67c-0.1,0.22-0.19,0.34-0.27,0.35c-0.09,0.03-0.17,0.03-0.23,0.01c-0.06-0.02-0.14-0.06-0.24-0.12
				c-0.28-0.19-0.62-0.35-1.02-0.48c-0.12-0.04-0.26-0.08-0.42-0.11c-0.19-0.04-0.29-0.07-0.3-0.07l-1.36-0.59l-0.97-0.25
				l-0.93-0.36l-0.97-0.21l-0.94-0.36l-1.12-0.25c-0.01,0-0.27-0.13-0.76-0.38c-0.13-0.06-0.25-0.11-0.36-0.15
				c-0.19-0.06-0.39-0.1-0.6-0.12c-0.34-0.03-0.53-0.05-0.56-0.06l-1.15-0.43c-0.02-0.01-0.17,0.02-0.45,0.08
				c-0.03,0.01-0.05,0.01-0.07,0.01c-0.01,0-0.04-0.02-0.08-0.06c-0.02-0.03-0.09-0.07-0.2-0.13c-0.25-0.12-0.31-0.36-0.19-0.72
				l0.29-0.79l0.16-0.82l0.32-0.77l0.07-0.38c0.03-0.06,0.11-0.11,0.22-0.15c0.15-0.05,0.24-0.07,0.29-0.05
				c0.03,0.01,0.09,0.06,0.2,0.15c0.36,0.17,0.83,0.38,1.41,0.66l0.78,0.15l0.93,0.38l0.95,0.31l0.94,0.33l1.53,0.39
				c0.03,0.01,0.16,0.07,0.38,0.17c0.17,0.09,0.31,0.15,0.42,0.19c0.11,0.04,0.28,0.08,0.52,0.13c0.51,0.11,1.15,0.28,1.92,0.53
				l0.75,0.2l0.92,0.3c0.44-0.01,0.69-0.01,0.75,0.01c0.11,0.04,0.21,0.09,0.28,0.16c0.04,0.03,0.04,0.13,0.03,0.33l0.02,0.49
				L596.57,211.95z"/>
			<path class="st8" d="M584.9,202.3l0.27-1.05l0.2-1.21c0.03-0.16,0.1-0.45,0.21-0.88c0.07-0.27,0.11-0.47,0.14-0.62
				c0.02-0.13,0.04-0.27,0.06-0.43c0.06-0.56,0.1-0.85,0.1-0.88l0.29-1.14c0.29-1.13,0.55-1.89,0.78-2.29
				c0.15-0.22,0.45-0.46,0.9-0.72c0.23-0.13,0.46-0.25,0.69-0.38l0.97-0.06l0.42-0.04l0.9,0.39l0.35,0.13l0.62,0.75l0.16,0.18
				l0.4,0.88l0.21,0.25l-0.03,0.18l0.17-0.05l0.13,0.03c0.08,0.01,0.27-0.22,0.58-0.7c0.15-0.25,0.42-0.54,0.81-0.86
				c0.29-0.24,0.64-0.41,1.06-0.52c0.37-0.08,0.74-0.16,1.1-0.23l0.56,0.14c0.66,0.14,1,0.22,1.03,0.23s0.13,0.08,0.33,0.2
				c0.56,0.36,0.94,0.73,1.14,1.12c0.31,0.6,0.49,1.05,0.53,1.34c0.01,0.62,0.03,0.95,0.06,0.98c0.08,0.08,0.11,0.14,0.12,0.18
				l-0.18,0.91l-0.16,0.96l-0.07,0.23l-0.16,1.33c-0.01,0.05-0.07,0.23-0.17,0.55c-0.07,0.19-0.12,0.36-0.14,0.52
				c-0.01,0.06-0.06,0.52-0.16,1.37c-0.03,0.27-0.06,0.47-0.09,0.61c-0.02,0.1-0.05,0.21-0.1,0.33c-0.09,0.23-0.14,0.36-0.14,0.37
				l-0.09,0.82c-0.03,0.04-0.05,0.07-0.06,0.08c-0.01,0.01-0.1,0.05-0.26,0.12c-0.18,0.11-0.29,0.16-0.33,0.15
				c-0.03-0.01-0.08-0.03-0.15-0.06c-0.19-0.09-0.68-0.24-1.49-0.45l-0.74-0.28l-1.06-0.15c-0.01,0-0.31-0.09-0.89-0.25
				c-0.16-0.05-0.31-0.09-0.46-0.11c-0.13-0.02-0.31-0.04-0.52-0.06c-0.29-0.02-0.45-0.04-0.48-0.04l-1.47-0.34l-0.98-0.16
				l-0.98-0.19l-0.99-0.13c-0.79-0.13-1.53-0.2-2.2-0.19c-0.09,0.01-0.14,0.02-0.17,0.01c-0.09-0.02-0.22-0.11-0.39-0.29
				c-0.09-0.08-0.14-0.15-0.16-0.21C584.87,202.59,584.87,202.46,584.9,202.3z M591.64,200.09l0.09-0.38l-0.02-0.21l0.07-0.28
				c0.02-0.1-0.06-0.26-0.24-0.48c-0.21-0.27-0.32-0.45-0.32-0.54l-0.33-0.93c-0.06-0.18-0.25-0.39-0.58-0.63
				c-0.35-0.25-0.68-0.4-0.97-0.45c-0.22-0.04-0.46-0.03-0.72,0.04c-0.38,0.09-0.6,0.21-0.68,0.35l0,0.01l-0.09-0.05
				c-0.02,0.02-0.04,0.03-0.06,0.04c-0.11,0.08-0.3,0.51-0.57,1.31l0,0.9c-0.01,0.43,0.03,0.7,0.13,0.8c0.06,0.07,0.1,0.1,0.14,0.11
				l0.41,0.08l1.04,0.34l0.36,0.01c0.14,0,0.3,0.02,0.48,0.05c0.16,0.03,0.32,0.06,0.47,0.1c0.14,0.04,0.24,0.06,0.29,0.07
				c0.05,0.01,0.12,0.01,0.21,0.01c0.05,0,0.09,0.01,0.09,0.01c0.35,0.08,0.53,0.13,0.54,0.16c0,0.01,0.01,0.01,0.02,0.01l0.02-0.02
				l0.03-0.01l0.08-0.17l0.14-0.09C591.69,200.24,591.67,200.18,591.64,200.09z M594.22,197.06c0.01,0.02,0.04,0.04,0.08,0.07
				l-0.02,0.01l0,0.01c-0.54,0.4-0.83,0.62-0.88,0.66c-0.08,0.09-0.14,0.22-0.19,0.39l-0.09,0.14c0,0.01,0.06,0.08,0.17,0.22
				c0.13,0.15,0.17,0.35,0.12,0.6c-0.02,0.1-0.04,0.21-0.08,0.34c-0.06,0.2-0.1,0.35-0.12,0.47c-0.04,0.22,0.01,0.45,0.14,0.69
				c0.11,0.23,0.24,0.36,0.41,0.38c0.26,0.05,0.58,0.08,0.94,0.09c0.08,0,0.14,0,0.17,0.01c0.11,0.02,0.35,0.09,0.7,0.21
				c0.16,0.06,0.33,0.1,0.51,0.13c0.15,0.03,0.27,0.03,0.37,0.01c0.21-0.03,0.32-0.05,0.33-0.05l0.62,0.18
				c0.05,0.01,0.12-0.09,0.22-0.33c0.08-0.17,0.15-0.31,0.23-0.43c0.18-0.25,0.26-0.42,0.26-0.49l0.01-0.22
				c0.07-0.66,0.09-1.03,0.07-1.1c-0.16-0.6-0.27-0.99-0.34-1.16c-0.13-0.39-0.47-0.69-1.01-0.89c-0.76-0.28-1.2-0.43-1.32-0.45
				c-0.14-0.03-0.25,0.03-0.31,0.16L594.22,197.06z"/>
			<path class="st8" d="M596.52,184.03l0.04,1.02l-0.01,1.34c0.06,0.65,0.11,1.03,0.16,1.14c0.04,0.09,0.14,0.13,0.3,0.14
				c0.08,0.01,0.43,0.15,1.06,0.4l0.46,0.05l0.96,0.24l0.16-0.08l0.66,0.11l0.22-0.1l0.2,0.15l0.21,0.08
				c0.17,0.28,0.25,0.45,0.25,0.5l-0.11,0.8l0.07,0.42c0,0.16-0.22,0.25-0.65,0.26c-0.04,0-0.22-0.07-0.55-0.23l-0.88-0.25
				l-0.67-0.22l-0.74-0.1l-0.63-0.25c-0.64-0.13-0.99-0.2-1.04-0.21s-0.63-0.2-1.72-0.55l-0.9-0.37l-0.66-0.2l-0.91-0.38l-0.95-0.25
				l-0.78-0.42l-0.9-0.4l-0.87-0.45c-0.5-0.2-0.77-0.31-0.79-0.32s-0.08-0.06-0.16-0.15c-0.06-0.05-0.13-0.1-0.24-0.15
				c-0.06-0.03-0.09-0.08-0.09-0.17c0-0.06,0.01-0.14,0.04-0.25c0.04-0.18,0.06-0.41,0.06-0.7c0-0.27-0.03-0.49-0.07-0.67
				c-0.02-0.08-0.03-0.14-0.03-0.17c0-0.12,0.05-0.25,0.16-0.38c0.06-0.08,0.09-0.12,0.1-0.12l0.35-0.09l0.83-0.52
				c0.69-0.31,1.17-0.54,1.44-0.71c0.51-0.31,0.8-0.46,0.86-0.47l0.91-0.37c0.32-0.16,0.77-0.36,1.34-0.6
				c0.22-0.09,0.52-0.23,0.89-0.42c0.46-0.22,0.84-0.37,1.14-0.46c0.06-0.02,0.36-0.14,0.91-0.36c0.62-0.25,1.22-0.44,1.79-0.55
				c0.31-0.07,0.76-0.22,1.33-0.45l0.75-0.22l0.34-0.16c0.22-0.06,0.34-0.09,0.35-0.09c0.08,0,0.14,0.03,0.2,0.09
				c0.04,0.05,0.08,0.13,0.13,0.24c0.14,0.37,0.21,0.62,0.21,0.72c0,0.07-0.03,0.23-0.1,0.48c-0.05,0.2-0.08,0.38-0.07,0.54
				c0,0.06,0.05,0.43,0.14,1.12c0.01,0.06,0.02,0.1,0.02,0.12c0,0.12-0.03,0.25-0.1,0.39c-0.06,0.12-0.47,0.22-1.24,0.32
				c-0.17,0.02-0.49,0.08-0.95,0.2c-0.16,0.04-0.27,0.06-0.34,0.07c-0.61,0.07-0.93,0.12-0.96,0.14l-0.43,0.28l-0.02,0.01
				c-0.01,0-0.02,0-0.03,0.01c-0.01,0.01-0.02,0.01-0.03,0.01s-0.02-0.01-0.04-0.02c-0.06-0.04-0.1-0.06-0.13-0.06
				c-0.03,0-0.09,0.07-0.16,0.21c-0.09,0.11-0.14,0.17-0.14,0.18l0.18,0.74L596.52,184.03z M590.2,185
				c0.02,0.06,0.03,0.11,0.03,0.13c0,0.01-0.02,0.04-0.06,0.09c-0.01,0.01-0.01,0.02-0.01,0.03c0,0.05,0.2,0.15,0.59,0.32l0.88,0.44
				l0.96,0.24l0.28,0.15l0.93,0.32l0.91,0.38l0.15-0.04c0.18-0.06,0.27-0.13,0.27-0.23l-0.02-0.13l-0.01-1.03l-0.05-1.04l0.02-1.05
				c-0.06-0.27-0.14-0.41-0.23-0.41c-0.01,0-0.05,0.01-0.1,0.02c-0.02,0-0.07,0-0.15,0c-0.08,0.01-0.13,0.02-0.15,0.02l-0.88,0.44
				l-0.38,0.1l-0.88,0.43L592,184.2l-0.87,0.46L590.2,185z"/>
		</g>
		<g>
			<path class="st8" d="M448.86,147.15l-0.08,0.25l0.05,0.51l0.11,0.5l0.04-0.01l0.2,0.48l0.35,0.38l0.05,0.06l0.42,0.29l0.39,0.34
				c0.1-0.03,0.17-0.03,0.21-0.01c0.08,0.05,0.19,0.13,0.32,0.25c0.06,0.06,0.12,0.1,0.18,0.13c0.07,0.04,0.22,0.1,0.46,0.16
				c0.4,0.13,0.67,0.21,0.81,0.23c0.13,0,0.44-0.05,0.92-0.16c0.18-0.05,0.28-0.09,0.3-0.13l0.06-0.09l0.23-0.2
				c0.18-0.15,0.32-0.31,0.41-0.47c0.12-0.21,0.2-0.38,0.22-0.51c0.04-0.22,0.07-0.4,0.1-0.53c0.01-0.06,0.01-0.14,0-0.23
				l-0.02-0.18l0.01-0.42l-0.05-0.27l0.03-0.11l0.03-0.1c0.02-0.04,0.07-0.04,0.14-0.03c0.04,0.01,0.18,0.08,0.41,0.2l0.06,0.03
				c0.03,0.01,0.05,0.05,0.07,0.1l0.05,0.05c-0.02,0.05-0.03,0.07-0.03,0.07c0,0.01,0.02,0.04,0.06,0.08
				c0.04,0.05,0.06,0.22,0.06,0.51c0,0.04,0,0.13,0,0.27c0.01,0.26-0.01,0.43-0.05,0.51l-0.17,0.43l-0.17,0.49l-0.2,0.3
				c-0.25,0.39-0.43,0.64-0.53,0.76c-0.04,0.05-0.25,0.22-0.63,0.51c-0.18,0.17-0.55,0.36-1.1,0.56c-0.91,0.23-1.69,0.17-2.35-0.19
				c-0.28-0.15-0.49-0.25-0.63-0.3l-0.33-0.28c-0.32-0.27-0.55-0.48-0.68-0.63c-0.17-0.2-0.27-0.34-0.3-0.42l-0.2-0.47
				c-0.14-0.28-0.21-0.44-0.22-0.47c-0.01-0.03-0.02-0.11-0.04-0.23c-0.01-0.09-0.02-0.33-0.03-0.72c-0.02-0.35-0.03-0.55-0.03-0.58
				c0.01-0.27,0.07-0.52,0.17-0.75c0.04-0.09,0.17-0.37,0.38-0.84c0.03-0.06,0.15-0.23,0.35-0.51c0.13-0.18,0.25-0.3,0.36-0.37
				l0.29-0.16c0.02-0.01,0.15-0.13,0.38-0.35c0.07-0.07,0.14-0.1,0.19-0.1c0.01,0,0.05,0.01,0.12,0.03c0,0,0.02-0.02,0.06-0.06
				l0.06,0.03c0.06-0.05,0.11-0.07,0.13-0.05c0.03,0.02,0.04,0.04,0.04,0.04l0.54,0.29c0.05,0.03,0.08,0.08,0.09,0.17
				c0.02,0.11,0.02,0.18-0.01,0.21c-0.02,0.03-0.08,0.07-0.18,0.09c-0.39,0.11-0.66,0.2-0.79,0.27c-0.18,0.09-0.33,0.21-0.46,0.36
				c-0.22,0.25-0.33,0.38-0.33,0.38l-0.16,0.12L448.86,147.15z"/>
			<path class="st8" d="M457.68,144.96l0.07,0.05c0.1,0.07,0.16,0.13,0.2,0.19c0.04,0.07,0.04,0.12,0.01,0.15l-0.15,0.14l-0.24,0.37
				l-0.29,0.33l-0.22,0.38c-0.09,0.07-0.16,0.11-0.2,0.14c-0.04,0.03-0.06,0.04-0.07,0.05l-0.12-0.08l-0.11-0.06l-0.21-0.24
				l-0.4-0.31l-0.29-0.31l-0.69-0.41c-0.02-0.01-0.08-0.07-0.17-0.18c-0.11-0.12-0.21-0.22-0.31-0.29l-0.51-0.35l-0.4-0.34
				l-0.42-0.31l-0.57-0.46c-0.03-0.02-0.12-0.07-0.27-0.15c-0.18-0.1-0.31-0.18-0.38-0.24c-0.2-0.15-0.33-0.23-0.4-0.25
				c-0.08-0.02-0.12-0.03-0.12-0.03l-0.14-0.14l-0.11-0.06l-0.04-0.12c-0.04-0.1-0.06-0.17-0.04-0.19c0.02-0.02,0.06-0.06,0.12-0.1
				c0.21-0.27,0.42-0.54,0.63-0.8l0.36-0.57c0.01-0.01,0.09-0.1,0.24-0.25c0.09-0.09,0.16-0.18,0.21-0.25
				c0.11-0.15,0.23-0.34,0.38-0.58c0.05-0.09,0.1-0.16,0.14-0.22c0.05-0.07,0.11-0.13,0.18-0.19c0.19-0.16,0.3-0.26,0.34-0.32
				c0.01-0.02,0.02-0.05,0.03-0.09c0-0.01,0-0.02,0.01-0.03c0,0,0.01-0.01,0.03-0.01c0.01,0.02,0.14-0.06,0.39-0.23
				c0.32-0.22,0.62-0.31,0.91-0.26c0.4,0.07,0.61,0.11,0.61,0.12l0.28,0.28l0.38,0.34l0.07,0.15c0.16,0.33,0.25,0.52,0.27,0.56
				c0.01,0.03,0.01,0.23,0,0.59c0,0.14,0.01,0.28,0.01,0.42c0,0.06,0.02,0.1,0.05,0.13c0.03,0.02,0.09,0.04,0.16,0.06
				c0.02,0,0.21,0.01,0.57,0.02c0.26,0.01,0.72,0.11,1.36,0.31l0.47,0.13c0.39,0.18,0.69,0.28,0.88,0.3c0.05,0,0.08,0.02,0.1,0.03
				c0.01,0.01,0.03,0.07,0.07,0.17c0.04,0.08,0.06,0.13,0.06,0.15s0,0.04-0.02,0.06c-0.02,0.03-0.06,0.06-0.1,0.1
				c-0.1,0.07-0.16,0.12-0.18,0.15l-0.33,0.55l-0.26,0.35l-0.06,0.1c-0.03,0.04-0.12,0.06-0.26,0.05c-0.08-0.01-0.2-0.06-0.36-0.18
				c-0.13-0.09-0.28-0.16-0.46-0.21c-0.27-0.08-0.43-0.14-0.48-0.17l-0.16-0.11l-0.51-0.03c-0.05-0.01-0.12-0.02-0.2-0.05
				c-0.26-0.1-0.42-0.14-0.5-0.12c-0.1,0.02-0.16,0.03-0.18,0.02c-0.08-0.03-0.12-0.04-0.13-0.04l-0.07,0.07l-0.09,0.01l-0.05,0.06
				l-0.09,0.06l-0.08,0.25c-0.01,0.03-0.05,0.1-0.13,0.21c-0.07,0.11-0.08,0.19-0.02,0.25c0.12,0.13,0.22,0.23,0.31,0.31
				c0.11,0.09,0.35,0.27,0.74,0.56l0.22,0.17L457.68,144.96z M453.64,140.22c0.04,0.06,0.04,0.1,0.03,0.13
				c-0.02,0.03-0.14,0.13-0.36,0.29c-0.04,0.04-0.08,0.07-0.1,0.1c-0.08,0.11-0.14,0.25-0.18,0.42c-0.04,0.16-0.01,0.31,0.09,0.44
				c0.17,0.22,0.28,0.35,0.33,0.37l0.47,0.26l0.38,0.31l0.35,0.24l0.13,0.18c0.06-0.05,0.1-0.08,0.12-0.09
				c0.01,0,0.05-0.01,0.12-0.02c0.03-0.01,0.06-0.02,0.07-0.05c0.03-0.04,0.13-0.27,0.3-0.69c0.04-0.11,0.07-0.23,0.07-0.37
				c0.02-0.39,0.02-0.62,0-0.7c-0.02-0.13-0.1-0.28-0.24-0.44l-0.25-0.3c-0.38-0.17-0.63-0.26-0.74-0.28c-0.04,0-0.07,0.02-0.1,0.07
				L453.64,140.22z"/>
			<path class="st8" d="M462.05,140.06c-0.02,0.02-0.05,0.08-0.12,0.18c-0.04,0.06-0.07,0.11-0.09,0.14
				c-0.04,0.05-0.13,0.14-0.28,0.27c-0.09,0.09-0.16,0.13-0.2,0.12c-0.05-0.01-0.09-0.02-0.11-0.04c-0.03-0.02-0.06-0.06-0.09-0.11
				c-0.1-0.15-0.23-0.29-0.4-0.43c-0.05-0.04-0.11-0.09-0.18-0.13c-0.09-0.06-0.13-0.09-0.13-0.09l-0.55-0.55l-0.42-0.31l-0.38-0.36
				l-0.43-0.29l-0.39-0.36l-0.49-0.34c0,0-0.1-0.11-0.3-0.33c-0.05-0.06-0.1-0.1-0.14-0.14c-0.08-0.07-0.17-0.12-0.27-0.17
				c-0.16-0.08-0.25-0.13-0.26-0.14l-0.48-0.43c-0.01-0.01-0.08-0.02-0.23-0.05c-0.02,0-0.03,0-0.04-0.01c0,0-0.01-0.02-0.03-0.04
				c0-0.02-0.03-0.05-0.07-0.1c-0.1-0.11-0.08-0.24,0.05-0.39l0.29-0.33l0.24-0.37l0.31-0.31l0.11-0.17
				c0.03-0.02,0.08-0.03,0.14-0.03c0.08,0,0.13,0.01,0.15,0.03c0.01,0.01,0.03,0.05,0.07,0.11c0.14,0.15,0.33,0.35,0.56,0.6
				l0.35,0.23l0.38,0.37l0.4,0.33l0.39,0.35l0.67,0.49c0.01,0.01,0.06,0.06,0.15,0.16c0.07,0.08,0.12,0.13,0.17,0.17
				s0.12,0.09,0.23,0.17c0.23,0.15,0.5,0.36,0.83,0.64l0.33,0.24l0.39,0.32c0.22,0.08,0.34,0.13,0.36,0.15
				c0.05,0.04,0.08,0.08,0.11,0.13c0.01,0.02,0,0.07-0.05,0.16l-0.09,0.24L462.05,140.06z"/>
			<path class="st8" d="M464.26,134.31l-0.37,0.39l-0.51,0.49c-0.22,0.26-0.34,0.42-0.37,0.48c-0.02,0.05,0,0.1,0.06,0.16
				c0.02,0.03,0.1,0.21,0.24,0.55l0.15,0.19l0.26,0.45l0.09,0.03l0.2,0.29l0.12,0.05l0.02,0.13l0.05,0.11
				c-0.04,0.17-0.08,0.26-0.1,0.27l-0.34,0.25l-0.13,0.18c-0.06,0.06-0.17,0.01-0.33-0.15c-0.02-0.02-0.05-0.11-0.12-0.29
				l-0.23-0.42l-0.16-0.33l-0.23-0.31l-0.13-0.33c-0.19-0.29-0.29-0.44-0.3-0.47c-0.01-0.03-0.16-0.31-0.42-0.85l-0.19-0.47
				l-0.16-0.32l-0.19-0.48l-0.25-0.45l-0.13-0.44l-0.18-0.49l-0.15-0.49c-0.11-0.26-0.16-0.4-0.17-0.42c0-0.01,0-0.05,0-0.12
				c0-0.04-0.01-0.09-0.03-0.14c-0.01-0.03,0-0.07,0.03-0.1c0.02-0.02,0.06-0.05,0.11-0.08c0.08-0.05,0.18-0.13,0.28-0.23
				c0.1-0.1,0.18-0.19,0.22-0.27c0.02-0.04,0.04-0.06,0.05-0.08c0.04-0.05,0.11-0.07,0.2-0.08c0.05-0.01,0.08-0.01,0.08,0l0.16,0.1
				l0.5,0.12c0.37,0.15,0.63,0.24,0.79,0.28c0.3,0.08,0.47,0.13,0.49,0.15l0.47,0.2c0.18,0.06,0.42,0.16,0.71,0.29
				c0.12,0.05,0.28,0.11,0.48,0.18c0.25,0.09,0.45,0.18,0.59,0.26c0.03,0.01,0.19,0.08,0.47,0.21c0.32,0.14,0.61,0.3,0.86,0.47
				c0.14,0.09,0.36,0.21,0.65,0.34l0.36,0.2l0.18,0.07c0.1,0.06,0.16,0.1,0.16,0.1c0.03,0.03,0.04,0.06,0.04,0.11
				c0,0.03-0.02,0.08-0.04,0.14c-0.09,0.19-0.16,0.3-0.2,0.34c-0.02,0.03-0.1,0.07-0.22,0.14c-0.09,0.05-0.17,0.11-0.23,0.17
				c-0.02,0.02-0.14,0.18-0.37,0.46c-0.02,0.03-0.03,0.05-0.04,0.05c-0.05,0.05-0.11,0.08-0.18,0.11c-0.07,0.02-0.26-0.1-0.57-0.35
				c-0.07-0.06-0.21-0.15-0.42-0.28c-0.07-0.05-0.12-0.08-0.15-0.1c-0.25-0.2-0.39-0.31-0.4-0.31l-0.26-0.06l-0.01,0
				c0,0-0.01,0-0.02-0.01c-0.01,0-0.01,0-0.01-0.01c0,0-0.01-0.01-0.01-0.02c0-0.04-0.01-0.06-0.03-0.07
				c-0.01-0.01-0.06-0.01-0.14,0.02c-0.08,0.01-0.12,0.01-0.12,0.01l-0.21,0.33L464.26,134.31z M461.59,132.3
				c-0.01,0.03-0.03,0.05-0.04,0.06c0,0-0.02,0.01-0.06,0.01c0,0-0.01,0-0.02,0.01c-0.02,0.02,0.01,0.13,0.1,0.34l0.16,0.49
				l0.26,0.45l0.05,0.16l0.22,0.47l0.19,0.48l0.07,0.04c0.09,0.05,0.15,0.05,0.19,0.02l0.04-0.06l0.39-0.38l0.37-0.4l0.4-0.37
				c0.08-0.12,0.1-0.2,0.07-0.24c0-0.01-0.02-0.02-0.05-0.03c-0.01-0.01-0.03-0.03-0.06-0.06c-0.03-0.03-0.05-0.04-0.06-0.05
				l-0.49-0.17l-0.17-0.11l-0.48-0.18l-0.11-0.1l-0.49-0.16L461.59,132.3z"/>
			<path class="st8" d="M464.86,126.82c0.34-0.21,0.59-0.4,0.77-0.54c0.17-0.14,0.33-0.25,0.46-0.34c0.12-0.07,0.18-0.11,0.18-0.11
				l0.77-0.68c0.02-0.01,0.11-0.06,0.27-0.14c0.1-0.05,0.25-0.13,0.45-0.25c0.19-0.1,0.33-0.15,0.41-0.15c0.01,0,0.02,0,0.02-0.01
				l0.01-0.02c0.01-0.03,0.03-0.05,0.03-0.08c0.01-0.03,0.02-0.06,0.04-0.08c0.04-0.03,0.14-0.05,0.3-0.07c0.05,0,0.27,0,0.67,0
				c0.29-0.03,0.45-0.04,0.48-0.03c0.01,0.01,0.04,0.03,0.07,0.06c0.34,0.04,0.52,0.06,0.53,0.06c0.01,0,0.1,0.04,0.27,0.12
				c0.23,0.1,0.44,0.2,0.64,0.31l0.36,0.37l0.37,0.35l0.2,0.25l0.32,0.4l0.18,0.48c0.15,0.24,0.24,0.37,0.25,0.41
				c0.02,0.04,0.04,0.11,0.05,0.22c0.01,0.09,0.03,0.33,0.05,0.72c0.02,0.29,0,0.54-0.05,0.72c-0.08,0.24-0.16,0.47-0.23,0.68
				c-0.18,0.27-0.27,0.41-0.27,0.43l0,0.09c-0.24,0.25-0.47,0.5-0.69,0.77l-0.39,0.33l-0.03,0.03l-0.03,0.02
				c-0.02,0.02-0.18,0.13-0.48,0.32l-0.39,0.31l-0.41,0.28l-0.37,0.35c-0.37,0.23-0.57,0.35-0.58,0.35c-0.03,0-0.06,0-0.11-0.01
				c-0.12-0.03-0.18-0.05-0.2-0.06c0-0.01-0.01-0.03-0.02-0.08c0-0.06-0.05-0.16-0.14-0.28c-0.08-0.11-0.18-0.25-0.3-0.41
				c-0.13-0.17-0.21-0.28-0.24-0.33c-0.19-0.27-0.4-0.55-0.63-0.83l-0.28-0.44l-0.5-0.57c-0.02-0.02-0.07-0.1-0.16-0.23
				c-0.09-0.13-0.19-0.27-0.29-0.4c-0.06-0.07-0.12-0.14-0.19-0.23c-0.04-0.04-0.06-0.07-0.08-0.09c-0.03-0.04-0.15-0.22-0.35-0.55
				c-0.1-0.17-0.22-0.33-0.35-0.49c-0.09-0.11-0.17-0.18-0.24-0.21c-0.09-0.05-0.14-0.08-0.15-0.09l-0.08-0.13l-0.09-0.09
				c-0.03-0.03-0.03-0.1-0.01-0.2C464.73,126.97,464.78,126.9,464.86,126.82z M467.17,126.02c-0.05,0.04-0.17,0.18-0.34,0.4
				c-0.06,0.07-0.09,0.13-0.09,0.16c-0.01,0.04,0.01,0.08,0.04,0.14c0.01,0.02,0.15,0.22,0.41,0.6c0.3,0.38,0.61,0.8,0.91,1.26
				c0.13,0.19,0.32,0.45,0.6,0.78l0.38,0.46c0.06,0.08,0.16,0.21,0.29,0.4c0.1,0.14,0.17,0.24,0.22,0.31
				c0.18,0.22,0.34,0.36,0.48,0.42c0.15,0.06,0.31,0.02,0.47-0.11c0.03-0.03,0.1-0.1,0.2-0.23c0.24-0.24,0.37-0.36,0.39-0.38
				c0.02-0.01,0.05-0.07,0.09-0.16c0.14-0.3,0.21-0.45,0.21-0.47l0.01-0.51c0.03-0.05,0.04-0.09,0.05-0.11
				c0.01-0.03-0.03-0.18-0.1-0.45c-0.04-0.25-0.07-0.42-0.08-0.51c-0.01-0.07-0.02-0.1-0.02-0.11l-0.3-0.42
				c-0.17-0.33-0.27-0.52-0.3-0.56c-0.23-0.29-0.47-0.52-0.71-0.69c-0.06-0.05-0.28-0.16-0.65-0.35c-0.25-0.14-0.48-0.2-0.67-0.21
				c-0.3-0.01-0.47-0.01-0.51,0.01l-0.49,0.17C467.43,125.88,467.27,125.93,467.17,126.02z"/>
			<path class="st8" d="M476.6,124.27l-0.44,0.3l-0.6,0.37c-0.27,0.21-0.42,0.34-0.46,0.39c-0.03,0.04-0.02,0.1,0.02,0.17
				c0.02,0.04,0.06,0.23,0.12,0.58l0.11,0.22l0.16,0.49l0.08,0.05l0.13,0.32l0.1,0.07l-0.01,0.13l0.02,0.11
				c-0.08,0.15-0.13,0.24-0.15,0.25l-0.39,0.18l-0.17,0.15c-0.07,0.04-0.17-0.03-0.29-0.22c-0.01-0.02-0.03-0.12-0.05-0.31
				l-0.13-0.46l-0.09-0.36l-0.16-0.36l-0.06-0.35c-0.12-0.32-0.19-0.49-0.2-0.52c-0.01-0.03-0.09-0.34-0.24-0.91l-0.09-0.5
				l-0.09-0.35l-0.08-0.51l-0.15-0.49l-0.03-0.46l-0.07-0.51l-0.04-0.51c-0.05-0.28-0.08-0.43-0.08-0.44c0-0.01,0.01-0.05,0.02-0.11
				c0.01-0.04,0.01-0.09,0-0.15c-0.01-0.04,0.01-0.06,0.05-0.09c0.03-0.02,0.07-0.04,0.12-0.05c0.09-0.03,0.2-0.09,0.33-0.17
				c0.12-0.08,0.21-0.15,0.28-0.22c0.03-0.03,0.05-0.05,0.07-0.06c0.05-0.04,0.12-0.05,0.21-0.04c0.05,0.01,0.08,0.01,0.08,0.01
				l0.14,0.13l0.46,0.23c0.33,0.22,0.57,0.37,0.72,0.44c0.28,0.14,0.43,0.23,0.45,0.25l0.42,0.3c0.16,0.1,0.37,0.24,0.64,0.43
				c0.1,0.07,0.25,0.17,0.43,0.28c0.23,0.14,0.4,0.27,0.52,0.38c0.03,0.02,0.17,0.12,0.42,0.3c0.29,0.21,0.53,0.42,0.74,0.64
				c0.12,0.12,0.31,0.28,0.57,0.47l0.31,0.27l0.17,0.1c0.09,0.08,0.13,0.13,0.14,0.13c0.02,0.03,0.03,0.07,0.02,0.11
				c-0.01,0.03-0.03,0.07-0.07,0.12c-0.13,0.16-0.21,0.26-0.26,0.29c-0.03,0.02-0.11,0.05-0.24,0.09c-0.1,0.03-0.19,0.07-0.26,0.12
				c-0.02,0.02-0.18,0.14-0.46,0.38c-0.02,0.02-0.04,0.04-0.05,0.04c-0.05,0.04-0.12,0.06-0.2,0.07c-0.07,0.01-0.23-0.15-0.49-0.46
				c-0.06-0.07-0.17-0.19-0.35-0.36c-0.06-0.06-0.1-0.1-0.12-0.13c-0.2-0.25-0.31-0.38-0.33-0.39l-0.24-0.11l-0.01-0.01
				c0,0-0.01-0.01-0.01-0.01c-0.01,0-0.01-0.01-0.01-0.01s0-0.01,0-0.02c0-0.04,0-0.06-0.01-0.08c-0.01-0.02-0.05-0.02-0.14-0.01
				c-0.08-0.01-0.12-0.02-0.12-0.01l-0.28,0.28L476.6,124.27z M474.41,121.74c-0.02,0.03-0.04,0.04-0.05,0.05c0,0-0.02,0-0.06,0
				c0,0-0.01,0-0.02,0c-0.02,0.01-0.01,0.13,0.02,0.35l0.05,0.51l0.16,0.49l0.01,0.17l0.12,0.5l0.08,0.51l0.06,0.06
				c0.08,0.07,0.14,0.08,0.18,0.06l0.05-0.05l0.46-0.29l0.45-0.31l0.47-0.28c0.1-0.1,0.14-0.17,0.12-0.22
				c0-0.01-0.02-0.02-0.04-0.04c-0.01-0.01-0.02-0.03-0.04-0.07c-0.03-0.03-0.04-0.05-0.05-0.06l-0.44-0.27l-0.15-0.14l-0.44-0.27
				l-0.09-0.12l-0.45-0.26L474.41,121.74z"/>
			<path class="st8" d="M480.76,116.45c-0.04,0.02-0.17,0.15-0.38,0.38c-0.12,0.13-0.19,0.23-0.21,0.31
				c-0.02,0.11-0.03,0.26-0.03,0.43c0.01,0.17,0.02,0.29,0.05,0.34c0.05,0.1,0.21,0.24,0.46,0.41c0.1,0.07,0.2,0.1,0.32,0.09
				c0.24-0.01,0.45-0.03,0.62-0.07c0.03-0.01,0.23-0.08,0.6-0.21l0.54-0.11l0.5-0.11l0.23,0.01c0.36,0,0.57,0,0.63,0.02
				c0.07,0.02,0.25,0.1,0.53,0.23c0.16,0.12,0.25,0.19,0.27,0.21l0.37,0.33l0.07,0.19l0.24,0.46c0.05,0.1,0.09,0.31,0.11,0.63
				c0.01,0.16-0.04,0.42-0.14,0.79c-0.05,0.19-0.09,0.29-0.1,0.31l-0.06,0.09c-0.15,0.32-0.23,0.49-0.24,0.5
				c0,0.01-0.07,0.07-0.2,0.19c-0.06,0.06-0.15,0.14-0.25,0.23c-0.54,0.4-0.83,0.61-0.87,0.63c-0.05,0.03-0.17,0.07-0.37,0.13
				c-0.07,0.02-0.15,0.05-0.25,0.08c-0.42,0.14-0.72,0.22-0.89,0.23c-0.17,0-0.34,0.01-0.51,0.01c-0.25,0.06-0.38,0.06-0.4,0.02
				l-0.02-0.06c-0.06,0.02-0.11,0.02-0.13,0.01c-0.09-0.06-0.14-0.1-0.14-0.11l-0.18-0.43l-0.06-0.13c0,0,0.03-0.04,0.08-0.11
				c0.03-0.05,0.07-0.08,0.11-0.1c0.02-0.01,0.06-0.02,0.11-0.02c0.01,0,0.17,0.03,0.47,0.09c0.14,0.03,0.38,0.03,0.71,0
				c0.35-0.03,0.65-0.11,0.92-0.25c0.25-0.13,0.42-0.23,0.49-0.28c0.05-0.04,0.1-0.09,0.13-0.15c0.2-0.28,0.3-0.44,0.32-0.47
				c0.06-0.14,0.1-0.29,0.11-0.44c0.01-0.15-0.01-0.28-0.07-0.38c-0.07-0.13-0.19-0.25-0.38-0.38c-0.16-0.11-0.34-0.15-0.55-0.13
				c-0.14,0.01-0.3,0.05-0.48,0.11c-0.27,0.09-0.41,0.13-0.42,0.14c-0.14,0.03-0.29,0.06-0.43,0.09c-0.33,0.12-0.52,0.18-0.55,0.19
				s-0.1,0.02-0.2,0.02c-0.08,0-0.31-0.01-0.69-0.04c-0.2-0.01-0.33-0.02-0.38-0.03c-0.05-0.01-0.14-0.04-0.26-0.1
				c-0.2-0.09-0.33-0.16-0.4-0.22c-0.11-0.09-0.25-0.27-0.43-0.55c-0.09-0.14-0.15-0.23-0.17-0.27c-0.15-0.28-0.21-0.63-0.2-1.04
				c0.01-0.29,0.07-0.55,0.18-0.77c0.25-0.54,0.4-0.81,0.44-0.82c0.05-0.01,0.1-0.01,0.16,0.01l0.36-0.36l0.45-0.26
				c0.02-0.07,0.04-0.11,0.06-0.11l0.44-0.18l0.27-0.11c0.34-0.07,0.58-0.14,0.75-0.2c0.23-0.08,0.4-0.09,0.51-0.05
				c0.06,0.01,0.11,0.02,0.13,0.02c0.05-0.01,0.08-0.02,0.08-0.02l0.03,0.09c0.01,0,0.04,0,0.07,0.02l0.11,0.06
				c0.09,0.05,0.19,0.18,0.29,0.39c0.05,0.1,0.07,0.19,0.04,0.27c-0.03,0.11-0.07,0.18-0.12,0.2c-0.03,0.02-0.2-0.02-0.5-0.1
				c-0.23-0.07-0.48-0.07-0.75-0.02c-0.07,0.01-0.29,0.08-0.65,0.19L480.76,116.45z"/>
			<path class="st8" d="M491.8,111.99l-0.22,0.13l-0.29,0.42l-0.24,0.45l0.04,0.02l-0.16,0.49l0.02,0.52v0.08l0.13,0.49l0.07,0.51
				c0.09,0.04,0.15,0.08,0.17,0.13c0.03,0.09,0.06,0.22,0.08,0.39c0.01,0.08,0.03,0.16,0.05,0.22c0.03,0.08,0.11,0.22,0.24,0.42
				c0.22,0.36,0.37,0.59,0.46,0.7c0.1,0.09,0.37,0.25,0.8,0.48c0.17,0.08,0.27,0.11,0.31,0.1l0.11-0.02h0.31
				c0.24,0,0.44-0.03,0.62-0.09c0.23-0.08,0.4-0.16,0.5-0.24c0.17-0.14,0.32-0.25,0.42-0.34c0.05-0.04,0.1-0.1,0.15-0.18l0.1-0.15
				l0.28-0.31l0.13-0.24l0.09-0.07l0.08-0.06c0.04-0.01,0.08,0.01,0.13,0.07c0.02,0.04,0.08,0.18,0.18,0.42l0.03,0.06
				c0.01,0.03,0,0.07-0.01,0.12l0.01,0.07c-0.05,0.02-0.07,0.03-0.07,0.04c-0.01,0.01-0.01,0.04-0.01,0.1c0,0.06-0.09,0.2-0.29,0.43
				c-0.03,0.03-0.09,0.1-0.17,0.2c-0.16,0.2-0.28,0.32-0.37,0.36l-0.4,0.21l-0.44,0.26l-0.35,0.1c-0.45,0.13-0.74,0.21-0.89,0.23
				c-0.07,0.01-0.34,0.01-0.82-0.02c-0.25,0.01-0.65-0.08-1.2-0.29c-0.84-0.41-1.39-0.97-1.67-1.67c-0.11-0.29-0.21-0.51-0.28-0.63
				l-0.07-0.42c-0.07-0.42-0.11-0.72-0.11-0.92c0-0.26,0.01-0.43,0.04-0.51l0.16-0.49c0.08-0.3,0.12-0.47,0.13-0.5
				c0.01-0.03,0.05-0.1,0.12-0.2c0.05-0.08,0.2-0.26,0.45-0.57c0.21-0.28,0.33-0.44,0.35-0.47c0.19-0.2,0.39-0.35,0.62-0.47
				c0.09-0.05,0.37-0.18,0.84-0.39c0.06-0.02,0.26-0.07,0.6-0.16c0.22-0.05,0.39-0.07,0.51-0.04l0.32,0.06
				c0.03,0.01,0.2,0,0.52-0.02c0.1,0,0.17,0.01,0.2,0.05c0.01,0.01,0.04,0.04,0.07,0.1c0,0,0.03,0,0.08,0l0.03,0.06
				c0.08,0,0.12,0.02,0.13,0.05c0,0.04,0.01,0.06,0.01,0.06l0.22,0.57c0.02,0.05,0,0.11-0.04,0.19c-0.05,0.09-0.1,0.14-0.14,0.16
				c-0.04,0.01-0.1,0-0.2-0.04c-0.37-0.17-0.63-0.27-0.78-0.31c-0.19-0.05-0.39-0.05-0.58-0.02c-0.33,0.05-0.5,0.07-0.5,0.07
				l-0.2-0.01L491.8,111.99z"/>
			<path class="st8" d="M498.32,115.73l-0.12,0.04c-0.05,0.01-0.16-0.11-0.34-0.37c-0.08-0.12-0.19-0.25-0.31-0.41
				c-0.12-0.16-0.2-0.26-0.24-0.32c-0.02-0.03-0.09-0.19-0.21-0.47c-0.1-0.24-0.16-0.38-0.17-0.42l-0.06-0.33l-0.14-0.49l0.01-0.52
				c-0.02-0.2-0.04-0.32-0.04-0.35c0-0.03,0.01-0.11,0.04-0.23c0.02-0.1,0.07-0.3,0.16-0.6c0.02-0.06,0.13-0.27,0.33-0.63
				c0.1-0.17,0.17-0.29,0.22-0.34c0.09-0.1,0.19-0.2,0.28-0.3l0.34-0.38l0.16-0.02c0,0,0.12-0.09,0.34-0.26
				c0.01-0.01,0.34-0.16,0.99-0.44c0.01,0,0.06,0,0.15-0.01c0.07,0,0.24-0.03,0.51-0.08c0.31-0.06,0.58-0.08,0.82-0.06
				c0.09,0.01,0.23,0.04,0.41,0.09l0.5,0.12l0.45,0.25c0.31,0.16,0.47,0.24,0.48,0.25c0.16,0.11,0.35,0.28,0.56,0.5
				c0.13,0.13,0.21,0.24,0.24,0.31c0.05,0.1,0.1,0.2,0.15,0.3l0.25,0.45l0.14,0.49l0.15,0.32l0.03,0.44
				c0.03,0.37,0.04,0.6,0.03,0.68c-0.07,0.48-0.13,0.82-0.17,1.02c-0.16,0.49-0.56,1.04-1.18,1.66l-0.04,0.04l-0.45,0.23l-0.45,0.26
				l-0.49,0.14l-0.19,0.1l-0.51,0.05l-0.51,0.07l-0.51-0.1l-0.21-0.02c-0.43-0.12-0.69-0.2-0.79-0.23l-0.19-0.07l-0.39-0.32
				L498.32,115.73L498.32,115.73z M499.72,109.65c-0.1,0.03-0.24,0.12-0.43,0.25c-0.35,0.24-0.57,0.57-0.66,1.01
				c-0.09,0.36-0.14,0.58-0.15,0.65c-0.01,0.07,0,0.2,0.03,0.37c0.02,0.12,0.04,0.23,0.07,0.33c0.09,0.41,0.13,0.67,0.12,0.78
				l-0.01,0.11l0.19,0.48l0.13,0.49l0.03,0.05c0.21,0.36,0.35,0.59,0.44,0.69c0.2,0.24,0.35,0.39,0.45,0.46
				c0.15,0.1,0.37,0.18,0.67,0.24c0.26,0.05,0.49,0.06,0.69,0.01c0.37-0.09,0.67-0.29,0.9-0.6c0.21-0.3,0.32-0.52,0.32-0.67
				c0-0.07,0.02-0.23,0.08-0.51c0.04-0.22,0.04-0.43,0-0.61l-0.04-0.51l-0.12-0.5l0.02-0.1l-0.15-0.49
				c-0.09-0.31-0.15-0.47-0.16-0.48c0,0-0.03-0.01-0.08-0.04c-0.01,0-0.08-0.16-0.21-0.47l-0.34-0.39
				c-0.21-0.24-0.34-0.38-0.38-0.42c-0.11-0.09-0.22-0.14-0.33-0.16c-0.13,0-0.26,0.01-0.4,0.01L499.72,109.65z"/>
			<path class="st8" d="M507.44,110.69c-0.02,0-0.05,0.02-0.1,0.06c-0.07,0.05-0.1,0.13-0.1,0.26c0,0.05,0.01,0.37,0.03,0.97
				c0,0.01,0.02,0.12,0.07,0.33c0.01,0.05,0.02,0.08,0.02,0.09l0.07,0.79c0,0.02,0.02,0.11,0.05,0.26c0.05,0.23,0.08,0.36,0.1,0.4
				c0.04,0.11,0.07,0.18,0.07,0.19l0.03,0.45l0.07,0.2c0,0.01-0.01,0.06-0.03,0.13c-0.02,0.05-0.05,0.09-0.09,0.12
				c-0.01,0-0.07,0.04-0.18,0.11l-0.35,0l-0.2,0.04c-0.02,0-0.05-0.01-0.09-0.04c-0.07-0.07-0.11-0.12-0.11-0.17
				c0-0.01,0.01-0.05,0.03-0.12c0-0.21,0-0.48,0.01-0.82l-0.1-0.41l-0.02-0.52l-0.06-0.52l-0.05-0.52l-0.14-0.81
				c0-0.02,0-0.1,0-0.23c0-0.1,0-0.19-0.01-0.24c-0.01-0.06-0.02-0.16-0.05-0.28c-0.06-0.27-0.11-0.61-0.16-1.03l-0.07-0.41
				l-0.06-0.5l-0.1-0.22c-0.03-0.08-0.05-0.13-0.05-0.14c-0.01-0.08,0-0.15,0.03-0.2c0.01-0.02,0.19-0.08,0.54-0.18l0.28,0.02
				c0.06,0,0.12,0,0.16,0c0.1-0.01,0.22-0.04,0.34-0.07c0.16-0.05,0.27-0.08,0.33-0.08c0.09-0.01,0.21,0,0.36,0.02
				c0.1,0.02,0.24,0.22,0.43,0.61c0.13,0.26,0.28,0.56,0.47,0.88c0.31,0.55,0.53,1,0.66,1.33c0.14,0.35,0.27,0.55,0.38,0.61
				c0.09,0.04,0.16,0.06,0.21,0.06c0.04,0,0.08-0.03,0.13-0.08c0.04-0.05,0.11-0.29,0.2-0.71l0.16-0.47l0.08-0.49
				c-0.01-0.04,0.04-0.19,0.15-0.47c0.09-0.24,0.14-0.4,0.15-0.48l0.07-0.49c0.07-0.32,0.11-0.5,0.12-0.54
				c0.01-0.05,0.02-0.09,0.03-0.1l0.09-0.05c0.1-0.08,0.22-0.12,0.34-0.13l0.64-0.06c0.03,0,0.07-0.02,0.12-0.04l0.16-0.07
				l0.47,0.09c0.11,0,0.17,0.01,0.19,0.03c0.02,0.03,0.04,0.05,0.04,0.07c0,0.01,0,0.03-0.02,0.05c-0.03,0.07-0.05,0.11-0.04,0.13
				l0.02,0.32l-0.02,0.5l0.1,0.41l0.04,0.52l0.08,0.52l0.04,0.54c0,0.01,0.03,0.18,0.1,0.49c0.02,0.11,0.04,0.21,0.05,0.3
				c0.01,0.06,0.01,0.13,0.02,0.21c0.01,0.19,0.01,0.29,0.01,0.3c0.06,0.62,0.11,1.04,0.15,1.26c0.02,0.13,0.03,0.22,0.04,0.26
				c0,0.04,0.01,0.09,0.01,0.16c0,0.1,0,0.16,0,0.19c0.01,0.09,0.04,0.2,0.08,0.32c0.04,0.1,0.08,0.16,0.13,0.18
				c0.01,0,0.02,0.01,0.02,0.01l-0.01,0.01c-0.01,0.01-0.02,0.04-0.01,0.08c0.01,0.09,0.01,0.16-0.01,0.2
				c-0.05,0.11-0.11,0.17-0.19,0.18l-1.07,0.09c-0.04,0-0.13,0.03-0.28,0.08c-0.04,0.01-0.07,0.02-0.09,0.03
				c-0.03,0-0.05,0-0.09-0.02c-0.01,0-0.04-0.04-0.1-0.11c-0.07-0.07-0.1-0.11-0.1-0.11c0-0.02,0.01-0.06,0.03-0.11
				c0.01-0.02,0.01-0.04,0.01-0.04l-0.07-0.44c0-0.01,0.01-0.12,0.03-0.33c0-0.07,0-0.14-0.01-0.21c-0.01-0.06-0.02-0.12-0.03-0.2
				c-0.06-0.27-0.08-0.41-0.09-0.42l-0.06-0.72l-0.08-0.56l0.01-0.43c0-0.05-0.07-0.17-0.2-0.35c-0.08-0.11-0.15-0.17-0.21-0.16
				c-0.04,0-0.08,0.03-0.14,0.08c-0.06,0.05-0.1,0.1-0.12,0.15c-0.02,0.05-0.12,0.44-0.27,1.19c-0.08,0.38-0.17,0.74-0.28,1.08
				c-0.07,0.23-0.12,0.41-0.13,0.54c-0.01,0.11-0.05,0.18-0.11,0.22c-0.08,0.05-0.15,0.09-0.22,0.1c-0.05,0.01-0.24,0.02-0.57,0.04
				c-0.1,0-0.18-0.01-0.24-0.05c-0.08-0.05-0.2-0.24-0.35-0.56c-0.09-0.18-0.25-0.45-0.49-0.81c-0.13-0.2-0.21-0.33-0.24-0.41
				l-0.18-0.44c-0.24-0.37-0.38-0.58-0.42-0.61C507.55,110.71,507.49,110.68,507.44,110.69z"/>
			<path class="st8" d="M522.08,112.06l-0.54-0.02l-0.7-0.05c-0.34,0.01-0.54,0.02-0.6,0.04c-0.05,0.02-0.08,0.07-0.08,0.15
				c-0.01,0.04-0.09,0.22-0.25,0.54l-0.04,0.24l-0.16,0.49l0.03,0.09l-0.08,0.34l0.04,0.12l-0.09,0.1l-0.05,0.1
				c-0.16,0.08-0.25,0.12-0.27,0.11l-0.42-0.09l-0.22,0.02c-0.08-0.01-0.12-0.12-0.11-0.35c0-0.02,0.05-0.11,0.14-0.28l0.16-0.45
				l0.14-0.34l0.08-0.38l0.16-0.32c0.09-0.33,0.14-0.51,0.15-0.54s0.13-0.32,0.35-0.88l0.23-0.46l0.13-0.34l0.23-0.46l0.16-0.49
				l0.25-0.39l0.24-0.46l0.26-0.44c0.12-0.25,0.19-0.39,0.2-0.4c0.01-0.01,0.04-0.04,0.08-0.08c0.03-0.03,0.06-0.07,0.09-0.12
				c0.02-0.03,0.05-0.05,0.09-0.04c0.03,0,0.08,0.01,0.13,0.03c0.09,0.03,0.21,0.05,0.36,0.06c0.14,0.01,0.26,0,0.35-0.01
				c0.04-0.01,0.07-0.01,0.09-0.01c0.06,0,0.13,0.03,0.19,0.1c0.04,0.03,0.06,0.05,0.06,0.06l0.03,0.18l0.24,0.45
				c0.13,0.37,0.24,0.63,0.32,0.78c0.14,0.28,0.21,0.44,0.21,0.47l0.16,0.49c0.07,0.17,0.16,0.41,0.26,0.72
				c0.04,0.12,0.1,0.28,0.18,0.48c0.1,0.25,0.17,0.45,0.2,0.61c0.01,0.03,0.06,0.2,0.16,0.49c0.11,0.34,0.18,0.65,0.22,0.95
				c0.02,0.17,0.08,0.4,0.18,0.71l0.09,0.4l0.07,0.18c0.02,0.12,0.03,0.18,0.03,0.19c0,0.04-0.02,0.07-0.05,0.1
				c-0.03,0.02-0.07,0.04-0.13,0.06c-0.2,0.06-0.33,0.09-0.39,0.08c-0.04,0-0.12-0.03-0.25-0.07c-0.1-0.03-0.2-0.05-0.28-0.06
				c-0.03,0-0.23,0.01-0.59,0.03c-0.03,0.01-0.05,0.01-0.06,0.01c-0.07,0-0.13-0.02-0.2-0.06c-0.06-0.04-0.1-0.25-0.12-0.66
				c0-0.09-0.03-0.26-0.07-0.5c-0.01-0.08-0.02-0.14-0.02-0.18c-0.02-0.32-0.03-0.49-0.04-0.51l-0.13-0.23l0-0.01c0,0,0-0.01,0-0.02
				c0-0.01,0-0.01,0-0.02c0,0,0-0.01,0.01-0.02c0.02-0.03,0.04-0.05,0.04-0.07c0-0.02-0.03-0.05-0.1-0.09
				c-0.05-0.05-0.08-0.08-0.09-0.08l-0.39,0.07L522.08,112.06z M521.8,108.72c-0.03,0.01-0.06,0.01-0.07,0.01
				c0,0-0.02-0.01-0.05-0.04c0,0-0.01-0.01-0.02-0.01c-0.03,0-0.09,0.1-0.19,0.3l-0.26,0.44l-0.16,0.49l-0.09,0.14l-0.2,0.47
				l-0.23,0.46l0.02,0.08c0.02,0.1,0.06,0.15,0.11,0.15l0.07-0.01l0.54,0.03l0.54,0.01l0.55,0.05c0.14-0.02,0.22-0.06,0.22-0.11
				c0-0.01,0-0.03-0.01-0.05c0-0.01,0-0.04,0-0.08c0-0.04,0-0.07-0.01-0.08l-0.2-0.48l-0.04-0.2l-0.19-0.48l0-0.15l-0.21-0.47
				L521.8,108.72z M523.2,104.7l0.35,0.11c0.01,0,0.08-0.03,0.2-0.1c0.01-0.01,0.03-0.01,0.03-0.01c0.04,0,0.09,0.03,0.14,0.09
				c0.03,0.03,0.05,0.08,0.07,0.15c0.03,0.08,0.04,0.13,0.04,0.16c0,0.07-0.04,0.14-0.1,0.2l-0.41,0.39
				c-0.29,0.32-0.54,0.59-0.76,0.79l-0.01,0.02l0.01,0.08c0,0-0.02,0.02-0.07,0.06c-0.02,0.02-0.07,0.03-0.14,0.02
				c-0.2-0.01-0.32,0-0.36,0.02c-0.03,0.01-0.04,0.01-0.05,0.01c-0.03,0-0.05-0.01-0.08-0.03c-0.01-0.01-0.02-0.06-0.05-0.15
				l-0.06-0.12c0,0,0.04-0.05,0.1-0.15l0.26-0.47l0.33-0.42c0.21-0.32,0.33-0.49,0.35-0.52c0.02-0.02,0.05-0.04,0.11-0.07
				L523.2,104.7z"/>
			<path class="st8" d="M531.04,108.64c-0.37,0.04-0.61,0.06-0.71,0.07c-0.12,0.02-0.2,0.04-0.24,0.08l-0.06,0.06l-0.46,0.24
				l-0.34,0.38l-0.08,0l-0.28,0.44c-0.17,0.19-0.26,0.29-0.26,0.32c-0.01,0.04,0,0.08,0.02,0.13c0.01,0.04,0.02,0.06,0.02,0.07
				l-0.24,0.5l-0.02,0.46l-0.13,0.73c0,0.03,0.02,0.2,0.07,0.51c0.04,0.26,0.08,0.45,0.11,0.58c0.01,0.03,0.09,0.22,0.25,0.56
				c0.11,0.23,0.19,0.36,0.23,0.38c0.02,0.01,0.03,0.02,0.03,0.03c0.01,0.01,0.02,0.01,0.02,0.01c0,0,0.02-0.01,0.05-0.02l0.43,0.34
				c0.04,0.03,0.15,0.06,0.34,0.09c0.32,0.05,0.57,0.05,0.77,0c0.26-0.07,0.43-0.17,0.5-0.28c0.17-0.28,0.26-0.45,0.26-0.51
				l0.03-0.45l0.14-0.62c0.01-0.1,0-0.21-0.03-0.33c-0.05-0.17-0.08-0.28-0.08-0.34c0-0.06,0-0.11,0-0.15
				c-0.01-0.03-0.01-0.06,0-0.07c0.01-0.09,0.06-0.15,0.13-0.17c0.03-0.01,0.26,0.01,0.71,0.07l0.44,0.12l0.5,0.05
				c0.08,0.01,0.15,0.05,0.21,0.11c0.07,0.08,0.1,0.14,0.1,0.18l-0.09,0.11l-0.13,0.5l-0.17,0.56l0.01,0.06
				c0.02,0.12,0.03,0.19,0.02,0.23l-0.1,0.4c0,0.34,0,0.53,0.01,0.55c0.01,0.06,0.02,0.1,0.02,0.1l-0.04,0.08
				c-0.03,0.08-0.08,0.13-0.14,0.16c-0.2,0.1-0.49,0.21-0.87,0.32c-0.35,0.11-0.54,0.16-0.59,0.16l-0.51,0.03l-0.09,0.01l-0.51,0.01
				l-0.31,0.02l-0.3-0.12c-0.36-0.06-0.55-0.09-0.57-0.09c-0.02,0-0.1-0.04-0.24-0.11c-0.31-0.14-0.5-0.25-0.57-0.33
				c-0.01-0.01-0.02-0.02-0.03-0.02c-0.01,0-0.02,0-0.03,0.01c-0.02,0.04-0.04,0.06-0.05,0.06c-0.01,0-0.02-0.01-0.03-0.02
				c-0.05-0.05-0.18-0.14-0.38-0.27c-0.21-0.13-0.34-0.24-0.4-0.33l-0.31-0.42c-0.23-0.29-0.4-0.62-0.53-1.01
				c-0.08-0.26-0.13-0.47-0.16-0.64c-0.01-0.09,0.01-0.33,0.05-0.72v-0.53l0.2-0.49l0.16-0.49l0.25-0.4l0.25-0.45
				c0.34-0.34,0.56-0.55,0.66-0.63c0.08-0.06,0.35-0.21,0.81-0.44c0.21-0.11,0.51-0.2,0.88-0.26c0.13-0.02,0.4-0.03,0.82-0.03
				l0.48-0.01c0.02,0.01,0.06,0.04,0.12,0.09l0.5,0.1l0.37,0.15l0.49,0.15l0.27,0.21l0.42,0.31l0.16,0.14
				c0.04,0.04,0.07,0.06,0.08,0.07c0.01,0.01,0.01,0.04,0.02,0.08c0.06,0.03,0.09,0.05,0.09,0.06l-0.02,0.11l-0.08,0.6
				c-0.01,0.05-0.05,0.1-0.13,0.15c-0.09,0.05-0.16,0.08-0.2,0.07c-0.04-0.01-0.09-0.05-0.15-0.13c-0.21-0.29-0.35-0.47-0.42-0.54
				c-0.17-0.18-0.36-0.31-0.57-0.4c-0.09-0.03-0.18-0.07-0.28-0.11c-0.09-0.04-0.19-0.07-0.28-0.11L531.04,108.64z"/>
			<path class="st8" d="M541.25,110.27c0.31,0.1,0.49,0.16,0.52,0.17c0.1,0.03,0.16,0.06,0.18,0.09c0.03,0.04,0.05,0.09,0.06,0.16
				c0.02,0.1,0.02,0.18,0.01,0.24c-0.01,0.04-0.07,0.18-0.19,0.41c-0.03,0.07-0.06,0.13-0.07,0.19c-0.09,0.31-0.14,0.63-0.17,0.94
				c-0.02,0.18-0.03,0.29-0.04,0.31l-0.21,0.63l-0.06,0.48l-0.15,0.49l-0.04,0.38l-0.18,0.49l-0.14,0.5l-0.13,0.14l-0.26,0.45
				l-0.37,0.35l-0.15,0.16l-0.48,0.17c-0.31,0.13-0.47,0.19-0.49,0.2s-0.06,0-0.15-0.01c-0.25-0.03-0.42-0.04-0.51-0.03
				c-0.24,0-0.38,0-0.41-0.02l-0.31-0.11l-0.49-0.14l-0.46-0.22l-0.2-0.05c-0.01,0-0.24-0.2-0.71-0.59
				c-0.13-0.11-0.26-0.29-0.39-0.56c-0.08-0.15-0.14-0.42-0.2-0.83c-0.02-0.11-0.02-0.21-0.01-0.3l0.04-0.41l0.03-0.52l0.1-0.28
				l0.13-0.49l0.17-0.47c0-0.01-0.01-0.03-0.04-0.06c-0.03-0.03-0.04-0.06-0.03-0.1c0.02-0.08,0.09-0.22,0.21-0.42
				c0.05-0.08,0.09-0.17,0.12-0.28c0.02-0.08,0.04-0.16,0.05-0.24c0.03-0.18,0.04-0.27,0.04-0.28l0.24-0.75l0.03-0.19l0.12-0.28
				c0-0.02,0-0.1-0.02-0.24c0-0.03,0-0.05,0-0.06c0.01-0.03,0.04-0.07,0.09-0.13c0.09-0.09,0.15-0.12,0.19-0.1l0.17,0.08l0.59,0.12
				c0,0,0.08,0.03,0.23,0.1c0.05,0.03,0.11,0.05,0.16,0.06c0.09,0.02,0.17,0.03,0.26,0.03c0.06,0,0.1,0,0.13,0.01
				c0.04,0.01,0.08,0.05,0.1,0.11c0.04,0.1,0.06,0.18,0.04,0.23c0,0.01-0.01,0.03-0.04,0.06c-0.04,0.05-0.08,0.16-0.13,0.33
				c-0.07,0.24-0.15,0.45-0.22,0.62l-0.12,0.47l-0.12,0.37c-0.13,0.4-0.24,0.69-0.31,0.86c-0.06,0.14-0.1,0.23-0.11,0.27l-0.16,0.72
				l-0.13,0.34l-0.02,0.28l-0.04,0.51l0.01,0.05c0,0.37,0.01,0.58,0.02,0.61c0.06,0.14,0.17,0.31,0.33,0.52
				c0.13,0.16,0.27,0.3,0.41,0.4c0.07,0.05,0.12,0.08,0.15,0.09c0.02,0,0.04,0.01,0.08,0.01c0.11,0,0.34,0.02,0.69,0.07l0.5-0.1
				c0.12-0.01,0.2-0.03,0.24-0.05c0.1-0.05,0.19-0.12,0.26-0.21c0.01-0.01,0.12-0.17,0.33-0.48c0.08-0.11,0.12-0.18,0.12-0.21
				l0.16-0.71c0-0.01,0.02-0.02,0.05-0.04c0.08-0.05,0.12-0.09,0.13-0.12c0.02-0.07,0.02-0.22,0-0.45c-0.01-0.09,0-0.18,0.02-0.27
				c0.02-0.08,0.05-0.15,0.1-0.23c0.07-0.12,0.1-0.18,0.11-0.19l0.07-0.53l0.12-0.49l0.03-0.52l0.06-0.29l0.05-0.51l0.03-0.08
				c-0.02-0.25-0.03-0.39-0.02-0.43c0.01-0.03,0.05-0.09,0.14-0.17c0.05-0.05,0.09-0.08,0.11-0.09
				C541.12,110.24,541.18,110.25,541.25,110.27z"/>
			<path class="st8" d="M545.27,117.05l-0.5-0.18l-0.65-0.27c-0.33-0.1-0.52-0.15-0.58-0.14c-0.05,0-0.09,0.04-0.13,0.12
				c-0.02,0.03-0.16,0.18-0.4,0.44l-0.12,0.21l-0.31,0.42l0,0.09l-0.18,0.3l0,0.13l-0.11,0.07l-0.08,0.08
				c-0.17,0.03-0.27,0.03-0.29,0.02l-0.37-0.21l-0.22-0.05c-0.08-0.03-0.08-0.16,0-0.37c0.01-0.02,0.08-0.09,0.22-0.22l0.29-0.38
				l0.24-0.28l0.2-0.34l0.25-0.26c0.19-0.29,0.29-0.44,0.31-0.47c0.02-0.02,0.22-0.27,0.61-0.73l0.36-0.36l0.23-0.28l0.37-0.37
				l0.31-0.41l0.35-0.29l0.37-0.36l0.39-0.33c0.2-0.2,0.3-0.31,0.31-0.32c0.01-0.01,0.05-0.03,0.11-0.05
				c0.04-0.02,0.08-0.04,0.12-0.09c0.02-0.02,0.06-0.03,0.1-0.01c0.03,0.01,0.07,0.03,0.11,0.07c0.08,0.06,0.19,0.11,0.33,0.17
				c0.13,0.05,0.25,0.08,0.34,0.1c0.04,0,0.07,0.01,0.09,0.02c0.06,0.02,0.11,0.07,0.16,0.15c0.02,0.04,0.04,0.07,0.04,0.07
				l-0.03,0.19l0.09,0.51c0.01,0.39,0.03,0.67,0.06,0.84c0.05,0.31,0.07,0.48,0.06,0.51l0,0.51c0.02,0.19,0.03,0.44,0.03,0.77
				c0,0.13,0.01,0.3,0.03,0.52c0.02,0.27,0.02,0.48,0,0.64c0,0.03,0,0.2,0,0.51c0,0.35-0.03,0.68-0.08,0.98
				c-0.03,0.17-0.05,0.41-0.05,0.74l-0.04,0.41l0.01,0.19c-0.01,0.12-0.02,0.18-0.02,0.19c-0.01,0.04-0.04,0.06-0.08,0.08
				c-0.03,0.01-0.08,0.02-0.14,0.01c-0.21-0.01-0.34-0.02-0.39-0.04c-0.03-0.01-0.1-0.06-0.21-0.15c-0.09-0.06-0.17-0.11-0.25-0.14
				c-0.03-0.01-0.22-0.06-0.58-0.15c-0.03,0-0.05-0.01-0.06-0.01c-0.06-0.02-0.12-0.06-0.17-0.12c-0.05-0.05-0.02-0.27,0.09-0.66
				c0.03-0.09,0.05-0.25,0.09-0.5c0.01-0.08,0.02-0.14,0.03-0.18c0.08-0.31,0.13-0.48,0.12-0.49l-0.05-0.26l0-0.01
				c0,0,0-0.01,0-0.02c0-0.01,0-0.01,0-0.02c0,0,0.01-0.01,0.02-0.02c0.03-0.02,0.05-0.04,0.05-0.05c0.01-0.02-0.02-0.06-0.07-0.12
				c-0.04-0.07-0.05-0.1-0.06-0.1l-0.39-0.06L545.27,117.05z M546.04,113.8c-0.03,0-0.06-0.01-0.07-0.01c0,0-0.01-0.02-0.03-0.05
				c0,0-0.01-0.01-0.01-0.01c-0.02-0.01-0.11,0.07-0.27,0.22l-0.38,0.34l-0.31,0.42l-0.13,0.11l-0.34,0.39l-0.36,0.37l-0.01,0.08
				c-0.01,0.1,0.01,0.16,0.06,0.18l0.07,0.01l0.5,0.2l0.51,0.18l0.5,0.22c0.14,0.02,0.23,0.01,0.24-0.03c0-0.01,0.01-0.02,0.01-0.05
				c0-0.01,0.01-0.03,0.03-0.07c0.01-0.04,0.02-0.07,0.02-0.08l-0.04-0.52l0.03-0.2l-0.03-0.51l0.05-0.14l-0.05-0.51L546.04,113.8z"
				/>
			<path class="st8" d="M555.68,116.24c0.32,0.24,0.58,0.41,0.78,0.52c0.19,0.11,0.35,0.21,0.49,0.31c0.11,0.08,0.17,0.13,0.17,0.13
				l0.91,0.47c0.02,0.01,0.09,0.08,0.22,0.2c0.08,0.08,0.21,0.19,0.39,0.33c0.17,0.14,0.26,0.25,0.29,0.33
				c0.01,0.01,0.01,0.02,0.01,0.02l0.02,0c0.03,0,0.06,0.01,0.08,0c0.04,0,0.06,0,0.09,0.01c0.04,0.02,0.1,0.11,0.17,0.25
				c0.02,0.05,0.1,0.25,0.24,0.63c0.13,0.26,0.2,0.41,0.2,0.44c0,0.02-0.01,0.05-0.03,0.09c0.09,0.34,0.13,0.51,0.13,0.51
				c0,0.01-0.01,0.1-0.02,0.29c-0.01,0.25-0.03,0.48-0.06,0.7l-0.21,0.47l-0.19,0.47l-0.17,0.28l-0.26,0.45l-0.38,0.34
				c-0.17,0.23-0.26,0.35-0.29,0.38c-0.03,0.03-0.09,0.07-0.19,0.13c-0.08,0.05-0.3,0.15-0.65,0.31c-0.27,0.12-0.5,0.19-0.69,0.22
				c-0.26,0.01-0.49,0.02-0.71,0.03c-0.32-0.07-0.48-0.11-0.5-0.1l-0.09,0.03c-0.32-0.14-0.63-0.26-0.96-0.36l-0.45-0.25l-0.04-0.02
				l-0.03-0.02c-0.02-0.01-0.18-0.12-0.47-0.33l-0.43-0.25l-0.41-0.28l-0.46-0.22c-0.35-0.26-0.53-0.4-0.54-0.41
				c-0.01-0.02-0.02-0.06-0.03-0.11c-0.02-0.12-0.02-0.19-0.01-0.21c0-0.01,0.03-0.02,0.07-0.05c0.06-0.02,0.13-0.1,0.21-0.23
				c0.08-0.12,0.17-0.26,0.27-0.42c0.11-0.18,0.19-0.3,0.22-0.35c0.19-0.27,0.37-0.57,0.55-0.89l0.31-0.42l0.35-0.67
				c0.01-0.02,0.07-0.1,0.16-0.24c0.09-0.13,0.18-0.27,0.26-0.42c0.04-0.08,0.09-0.16,0.14-0.26c0.02-0.05,0.04-0.09,0.06-0.11
				c0.03-0.04,0.15-0.22,0.39-0.53c0.12-0.16,0.23-0.32,0.33-0.5c0.07-0.12,0.11-0.22,0.12-0.3c0.01-0.1,0.02-0.16,0.03-0.17
				l0.09-0.12l0.05-0.11c0.02-0.03,0.08-0.06,0.18-0.08C555.49,116.17,555.57,116.19,555.68,116.24z M557.26,118.1
				c-0.06-0.03-0.22-0.09-0.5-0.18c-0.09-0.03-0.15-0.04-0.18-0.03c-0.04,0.01-0.08,0.03-0.12,0.08c-0.01,0.02-0.15,0.21-0.41,0.59
				c-0.25,0.42-0.53,0.86-0.85,1.3c-0.13,0.18-0.3,0.46-0.51,0.84l-0.29,0.52c-0.05,0.09-0.14,0.23-0.27,0.42
				c-0.1,0.14-0.17,0.25-0.21,0.32c-0.14,0.25-0.21,0.45-0.21,0.6c0,0.17,0.09,0.3,0.27,0.4c0.04,0.02,0.13,0.06,0.29,0.11
				c0.31,0.14,0.47,0.22,0.49,0.23c0.02,0.01,0.08,0.02,0.18,0.03c0.33,0.03,0.5,0.04,0.52,0.03l0.48-0.18
				c0.06,0.01,0.1,0.01,0.12,0c0.03-0.01,0.16-0.09,0.38-0.26c0.21-0.13,0.36-0.22,0.44-0.26c0.06-0.03,0.09-0.05,0.1-0.06
				l0.29-0.43c0.25-0.27,0.38-0.44,0.41-0.48c0.18-0.32,0.31-0.62,0.39-0.91c0.02-0.08,0.05-0.32,0.1-0.73
				c0.04-0.29,0.02-0.52-0.05-0.7c-0.1-0.28-0.17-0.44-0.19-0.47l-0.33-0.39C557.48,118.3,557.37,118.17,557.26,118.1z"/>
			<path class="st8" d="M559.93,126.01l-0.11-0.06c-0.04-0.03-0.02-0.2,0.06-0.5c0.03-0.14,0.07-0.31,0.11-0.5
				c0.04-0.19,0.07-0.33,0.09-0.39c0.01-0.04,0.08-0.19,0.22-0.47c0.11-0.23,0.18-0.37,0.21-0.4l0.21-0.26L561,123l0.4-0.33
				c0.14-0.15,0.22-0.24,0.24-0.26s0.09-0.06,0.2-0.12c0.09-0.05,0.28-0.14,0.55-0.27c0.06-0.02,0.29-0.08,0.7-0.16
				c0.2-0.04,0.33-0.05,0.41-0.05c0.14,0.01,0.27,0.01,0.41,0.02l0.51,0.01l0.12,0.11c0,0,0.14,0.03,0.42,0.08
				c0.02,0,0.34,0.16,0.98,0.47c0.01,0,0.04,0.04,0.1,0.11c0.05,0.05,0.18,0.17,0.39,0.34c0.25,0.2,0.44,0.39,0.58,0.58
				c0.05,0.08,0.11,0.2,0.19,0.37l0.24,0.46l0.11,0.51c0.08,0.34,0.12,0.51,0.13,0.53c0.02,0.2,0.01,0.44-0.02,0.74
				c-0.02,0.18-0.05,0.31-0.08,0.38c-0.04,0.1-0.09,0.2-0.13,0.3l-0.18,0.48l-0.28,0.43l-0.14,0.32l-0.32,0.31
				c-0.26,0.26-0.43,0.42-0.5,0.46c-0.41,0.26-0.71,0.44-0.89,0.54c-0.48,0.19-1.15,0.25-2.03,0.18l-0.06-0.01l-0.47-0.2l-0.49-0.17
				l-0.42-0.29l-0.2-0.08l-0.37-0.35l-0.39-0.35l-0.25-0.45l-0.12-0.17c-0.18-0.41-0.3-0.66-0.34-0.75l-0.07-0.19l-0.01-0.5
				L559.93,126.01L559.93,126.01z M565.46,123.12c-0.09-0.05-0.24-0.11-0.47-0.16c-0.41-0.11-0.81-0.06-1.19,0.15
				c-0.33,0.16-0.53,0.27-0.59,0.31c-0.06,0.04-0.15,0.13-0.26,0.26c-0.08,0.09-0.15,0.18-0.21,0.27c-0.25,0.33-0.42,0.54-0.51,0.6
				l-0.09,0.06l-0.24,0.45l-0.29,0.42l-0.02,0.06c-0.14,0.39-0.22,0.65-0.24,0.78c-0.05,0.3-0.07,0.52-0.06,0.64
				c0.02,0.18,0.1,0.4,0.25,0.67c0.13,0.23,0.28,0.41,0.44,0.53c0.31,0.23,0.66,0.32,1.05,0.29c0.36-0.03,0.6-0.09,0.72-0.2
				c0.05-0.05,0.19-0.14,0.44-0.27c0.19-0.12,0.35-0.25,0.46-0.4l0.36-0.36l0.31-0.41l0.09-0.06l0.27-0.43
				c0.18-0.27,0.26-0.42,0.27-0.43c0,0-0.01-0.03-0.03-0.09c0-0.01,0.07-0.17,0.22-0.47l0.07-0.51c0.04-0.32,0.07-0.5,0.07-0.56
				c0-0.14-0.03-0.26-0.1-0.35c-0.09-0.09-0.17-0.19-0.27-0.3L565.46,123.12z"/>
			<path class="st8" d="M572.25,132.03c-0.01-0.01-0.05-0.03-0.11-0.04c-0.08-0.02-0.17,0-0.26,0.08c-0.04,0.03-0.29,0.24-0.74,0.62
				c0,0.01-0.08,0.09-0.21,0.26c-0.03,0.04-0.05,0.06-0.06,0.07l-0.58,0.54c-0.02,0.02-0.08,0.08-0.17,0.2
				c-0.15,0.18-0.23,0.29-0.26,0.32c-0.06,0.11-0.1,0.16-0.1,0.17l-0.34,0.3l-0.11,0.18c-0.01,0.01-0.05,0.03-0.12,0.06
				c-0.05,0.02-0.1,0.02-0.16,0c-0.01,0-0.07-0.03-0.2-0.08l-0.22-0.27l-0.15-0.13c-0.02-0.02-0.02-0.05-0.02-0.1
				c0.01-0.1,0.03-0.16,0.06-0.19c0.01-0.01,0.04-0.02,0.11-0.05c0.16-0.13,0.38-0.29,0.65-0.5l0.26-0.33l0.4-0.33l0.37-0.37
				l0.38-0.36l0.55-0.61c0.02-0.01,0.08-0.06,0.18-0.14c0.08-0.06,0.14-0.12,0.19-0.16c0.04-0.04,0.11-0.11,0.19-0.21
				c0.17-0.21,0.41-0.47,0.71-0.76l0.28-0.31l0.36-0.35l0.11-0.21c0.04-0.08,0.07-0.12,0.08-0.13c0.06-0.06,0.12-0.09,0.17-0.1
				c0.02,0,0.18,0.1,0.47,0.31l0.15,0.23c0.04,0.05,0.07,0.09,0.1,0.13c0.07,0.07,0.16,0.15,0.27,0.22
				c0.13,0.09,0.22,0.16,0.26,0.21c0.06,0.07,0.13,0.17,0.21,0.3c0.05,0.09-0.03,0.33-0.21,0.71c-0.13,0.26-0.26,0.57-0.4,0.91
				c-0.25,0.59-0.46,1.03-0.64,1.34c-0.19,0.32-0.27,0.55-0.25,0.68c0.02,0.1,0.05,0.17,0.08,0.2c0.03,0.03,0.08,0.04,0.14,0.05
				c0.06,0,0.29-0.09,0.68-0.28l0.46-0.17l0.44-0.24c0.02-0.03,0.18-0.09,0.47-0.17c0.24-0.08,0.4-0.14,0.47-0.18l0.43-0.25
				c0.3-0.14,0.46-0.22,0.5-0.24c0.05-0.03,0.08-0.04,0.09-0.04l0.1,0.04c0.12,0.04,0.23,0.1,0.32,0.19l0.44,0.47
				c0.02,0.02,0.06,0.05,0.11,0.07l0.15,0.09l0.22,0.42c0.06,0.09,0.1,0.14,0.1,0.17c-0.01,0.04-0.02,0.06-0.03,0.07
				c-0.01,0.01-0.03,0.01-0.05,0.02c-0.07,0.02-0.12,0.03-0.13,0.04l-0.24,0.21l-0.41,0.3l-0.26,0.33l-0.38,0.35l-0.36,0.38
				l-0.4,0.37c-0.01,0.01-0.12,0.14-0.33,0.38c-0.07,0.08-0.14,0.16-0.21,0.22c-0.04,0.04-0.09,0.09-0.16,0.15
				c-0.14,0.12-0.22,0.19-0.22,0.19c-0.45,0.43-0.75,0.73-0.9,0.89c-0.09,0.1-0.15,0.16-0.18,0.19c-0.03,0.03-0.07,0.06-0.12,0.1
				c-0.08,0.06-0.12,0.1-0.15,0.12c-0.07,0.06-0.13,0.15-0.2,0.26c-0.05,0.09-0.07,0.16-0.06,0.21c0,0.01,0,0.02,0,0.02l-0.02,0
				c-0.02,0-0.04,0.01-0.07,0.04c-0.07,0.06-0.12,0.1-0.17,0.11c-0.12,0.03-0.21,0.02-0.26-0.04l-0.73-0.79
				c-0.03-0.03-0.11-0.08-0.24-0.17c-0.04-0.02-0.06-0.04-0.08-0.06c-0.02-0.02-0.03-0.04-0.04-0.08c0-0.01,0-0.06,0.02-0.15
				c0.01-0.1,0.02-0.15,0.03-0.15c0.02-0.01,0.05-0.03,0.1-0.04c0.02-0.01,0.04-0.01,0.04-0.01l0.31-0.33c0,0,0.1-0.07,0.28-0.19
				c0.06-0.04,0.11-0.08,0.16-0.13c0.04-0.04,0.09-0.09,0.14-0.15c0.18-0.21,0.27-0.32,0.28-0.33l0.53-0.49l0.4-0.41l0.35-0.26
				c0.04-0.04,0.09-0.16,0.15-0.37c0.04-0.14,0.04-0.22,0-0.26c-0.03-0.03-0.07-0.05-0.15-0.06c-0.07-0.02-0.14-0.02-0.19,0
				c-0.05,0.01-0.42,0.18-1.11,0.52c-0.34,0.17-0.68,0.32-1.02,0.45c-0.23,0.08-0.39,0.16-0.5,0.23c-0.09,0.05-0.17,0.07-0.24,0.04
				c-0.09-0.03-0.16-0.06-0.22-0.11c-0.04-0.03-0.16-0.17-0.38-0.42c-0.07-0.08-0.1-0.15-0.11-0.22c-0.01-0.1,0.07-0.3,0.22-0.62
				c0.09-0.18,0.2-0.48,0.33-0.88c0.07-0.22,0.13-0.37,0.18-0.44l0.24-0.41c0.14-0.42,0.22-0.66,0.22-0.71
				C572.3,132.13,572.28,132.06,572.25,132.03z"/>
			<path class="st8" d="M578.1,141.62l-0.34-0.42l-0.42-0.57c-0.23-0.25-0.37-0.4-0.42-0.43c-0.05-0.02-0.1-0.01-0.17,0.04
				c-0.04,0.02-0.23,0.07-0.57,0.16l-0.21,0.12l-0.48,0.2l-0.04,0.08l-0.31,0.16l-0.06,0.11l-0.13,0l-0.11,0.03
				c-0.16-0.07-0.25-0.11-0.26-0.13l-0.21-0.37l-0.16-0.15c-0.05-0.07,0.01-0.17,0.19-0.31c0.02-0.01,0.12-0.04,0.3-0.08l0.45-0.17
				l0.35-0.12l0.34-0.19l0.34-0.09c0.31-0.15,0.48-0.23,0.51-0.24s0.33-0.11,0.89-0.31l0.5-0.12l0.34-0.12l0.5-0.12l0.48-0.19
				l0.46-0.07l0.5-0.11l0.5-0.08c0.28-0.07,0.42-0.11,0.43-0.11c0.01,0,0.05,0,0.12,0.01c0.04,0.01,0.09,0,0.15-0.01
				c0.03-0.01,0.07,0.01,0.09,0.04c0.02,0.03,0.04,0.06,0.06,0.12c0.04,0.09,0.1,0.19,0.19,0.31c0.09,0.11,0.17,0.2,0.24,0.26
				c0.03,0.03,0.06,0.05,0.07,0.06c0.04,0.05,0.06,0.12,0.05,0.21c0,0.05,0,0.08-0.01,0.08l-0.12,0.15l-0.19,0.48
				c-0.19,0.34-0.32,0.59-0.38,0.75c-0.12,0.29-0.19,0.45-0.22,0.47l-0.26,0.44c-0.08,0.17-0.21,0.39-0.38,0.67
				c-0.07,0.11-0.15,0.26-0.25,0.45c-0.12,0.24-0.24,0.42-0.34,0.55c-0.02,0.03-0.11,0.17-0.27,0.44c-0.18,0.3-0.38,0.56-0.58,0.79
				c-0.11,0.13-0.25,0.33-0.42,0.6l-0.25,0.33l-0.09,0.17c-0.08,0.09-0.12,0.14-0.12,0.15c-0.03,0.02-0.07,0.03-0.11,0.02
				c-0.03-0.01-0.08-0.03-0.13-0.06c-0.17-0.11-0.28-0.19-0.31-0.24c-0.02-0.03-0.06-0.11-0.11-0.24c-0.04-0.1-0.09-0.18-0.14-0.25
				c-0.02-0.02-0.15-0.17-0.41-0.43c-0.03-0.02-0.04-0.04-0.05-0.04c-0.04-0.05-0.07-0.12-0.08-0.19c-0.01-0.07,0.13-0.24,0.42-0.52
				c0.07-0.06,0.18-0.19,0.34-0.38c0.05-0.06,0.09-0.11,0.12-0.13c0.24-0.22,0.36-0.34,0.36-0.36l0.09-0.25l0.01-0.01
				c0,0,0.01-0.01,0.01-0.01c0-0.01,0.01-0.01,0.01-0.01c0,0,0.01,0,0.02,0c0.04,0,0.06-0.01,0.07-0.02c0.01-0.01,0.02-0.06,0-0.14
				c0-0.08,0.01-0.12,0-0.12l-0.3-0.25L578.1,141.62z M580.46,139.24c-0.03-0.02-0.05-0.03-0.06-0.05c0,0,0-0.02,0-0.06
				c0,0,0-0.01-0.01-0.02c-0.02-0.02-0.13,0-0.35,0.05l-0.5,0.09l-0.48,0.2l-0.16,0.02l-0.49,0.16l-0.5,0.12l-0.05,0.07
				c-0.06,0.08-0.07,0.14-0.04,0.18l0.05,0.05l0.33,0.43l0.34,0.42l0.32,0.45c0.11,0.1,0.18,0.13,0.22,0.1c0,0,0.02-0.02,0.04-0.04
				c0.01-0.01,0.03-0.02,0.06-0.05c0.03-0.03,0.05-0.05,0.06-0.06l0.24-0.46l0.13-0.16l0.24-0.46l0.12-0.1l0.23-0.46L580.46,139.24z
				"/>
			<path class="st8" d="M580.38,148.07l-0.07,0.04c-0.1,0.06-0.19,0.1-0.25,0.11c-0.08,0.01-0.13-0.01-0.14-0.05l-0.07-0.19
				l-0.26-0.36l-0.2-0.4l-0.27-0.35c-0.03-0.11-0.04-0.19-0.06-0.24c-0.01-0.04-0.02-0.07-0.01-0.08l0.12-0.08l0.1-0.08l0.3-0.1
				l0.43-0.26l0.39-0.15l0.64-0.48c0.02-0.01,0.1-0.04,0.23-0.09c0.16-0.05,0.29-0.11,0.39-0.18l0.52-0.34l0.46-0.24l0.44-0.28
				l0.64-0.35c0.03-0.02,0.11-0.08,0.24-0.19c0.16-0.13,0.28-0.22,0.36-0.26c0.21-0.13,0.34-0.22,0.38-0.28
				c0.04-0.07,0.07-0.1,0.07-0.1l0.18-0.07l0.1-0.08l0.13,0.01c0.11,0,0.18,0.01,0.19,0.03c0.02,0.02,0.03,0.07,0.05,0.15
				c0.17,0.29,0.34,0.59,0.5,0.88l0.39,0.55c0.01,0.01,0.06,0.12,0.15,0.31c0.05,0.11,0.11,0.21,0.15,0.29
				c0.1,0.16,0.23,0.35,0.4,0.57c0.06,0.08,0.11,0.15,0.15,0.21c0.04,0.07,0.08,0.15,0.1,0.24c0.07,0.23,0.13,0.38,0.17,0.44
				c0.01,0.02,0.04,0.04,0.08,0.06c0.01,0,0.02,0.01,0.02,0.02c0,0,0,0.01,0,0.03c-0.02,0.01,0,0.16,0.07,0.45
				c0.09,0.38,0.05,0.69-0.1,0.94c-0.21,0.35-0.33,0.52-0.34,0.53l-0.37,0.15l-0.46,0.22l-0.17,0c-0.36,0.02-0.57,0.04-0.62,0.04
				c-0.03,0-0.22-0.08-0.55-0.22c-0.13-0.05-0.26-0.1-0.39-0.15c-0.05-0.02-0.1-0.02-0.14,0c-0.03,0.02-0.07,0.06-0.12,0.13
				c-0.01,0.02-0.09,0.19-0.23,0.52c-0.11,0.24-0.37,0.62-0.8,1.14l-0.3,0.39c-0.31,0.3-0.51,0.53-0.61,0.7
				c-0.02,0.04-0.05,0.07-0.07,0.09c-0.01,0.01-0.07,0.01-0.19,0c-0.09,0-0.15,0-0.16,0c-0.02,0-0.03-0.02-0.05-0.04
				c-0.02-0.03-0.04-0.07-0.05-0.13c-0.03-0.12-0.05-0.19-0.08-0.22l-0.39-0.51l-0.23-0.37l-0.07-0.09
				c-0.03-0.04-0.01-0.13,0.05-0.27c0.03-0.07,0.14-0.16,0.3-0.27c0.13-0.09,0.25-0.2,0.37-0.35c0.17-0.22,0.29-0.34,0.34-0.38
				l0.16-0.1l0.22-0.46c0.02-0.04,0.06-0.1,0.12-0.17c0.19-0.2,0.29-0.34,0.3-0.42c0.02-0.1,0.03-0.16,0.05-0.18
				c0.06-0.06,0.09-0.1,0.08-0.11l-0.04-0.09l0.02-0.08l-0.04-0.07l-0.03-0.1l-0.21-0.17c-0.03-0.02-0.08-0.09-0.15-0.2
				c-0.07-0.11-0.14-0.14-0.22-0.11c-0.17,0.06-0.3,0.12-0.4,0.17c-0.12,0.07-0.38,0.22-0.79,0.47l-0.24,0.14L580.38,148.07z
				 M586.29,146.11c-0.07,0.01-0.11,0-0.13-0.02c-0.02-0.03-0.06-0.18-0.13-0.44c-0.02-0.05-0.03-0.09-0.05-0.12
				c-0.07-0.12-0.18-0.23-0.32-0.33c-0.13-0.1-0.28-0.13-0.44-0.08c-0.27,0.08-0.42,0.13-0.47,0.16l-0.41,0.34l-0.43,0.24
				l-0.35,0.23l-0.22,0.06c0.03,0.08,0.04,0.12,0.04,0.15c0,0.01-0.01,0.05-0.02,0.12c0,0.03,0,0.06,0.02,0.09
				c0.02,0.04,0.2,0.22,0.53,0.54c0.08,0.08,0.19,0.15,0.31,0.21c0.36,0.16,0.57,0.25,0.64,0.26c0.13,0.03,0.3,0.01,0.5-0.06
				l0.38-0.12c0.3-0.29,0.48-0.49,0.54-0.58c0.01-0.03,0-0.07-0.03-0.12L586.29,146.11z"/>
		</g>
		<circle class="st8" cx="442.49" cy="167.83" r="2.3"/>
		<circle class="st8" cx="591.92" cy="167.83" r="2.3"/>
	</g>
	<g>
		<path class="st9" d="M474.12,230.25c0.61,0.59,1.23,1.18,1.87,1.75c10.99,9.84,25.5,15.83,41.41,15.83
			c15.79,0,30.19-5.9,41.15-15.6c0.72-0.64,1.43-1.3,2.13-1.97c0.54-0.53,1.08-1.07,1.6-1.62h-89.77
			C473.05,229.18,473.58,229.72,474.12,230.25z"/>
		<path class="st10" d="M549.73,216.44h-64.66h-21.65c2.53,4.44,5.59,8.53,9.1,12.19h89.77c3.51-3.67,6.57-7.76,9.1-12.19H549.73z"
			/>
	</g>
	<g>
		<path class="st8" d="M517.4,247.95c-34.3,0-62.21-27.91-62.21-62.21s27.91-62.21,62.21-62.21s62.21,27.91,62.21,62.21
			S551.71,247.95,517.4,247.95z M517.4,130.52c-30.44,0-55.21,24.77-55.21,55.21c0,30.44,24.77,55.21,55.21,55.21
			c30.44,0,55.21-24.77,55.21-55.21C572.62,155.29,547.85,130.52,517.4,130.52z"/>
	</g>
</g>
</svg>
