<?xml version="1.0" encoding="utf-8"?>
<!-- Generator: Adobe Illustrator 26.3.1, SVG Export Plug-In . SVG Version: 6.00 Build 0)  -->
<svg version="1.1" id="Layer_1" xmlns="http://www.w3.org/2000/svg" xmlns:xlink="http://www.w3.org/1999/xlink" x="0px" y="0px"
	 viewBox="0 0 182.3 182.3" style="enable-background:new 0 0 182.3 182.3;" xml:space="preserve">
<style type="text/css">
	.st0{fill:#FEDFC7;}
	.st1{fill:#E56837;}
	.st2{fill:#E88539;}
	.st3{fill:#F26531;}
	.st4{fill:#F68833;}
	.st5{fill:#FDD1B0;}
	.st6{fill:#003740;}
	.st7{fill:#042F5F;}
	.st8{fill:#003042;}
	.st9{fill:#4A81C2;}
	.st10{fill:#3069B3;}
</style>
<g>
	<g>
		<circle class="st0" cx="91.2" cy="91.2" r="91.2"/>
		<path class="st1" d="M91.1,45.9c24.7,0,44.6,20,44.6,44.6c0,1,0,1.9-0.1,2.9c5.7,2.4,12,4.6,17,5.7c0.4-2.8,0.6-5.7,0.6-8.6
			c0-34.3-27.8-62.1-62.1-62.1c-32.8,0-59.7,25.5-62,57.7c5.3-3.5,12.6-6.6,19.2-8.3C53.8,59.3,70.9,45.9,91.1,45.9z"/>
		<path class="st2" d="M68,80.4c3.9-8.9,12.8-15.2,23.2-15.2c13.2,0,24.1,10.2,25.2,23.1c3.1-1.1,6.1-1.5,10.4,0.8
			c2.5,1.3,5.6,2.8,8.9,4.2c0.1-1,0.1-1.9,0.1-2.9c0-24.6-20-44.6-44.6-44.6c-20.2,0-37.3,13.5-42.8,31.9c1.5-0.4,3-0.7,4.3-0.9
			C58.4,75.9,63.1,78.1,68,80.4z"/>
		<circle class="st3" cx="91.5" cy="90.9" r="61.2"/>
		
			<ellipse transform="matrix(0.1602 -0.9871 0.9871 0.1602 -12.4607 165.7541)" class="st4" cx="91.2" cy="90.2" rx="42.7" ry="42.7"/>
		
			<ellipse transform="matrix(0.1602 -0.9871 0.9871 0.1602 -12.4607 165.7541)" class="st5" cx="91.2" cy="90.2" rx="27.4" ry="27.3"/>
		<path class="st6" d="M135.7,93.4c-3.4-1.4-6.5-2.9-8.9-4.2c-4.3-2.4-7.3-1.9-10.4-0.8c-2.5,0.9-5.2,2.2-8.8,2.8
			c-12.8,2.1-23.8-4.1-29.5-6.2c-3.4-1.3-7-3-10-4.5c-4.9-2.4-9.6-4.5-15.3-3.6c-1.4,0.2-2.8,0.6-4.3,0.9
			c-6.6,1.7-13.9,4.8-19.2,8.3C29.1,87.6,29,89,29,90.5c0,5.9,0.8,11.6,2.4,17h18.5h22.6h37.2h22.6h18.5c0.8-2.8,1.4-5.6,1.8-8.4
			C147.7,98,141.4,95.8,135.7,93.4z"/>
		<path class="st7" d="M132.4,107.6h-22.6H72.5H49.9H31.4c1.4,4.8,3.3,9.4,5.8,13.7h21.6h64.7h21.7c2.4-4.3,4.4-8.9,5.8-13.7H132.4z
			"/>
		<g>
			<polygon class="st8" points="83.8,78.4 87.3,77.4 91.5,79.5 95.3,77.4 99.4,78.4 95.3,75.6 91.5,78.2 87.3,75.6 			"/>
			<path class="st8" d="M58.7,77c-7-0.1-17.8,5.1-3,12.2c18.6,8.9,10.8,15.5,5.4,18.3h58c0,0-24.3-16.1-30.9-18.4
				C81,86.6,58.7,77,58.7,77z"/>
		</g>
		<g>
			<path class="st8" d="M7.8,88.2l0-0.8l0.1-0.8l0-0.8L8,85.4c0-0.2,0.1-0.3,0.1-0.3C8.2,85,8.2,85,8.3,85c0,0,0,0,0.1,0
				c0.1,0,0.4,0.1,0.8,0.2l1,0.2l0.8,0.1l1,0.1l1,0l1,0.1l1,0l1,0.1l1,0.1l1,0.1l1,0l1,0.1l0.3-0.1c0.2,0,0.2-0.1,0.3-0.1
				c0,0,0.1-0.1,0.1-0.1c0.1-0.2,0.1-0.3,0.1-0.3c0,0,0-0.1-0.1-0.2c0-0.1,0-0.1,0-0.1l0.1-1.4c0-0.1-0.1-0.2-0.2-0.4
				c-0.1-0.1-0.1-0.1-0.1-0.2l-0.1-0.5L20,82.3c0,0,0.1-0.1,0.2-0.3c0.1-0.1,0.2-0.2,0.2-0.2c0.1,0,0.1,0,0.1,0c0,0,0.1,0,0.2,0.1
				c0.2,0.1,0.5,0.1,0.8,0.1c0.1,0,0.2,0,0.2,0.1c0,0,0,0.1,0.1,0.2c0,0,0.1,0.1,0.1,0.1l0,0l-0.2,1c0,0,0,0.1,0.1,0.3
				c0,0.1,0,0.2,0,0.4c0,0.2,0,0.4,0,0.6c-0.1,0.6-0.1,0.9-0.1,1l0,1l-0.1,1.5c0,0.1,0,0.3,0,0.5c0,0.2,0,0.4,0,0.4l-0.2,2.3
				c0,0,0,0.1,0,0.4c0,0.2,0,0.4,0,0.5c0,0.4-0.1,0.7-0.2,0.9c-0.1,0.2-0.2,0.3-0.3,0.3l-0.5,0c0,0-0.2,0-0.4,0.1
				c-0.1,0-0.1,0-0.2,0c-0.1,0-0.3,0-0.4-0.1c-0.1-0.1-0.1-0.2-0.1-0.4c0-0.1,0-0.2,0-0.3c0,0,0,0,0-0.1c0,0,0-0.1,0-0.1
				c0.1-0.1,0.2-0.4,0.4-0.7c0.1-0.2,0.2-0.3,0.2-0.4c0,0,0-0.1,0-0.2c0-0.1-0.1-0.2-0.1-0.2l0.1-0.9l0-0.2l0-0.3
				c0-0.1-0.1-0.2-0.2-0.2c-0.1,0-0.5-0.1-1.2-0.2l-1.5-0.1c-0.1,0-0.3,0-0.6-0.1c-0.3,0-0.5-0.1-0.6-0.1c-0.1,0-0.2,0-0.4,0
				c-0.6,0-1,0-1,0c-0.1,0-0.4,0-0.9-0.1c-0.6-0.1-1.4-0.1-2.2-0.2c-0.2,0-0.5,0-0.7,0c-0.2,0-0.3,0-0.3,0L9,88.7l-0.5,0.1l-0.2,0
				l-0.2,0.1l-0.2-0.2c-0.2-0.1-0.2-0.2-0.2-0.2C7.7,88.5,7.7,88.4,7.8,88.2z"/>
			<path class="st8" d="M8.2,98.4c0-0.1,0-0.2-0.1-0.4C8,97.8,8,97.7,8,97.7c0-0.1,0-0.4,0-0.7c0-0.2,0-0.4,0.1-0.4
				c0.1-0.1,0.1-0.1,0.2-0.1s0.1,0,0.3,0c0.3,0.1,0.7,0.1,1.1,0c0.1,0,0.3,0,0.4-0.1c0.2,0,0.3-0.1,0.3-0.1l1.5,0l1-0.2l1,0l1-0.2
				l1-0.1l1.1-0.2c0,0,0.3,0,0.9,0c0.1,0,0.3,0,0.4,0c0.2,0,0.4-0.1,0.6-0.1c0.3-0.1,0.5-0.2,0.5-0.2l1.2-0.1c0,0,0.1-0.1,0.4-0.2
				c0,0,0,0,0.1,0s0,0,0.1,0c0,0,0.1,0,0.2,0c0.3,0,0.4,0.2,0.5,0.6l0.1,0.8l0.2,0.8l0,0.8l0.1,0.4c0,0.1-0.1,0.1-0.1,0.2
				c-0.1,0.1-0.2,0.2-0.2,0.2c0,0-0.1,0-0.2-0.1c-0.4,0-0.9,0-1.6,0l-0.8,0.2l-1,0l-1,0.1l-1,0.1l-1.6,0.3c0,0-0.2,0-0.4,0
				c-0.2,0-0.4,0-0.5,0c-0.1,0-0.3,0-0.5,0.1c-0.5,0.1-1.2,0.2-2,0.3l-0.8,0.1l-1,0.1c-0.4,0.2-0.6,0.3-0.7,0.3c-0.1,0-0.2,0-0.3,0
				c0,0-0.1-0.1-0.2-0.3l-0.2-0.4L8.2,98.4z"/>
			<path class="st8" d="M22.8,102.5l0.1,0.9l0.2,1c0.1,0.4,0.1,0.8,0.1,1.1c0,0.1-0.1,0.2-0.2,0.3c0,0-0.1,0-0.3,0
				c-0.4,0-0.8,0-1,0.1l-1.1,0.3c0,0-0.1,0-0.2,0c-0.5,0-0.8,0-0.9,0.1l-1,0.3l-1,0.1l-0.9,0.3l-1,0.1l-1,0.3l-1,0.1l-0.9,0.2
				l-0.7,0.1c-0.2,0.1-0.5,0.2-0.7,0.4c-0.1,0.1-0.2,0.2-0.1,0.2l0.3,0.9c0,0,0,0.2,0,0.4c0,0.2,0,0.4,0,0.6c0,0.1,0.1,0.3,0.2,0.6
				l0.3,0.9l0.1,0.3c0.1,0.4,0.2,0.6,0.2,0.6c0,0,0.1,0,0.2,0.1l0,0.3c0,0.2,0,0.4,0,0.4c-0.1,0.1-0.2,0.2-0.4,0.2
				c0,0-0.3,0-0.9-0.1l-0.3,0l-0.1-0.1c-0.1-0.1-0.2-0.1-0.2-0.1c0,0,0-0.1,0-0.3c0-0.1,0-0.3-0.1-0.6c0-0.1-0.1-0.6-0.2-1.3
				l-0.4-1.3c0,0,0-0.2-0.1-0.6c0-0.2,0-0.4-0.1-0.6c0-0.1-0.1-0.5-0.4-1.3c-0.1-0.3-0.1-0.5-0.2-0.6c0-0.1,0-0.2,0-0.4
				c0-0.3,0-0.4,0-0.4L9,105.2c0-0.1,0-0.1,0-0.1c0,0,0.1-0.1,0.2-0.2c0.1-0.2,0.2-0.3,0.2-0.3c0,0,0.1,0,0.2,0c0.2,0,0.7,0,1.5-0.2
				l0.8,0l0.6-0.2l0.4-0.1c0,0,0.3,0,0.9-0.1c0.2,0,0.3,0,0.5-0.1c0.1,0,0.3-0.1,0.5-0.1c0.3-0.1,0.4-0.1,0.5-0.1l1.5-0.3l1-0.2
				l1-0.2l1-0.3c0.8-0.2,1.5-0.4,2.1-0.7c0.1-0.1,0.1-0.1,0.2-0.1c0.1,0,0.2,0,0.5,0.1c0.1,0,0.2,0.1,0.2,0.1
				C22.8,102.2,22.8,102.4,22.8,102.5z"/>
			<path class="st8" d="M18.5,121.3l-0.4-0.9l-0.5-1.2c-0.3-0.6-0.5-0.9-0.6-1c-0.1-0.1-0.2-0.1-0.3,0c-0.1,0-0.5,0-1.1,0l-0.5,0.1
				l-1,0.1l-0.1,0.1l-0.6,0.1l-0.2,0.2l-0.2-0.1h-0.2c-0.3-0.2-0.4-0.3-0.4-0.4l-0.2-0.8l-0.2-0.4c-0.1-0.1,0.1-0.3,0.5-0.5
				c0,0,0.2,0,0.6,0l0.9-0.1l0.7,0l0.7-0.2H16c0.6-0.1,1-0.2,1-0.2s0.7-0.1,1.8-0.1l1,0l0.7-0.1l1,0l1-0.1l0.9,0.1l1,0l1,0.1
				c0.5,0,0.8,0,0.9,0c0,0,0.1,0,0.2,0.1c0.1,0,0.2,0.1,0.3,0.1c0.1,0,0.1,0,0.1,0.1c0,0.1,0,0.1,0.1,0.2c0,0.2,0.1,0.4,0.2,0.7
				c0.1,0.2,0.2,0.4,0.3,0.6c0,0.1,0.1,0.1,0.1,0.1c0,0.1,0,0.2,0,0.4c0,0.1,0,0.1,0,0.1l-0.3,0.2l-0.6,0.8
				c-0.5,0.5-0.9,0.9-1.1,1.2c-0.4,0.5-0.6,0.7-0.6,0.8l-0.7,0.7c-0.2,0.3-0.6,0.6-1,1.1c-0.2,0.2-0.4,0.4-0.7,0.7
				c-0.3,0.4-0.6,0.7-0.9,0.9c0,0-0.3,0.3-0.7,0.7c-0.5,0.5-1,0.9-1.4,1.2c-0.3,0.2-0.6,0.5-1.1,0.9l-0.6,0.5l-0.2,0.3
				c-0.2,0.1-0.3,0.2-0.3,0.2c-0.1,0-0.1,0-0.2,0c-0.1,0-0.1-0.1-0.2-0.2c-0.3-0.3-0.4-0.5-0.5-0.6c0-0.1-0.1-0.2-0.1-0.5
				c0-0.2-0.1-0.4-0.1-0.5c0-0.1-0.2-0.4-0.6-1c0-0.1-0.1-0.1-0.1-0.1c0-0.1-0.1-0.2-0.1-0.4c0-0.1,0.4-0.4,1-0.8
				c0.1-0.1,0.4-0.3,0.8-0.5c0.1-0.1,0.2-0.2,0.3-0.2c0.5-0.3,0.8-0.5,0.8-0.5l0.3-0.4l0,0c0,0,0,0,0,0c0,0,0,0,0,0c0,0,0,0,0,0
				c0.1,0,0.1,0,0.1,0c0,0,0.1-0.1,0.1-0.2c0-0.1,0.1-0.2,0.1-0.2l-0.4-0.6L18.5,121.3z M24,118.1c0-0.1-0.1-0.1-0.1-0.1
				c0,0,0,0,0-0.1c0,0,0,0,0,0c0,0-0.2-0.1-0.7-0.1l-1-0.1l-1,0.1l-0.3,0l-1,0.1l-1,0l-0.1,0.1c-0.1,0.1-0.2,0.2-0.2,0.3l0.1,0.1
				l0.4,1l0.4,0.9l0.4,1c0.2,0.2,0.3,0.3,0.4,0.3c0,0,0,0,0.1-0.1c0,0,0.1,0,0.1-0.1c0.1,0,0.1-0.1,0.1-0.1l0.7-0.7l0.3-0.2l0.7-0.7
				l0.3-0.1l0.6-0.8L24,118.1z M32.1,117.1l0.1,0.7c0,0,0.1,0.1,0.3,0.3c0,0,0,0,0,0.1c0,0.1,0,0.2,0,0.3c0,0.1-0.1,0.2-0.2,0.2
				c-0.1,0.1-0.2,0.2-0.2,0.2c-0.1,0.1-0.3,0.1-0.4,0l-1-0.4c-0.8-0.2-1.5-0.4-2-0.6l0,0l-0.1,0.1c0,0-0.1,0-0.2-0.1
				c0,0-0.1-0.1-0.2-0.2c-0.2-0.4-0.3-0.6-0.3-0.6c0,0,0-0.1-0.1-0.1c0-0.1,0-0.1,0-0.2c0,0,0.1-0.1,0.2-0.2l0.1-0.2
				c0,0,0.1,0,0.4,0.1l1,0.1l1,0.2c0.7,0.1,1.1,0.1,1.2,0.2c0,0,0.1,0.1,0.2,0.1L32.1,117.1z"/>
			<path class="st8" d="M20,133.9l-0.5-0.7l-0.4-0.8l-0.2-0.3c0-0.1,0-0.1,0.1-0.2c0.1-0.1,0.1-0.2,0.1-0.3v0l0,0c0,0,0.1,0,0.3,0
				c0.2-0.1,0.3-0.2,0.5-0.2c0.4-0.2,0.7-0.3,0.7-0.3l0.8-0.6l0.9-0.4l1.1-0.9c0,0,0.2-0.1,0.5-0.2c0.4-0.2,0.9-0.5,1.7-1
				c0.1-0.1,0.4-0.2,0.9-0.5c0.2-0.1,0.3-0.1,0.3-0.2l1.1-0.8c0,0,0.1-0.1,0.2-0.1c0.3-0.1,0.4-0.2,0.4-0.2l1-0.9L30,125
				c0-0.1,0.1-0.1,0.1-0.1s0.2,0,0.5-0.1c0,0,0.1,0,0.2,0.1c0.3,0.2,0.4,0.3,0.5,0.4l0.3,0.7l0.5,0.8l0.5,0.9l0.7,1
				c0,0,0.1,0.3,0.4,0.7c0.1,0.2,0.2,0.5,0.5,0.9c0.3,0.4,0.4,0.7,0.5,0.9c0.1,0.3,0.3,0.8,0.4,1.4c0.1,0.4,0.1,0.6,0.1,0.6
				c0,0.1,0,0.1-0.1,0.2c-0.1,0.8-0.2,1.2-0.2,1.3c-0.1,0.3-0.4,0.6-0.8,1c-0.2,0.2-0.3,0.4-0.4,0.4c0,0-0.4,0.2-1.1,0.4
				c-0.5,0.2-1,0.2-1.4,0.2c-0.1,0-0.6-0.1-1.3-0.3c-0.2,0-0.4-0.1-0.5-0.2c-0.2-0.1-0.6-0.4-1.1-0.8c-0.2-0.1-0.4-0.3-0.8-0.6
				c-0.3-0.3-0.6-0.6-0.7-0.7c-0.3-0.2-0.5-0.4-0.5-0.5l-0.5-0.8l-0.2-0.1c-0.1-0.1-0.2-0.2-0.3-0.2c-0.1-0.1-0.2-0.1-0.2,0
				l-0.4,0.3c0,0-0.2,0.1-0.4,0.2c-0.1,0-0.1,0-0.1,0l-0.9,0.6c0,0-0.1,0.1-0.3,0.1c-0.1,0.1-0.2,0.1-0.4,0.2
				c-0.2,0.1-0.3,0.2-0.4,0.4c-0.2,0.2-0.3,0.4-0.3,0.4c-0.1,0.1-0.3,0.2-0.5,0.2c-0.3,0-0.5,0-0.6-0.2L20,133.9z M26.9,132
				c0,0,0,0.1,0.1,0.3c0,0.1,0,0.1,0.1,0.2c0.1,0.1,0.2,0.3,0.5,0.4c0.1,0,0.3,0.1,0.7,0.2c0.5,0.3,0.8,0.4,0.9,0.5
				c0.1,0,0.2,0.1,0.4,0.1c0.7,0,1.4-0.1,1.9-0.5c0.2-0.1,0.5-0.4,0.7-0.8c0.2-0.3,0.3-0.5,0.3-0.7c0-0.3,0-0.6,0-0.9
				c0,0-0.2-0.4-0.5-0.9c-0.2-0.3-0.3-0.5-0.4-0.7c-0.1-0.2-0.3-0.2-0.6-0.2c-0.4,0.1-0.7,0.2-0.8,0.2l-0.6,0.4l-0.5,0.3l-0.8,0.5
				l-0.8,0.4l-0.7,0.5c-0.1,0-0.2,0.1-0.3,0.1h0l0,0l0,0l0,0.2c0,0.1-0.1,0.1,0,0.2L26.9,132z"/>
			<path class="st8" d="M28.9,145.9c0,0-0.1-0.1-0.3-0.3c-0.1-0.1-0.2-0.2-0.2-0.2c-0.1-0.1-0.2-0.3-0.4-0.6
				c-0.1-0.2-0.2-0.3-0.2-0.4c0-0.1,0.1-0.2,0.1-0.2c0,0,0.1-0.1,0.2-0.1c0.3-0.1,0.6-0.4,0.9-0.6c0.1-0.1,0.2-0.2,0.3-0.3
				c0.1-0.1,0.2-0.2,0.2-0.2l1.2-0.9l0.7-0.7l0.8-0.6l0.7-0.7l0.8-0.6l0.8-0.8c0,0,0.2-0.2,0.7-0.5c0.1-0.1,0.2-0.2,0.3-0.2
				c0.1-0.1,0.3-0.3,0.4-0.5c0.2-0.3,0.3-0.4,0.3-0.5l1-0.8c0,0,0.1-0.2,0.2-0.4c0,0,0,0,0-0.1c0,0,0,0,0.1,0c0,0,0.1,0,0.2-0.1
				c0.2-0.2,0.5-0.1,0.7,0.2l0.5,0.6l0.6,0.6l0.5,0.7l0.3,0.2c0,0.1,0,0.1,0,0.3c0,0.1-0.1,0.2-0.1,0.3c0,0-0.1,0.1-0.2,0.1
				c-0.3,0.2-0.8,0.5-1.3,0.9l-0.5,0.6l-0.8,0.6l-0.7,0.7l-0.8,0.6l-1.1,1.1c0,0-0.1,0.1-0.3,0.2c-0.2,0.1-0.3,0.2-0.4,0.3
				c-0.1,0.1-0.2,0.2-0.4,0.4c-0.4,0.4-0.8,0.9-1.4,1.4l-0.5,0.6l-0.7,0.6c-0.2,0.4-0.3,0.6-0.4,0.6c-0.1,0.1-0.2,0.1-0.3,0.2
				c0,0-0.1,0-0.3-0.1l-0.4-0.2L28.9,145.9z"/>
			<path class="st8" d="M40.2,150.8l-0.8-0.6l-1-0.9c-0.5-0.4-0.9-0.6-1-0.6c-0.1,0-0.2,0-0.3,0.1c-0.1,0.1-0.4,0.2-1,0.5l-0.3,0.3
				l-0.8,0.6l0,0.2l-0.5,0.4l-0.1,0.2l-0.2,0.1l-0.2,0.1c-0.3-0.1-0.5-0.1-0.5-0.1l-0.5-0.6l-0.4-0.2c-0.1-0.1,0-0.3,0.2-0.7
				c0,0,0.2-0.1,0.5-0.3l0.8-0.5l0.6-0.4l0.6-0.5l0.6-0.3c0.5-0.4,0.8-0.6,0.9-0.6c0.1,0,0.6-0.3,1.5-0.9l0.9-0.4l0.6-0.4l0.9-0.4
				l0.8-0.5l0.8-0.3l0.9-0.4l0.9-0.4c0.5-0.2,0.7-0.4,0.8-0.4c0,0,0.1,0,0.2,0c0.1,0,0.2,0,0.3-0.1c0.1,0,0.1,0,0.2,0
				c0,0,0.1,0.1,0.2,0.2c0.1,0.1,0.3,0.3,0.5,0.5c0.2,0.2,0.4,0.3,0.5,0.4c0.1,0,0.1,0.1,0.1,0.1c0.1,0.1,0.2,0.2,0.2,0.4
				c0,0.1,0,0.1,0,0.1l-0.2,0.3l-0.2,1c-0.2,0.7-0.4,1.2-0.4,1.6c-0.1,0.6-0.2,0.9-0.2,1l-0.3,0.9c-0.1,0.4-0.2,0.8-0.4,1.4
				c-0.1,0.2-0.2,0.5-0.3,1c-0.1,0.5-0.3,0.9-0.4,1.2c0,0.1-0.1,0.4-0.3,0.9c-0.2,0.6-0.5,1.2-0.8,1.7c-0.2,0.3-0.3,0.7-0.5,1.3
				l-0.3,0.7l-0.1,0.4c-0.1,0.2-0.2,0.3-0.2,0.3c0,0.1-0.1,0.1-0.2,0.1c-0.1,0-0.1,0-0.3-0.1c-0.4-0.1-0.6-0.2-0.7-0.3
				c0,0-0.1-0.2-0.3-0.4c-0.1-0.2-0.2-0.3-0.4-0.4c0,0-0.4-0.2-0.9-0.6c-0.1,0-0.1,0-0.1-0.1c-0.1-0.1-0.2-0.2-0.2-0.3
				c0-0.1,0.1-0.5,0.6-1.1c0.1-0.1,0.3-0.4,0.5-0.9c0.1-0.1,0.1-0.2,0.2-0.3c0.4-0.5,0.5-0.8,0.5-0.8l0.1-0.5l0,0c0,0,0,0,0,0
				c0,0,0,0,0,0s0,0,0,0c0.1,0,0.1,0,0.1-0.1c0,0,0-0.1,0-0.3c0-0.1,0-0.2,0-0.2l-0.7-0.4L40.2,150.8z M43.6,145.4
				c-0.1,0-0.1,0-0.1-0.1c0,0,0,0,0-0.1c0,0,0,0,0,0c0,0-0.2,0.1-0.6,0.2l-0.9,0.4l-0.8,0.6l-0.3,0.1L40,147l-0.9,0.4l-0.1,0.1
				c-0.1,0.2-0.1,0.3,0,0.4l0.1,0.1l0.8,0.7l0.8,0.6l0.8,0.7c0.2,0.1,0.4,0.2,0.5,0.1c0,0,0,0,0-0.1c0,0,0,0,0.1-0.1
				c0-0.1,0.1-0.1,0.1-0.1l0.2-0.9l0.2-0.4l0.3-1l0.2-0.2l0.2-1L43.6,145.4z"/>
			<path class="st8" d="M56.3,151.3c-0.1,0-0.4-0.1-1-0.2c-0.3-0.1-0.6-0.1-0.7,0c-0.2,0.1-0.5,0.2-0.7,0.4s-0.4,0.3-0.5,0.4
				c-0.1,0.2-0.2,0.6-0.2,1.2c0,0.2,0,0.4,0.2,0.6c0.3,0.4,0.5,0.7,0.8,0.9c0,0,0.4,0.3,1,0.8l0.7,0.8l0.7,0.7l0.2,0.4
				c0.4,0.6,0.6,0.9,0.6,1c0,0.1,0.1,0.5,0.2,1.1c0,0.4,0,0.6-0.1,0.6l-0.1,0.9l-0.2,0.3l-0.5,0.9c-0.1,0.2-0.4,0.5-0.9,0.8
				c-0.2,0.2-0.7,0.4-1.4,0.6c-0.4,0.1-0.6,0.2-0.6,0.2h-0.2c-0.7,0.1-1,0.1-1,0.1c0,0-0.2,0-0.5-0.1c-0.2,0-0.4-0.1-0.6-0.2
				c-1.2-0.5-1.8-0.7-1.9-0.7c-0.1,0-0.3-0.2-0.6-0.5c-0.1-0.1-0.2-0.2-0.4-0.3c-0.7-0.5-1.1-0.9-1.3-1.2c-0.2-0.3-0.4-0.5-0.5-0.8
				c-0.4-0.3-0.5-0.6-0.4-0.6l0.1-0.1c-0.1-0.1-0.1-0.1-0.1-0.2c0-0.2,0-0.3,0-0.4l0.5-0.7l0.1-0.2c0,0,0.1,0,0.3,0
				c0.1,0,0.2,0,0.3,0.1c0,0,0.1,0.1,0.1,0.1c0,0,0.1,0.3,0.3,0.9c0.1,0.3,0.3,0.6,0.7,1.1c0.4,0.5,0.9,0.9,1.4,1.2
				c0.5,0.3,0.8,0.4,1,0.5c0.1,0,0.2,0.1,0.4,0c0.7,0,1,0,1.1,0c0.3,0,0.6-0.1,0.8-0.3c0.3-0.1,0.4-0.3,0.5-0.5
				c0.1-0.2,0.2-0.6,0.2-1c0-0.4-0.1-0.7-0.4-1c-0.2-0.2-0.4-0.4-0.7-0.6c-0.4-0.3-0.6-0.5-0.6-0.5c-0.2-0.2-0.4-0.4-0.6-0.6
				c-0.5-0.4-0.8-0.6-0.9-0.7c0-0.1-0.1-0.1-0.2-0.3c-0.1-0.1-0.3-0.5-0.6-1.1c-0.2-0.3-0.3-0.5-0.3-0.6s-0.1-0.3-0.1-0.5
				c-0.1-0.4-0.1-0.7-0.1-0.9c0-0.3,0.2-0.7,0.4-1.3c0.1-0.3,0.2-0.5,0.3-0.5c0.3-0.5,0.8-1,1.5-1.4c0.5-0.3,1-0.4,1.4-0.5
				c1.1-0.1,1.7-0.2,1.8-0.1c0.1,0.1,0.1,0.2,0.1,0.3l1,0.2l0.9,0.5c0.1,0,0.2,0,0.2,0l0.7,0.5l0.5,0.3c0.5,0.5,0.8,0.8,1.1,1
				c0.4,0.3,0.6,0.5,0.6,0.8c0,0.1,0.1,0.2,0.1,0.2c0.1,0.1,0.1,0.1,0.1,0.1l-0.1,0.1c0,0,0,0.1,0,0.1l0,0.2c0,0.2-0.1,0.5-0.3,0.9
				c-0.1,0.2-0.2,0.3-0.4,0.4c-0.2,0.1-0.4,0.1-0.5,0c-0.1,0-0.2-0.3-0.4-0.9c-0.1-0.4-0.4-0.9-0.8-1.2c-0.1-0.1-0.4-0.4-1-0.9
				L56.3,151.3z"/>
			<path class="st8" d="M69.4,162.6c0,0-0.1,0-0.2,0c-0.1,0-0.3,0.2-0.3,0.4c0,0.1-0.2,0.7-0.5,1.8c0,0,0,0.2-0.1,0.6
				c0,0.1,0,0.1,0,0.2l-0.4,1.5c0,0,0,0.2-0.1,0.5c0,0.5-0.1,0.7-0.1,0.8c0,0.2,0,0.4,0,0.4l-0.2,0.8l0,0.4c0,0,0,0.1-0.1,0.2
				c-0.1,0.1-0.1,0.1-0.2,0.2c0,0-0.1,0-0.4,0.1l-0.6-0.2l-0.4,0c0,0-0.1-0.1-0.1-0.1c-0.1-0.2-0.1-0.3-0.1-0.4c0,0,0-0.1,0.1-0.2
				c0.1-0.4,0.3-0.9,0.5-1.5l0.1-0.8l0.3-1l0.2-1l0.2-1l0.3-1.5c0,0,0.1-0.2,0.1-0.4c0.1-0.2,0.1-0.3,0.1-0.4c0-0.1,0.1-0.3,0.1-0.5
				c0.1-0.5,0.2-1.2,0.4-2l0.1-0.8l0.2-0.9l0-0.5c0-0.2,0-0.3,0-0.3c0-0.1,0.1-0.3,0.2-0.3c0,0,0.4,0,1.1,0l0.5,0.2
				c0.1,0.1,0.2,0.1,0.3,0.1c0.2,0,0.4,0.1,0.7,0.1c0.3,0,0.5,0,0.6,0.1c0.2,0,0.4,0.1,0.6,0.3c0.2,0.1,0.3,0.6,0.4,1.4
				c0.1,0.6,0.2,1.2,0.3,1.9c0.2,1.2,0.3,2.1,0.4,2.8c0,0.7,0.1,1.2,0.3,1.4c0.1,0.1,0.2,0.2,0.3,0.2c0.1,0,0.2,0,0.3-0.1
				c0.1-0.1,0.4-0.5,0.8-1.1l0.6-0.8l0.5-0.8c0-0.1,0.2-0.3,0.6-0.8c0.3-0.4,0.5-0.6,0.6-0.8l0.4-0.9c0.3-0.5,0.5-0.8,0.5-0.9
				c0-0.1,0.1-0.1,0.1-0.2l0.2,0c0.2-0.1,0.5-0.1,0.7,0l1.2,0.3c0,0,0.1,0,0.2,0l0.3,0l0.8,0.4c0.2,0.1,0.3,0.1,0.3,0.2
				c0,0.1,0,0.1,0,0.1c0,0,0,0.1-0.1,0.1c-0.1,0.1-0.2,0.2-0.2,0.2l-0.2,0.6l-0.4,0.9l-0.1,0.8l-0.2,1l-0.2,1l-0.3,1
				c0,0,0,0.3-0.1,1c0,0.2-0.1,0.4-0.1,0.6c0,0.1-0.1,0.2-0.1,0.4c-0.1,0.4-0.2,0.5-0.2,0.5c-0.3,1.2-0.5,2-0.5,2.4
				c0,0.2-0.1,0.4-0.1,0.5c0,0.1,0,0.2-0.1,0.3c-0.1,0.2-0.1,0.3-0.1,0.3c0,0.2-0.1,0.4,0,0.6c0,0.2,0,0.3,0.1,0.4c0,0,0,0,0,0l0,0
				c0,0-0.1,0.1-0.1,0.1c0,0.2-0.1,0.3-0.1,0.4c-0.1,0.2-0.3,0.2-0.5,0.2l-2-0.5c-0.1,0-0.3,0-0.5,0c-0.1,0-0.1,0-0.2,0
				s-0.1,0-0.1-0.1c0,0-0.1-0.1-0.1-0.3c-0.1-0.2-0.1-0.3-0.1-0.3c0,0,0-0.1,0.1-0.2c0,0,0-0.1,0-0.1l0.2-0.8c0,0,0.1-0.2,0.2-0.6
				c0-0.1,0.1-0.2,0.1-0.4c0-0.1,0-0.2,0.1-0.4c0.1-0.5,0.1-0.8,0.1-0.8l0.4-1.3l0.2-1.1l0.3-0.8c0-0.1,0-0.3-0.1-0.8
				c-0.1-0.3-0.2-0.4-0.3-0.4c-0.1,0-0.2,0-0.3,0s-0.2,0.1-0.3,0.2s-0.5,0.7-1.2,2c-0.4,0.6-0.8,1.2-1.2,1.8
				c-0.3,0.4-0.5,0.7-0.6,0.9c-0.1,0.2-0.2,0.3-0.3,0.3c-0.2,0-0.3,0.1-0.5,0c-0.1,0-0.4-0.1-1-0.3c-0.2-0.1-0.3-0.1-0.4-0.2
				c-0.1-0.1-0.2-0.5-0.3-1.2c0-0.4-0.2-1-0.4-1.8c-0.1-0.4-0.2-0.7-0.2-0.9l0-0.9c-0.2-0.8-0.3-1.3-0.4-1.4
				C69.6,162.7,69.5,162.6,69.4,162.6z"/>
			<path class="st8" d="M89.7,169.5h-1l-1.3-0.1c-0.7,0-1,0.1-1.1,0.1c-0.1,0-0.1,0.1-0.2,0.3c0,0.1-0.2,0.4-0.4,1l-0.1,0.5l-0.3,1
				l0.1,0.2l-0.1,0.6l0.1,0.2l-0.2,0.2l-0.1,0.2c-0.3,0.2-0.5,0.2-0.5,0.2l-0.8-0.1l-0.4,0c-0.2,0-0.2-0.2-0.2-0.7
				c0,0,0.1-0.2,0.2-0.5l0.3-0.9l0.2-0.7l0.1-0.7l0.3-0.6c0.1-0.6,0.2-1,0.2-1s0.2-0.6,0.6-1.7l0.4-0.9l0.2-0.6l0.4-0.9l0.3-0.9
				l0.5-0.8l0.4-0.9l0.5-0.9c0.2-0.5,0.3-0.8,0.3-0.8c0,0,0.1-0.1,0.2-0.1c0.1,0,0.1-0.1,0.2-0.2c0-0.1,0.1-0.1,0.2-0.1
				c0.1,0,0.1,0,0.2,0c0.2,0.1,0.4,0.1,0.7,0.1c0.3,0,0.5,0,0.7,0c0.1,0,0.1,0,0.2,0c0.1,0,0.2,0.1,0.4,0.2c0.1,0.1,0.1,0.1,0.1,0.1
				l0.1,0.4l0.5,0.8c0.3,0.7,0.5,1.2,0.7,1.5c0.3,0.5,0.4,0.8,0.4,0.9l0.3,0.9c0.2,0.3,0.3,0.8,0.5,1.4c0.1,0.2,0.2,0.5,0.4,0.9
				c0.2,0.5,0.3,0.9,0.4,1.2c0,0.1,0.1,0.4,0.3,0.9c0.2,0.6,0.4,1.2,0.5,1.8c0,0.3,0.2,0.8,0.4,1.4l0.2,0.8l0.2,0.3
				c0,0.2,0.1,0.3,0.1,0.4c0,0.1,0,0.1-0.1,0.2c0,0-0.1,0.1-0.2,0.1c-0.4,0.1-0.6,0.2-0.7,0.2c-0.1,0-0.2,0-0.5-0.1
				c-0.2-0.1-0.4-0.1-0.5-0.1c0,0-0.4,0-1.1,0.1c-0.1,0-0.1,0-0.1,0c-0.1,0-0.2,0-0.4-0.1c-0.1-0.1-0.2-0.5-0.3-1.2
				c0-0.2-0.1-0.5-0.2-1c0-0.2,0-0.3,0-0.3c0-0.6-0.1-0.9-0.1-1l-0.3-0.4l0,0c0,0,0,0,0,0s0,0,0,0s0,0,0,0c0,0,0.1-0.1,0.1-0.1
				s-0.1-0.1-0.2-0.2c-0.1-0.1-0.2-0.1-0.2-0.1l-0.7,0.1L89.7,169.5z M89,163.1c-0.1,0-0.1,0-0.1,0c0,0,0,0-0.1-0.1c0,0,0,0,0,0
				c0,0-0.2,0.2-0.3,0.6l-0.5,0.9l-0.3,1l-0.2,0.3l-0.4,0.9l-0.4,0.9l0,0.2c0,0.2,0.1,0.3,0.2,0.3l0.1,0l1,0l1,0l1,0.1
				c0.3,0,0.4-0.1,0.4-0.2c0,0,0,0,0-0.1c0,0,0-0.1,0-0.2c0-0.1,0-0.1,0-0.1l-0.4-0.9l-0.1-0.4l-0.4-0.9v-0.3l-0.4-0.9L89,163.1z"/>
			<path class="st8" d="M109.4,163.5l0.2,0.9c0.1,0.4,0.1,0.7,0.2,0.9c0.1,0.2,0.1,0.4,0.1,0.5s0,0.2,0,0.4l0,0.5l0.4,1.4l0,0.9
				l0.2,0.9l0.1,0.9l0.1,0.3l-0.1,0.2c-0.1,0.2-0.2,0.3-0.2,0.3c-0.9,0.1-1.4,0.2-1.5,0.2c-0.1,0-0.2,0-0.3-0.1
				c-0.1-0.1-0.3-0.3-0.7-0.8c-0.1-0.1-0.3-0.4-0.7-0.7c-0.4-0.3-0.6-0.6-0.7-0.7l-0.5-0.7c0,0-0.1-0.1-0.2-0.1L105,168l-0.9-0.7
				l-0.8-0.8l-0.8-0.6l-0.6-0.8c-0.5-0.4-0.8-0.7-0.9-0.7c-0.1-0.1-0.3-0.2-0.4-0.2c-0.2,0-0.3-0.1-0.3-0.1c-0.1,0-0.2,0.1-0.2,0.3
				c-0.1,0.4-0.1,0.7,0,1l0.3,1.2l0.1,0.9l0.2,0.9l0.1,0.9l0.3,0.9l0.1,0.8c0.2,0.5,0.4,1,0.5,1.3c0,0.1,0.1,0.1,0.1,0.1l0,0.3
				c0,0.2,0,0.2,0,0.2s0,0-0.1,0.1c0,0-0.2,0.1-0.4,0.3c-0.7,0-1,0-1,0c0,0-0.1-0.1-0.2-0.1c-0.2-0.2-0.3-0.3-0.3-0.3
				c0,0,0-0.1,0-0.1c0-0.1,0-0.3,0-0.6c0-0.3-0.1-0.6-0.2-1c-0.1-0.4-0.1-0.9-0.2-1.6l-0.2-1.1l-0.1-1.2c0,0-0.1-0.3-0.2-0.8
				c0-0.2-0.1-0.3-0.1-0.5c0-0.1,0-0.3-0.1-0.5c0-0.2,0-0.4-0.1-0.5c0-0.1-0.1-0.3-0.1-0.5c-0.1-0.4-0.2-0.6-0.2-0.6
				c0-0.1-0.1-0.6-0.1-1.4c0-0.3-0.1-0.6-0.1-1s-0.1-0.6-0.2-0.7c-0.1-0.2-0.2-0.2-0.2-0.3l0-0.3l-0.1-0.2c0-0.1,0-0.2,0.2-0.3
				c0.1-0.1,0.2-0.2,0.3-0.2l2-0.3c0,0,0.1-0.1,0.3-0.1c0.1,0,0.1,0,0.1,0c0.1,0,0.2,0,0.2,0.1c0.1,0,0.1,0.1,0.2,0.1
				s0.3,0.2,0.6,0.6c0.1,0.1,0.6,0.6,1.5,1.3l0.4,0.4l0.7,0.7l0.8,0.6c0.1,0,0.3,0.2,0.6,0.7c0.3,0.4,0.5,0.7,0.6,0.8l0.8,0.6
				c0.5,0.4,0.8,0.7,0.8,0.7c0.2,0.1,0.3,0.1,0.3,0.1c0.2,0,0.2-0.2,0.2-0.5c0-0.1-0.2-0.8-0.4-2.1l-0.1-0.6c0-0.1,0-0.3,0-0.5
				c0-0.4,0-0.6,0-0.6l-0.3-1.3l-0.1-1c-0.1-0.2-0.2-0.3-0.2-0.3l0-0.3l-0.2-0.2c0.1-0.2,0.2-0.3,0.2-0.4c0,0,0.2-0.1,0.4-0.1
				l0.9-0.2c0,0,0.1,0,0.2,0.1c0.1,0.1,0.2,0.2,0.4,0.5c0,0,0,0.2-0.1,0.6c0.1,0.6,0.1,1.2,0.2,1.8l0.3,0.9c0,0.7,0.1,1.1,0.1,1.2
				L109.4,163.5z"/>
			<path class="st8" d="M118.4,155.6c-0.6,0.4-0.9,0.7-1.1,0.8c-0.2,0.1-0.3,0.3-0.3,0.4l0,0.1l-0.5,0.8l-0.2,1l-0.1,0.1l0,1
				c-0.1,0.5-0.1,0.7-0.1,0.8c0,0.1,0.1,0.1,0.2,0.2s0.1,0.1,0.1,0.1l0.1,1.1l0.4,0.8l0.5,1.3c0,0,0.2,0.3,0.6,0.8
				c0.3,0.4,0.6,0.7,0.7,0.9c0,0,0.4,0.3,1,0.7c0.4,0.3,0.7,0.4,0.8,0.4c0,0,0.1,0,0.1,0c0,0,0,0,0,0c0,0,0,0,0.1-0.1l1,0.1
				c0.1,0,0.3,0,0.7-0.2c0.6-0.2,1-0.5,1.3-0.8c0.4-0.4,0.5-0.7,0.6-0.9c0-0.6,0-1-0.1-1.1l-0.4-0.8l-0.4-1.1
				c-0.1-0.2-0.2-0.4-0.4-0.5c-0.2-0.2-0.4-0.4-0.5-0.5c-0.1-0.1-0.1-0.2-0.2-0.2c0-0.1-0.1-0.1-0.1-0.1c-0.1-0.2,0-0.3,0.1-0.4
				c0,0,0.5-0.2,1.2-0.6l0.8-0.2l0.9-0.4c0.2-0.1,0.3-0.1,0.5,0c0.2,0.1,0.3,0.1,0.3,0.2l0,0.3l0.3,1l0.2,1.1l0.1,0.1
				c0.2,0.2,0.2,0.3,0.3,0.4l0.2,0.8c0.3,0.6,0.5,0.9,0.5,0.9c0.1,0.1,0.1,0.1,0.1,0.1l0,0.2c0,0.1,0,0.3-0.1,0.4
				c-0.2,0.4-0.6,0.8-1.1,1.4c-0.5,0.5-0.7,0.8-0.8,0.8l-0.8,0.5l-0.1,0.1l-0.8,0.5l-0.5,0.3l-0.6,0.1c-0.6,0.2-1,0.4-1,0.4
				c0,0-0.2,0-0.5,0c-0.7,0.1-1.1,0.1-1.3,0c0,0-0.1,0-0.1,0s0,0,0,0c0,0.1,0,0.1,0,0.1c0,0,0,0-0.1,0c-0.1,0-0.4-0.1-0.9-0.1
				c-0.5,0-0.8-0.1-1-0.2l-0.9-0.4c-0.7-0.3-1.3-0.6-1.8-1.2c-0.4-0.3-0.7-0.6-0.9-0.9c-0.1-0.1-0.3-0.5-0.6-1.2l-0.5-0.9l-0.1-1
				l-0.2-1l0-0.9l0-1c0.2-0.9,0.4-1.4,0.5-1.7c0.1-0.2,0.4-0.7,0.9-1.5c0.2-0.4,0.6-0.8,1.2-1.3c0.2-0.1,0.6-0.4,1.3-0.8l0.8-0.5
				c0,0,0.1,0,0.3,0l0.9-0.3l0.8-0.1l1-0.2l0.6,0.1l1,0.1l0.4,0.1c0.1,0,0.2,0,0.2,0c0,0,0.1,0,0.1,0.1c0.1,0,0.2,0,0.2,0l0.1,0.2
				l0.5,1.1c0,0.1,0,0.2-0.1,0.4c-0.1,0.2-0.2,0.3-0.2,0.3c-0.1,0-0.2,0-0.4-0.1c-0.6-0.3-1-0.4-1.2-0.5c-0.5-0.1-0.9-0.2-1.3-0.1
				c-0.2,0-0.4,0.1-0.6,0.1c-0.2,0-0.4,0.1-0.6,0.1L118.4,155.6z"/>
			<path class="st8" d="M134.5,156.6l-0.8,0.6l-1.1,0.7c-0.5,0.4-0.8,0.6-0.9,0.7c0,0.1,0,0.2,0,0.3c0,0.1,0.1,0.4,0.2,1.1l0.2,0.4
				l0.3,0.9l0.2,0.1l0.2,0.6l0.2,0.1l0,0.2l0,0.2c-0.2,0.3-0.2,0.5-0.3,0.5l-0.7,0.3l-0.3,0.3c-0.1,0.1-0.3,0-0.6-0.4
				c0,0,0-0.2-0.1-0.6l-0.2-0.9l-0.2-0.7l-0.3-0.7l-0.1-0.7c-0.2-0.6-0.4-0.9-0.4-1s-0.2-0.6-0.5-1.8l-0.2-1l-0.2-0.7l-0.2-1
				l-0.3-0.9l-0.1-0.9l-0.1-1l-0.1-1c-0.1-0.5-0.1-0.8-0.1-0.8c0,0,0-0.1,0-0.2c0-0.1,0-0.2,0-0.3c0-0.1,0-0.1,0.1-0.2
				c0,0,0.1-0.1,0.2-0.1c0.2-0.1,0.4-0.2,0.6-0.3c0.2-0.1,0.4-0.3,0.5-0.4c0.1-0.1,0.1-0.1,0.1-0.1c0.1-0.1,0.2-0.1,0.4-0.1
				c0.1,0,0.2,0,0.2,0l0.3,0.2l0.9,0.4c0.6,0.4,1.1,0.7,1.4,0.9c0.5,0.3,0.8,0.4,0.8,0.5l0.8,0.6c0.3,0.2,0.7,0.5,1.2,0.8
				c0.2,0.1,0.5,0.3,0.8,0.5c0.4,0.3,0.8,0.5,1,0.7c0,0,0.3,0.2,0.8,0.6c0.5,0.4,1,0.8,1.4,1.2c0.2,0.2,0.6,0.5,1.1,0.9l0.6,0.5
				l0.3,0.2c0.2,0.2,0.2,0.2,0.3,0.2c0,0.1,0,0.1,0,0.2c0,0.1-0.1,0.1-0.1,0.2c-0.2,0.3-0.4,0.5-0.5,0.6c-0.1,0-0.2,0.1-0.5,0.2
				c-0.2,0.1-0.4,0.1-0.5,0.2c0,0-0.3,0.3-0.9,0.7c0,0-0.1,0.1-0.1,0.1c-0.1,0.1-0.2,0.1-0.4,0.1c-0.1,0-0.4-0.3-0.9-0.9
				c-0.1-0.1-0.3-0.4-0.7-0.7c-0.1-0.1-0.2-0.2-0.2-0.2c-0.4-0.5-0.6-0.7-0.6-0.7l-0.5-0.2l0,0c0,0,0,0,0,0c0,0,0,0,0,0c0,0,0,0,0,0
				c0-0.1,0-0.1,0-0.1s-0.1,0-0.3,0c-0.1,0-0.2,0-0.2,0l-0.5,0.5L134.5,156.6z M130.3,151.7c0,0-0.1,0.1-0.1,0.1c0,0,0,0-0.1,0
				c0,0,0,0,0,0c0,0,0,0.2,0,0.7l0.1,1l0.3,0.9l0,0.3l0.2,1l0.2,1l0.1,0.1c0.2,0.1,0.3,0.2,0.3,0.1l0.1-0.1l0.9-0.6l0.8-0.6l0.9-0.5
				c0.2-0.2,0.3-0.3,0.2-0.4c0,0,0,0-0.1-0.1c0,0,0-0.1-0.1-0.1c0-0.1-0.1-0.1-0.1-0.1l-0.8-0.5l-0.3-0.3l-0.8-0.5l-0.2-0.2
				l-0.8-0.5L130.3,151.7z"/>
			<path class="st8" d="M147.3,151l0.1,0.1c0.2,0.2,0.3,0.3,0.3,0.4c0,0.1,0,0.2,0,0.3l-0.3,0.2l-0.6,0.6l-0.7,0.5l-0.5,0.6
				c-0.2,0.1-0.3,0.2-0.4,0.2c-0.1,0-0.1,0.1-0.2,0.1l-0.2-0.2l-0.2-0.2l-0.3-0.5l-0.7-0.7l-0.4-0.7l-1.2-1c0,0-0.1-0.2-0.3-0.4
				c-0.2-0.3-0.3-0.5-0.5-0.7l-0.8-0.8l-0.6-0.8l-0.7-0.7l-0.9-1c0-0.1-0.2-0.2-0.5-0.4c-0.3-0.2-0.5-0.4-0.6-0.6
				c-0.3-0.4-0.5-0.6-0.7-0.6c-0.1-0.1-0.2-0.1-0.2-0.1l-0.2-0.3l-0.2-0.2l0-0.2c0-0.2,0-0.3,0-0.4c0,0,0.1-0.1,0.3-0.1
				c0.5-0.4,1-0.9,1.5-1.3l0.9-1c0,0,0.2-0.1,0.5-0.4c0.2-0.1,0.3-0.3,0.5-0.4c0.3-0.2,0.6-0.6,0.9-1c0.1-0.1,0.2-0.3,0.3-0.4
				c0.1-0.1,0.2-0.2,0.4-0.3c0.4-0.2,0.7-0.4,0.8-0.5c0,0,0.1-0.1,0.1-0.2c0,0,0,0,0-0.1c0,0,0,0,0.1,0c0,0,0.3-0.1,0.8-0.3
				c0.7-0.3,1.3-0.4,1.8-0.2c0.7,0.3,1.1,0.4,1.1,0.4l0.4,0.6l0.6,0.8l0.1,0.3c0.2,0.7,0.3,1,0.3,1.1c0,0.1-0.1,0.4-0.2,1.1
				c0,0.3-0.1,0.5-0.1,0.8c0,0.1,0,0.2,0.1,0.2c0,0.1,0.2,0.1,0.3,0.2c0,0,0.4,0.1,1.1,0.2c0.5,0.1,1.3,0.4,2.5,1l0.8,0.4
				c0.7,0.5,1.2,0.8,1.6,0.9c0.1,0,0.2,0.1,0.2,0.1c0,0,0,0.1,0.1,0.4c0,0.2,0.1,0.3,0.1,0.3s0,0.1-0.1,0.1c0,0.1-0.1,0.1-0.2,0.1
				c-0.2,0.1-0.3,0.2-0.4,0.2l-0.8,0.9l-0.6,0.6l-0.2,0.2c-0.1,0.1-0.2,0.1-0.5,0c-0.2,0-0.4-0.2-0.6-0.4c-0.2-0.2-0.5-0.4-0.8-0.6
				c-0.5-0.2-0.8-0.4-0.8-0.5l-0.3-0.2l-1-0.2c-0.1,0-0.2-0.1-0.4-0.2c-0.5-0.3-0.8-0.4-0.9-0.4c-0.2,0-0.3,0-0.3,0
				c-0.1-0.1-0.2-0.1-0.2-0.1l-0.2,0.1l-0.2,0l-0.1,0.1l-0.2,0.1l-0.2,0.4c0,0.1-0.1,0.2-0.3,0.4c-0.2,0.2-0.2,0.3-0.1,0.5
				c0.2,0.3,0.3,0.5,0.5,0.7c0.2,0.2,0.6,0.6,1.2,1.3l0.4,0.4L147.3,151z M141.3,140.8c0,0.1,0,0.2,0,0.2c0,0.1-0.3,0.2-0.8,0.4
				c-0.1,0-0.2,0.1-0.2,0.1c-0.2,0.2-0.3,0.4-0.5,0.7c-0.1,0.3-0.1,0.6,0,0.9c0.2,0.5,0.4,0.7,0.5,0.8l0.8,0.6l0.6,0.7l0.6,0.6
				l0.2,0.4c0.1-0.1,0.2-0.1,0.3-0.1c0,0,0.1,0,0.2,0c0.1,0,0.1,0,0.2-0.1c0.1-0.1,0.3-0.5,0.8-1.2c0.1-0.2,0.2-0.4,0.3-0.7
				c0.2-0.7,0.2-1.2,0.2-1.3c0-0.2-0.1-0.6-0.3-0.9l-0.4-0.6c-0.7-0.4-1.1-0.7-1.3-0.8c-0.1,0-0.1,0-0.2,0.1L141.3,140.8z"/>
			<path class="st8" d="M155.7,136.1l-0.6,0.9l-0.8,1.1c-0.3,0.6-0.5,0.9-0.5,1c0,0.1,0,0.2,0.2,0.3c0,0.1,0.3,0.4,0.6,1l0.3,0.3
				l0.6,0.8l0.2,0l0.5,0.5l0.2,0.1l0.1,0.2l0.1,0.2c0,0.3-0.1,0.5-0.1,0.5l-0.6,0.6l-0.2,0.4c-0.1,0.1-0.3,0.1-0.7-0.2
				c0,0-0.1-0.2-0.3-0.5l-0.6-0.7l-0.4-0.6l-0.5-0.5l-0.4-0.6c-0.4-0.5-0.7-0.7-0.7-0.8c0-0.1-0.4-0.5-1.1-1.5l-0.5-0.8l-0.4-0.6
				l-0.5-0.9l-0.6-0.8l-0.4-0.8l-0.5-0.9l-0.4-0.9c-0.3-0.5-0.4-0.7-0.4-0.7s0-0.1,0-0.2c0-0.1,0-0.2-0.1-0.3c0-0.1,0-0.1,0-0.2
				c0,0,0.1-0.1,0.2-0.2c0.1-0.1,0.3-0.3,0.5-0.5c0.2-0.2,0.3-0.4,0.3-0.6c0-0.1,0.1-0.1,0.1-0.2c0.1-0.1,0.2-0.2,0.3-0.2
				c0.1,0,0.1,0,0.2,0l0.3,0.1l1,0.1c0.7,0.2,1.3,0.2,1.6,0.3c0.6,0,0.9,0.1,1,0.1l1,0.2c0.3,0.1,0.8,0.2,1.4,0.3
				c0.2,0.1,0.6,0.1,1,0.2c0.5,0.1,0.9,0.2,1.2,0.3c0.1,0,0.4,0.1,1,0.2c0.7,0.2,1.2,0.4,1.8,0.6c0.3,0.1,0.7,0.3,1.3,0.4l0.7,0.3
				l0.4,0.1c0.2,0.1,0.3,0.1,0.3,0.1c0.1,0,0.1,0.1,0.1,0.2c0,0.1,0,0.2,0,0.3c-0.1,0.4-0.2,0.6-0.3,0.7c0,0.1-0.2,0.2-0.4,0.3
				c-0.2,0.1-0.3,0.3-0.4,0.4c0,0-0.2,0.4-0.5,1c0,0.1,0,0.1,0,0.1c-0.1,0.1-0.2,0.2-0.3,0.3c-0.1,0.1-0.5-0.1-1.2-0.5
				c-0.2-0.1-0.4-0.2-0.9-0.4c-0.2-0.1-0.2-0.1-0.3-0.1c-0.5-0.3-0.8-0.5-0.9-0.5l-0.5,0h0c0,0,0,0,0,0c0,0,0,0,0,0c0,0,0,0,0,0
				c0-0.1,0-0.1-0.1-0.1c0,0-0.1,0-0.2,0.1c-0.1,0-0.2,0-0.2,0.1l-0.3,0.7L155.7,136.1z M150,133.2c0,0.1,0,0.1,0,0.1c0,0,0,0-0.1,0
				c0,0,0,0,0,0c0,0,0.1,0.2,0.3,0.6l0.5,0.9l0.6,0.8l0.1,0.3l0.6,0.8l0.5,0.9l0.2,0c0.2,0.1,0.3,0.1,0.4,0l0.1-0.1l0.6-0.8l0.6-0.9
				l0.6-0.8c0.1-0.2,0.1-0.4,0-0.5c0,0,0,0-0.1,0c0,0-0.1,0-0.1-0.1c-0.1,0-0.1-0.1-0.1-0.1l-1-0.2l-0.4-0.1l-1-0.2l-0.2-0.2l-1-0.1
				L150,133.2z"/>
			<path class="st8" d="M166.5,126.2l-0.3,0.8l-0.4,0.7l-0.3,0.8l-0.3,0.2c-0.1,0.1-0.2,0.2-0.2,0.2c-0.1,0-0.1,0-0.1,0
				c0,0,0,0-0.1-0.1c-0.1-0.1-0.3-0.2-0.7-0.5l-0.8-0.6l-0.7-0.4l-0.8-0.5l-0.9-0.4l-0.8-0.5l-0.9-0.4l-0.9-0.4l-0.9-0.4l-0.8-0.5
				l-0.9-0.4l-0.8-0.5l-0.3,0c-0.2,0-0.2-0.1-0.3,0c0,0-0.1,0.1-0.1,0.1c-0.1,0.1-0.2,0.2-0.2,0.2c0,0,0,0.1,0,0.3
				c0,0.1,0,0.1,0,0.1l-0.7,1.2c0,0.1,0,0.2,0,0.4c0,0.1,0,0.2,0,0.2l-0.1,0.5l0,0.3c0,0-0.1,0.1-0.3,0.1c-0.2,0.1-0.3,0.1-0.3,0.1
				c-0.1,0-0.1,0-0.1,0c0,0-0.1-0.1-0.2-0.1c-0.2-0.2-0.4-0.3-0.7-0.5c-0.1-0.1-0.2-0.1-0.2-0.1c0,0,0-0.1,0-0.3c0,0,0-0.1-0.1-0.2
				l0,0l0.6-0.8c0,0,0-0.1,0-0.3c0-0.1,0.1-0.2,0.1-0.4c0.1-0.2,0.2-0.3,0.3-0.5c0.3-0.5,0.5-0.8,0.5-0.9l0.4-0.9l0.7-1.4
				c0-0.1,0.1-0.2,0.2-0.5c0.1-0.2,0.1-0.4,0.1-0.4l1.1-2c0,0,0-0.1,0.1-0.3c0.1-0.2,0.2-0.4,0.2-0.5c0.2-0.4,0.4-0.6,0.6-0.7
				c0.2-0.1,0.3-0.1,0.3-0.1l0.5,0.2c0,0,0.2,0,0.4,0.1c0.1,0,0.1,0,0.2,0c0.1,0.1,0.2,0.1,0.3,0.2c0,0.1,0,0.2-0.1,0.4
				c0,0.1-0.1,0.2-0.1,0.3c0,0,0,0.1,0,0.1c0,0,0,0-0.1,0.1c-0.1,0.1-0.4,0.2-0.7,0.5c-0.2,0.1-0.3,0.2-0.3,0.3c0,0,0,0.1,0,0.2
				c0,0.1,0,0.2,0,0.2l-0.4,0.7l-0.1,0.2l-0.2,0.3c0,0.1,0,0.2,0.1,0.3c0.1,0.1,0.4,0.3,1,0.7l1.3,0.6c0.1,0,0.3,0.1,0.5,0.3
				c0.2,0.1,0.4,0.2,0.5,0.3c0.1,0.1,0.2,0.1,0.4,0.1c0.6,0.2,0.9,0.4,0.9,0.4c0.1,0,0.3,0.2,0.8,0.5c0.5,0.3,1.2,0.7,2,1.1
				c0.2,0.1,0.4,0.2,0.6,0.2c0.2,0.1,0.3,0.1,0.3,0.1l1.2,0.7l0.5,0.1l0.2,0.1l0.3,0l0.1,0.2c0.1,0.2,0.1,0.3,0.1,0.3
				C166.7,126,166.7,126.1,166.5,126.2z"/>
			<path class="st8" d="M170.3,116.8c0,0,0,0.2-0.1,0.4c0,0.1,0,0.2-0.1,0.3c0,0.1-0.1,0.3-0.3,0.7c-0.1,0.2-0.2,0.3-0.3,0.4
				c-0.1,0-0.2,0-0.2,0s-0.1-0.1-0.2-0.1c-0.3-0.2-0.6-0.4-1-0.5c-0.1,0-0.3-0.1-0.4-0.1c-0.2,0-0.3-0.1-0.3-0.1l-1.4-0.6l-1-0.2
				l-0.9-0.4l-1-0.2l-0.9-0.4l-1.1-0.2c0,0-0.3-0.1-0.8-0.4c-0.1-0.1-0.2-0.1-0.4-0.1c-0.2-0.1-0.4-0.1-0.6-0.1
				c-0.3,0-0.5-0.1-0.6-0.1l-1.2-0.4c0,0-0.2,0-0.5,0.1c0,0,0,0-0.1,0c0,0,0,0-0.1-0.1c0,0-0.1-0.1-0.2-0.1
				c-0.2-0.1-0.3-0.4-0.2-0.7l0.3-0.8l0.2-0.8l0.3-0.8l0.1-0.4c0-0.1,0.1-0.1,0.2-0.1c0.2-0.1,0.2-0.1,0.3-0.1c0,0,0.1,0.1,0.2,0.1
				c0.4,0.2,0.8,0.4,1.4,0.7l0.8,0.1l0.9,0.4l1,0.3l0.9,0.3l1.5,0.4c0,0,0.2,0.1,0.4,0.2c0.2,0.1,0.3,0.1,0.4,0.2
				c0.1,0,0.3,0.1,0.5,0.1c0.5,0.1,1.2,0.3,1.9,0.5l0.8,0.2l0.9,0.3c0.4,0,0.7,0,0.8,0c0.1,0,0.2,0.1,0.3,0.2c0,0,0,0.1,0,0.3l0,0.5
				L170.3,116.8z"/>
			<path class="st8" d="M158.6,107.1l0.3-1.1l0.2-1.2c0-0.2,0.1-0.4,0.2-0.9c0.1-0.3,0.1-0.5,0.1-0.6c0-0.1,0-0.3,0.1-0.4
				c0.1-0.6,0.1-0.9,0.1-0.9l0.3-1.1c0.3-1.1,0.5-1.9,0.8-2.3c0.2-0.2,0.5-0.5,0.9-0.7c0.2-0.1,0.5-0.2,0.7-0.4l1-0.1l0.4,0l0.9,0.4
				l0.3,0.1l0.6,0.8l0.2,0.2l0.4,0.9l0.2,0.2l0,0.2l0.2-0.1l0.1,0c0.1,0,0.3-0.2,0.6-0.7c0.2-0.2,0.4-0.5,0.8-0.9
				c0.3-0.2,0.6-0.4,1.1-0.5c0.4-0.1,0.7-0.2,1.1-0.2l0.6,0.1c0.7,0.1,1,0.2,1,0.2s0.1,0.1,0.3,0.2c0.6,0.4,0.9,0.7,1.1,1.1
				c0.3,0.6,0.5,1.1,0.5,1.3c0,0.6,0,0.9,0.1,1c0.1,0.1,0.1,0.1,0.1,0.2l-0.2,0.9l-0.2,1l-0.1,0.2l-0.2,1.3c0,0.1-0.1,0.2-0.2,0.6
				c-0.1,0.2-0.1,0.4-0.1,0.5c0,0.1-0.1,0.5-0.2,1.4c0,0.3-0.1,0.5-0.1,0.6c0,0.1,0,0.2-0.1,0.3c-0.1,0.2-0.1,0.4-0.1,0.4l-0.1,0.8
				c0,0,0,0.1-0.1,0.1s-0.1,0.1-0.3,0.1c-0.2,0.1-0.3,0.2-0.3,0.1c0,0-0.1,0-0.2-0.1c-0.2-0.1-0.7-0.2-1.5-0.4l-0.7-0.3l-1.1-0.1
				c0,0-0.3-0.1-0.9-0.2c-0.2-0.1-0.3-0.1-0.5-0.1c-0.1,0-0.3,0-0.5-0.1c-0.3,0-0.5,0-0.5,0l-1.5-0.3l-1-0.2l-1-0.2l-1-0.1
				c-0.8-0.1-1.5-0.2-2.2-0.2c-0.1,0-0.1,0-0.2,0c-0.1,0-0.2-0.1-0.4-0.3c-0.1-0.1-0.1-0.1-0.2-0.2
				C158.6,107.4,158.6,107.3,158.6,107.1z M165.4,104.9l0.1-0.4l0-0.2l0.1-0.3c0-0.1-0.1-0.3-0.2-0.5c-0.2-0.3-0.3-0.4-0.3-0.5
				l-0.3-0.9c-0.1-0.2-0.2-0.4-0.6-0.6c-0.3-0.2-0.7-0.4-1-0.4c-0.2,0-0.5,0-0.7,0c-0.4,0.1-0.6,0.2-0.7,0.4v0l-0.1-0.1
				c0,0,0,0-0.1,0c-0.1,0.1-0.3,0.5-0.6,1.3v0.9c0,0.4,0,0.7,0.1,0.8c0.1,0.1,0.1,0.1,0.1,0.1l0.4,0.1l1,0.3l0.4,0
				c0.1,0,0.3,0,0.5,0.1c0.2,0,0.3,0.1,0.5,0.1c0.1,0,0.2,0.1,0.3,0.1c0,0,0.1,0,0.2,0c0,0,0.1,0,0.1,0c0.3,0.1,0.5,0.1,0.5,0.2
				c0,0,0,0,0,0l0,0l0,0l0.1-0.2l0.1-0.1C165.4,105.1,165.4,105,165.4,104.9z M168,101.9C168,101.9,168,101.9,168,101.9L168,101.9
				L168,101.9c-0.5,0.5-0.8,0.7-0.8,0.8c-0.1,0.1-0.1,0.2-0.2,0.4l-0.1,0.1c0,0,0.1,0.1,0.2,0.2c0.1,0.1,0.2,0.4,0.1,0.6
				c0,0.1,0,0.2-0.1,0.3c-0.1,0.2-0.1,0.4-0.1,0.5c0,0.2,0,0.4,0.1,0.7c0.1,0.2,0.2,0.4,0.4,0.4c0.3,0.1,0.6,0.1,0.9,0.1
				c0.1,0,0.1,0,0.2,0c0.1,0,0.3,0.1,0.7,0.2c0.2,0.1,0.3,0.1,0.5,0.1c0.2,0,0.3,0,0.4,0c0.2,0,0.3-0.1,0.3-0.1l0.6,0.2
				c0,0,0.1-0.1,0.2-0.3c0.1-0.2,0.2-0.3,0.2-0.4c0.2-0.2,0.3-0.4,0.3-0.5l0-0.2c0.1-0.7,0.1-1,0.1-1.1c-0.2-0.6-0.3-1-0.3-1.2
				c-0.1-0.4-0.5-0.7-1-0.9c-0.8-0.3-1.2-0.4-1.3-0.4c-0.1,0-0.2,0-0.3,0.2L168,101.9z"/>
			<path class="st8" d="M170.3,88.9l0,1l0,1.3c0.1,0.6,0.1,1,0.2,1.1c0,0.1,0.1,0.1,0.3,0.1c0.1,0,0.4,0.1,1.1,0.4l0.5,0.1l1,0.2
				l0.2-0.1l0.7,0.1l0.2-0.1l0.2,0.1l0.2,0.1c0.2,0.3,0.2,0.4,0.2,0.5l-0.1,0.8l0.1,0.4c0,0.2-0.2,0.2-0.7,0.3c0,0-0.2-0.1-0.5-0.2
				l-0.9-0.2l-0.7-0.2l-0.7-0.1l-0.6-0.2c-0.6-0.1-1-0.2-1-0.2s-0.6-0.2-1.7-0.6l-0.9-0.4l-0.7-0.2l-0.9-0.4l-1-0.2l-0.8-0.4
				l-0.9-0.4L162,91c-0.5-0.2-0.8-0.3-0.8-0.3s-0.1-0.1-0.2-0.1c-0.1-0.1-0.1-0.1-0.2-0.1c-0.1,0-0.1-0.1-0.1-0.2c0-0.1,0-0.1,0-0.2
				c0-0.2,0.1-0.4,0.1-0.7c0-0.3,0-0.5-0.1-0.7c0-0.1,0-0.1,0-0.2c0-0.1,0-0.2,0.2-0.4C161,88,161,88,161,88l0.3-0.1l0.8-0.5
				c0.7-0.3,1.2-0.5,1.4-0.7c0.5-0.3,0.8-0.5,0.9-0.5l0.9-0.4c0.3-0.2,0.8-0.4,1.3-0.6c0.2-0.1,0.5-0.2,0.9-0.4
				c0.5-0.2,0.8-0.4,1.1-0.5c0.1,0,0.4-0.1,0.9-0.4c0.6-0.2,1.2-0.4,1.8-0.6c0.3-0.1,0.8-0.2,1.3-0.4l0.8-0.2l0.3-0.2
				c0.2-0.1,0.3-0.1,0.3-0.1c0.1,0,0.1,0,0.2,0.1c0,0.1,0.1,0.1,0.1,0.2c0.1,0.4,0.2,0.6,0.2,0.7c0,0.1,0,0.2-0.1,0.5
				c0,0.2-0.1,0.4-0.1,0.5c0,0.1,0,0.4,0.1,1.1c0,0.1,0,0.1,0,0.1c0,0.1,0,0.2-0.1,0.4c-0.1,0.1-0.5,0.2-1.2,0.3
				c-0.2,0-0.5,0.1-1,0.2c-0.2,0-0.3,0.1-0.3,0.1c-0.6,0.1-0.9,0.1-1,0.1l-0.4,0.3l0,0c0,0,0,0,0,0s0,0,0,0s0,0,0,0
				c-0.1,0-0.1-0.1-0.1-0.1s-0.1,0.1-0.2,0.2c-0.1,0.1-0.1,0.2-0.1,0.2l0.2,0.7L170.3,88.9z M163.9,89.8c0,0.1,0,0.1,0,0.1
				c0,0,0,0-0.1,0.1c0,0,0,0,0,0c0,0.1,0.2,0.1,0.6,0.3l0.9,0.4l1,0.2l0.3,0.1l0.9,0.3l0.9,0.4l0.2,0c0.2-0.1,0.3-0.1,0.3-0.2l0-0.1
				l0-1l0-1l0-1.1c-0.1-0.3-0.1-0.4-0.2-0.4c0,0,0,0-0.1,0c0,0-0.1,0-0.2,0c-0.1,0-0.1,0-0.2,0l-0.9,0.4l-0.4,0.1l-0.9,0.4l-0.3,0
				l-0.9,0.5L163.9,89.8z"/>
		</g>
		<g>
			<path class="st8" d="M22.6,52l-0.1,0.2l0,0.5l0.1,0.5l0,0l0.2,0.5l0.4,0.4l0,0.1l0.4,0.3l0.4,0.3c0.1,0,0.2,0,0.2,0
				c0.1,0.1,0.2,0.1,0.3,0.2c0.1,0.1,0.1,0.1,0.2,0.1c0.1,0,0.2,0.1,0.5,0.2c0.4,0.1,0.7,0.2,0.8,0.2c0.1,0,0.4-0.1,0.9-0.2
				c0.2-0.1,0.3-0.1,0.3-0.1l0.1-0.1l0.2-0.2c0.2-0.1,0.3-0.3,0.4-0.5c0.1-0.2,0.2-0.4,0.2-0.5c0-0.2,0.1-0.4,0.1-0.5
				c0-0.1,0-0.1,0-0.2l0-0.2l0-0.4l0-0.3l0-0.1l0-0.1c0,0,0.1,0,0.1,0c0,0,0.2,0.1,0.4,0.2l0.1,0c0,0,0,0.1,0.1,0.1l0,0.1
				c0,0.1,0,0.1,0,0.1c0,0,0,0,0.1,0.1c0,0.1,0.1,0.2,0.1,0.5c0,0,0,0.1,0,0.3c0,0.3,0,0.4,0,0.5L29,54.4l-0.2,0.5l-0.2,0.3
				c-0.2,0.4-0.4,0.6-0.5,0.8c0,0.1-0.2,0.2-0.6,0.5c-0.2,0.2-0.5,0.4-1.1,0.6c-0.9,0.2-1.7,0.2-2.4-0.2c-0.3-0.1-0.5-0.2-0.6-0.3
				L23,56.2c-0.3-0.3-0.5-0.5-0.7-0.6c-0.2-0.2-0.3-0.3-0.3-0.4l-0.2-0.5c-0.1-0.3-0.2-0.4-0.2-0.5s0-0.1,0-0.2c0-0.1,0-0.3,0-0.7
				c0-0.4,0-0.6,0-0.6c0-0.3,0.1-0.5,0.2-0.8c0-0.1,0.2-0.4,0.4-0.8c0-0.1,0.1-0.2,0.4-0.5c0.1-0.2,0.2-0.3,0.4-0.4l0.3-0.2
				c0,0,0.1-0.1,0.4-0.4c0.1-0.1,0.1-0.1,0.2-0.1c0,0,0,0,0.1,0c0,0,0,0,0.1-0.1l0.1,0c0.1-0.1,0.1-0.1,0.1-0.1c0,0,0,0,0,0l0.5,0.3
				c0,0,0.1,0.1,0.1,0.2c0,0.1,0,0.2,0,0.2c0,0-0.1,0.1-0.2,0.1c-0.4,0.1-0.7,0.2-0.8,0.3c-0.2,0.1-0.3,0.2-0.5,0.4
				c-0.2,0.2-0.3,0.4-0.3,0.4l-0.2,0.1L22.6,52z"/>
			<path class="st8" d="M31.4,49.8L31.4,49.8c0.2,0.1,0.2,0.2,0.3,0.2c0,0.1,0,0.1,0,0.1l-0.1,0.1l-0.2,0.4L31,51l-0.2,0.4
				c-0.1,0.1-0.2,0.1-0.2,0.1s-0.1,0-0.1,0.1l-0.1-0.1l-0.1-0.1l-0.2-0.2l-0.4-0.3l-0.3-0.3l-0.7-0.4c0,0-0.1-0.1-0.2-0.2
				c-0.1-0.1-0.2-0.2-0.3-0.3l-0.5-0.4L27.3,49l-0.4-0.3l-0.6-0.5c0,0-0.1-0.1-0.3-0.1c-0.2-0.1-0.3-0.2-0.4-0.2
				c-0.2-0.1-0.3-0.2-0.4-0.2c-0.1,0-0.1,0-0.1,0L25,47.4l-0.1-0.1l0-0.1c0-0.1-0.1-0.2,0-0.2S24.9,47,25,47
				c0.2-0.3,0.4-0.5,0.6-0.8l0.4-0.6c0,0,0.1-0.1,0.2-0.2c0.1-0.1,0.2-0.2,0.2-0.2c0.1-0.1,0.2-0.3,0.4-0.6c0-0.1,0.1-0.2,0.1-0.2
				c0-0.1,0.1-0.1,0.2-0.2c0.2-0.2,0.3-0.3,0.3-0.3c0,0,0-0.1,0-0.1c0,0,0,0,0,0c0,0,0,0,0,0c0,0,0.1-0.1,0.4-0.2
				c0.3-0.2,0.6-0.3,0.9-0.3c0.4,0.1,0.6,0.1,0.6,0.1l0.3,0.3l0.4,0.3l0.1,0.1c0.2,0.3,0.2,0.5,0.3,0.6c0,0,0,0.2,0,0.6
				c0,0.1,0,0.3,0,0.4c0,0.1,0,0.1,0,0.1c0,0,0.1,0,0.2,0.1c0,0,0.2,0,0.6,0c0.3,0,0.7,0.1,1.4,0.3l0.5,0.1c0.4,0.2,0.7,0.3,0.9,0.3
				c0,0,0.1,0,0.1,0c0,0,0,0.1,0.1,0.2c0,0.1,0.1,0.1,0.1,0.1s0,0,0,0.1c0,0-0.1,0.1-0.1,0.1c-0.1,0.1-0.2,0.1-0.2,0.1l-0.3,0.6
				l-0.3,0.4l-0.1,0.1c0,0-0.1,0.1-0.3,0.1c-0.1,0-0.2-0.1-0.4-0.2c-0.1-0.1-0.3-0.2-0.5-0.2c-0.3-0.1-0.4-0.1-0.5-0.2l-0.2-0.1
				l-0.5,0c0,0-0.1,0-0.2-0.1c-0.3-0.1-0.4-0.1-0.5-0.1c-0.1,0-0.2,0-0.2,0c-0.1,0-0.1,0-0.1,0l-0.1,0.1l-0.1,0l0,0.1l-0.1,0.1
				l-0.1,0.2c0,0,0,0.1-0.1,0.2c-0.1,0.1-0.1,0.2,0,0.2c0.1,0.1,0.2,0.2,0.3,0.3c0.1,0.1,0.4,0.3,0.7,0.6l0.2,0.2L31.4,49.8z
				 M27.4,45c0,0.1,0,0.1,0,0.1c0,0-0.1,0.1-0.4,0.3c0,0-0.1,0.1-0.1,0.1c-0.1,0.1-0.1,0.2-0.2,0.4c0,0.2,0,0.3,0.1,0.4
				c0.2,0.2,0.3,0.4,0.3,0.4l0.5,0.3l0.4,0.3l0.4,0.2l0.1,0.2c0.1-0.1,0.1-0.1,0.1-0.1c0,0,0,0,0.1,0c0,0,0.1,0,0.1-0.1
				c0,0,0.1-0.3,0.3-0.7c0-0.1,0.1-0.2,0.1-0.4c0-0.4,0-0.6,0-0.7c0-0.1-0.1-0.3-0.2-0.4l-0.2-0.3c-0.4-0.2-0.6-0.3-0.7-0.3
				c0,0-0.1,0-0.1,0.1L27.4,45z"/>
			<path class="st8" d="M35.8,44.9c0,0,0,0.1-0.1,0.2c0,0.1-0.1,0.1-0.1,0.1c0,0.1-0.1,0.1-0.3,0.3c-0.1,0.1-0.2,0.1-0.2,0.1
				c0,0-0.1,0-0.1,0c0,0-0.1-0.1-0.1-0.1c-0.1-0.1-0.2-0.3-0.4-0.4c0,0-0.1-0.1-0.2-0.1c-0.1-0.1-0.1-0.1-0.1-0.1l-0.5-0.6l-0.4-0.3
				l-0.4-0.4l-0.4-0.3L32,42.9l-0.5-0.3c0,0-0.1-0.1-0.3-0.3c0-0.1-0.1-0.1-0.1-0.1C31,42,30.9,42,30.8,42c-0.2-0.1-0.2-0.1-0.3-0.1
				l-0.5-0.4c0,0-0.1,0-0.2-0.1c0,0,0,0,0,0c0,0,0,0,0,0c0,0,0-0.1-0.1-0.1c-0.1-0.1-0.1-0.2,0-0.4l0.3-0.3l0.2-0.4l0.3-0.3l0.1-0.2
				c0,0,0.1,0,0.1,0c0.1,0,0.1,0,0.1,0c0,0,0,0.1,0.1,0.1c0.1,0.1,0.3,0.4,0.6,0.6l0.4,0.2l0.4,0.4l0.4,0.3l0.4,0.4l0.7,0.5
				c0,0,0.1,0.1,0.1,0.2c0.1,0.1,0.1,0.1,0.2,0.2s0.1,0.1,0.2,0.2c0.2,0.1,0.5,0.4,0.8,0.6l0.3,0.2l0.4,0.3c0.2,0.1,0.3,0.1,0.4,0.1
				c0,0,0.1,0.1,0.1,0.1c0,0,0,0.1,0,0.2l-0.1,0.2L35.8,44.9z"/>
			<path class="st8" d="M38,39.1l-0.4,0.4L37.1,40c-0.2,0.3-0.3,0.4-0.4,0.5c0,0.1,0,0.1,0.1,0.2c0,0,0.1,0.2,0.2,0.6l0.1,0.2
				l0.3,0.4l0.1,0l0.2,0.3l0.1,0.1l0,0.1l0,0.1c0,0.2-0.1,0.3-0.1,0.3L37.5,43l-0.1,0.2c-0.1,0.1-0.2,0-0.3-0.1c0,0,0-0.1-0.1-0.3
				l-0.2-0.4L36.5,42l-0.2-0.3l-0.1-0.3c-0.2-0.3-0.3-0.4-0.3-0.5c0,0-0.2-0.3-0.4-0.9l-0.2-0.5l-0.2-0.3l-0.2-0.5l-0.2-0.4
				l-0.1-0.4l-0.2-0.5l-0.1-0.5c-0.1-0.3-0.2-0.4-0.2-0.4c0,0,0-0.1,0-0.1c0,0,0-0.1,0-0.1c0,0,0-0.1,0-0.1c0,0,0.1-0.1,0.1-0.1
				c0.1-0.1,0.2-0.1,0.3-0.2c0.1-0.1,0.2-0.2,0.2-0.3c0,0,0-0.1,0-0.1c0-0.1,0.1-0.1,0.2-0.1c0,0,0.1,0,0.1,0l0.2,0.1l0.5,0.1
				c0.4,0.1,0.6,0.2,0.8,0.3c0.3,0.1,0.5,0.1,0.5,0.1l0.5,0.2c0.2,0.1,0.4,0.2,0.7,0.3c0.1,0.1,0.3,0.1,0.5,0.2
				c0.2,0.1,0.5,0.2,0.6,0.3c0,0,0.2,0.1,0.5,0.2c0.3,0.1,0.6,0.3,0.9,0.5c0.1,0.1,0.4,0.2,0.6,0.3l0.4,0.2l0.2,0.1
				c0.1,0.1,0.2,0.1,0.2,0.1c0,0,0,0.1,0,0.1c0,0,0,0.1,0,0.1c-0.1,0.2-0.2,0.3-0.2,0.3c0,0-0.1,0.1-0.2,0.1
				c-0.1,0.1-0.2,0.1-0.2,0.2c0,0-0.1,0.2-0.4,0.5c0,0,0,0.1,0,0.1c0,0.1-0.1,0.1-0.2,0.1c-0.1,0-0.3-0.1-0.6-0.4
				c-0.1-0.1-0.2-0.1-0.4-0.3c-0.1-0.1-0.1-0.1-0.1-0.1c-0.2-0.2-0.4-0.3-0.4-0.3l-0.3-0.1h0c0,0,0,0,0,0c0,0,0,0,0,0c0,0,0,0,0,0
				c0,0,0-0.1,0-0.1c0,0-0.1,0-0.1,0c-0.1,0-0.1,0-0.1,0L38.3,39L38,39.1z M35.3,37.1C35.3,37.2,35.3,37.2,35.3,37.1
				c0,0.1-0.1,0.1-0.1,0.1c0,0,0,0,0,0c0,0,0,0.1,0.1,0.3l0.2,0.5l0.3,0.4l0,0.2l0.2,0.5l0.2,0.5l0.1,0c0.1,0.1,0.1,0.1,0.2,0l0-0.1
				l0.4-0.4l0.4-0.4l0.4-0.4c0.1-0.1,0.1-0.2,0.1-0.2c0,0,0,0,0,0c0,0,0,0-0.1-0.1s0,0-0.1-0.1l-0.5-0.2l-0.2-0.1l-0.5-0.2l-0.1-0.1
				l-0.5-0.2L35.3,37.1z"/>
			<path class="st8" d="M38.6,31.6c0.3-0.2,0.6-0.4,0.8-0.5c0.2-0.1,0.3-0.2,0.5-0.3c0.1-0.1,0.2-0.1,0.2-0.1l0.8-0.7
				c0,0,0.1-0.1,0.3-0.1c0.1-0.1,0.2-0.1,0.5-0.2c0.2-0.1,0.3-0.2,0.4-0.2c0,0,0,0,0,0l0,0c0,0,0-0.1,0-0.1c0,0,0-0.1,0-0.1
				c0,0,0.1-0.1,0.3-0.1c0,0,0.3,0,0.7,0c0.3,0,0.5,0,0.5,0c0,0,0,0,0.1,0.1c0.3,0,0.5,0.1,0.5,0.1s0.1,0,0.3,0.1
				c0.2,0.1,0.4,0.2,0.6,0.3l0.4,0.4l0.4,0.3l0.2,0.2l0.3,0.4l0.2,0.5c0.1,0.2,0.2,0.4,0.2,0.4c0,0,0,0.1,0,0.2c0,0.1,0,0.3,0,0.7
				c0,0.3,0,0.5,0,0.7c-0.1,0.2-0.2,0.5-0.2,0.7c-0.2,0.3-0.3,0.4-0.3,0.4v0.1c-0.2,0.2-0.5,0.5-0.7,0.8l-0.4,0.3l0,0l0,0
				c0,0-0.2,0.1-0.5,0.3l-0.4,0.3l-0.4,0.3l-0.4,0.4c-0.4,0.2-0.6,0.4-0.6,0.4c0,0-0.1,0-0.1,0c-0.1,0-0.2-0.1-0.2-0.1
				c0,0,0,0,0-0.1c0-0.1,0-0.2-0.1-0.3c-0.1-0.1-0.2-0.2-0.3-0.4c-0.1-0.2-0.2-0.3-0.2-0.3c-0.2-0.3-0.4-0.6-0.6-0.8l-0.3-0.4
				l-0.5-0.6c0,0-0.1-0.1-0.2-0.2c-0.1-0.1-0.2-0.3-0.3-0.4c-0.1-0.1-0.1-0.1-0.2-0.2c0,0-0.1-0.1-0.1-0.1c0,0-0.1-0.2-0.4-0.6
				c-0.1-0.2-0.2-0.3-0.4-0.5c-0.1-0.1-0.2-0.2-0.2-0.2c-0.1-0.1-0.1-0.1-0.1-0.1l-0.1-0.1l-0.1-0.1c0,0,0-0.1,0-0.2
				C38.5,31.8,38.5,31.7,38.6,31.6z M40.9,30.8c0,0-0.2,0.2-0.3,0.4c-0.1,0.1-0.1,0.1-0.1,0.2c0,0,0,0.1,0,0.1c0,0,0.1,0.2,0.4,0.6
				c0.3,0.4,0.6,0.8,0.9,1.3c0.1,0.2,0.3,0.4,0.6,0.8l0.4,0.5c0.1,0.1,0.2,0.2,0.3,0.4c0.1,0.1,0.2,0.2,0.2,0.3
				c0.2,0.2,0.3,0.4,0.5,0.4c0.1,0.1,0.3,0,0.5-0.1c0,0,0.1-0.1,0.2-0.2c0.2-0.2,0.4-0.4,0.4-0.4c0,0,0-0.1,0.1-0.2
				c0.1-0.3,0.2-0.4,0.2-0.5l0-0.5c0-0.1,0-0.1,0-0.1c0,0,0-0.2-0.1-0.4c0-0.2-0.1-0.4-0.1-0.5c0-0.1,0-0.1,0-0.1l-0.3-0.4
				c-0.2-0.3-0.3-0.5-0.3-0.6c-0.2-0.3-0.5-0.5-0.7-0.7c-0.1-0.1-0.3-0.2-0.6-0.3c-0.2-0.1-0.5-0.2-0.7-0.2c-0.3,0-0.5,0-0.5,0
				l-0.5,0.2C41.2,30.7,41,30.8,40.9,30.8z"/>
			<path class="st8" d="M50.3,29.1l-0.4,0.3l-0.6,0.4c-0.3,0.2-0.4,0.3-0.5,0.4c0,0,0,0.1,0,0.2c0,0,0.1,0.2,0.1,0.6l0.1,0.2
				l0.2,0.5l0.1,0.1l0.1,0.3l0.1,0.1l0,0.1l0,0.1c-0.1,0.2-0.1,0.2-0.1,0.2L49,32.7l-0.2,0.2c-0.1,0-0.2,0-0.3-0.2c0,0,0-0.1,0-0.3
				l-0.1-0.5l-0.1-0.4l-0.2-0.4l-0.1-0.3c-0.1-0.3-0.2-0.5-0.2-0.5s-0.1-0.3-0.2-0.9l-0.1-0.5l-0.1-0.3L47.4,28l-0.1-0.5l0-0.5
				l-0.1-0.5l0-0.5c0-0.3-0.1-0.4-0.1-0.4s0-0.1,0-0.1c0,0,0-0.1,0-0.2c0,0,0-0.1,0-0.1c0,0,0.1,0,0.1-0.1c0.1,0,0.2-0.1,0.3-0.2
				c0.1-0.1,0.2-0.2,0.3-0.2c0,0,0-0.1,0.1-0.1c0,0,0.1-0.1,0.2,0c0,0,0.1,0,0.1,0l0.1,0.1l0.5,0.2c0.3,0.2,0.6,0.4,0.7,0.4
				c0.3,0.1,0.4,0.2,0.5,0.2l0.4,0.3c0.2,0.1,0.4,0.2,0.6,0.4c0.1,0.1,0.2,0.2,0.4,0.3c0.2,0.1,0.4,0.3,0.5,0.4c0,0,0.2,0.1,0.4,0.3
				c0.3,0.2,0.5,0.4,0.7,0.6c0.1,0.1,0.3,0.3,0.6,0.5l0.3,0.3l0.2,0.1c0.1,0.1,0.1,0.1,0.1,0.1c0,0,0,0.1,0,0.1c0,0,0,0.1-0.1,0.1
				c-0.1,0.2-0.2,0.3-0.3,0.3c0,0-0.1,0.1-0.2,0.1c-0.1,0-0.2,0.1-0.3,0.1c0,0-0.2,0.1-0.5,0.4c0,0,0,0,0,0c0,0-0.1,0.1-0.2,0.1
				c-0.1,0-0.2-0.2-0.5-0.5c-0.1-0.1-0.2-0.2-0.4-0.4c-0.1-0.1-0.1-0.1-0.1-0.1c-0.2-0.2-0.3-0.4-0.3-0.4l-0.2-0.1l0,0l0,0
				c0,0,0,0,0,0s0,0,0,0c0,0,0-0.1,0-0.1c0,0,0,0-0.1,0c-0.1,0-0.1,0-0.1,0L50.7,29L50.3,29.1z M48.2,26.6
				C48.1,26.6,48.1,26.6,48.2,26.6c0,0.1-0.1,0.1-0.1,0.1c0,0,0,0,0,0c0,0,0,0.1,0,0.3l0,0.5l0.2,0.5l0,0.2l0.1,0.5l0.1,0.5l0.1,0.1
				c0.1,0.1,0.1,0.1,0.2,0.1l0-0.1l0.5-0.3l0.5-0.3l0.5-0.3c0.1-0.1,0.1-0.2,0.1-0.2c0,0,0,0,0,0c0,0,0,0,0-0.1c0,0,0-0.1,0-0.1
				l-0.4-0.3l-0.1-0.1l-0.4-0.3L49,27.1l-0.5-0.3L48.2,26.6z"/>
			<path class="st8" d="M54.5,21.3c0,0-0.2,0.2-0.4,0.4c-0.1,0.1-0.2,0.2-0.2,0.3c0,0.1,0,0.3,0,0.4c0,0.2,0,0.3,0,0.3
				c0,0.1,0.2,0.2,0.5,0.4c0.1,0.1,0.2,0.1,0.3,0.1c0.2,0,0.5,0,0.6-0.1c0,0,0.2-0.1,0.6-0.2l0.5-0.1l0.5-0.1l0.2,0
				c0.4,0,0.6,0,0.6,0c0.1,0,0.2,0.1,0.5,0.2c0.2,0.1,0.2,0.2,0.3,0.2l0.4,0.3l0.1,0.2l0.2,0.5c0,0.1,0.1,0.3,0.1,0.6
				c0,0.2,0,0.4-0.1,0.8c0,0.2-0.1,0.3-0.1,0.3L59.1,26c-0.1,0.3-0.2,0.5-0.2,0.5c0,0-0.1,0.1-0.2,0.2c-0.1,0.1-0.1,0.1-0.2,0.2
				c-0.5,0.4-0.8,0.6-0.9,0.6c0,0-0.2,0.1-0.4,0.1c-0.1,0-0.1,0.1-0.2,0.1c-0.4,0.1-0.7,0.2-0.9,0.2c-0.2,0-0.3,0-0.5,0
				c-0.2,0.1-0.4,0.1-0.4,0l0-0.1c-0.1,0-0.1,0-0.1,0c-0.1-0.1-0.1-0.1-0.1-0.1l-0.2-0.4l-0.1-0.1c0,0,0,0,0.1-0.1
				c0-0.1,0.1-0.1,0.1-0.1c0,0,0.1,0,0.1,0c0,0,0.2,0,0.5,0.1c0.1,0,0.4,0,0.7,0c0.4,0,0.6-0.1,0.9-0.2c0.2-0.1,0.4-0.2,0.5-0.3
				c0,0,0.1-0.1,0.1-0.2c0.2-0.3,0.3-0.4,0.3-0.5c0.1-0.1,0.1-0.3,0.1-0.4c0-0.2,0-0.3-0.1-0.4c-0.1-0.1-0.2-0.2-0.4-0.4
				c-0.2-0.1-0.3-0.2-0.5-0.1c-0.1,0-0.3,0.1-0.5,0.1c-0.3,0.1-0.4,0.1-0.4,0.1C56,25,55.9,25,55.7,25c-0.3,0.1-0.5,0.2-0.5,0.2
				s-0.1,0-0.2,0c-0.1,0-0.3,0-0.7,0c-0.2,0-0.3,0-0.4,0c0,0-0.1,0-0.3-0.1c-0.2-0.1-0.3-0.2-0.4-0.2c-0.1-0.1-0.2-0.3-0.4-0.6
				c-0.1-0.1-0.1-0.2-0.2-0.3c-0.1-0.3-0.2-0.6-0.2-1c0-0.3,0.1-0.6,0.2-0.8c0.2-0.5,0.4-0.8,0.4-0.8c0,0,0.1,0,0.2,0l0.4-0.4
				l0.5-0.3c0-0.1,0-0.1,0.1-0.1l0.4-0.2l0.3-0.1c0.3-0.1,0.6-0.1,0.8-0.2c0.2-0.1,0.4-0.1,0.5-0.1c0.1,0,0.1,0,0.1,0
				c0,0,0.1,0,0.1,0l0,0.1c0,0,0,0,0.1,0l0.1,0.1c0.1,0.1,0.2,0.2,0.3,0.4c0,0.1,0.1,0.2,0,0.3c0,0.1-0.1,0.2-0.1,0.2
				c0,0-0.2,0-0.5-0.1C56,21,55.7,21,55.5,21c-0.1,0-0.3,0.1-0.6,0.2L54.5,21.3z"/>
			<path class="st8" d="M65.5,16.8l-0.2,0.1L65,17.4l-0.2,0.4l0,0l-0.2,0.5l0,0.5v0.1l0.1,0.5l0.1,0.5c0.1,0,0.1,0.1,0.2,0.1
				c0,0.1,0.1,0.2,0.1,0.4c0,0.1,0,0.2,0,0.2c0,0.1,0.1,0.2,0.2,0.4c0.2,0.4,0.4,0.6,0.5,0.7c0.1,0.1,0.4,0.2,0.8,0.5
				c0.2,0.1,0.3,0.1,0.3,0.1l0.1,0h0.3c0.2,0,0.4,0,0.6-0.1c0.2-0.1,0.4-0.2,0.5-0.2c0.2-0.1,0.3-0.2,0.4-0.3c0,0,0.1-0.1,0.1-0.2
				l0.1-0.2l0.3-0.3l0.1-0.2l0.1-0.1l0.1-0.1c0,0,0.1,0,0.1,0.1c0,0,0.1,0.2,0.2,0.4l0,0.1c0,0,0,0.1,0,0.1l0,0.1c0,0-0.1,0-0.1,0
				c0,0,0,0,0,0.1S70,21.7,69.8,22c0,0-0.1,0.1-0.2,0.2c-0.2,0.2-0.3,0.3-0.4,0.4l-0.4,0.2L68.4,23L68,23.1
				c-0.5,0.1-0.7,0.2-0.9,0.2c-0.1,0-0.3,0-0.8,0c-0.2,0-0.6-0.1-1.2-0.3c-0.8-0.4-1.4-1-1.7-1.7c-0.1-0.3-0.2-0.5-0.3-0.6l-0.1-0.4
				C63,19.9,63,19.6,63,19.4c0-0.3,0-0.4,0-0.5l0.2-0.5c0.1-0.3,0.1-0.5,0.1-0.5s0-0.1,0.1-0.2c0-0.1,0.2-0.3,0.5-0.6
				c0.2-0.3,0.3-0.4,0.4-0.5c0.2-0.2,0.4-0.3,0.6-0.5c0.1-0.1,0.4-0.2,0.8-0.4c0.1,0,0.3-0.1,0.6-0.2c0.2-0.1,0.4-0.1,0.5,0l0.3,0.1
				c0,0,0.2,0,0.5,0c0.1,0,0.2,0,0.2,0.1c0,0,0,0,0.1,0.1c0,0,0,0,0.1,0l0,0.1c0.1,0,0.1,0,0.1,0.1c0,0,0,0.1,0,0.1l0.2,0.6
				c0,0.1,0,0.1,0,0.2c0,0.1-0.1,0.1-0.1,0.2c0,0-0.1,0-0.2,0c-0.4-0.2-0.6-0.3-0.8-0.3c-0.2-0.1-0.4-0.1-0.6,0
				c-0.3,0.1-0.5,0.1-0.5,0.1l-0.2,0L65.5,16.8z"/>
			<path class="st8" d="M72.1,20.6l-0.1,0c0,0-0.2-0.1-0.3-0.4c-0.1-0.1-0.2-0.2-0.3-0.4s-0.2-0.3-0.2-0.3c0,0-0.1-0.2-0.2-0.5
				c-0.1-0.2-0.2-0.4-0.2-0.4l-0.1-0.3l-0.1-0.5l0-0.5c0-0.2,0-0.3,0-0.3s0-0.1,0-0.2c0-0.1,0.1-0.3,0.2-0.6c0-0.1,0.1-0.3,0.3-0.6
				c0.1-0.2,0.2-0.3,0.2-0.3c0.1-0.1,0.2-0.2,0.3-0.3l0.3-0.4l0.2,0c0,0,0.1-0.1,0.3-0.3c0,0,0.3-0.2,1-0.4c0,0,0.1,0,0.1,0
				c0.1,0,0.2,0,0.5-0.1c0.3-0.1,0.6-0.1,0.8-0.1c0.1,0,0.2,0,0.4,0.1l0.5,0.1l0.5,0.2c0.3,0.2,0.5,0.2,0.5,0.2
				c0.2,0.1,0.4,0.3,0.6,0.5c0.1,0.1,0.2,0.2,0.2,0.3c0,0.1,0.1,0.2,0.1,0.3l0.2,0.4l0.1,0.5l0.1,0.3l0,0.4c0,0.4,0,0.6,0,0.7
				c-0.1,0.5-0.1,0.8-0.2,1c-0.2,0.5-0.6,1-1.2,1.7l0,0l-0.5,0.2L75.9,21l-0.5,0.1l-0.2,0.1l-0.5,0.1l-0.5,0.1l-0.5-0.1l-0.2,0
				C73,21.1,72.8,21,72.7,21l-0.2-0.1L72.1,20.6L72.1,20.6L72.1,20.6z M73.5,14.5c-0.1,0-0.2,0.1-0.4,0.2c-0.4,0.2-0.6,0.6-0.7,1
				c-0.1,0.4-0.1,0.6-0.1,0.7c0,0.1,0,0.2,0,0.4c0,0.1,0,0.2,0.1,0.3c0.1,0.4,0.1,0.7,0.1,0.8l0,0.1l0.2,0.5l0.1,0.5l0,0.1
				c0.2,0.4,0.4,0.6,0.4,0.7c0.2,0.2,0.4,0.4,0.5,0.5c0.1,0.1,0.4,0.2,0.7,0.2c0.3,0.1,0.5,0.1,0.7,0c0.4-0.1,0.7-0.3,0.9-0.6
				c0.2-0.3,0.3-0.5,0.3-0.7c0-0.1,0-0.2,0.1-0.5c0-0.2,0-0.4,0-0.6l0-0.5L76.2,17l0-0.1L76,16.4c-0.1-0.3-0.1-0.5-0.2-0.5
				c0,0,0,0-0.1,0c0,0-0.1-0.2-0.2-0.5L75.3,15c-0.2-0.2-0.3-0.4-0.4-0.4c-0.1-0.1-0.2-0.1-0.3-0.2c-0.1,0-0.3,0-0.4,0L73.5,14.5z"
				/>
			<path class="st8" d="M81.2,15.5c0,0,0,0-0.1,0.1C81,15.6,81,15.7,81,15.8c0,0.1,0,0.4,0,1c0,0,0,0.1,0.1,0.3c0,0.1,0,0.1,0,0.1
				l0.1,0.8c0,0,0,0.1,0,0.3c0,0.2,0.1,0.4,0.1,0.4c0,0.1,0.1,0.2,0.1,0.2l0,0.4l0.1,0.2c0,0,0,0.1,0,0.1c0,0.1,0,0.1-0.1,0.1
				c0,0-0.1,0-0.2,0.1h-0.4l-0.2,0c0,0,0,0-0.1,0c-0.1-0.1-0.1-0.1-0.1-0.2c0,0,0-0.1,0-0.1c0-0.2,0-0.5,0-0.8l-0.1-0.4l0-0.5
				l-0.1-0.5l0-0.5L80.1,16c0,0,0-0.1,0-0.2c0-0.1,0-0.2,0-0.2c0-0.1,0-0.2,0-0.3c-0.1-0.3-0.1-0.6-0.2-1l-0.1-0.4l-0.1-0.5
				l-0.1-0.2c0-0.1,0-0.1,0-0.1c0-0.1,0-0.2,0-0.2c0,0,0.2-0.1,0.5-0.2l0.3,0c0.1,0,0.1,0,0.2,0c0.1,0,0.2,0,0.3-0.1
				c0.2-0.1,0.3-0.1,0.3-0.1c0.1,0,0.2,0,0.4,0c0.1,0,0.2,0.2,0.4,0.6c0.1,0.3,0.3,0.6,0.5,0.9c0.3,0.6,0.5,1,0.7,1.3
				c0.1,0.3,0.3,0.6,0.4,0.6c0.1,0,0.2,0.1,0.2,0.1c0,0,0.1,0,0.1-0.1c0-0.1,0.1-0.3,0.2-0.7l0.2-0.5l0.1-0.5c0,0,0-0.2,0.1-0.5
				c0.1-0.2,0.1-0.4,0.1-0.5l0.1-0.5c0.1-0.3,0.1-0.5,0.1-0.5c0-0.1,0-0.1,0-0.1l0.1-0.1c0.1-0.1,0.2-0.1,0.3-0.1l0.6-0.1
				c0,0,0.1,0,0.1,0l0.2-0.1l0.5,0.1c0.1,0,0.2,0,0.2,0c0,0,0,0.1,0,0.1c0,0,0,0,0,0.1c0,0.1,0,0.1,0,0.1l0,0.3l0,0.5l0.1,0.4l0,0.5
				l0.1,0.5l0,0.5c0,0,0,0.2,0.1,0.5c0,0.1,0,0.2,0,0.3c0,0.1,0,0.1,0,0.2c0,0.2,0,0.3,0,0.3c0.1,0.6,0.1,1,0.2,1.3
				c0,0.1,0,0.2,0,0.3c0,0,0,0.1,0,0.2c0,0.1,0,0.2,0,0.2c0,0.1,0,0.2,0.1,0.3c0,0.1,0.1,0.2,0.1,0.2c0,0,0,0,0,0l0,0c0,0,0,0,0,0.1
				c0,0.1,0,0.2,0,0.2c0,0.1-0.1,0.2-0.2,0.2l-1.1,0.1c0,0-0.1,0-0.3,0.1c0,0-0.1,0-0.1,0c0,0,0,0-0.1,0c0,0,0,0-0.1-0.1
				c-0.1-0.1-0.1-0.1-0.1-0.1c0,0,0-0.1,0-0.1c0,0,0,0,0,0l-0.1-0.4c0,0,0-0.1,0-0.3c0-0.1,0-0.1,0-0.2c0-0.1,0-0.1,0-0.2
				c-0.1-0.3-0.1-0.4-0.1-0.4l-0.1-0.7L85.5,16l0-0.4c0-0.1-0.1-0.2-0.2-0.3c-0.1-0.1-0.1-0.2-0.2-0.2c0,0-0.1,0-0.1,0.1
				c-0.1,0.1-0.1,0.1-0.1,0.2s-0.1,0.4-0.3,1.2c-0.1,0.4-0.2,0.7-0.3,1.1c-0.1,0.2-0.1,0.4-0.1,0.5c0,0.1,0,0.2-0.1,0.2
				c-0.1,0.1-0.1,0.1-0.2,0.1c0,0-0.2,0-0.6,0c-0.1,0-0.2,0-0.2-0.1c-0.1-0.1-0.2-0.2-0.4-0.6c-0.1-0.2-0.2-0.4-0.5-0.8
				c-0.1-0.2-0.2-0.3-0.2-0.4l-0.2-0.4c-0.2-0.4-0.4-0.6-0.4-0.6C81.3,15.5,81.2,15.5,81.2,15.5z"/>
			<path class="st8" d="M95.8,16.9l-0.5,0l-0.7-0.1c-0.3,0-0.5,0-0.6,0c0,0-0.1,0.1-0.1,0.2c0,0-0.1,0.2-0.2,0.5l0,0.2l-0.2,0.5
				l0,0.1l-0.1,0.3l0,0.1l-0.1,0.1l0,0.1c-0.2,0.1-0.2,0.1-0.3,0.1L92.6,19l-0.2,0c-0.1,0-0.1-0.1-0.1-0.3c0,0,0-0.1,0.1-0.3
				l0.2-0.4l0.1-0.3l0.1-0.4l0.2-0.3c0.1-0.3,0.1-0.5,0.2-0.5s0.1-0.3,0.3-0.9l0.2-0.5l0.1-0.3l0.2-0.5l0.2-0.5l0.2-0.4l0.2-0.5
				l0.3-0.4c0.1-0.2,0.2-0.4,0.2-0.4s0,0,0.1-0.1c0,0,0.1-0.1,0.1-0.1c0,0,0-0.1,0.1,0c0,0,0.1,0,0.1,0c0.1,0,0.2,0.1,0.4,0.1
				c0.1,0,0.3,0,0.3,0c0,0,0.1,0,0.1,0c0.1,0,0.1,0,0.2,0.1c0,0,0.1,0.1,0.1,0.1l0,0.2l0.2,0.4c0.1,0.4,0.2,0.6,0.3,0.8
				c0.1,0.3,0.2,0.4,0.2,0.5l0.2,0.5c0.1,0.2,0.2,0.4,0.3,0.7c0,0.1,0.1,0.3,0.2,0.5c0.1,0.2,0.2,0.4,0.2,0.6c0,0,0.1,0.2,0.2,0.5
				c0.1,0.3,0.2,0.7,0.2,0.9c0,0.2,0.1,0.4,0.2,0.7l0.1,0.4l0.1,0.2c0,0.1,0,0.2,0,0.2c0,0,0,0.1,0,0.1c0,0-0.1,0-0.1,0.1
				c-0.2,0.1-0.3,0.1-0.4,0.1c0,0-0.1,0-0.2-0.1c-0.1,0-0.2-0.1-0.3-0.1c0,0-0.2,0-0.6,0c0,0,0,0-0.1,0c-0.1,0-0.1,0-0.2-0.1
				c-0.1,0-0.1-0.2-0.1-0.7c0-0.1,0-0.3-0.1-0.5c0-0.1,0-0.1,0-0.2c0-0.3,0-0.5,0-0.5l-0.1-0.2v0c0,0,0,0,0,0c0,0,0,0,0,0
				c0,0,0,0,0,0c0,0,0-0.1,0-0.1s0-0.1-0.1-0.1c0-0.1-0.1-0.1-0.1-0.1l-0.4,0.1L95.8,16.9z M95.5,13.5
				C95.5,13.6,95.5,13.6,95.5,13.5c-0.1,0-0.1,0-0.1,0c0,0,0,0,0,0c0,0-0.1,0.1-0.2,0.3L95,14.2l-0.2,0.5l-0.1,0.1l-0.2,0.5
				l-0.2,0.5l0,0.1c0,0.1,0.1,0.2,0.1,0.2l0.1,0l0.5,0l0.5,0l0.5,0.1c0.1,0,0.2-0.1,0.2-0.1c0,0,0,0,0-0.1c0,0,0,0,0-0.1
				s0-0.1,0-0.1l-0.2-0.5l0-0.2l-0.2-0.5v-0.2L95.7,14L95.5,13.5z M96.9,9.5l0.3,0.1c0,0,0.1,0,0.2-0.1c0,0,0,0,0,0
				c0,0,0.1,0,0.1,0.1c0,0,0,0.1,0.1,0.2c0,0.1,0,0.1,0,0.2c0,0.1,0,0.1-0.1,0.2l-0.4,0.4c-0.3,0.3-0.5,0.6-0.8,0.8l0,0l0,0.1
				c0,0,0,0-0.1,0.1c0,0-0.1,0-0.1,0c-0.2,0-0.3,0-0.4,0c0,0,0,0,0,0c0,0,0,0-0.1,0c0,0,0-0.1,0-0.2l-0.1-0.1c0,0,0-0.1,0.1-0.2
				l0.3-0.5l0.3-0.4c0.2-0.3,0.3-0.5,0.3-0.5C96.8,9.6,96.8,9.6,96.9,9.5L96.9,9.5z"/>
			<path class="st8" d="M104.8,13.5c-0.4,0-0.6,0.1-0.7,0.1c-0.1,0-0.2,0-0.2,0.1l-0.1,0.1l-0.5,0.2l-0.3,0.4h-0.1l-0.3,0.4
				c-0.2,0.2-0.3,0.3-0.3,0.3c0,0,0,0.1,0,0.1c0,0,0,0.1,0,0.1l-0.2,0.5l0,0.5l-0.1,0.7c0,0,0,0.2,0.1,0.5c0,0.3,0.1,0.4,0.1,0.6
				c0,0,0.1,0.2,0.2,0.6c0.1,0.2,0.2,0.4,0.2,0.4c0,0,0,0,0,0c0,0,0,0,0,0s0,0,0,0l0.4,0.3c0,0,0.2,0.1,0.3,0.1
				c0.3,0.1,0.6,0.1,0.8,0c0.3-0.1,0.4-0.2,0.5-0.3c0.2-0.3,0.3-0.4,0.3-0.5l0-0.4l0.1-0.6c0-0.1,0-0.2,0-0.3c0-0.2-0.1-0.3-0.1-0.3
				s0-0.1,0-0.2c0,0,0-0.1,0-0.1c0-0.1,0.1-0.2,0.1-0.2c0,0,0.3,0,0.7,0.1l0.4,0.1l0.5,0.1c0.1,0,0.2,0.1,0.2,0.1
				c0.1,0.1,0.1,0.1,0.1,0.2l-0.1,0.1l-0.1,0.5l-0.2,0.6l0,0.1c0,0.1,0,0.2,0,0.2l-0.1,0.4c0,0.3,0,0.5,0,0.6c0,0.1,0,0.1,0,0.1
				l0,0.1c0,0.1-0.1,0.1-0.1,0.2c-0.2,0.1-0.5,0.2-0.9,0.3c-0.3,0.1-0.5,0.2-0.6,0.2l-0.5,0l-0.1,0l-0.5,0l-0.3,0l-0.3-0.1
				c-0.4-0.1-0.5-0.1-0.6-0.1s-0.1,0-0.2-0.1c-0.3-0.1-0.5-0.2-0.6-0.3c0,0,0,0,0,0s0,0,0,0c0,0,0,0.1,0,0.1s0,0,0,0
				c0-0.1-0.2-0.1-0.4-0.3c-0.2-0.1-0.3-0.2-0.4-0.3l-0.3-0.4c-0.2-0.3-0.4-0.6-0.5-1c-0.1-0.3-0.1-0.5-0.2-0.6c0-0.1,0-0.3,0-0.7
				v-0.5l0.2-0.5l0.2-0.5l0.2-0.4L101,14c0.3-0.3,0.6-0.6,0.7-0.6c0.1-0.1,0.3-0.2,0.8-0.4c0.2-0.1,0.5-0.2,0.9-0.3
				c0.1,0,0.4,0,0.8,0l0.5,0c0,0,0.1,0,0.1,0.1l0.5,0.1l0.4,0.2l0.5,0.2l0.3,0.2l0.4,0.3l0.2,0.1c0,0,0.1,0.1,0.1,0.1s0,0,0,0.1
				c0.1,0,0.1,0.1,0.1,0.1l0,0.1l-0.1,0.6c0,0.1,0,0.1-0.1,0.2c-0.1,0.1-0.2,0.1-0.2,0.1c0,0-0.1-0.1-0.2-0.1
				c-0.2-0.3-0.3-0.5-0.4-0.5c-0.2-0.2-0.4-0.3-0.6-0.4c-0.1,0-0.2-0.1-0.3-0.1c-0.1,0-0.2-0.1-0.3-0.1L104.8,13.5z"/>
			<path class="st8" d="M115,15.1c0.3,0.1,0.5,0.2,0.5,0.2c0.1,0,0.2,0.1,0.2,0.1c0,0,0,0.1,0.1,0.2c0,0.1,0,0.2,0,0.2
				c0,0-0.1,0.2-0.2,0.4c0,0.1-0.1,0.1-0.1,0.2c-0.1,0.3-0.1,0.6-0.2,0.9c0,0.2,0,0.3,0,0.3l-0.2,0.6l-0.1,0.5l-0.2,0.5l0,0.4
				l-0.2,0.5l-0.1,0.5l-0.1,0.1l-0.3,0.4l-0.4,0.3l-0.2,0.2l-0.5,0.2c-0.3,0.1-0.5,0.2-0.5,0.2s-0.1,0-0.2,0c-0.2,0-0.4,0-0.5,0
				c-0.2,0-0.4,0-0.4,0l-0.3-0.1l-0.5-0.1l-0.5-0.2l-0.2-0.1c0,0-0.2-0.2-0.7-0.6c-0.1-0.1-0.3-0.3-0.4-0.6
				c-0.1-0.2-0.1-0.4-0.2-0.8c0-0.1,0-0.2,0-0.3l0-0.4l0-0.5L109,18l0.1-0.5l0.2-0.5c0,0,0,0,0-0.1c0,0,0-0.1,0-0.1
				c0-0.1,0.1-0.2,0.2-0.4c0-0.1,0.1-0.2,0.1-0.3c0-0.1,0-0.2,0-0.2c0-0.2,0-0.3,0-0.3l0.2-0.8l0-0.2l0.1-0.3c0,0,0-0.1,0-0.2
				c0,0,0-0.1,0-0.1c0,0,0-0.1,0.1-0.1c0.1-0.1,0.2-0.1,0.2-0.1l0.2,0.1l0.6,0.1c0,0,0.1,0,0.2,0.1c0,0,0.1,0.1,0.2,0.1
				c0.1,0,0.2,0,0.3,0c0.1,0,0.1,0,0.1,0c0,0,0.1,0.1,0.1,0.1c0,0.1,0.1,0.2,0,0.2c0,0,0,0,0,0.1c0,0.1-0.1,0.2-0.1,0.3
				c-0.1,0.2-0.2,0.4-0.2,0.6l-0.1,0.5l-0.1,0.4c-0.1,0.4-0.2,0.7-0.3,0.9c-0.1,0.1-0.1,0.2-0.1,0.3l-0.2,0.7l-0.1,0.3l0,0.3l0,0.5
				l0,0.1c0,0.4,0,0.6,0,0.6c0.1,0.1,0.2,0.3,0.3,0.5c0.1,0.2,0.3,0.3,0.4,0.4c0.1,0.1,0.1,0.1,0.2,0.1c0,0,0,0,0.1,0
				c0.1,0,0.3,0,0.7,0.1l0.5-0.1c0.1,0,0.2,0,0.2-0.1c0.1-0.1,0.2-0.1,0.3-0.2c0,0,0.1-0.2,0.3-0.5c0.1-0.1,0.1-0.2,0.1-0.2l0.2-0.7
				c0,0,0,0,0,0c0.1-0.1,0.1-0.1,0.1-0.1c0-0.1,0-0.2,0-0.4c0-0.1,0-0.2,0-0.3c0-0.1,0-0.2,0.1-0.2c0.1-0.1,0.1-0.2,0.1-0.2l0.1-0.5
				l0.1-0.5l0-0.5l0.1-0.3l0-0.5l0-0.1c0-0.2,0-0.4,0-0.4c0,0,0-0.1,0.1-0.2c0-0.1,0.1-0.1,0.1-0.1C114.9,15.1,114.9,15.1,115,15.1z
				"/>
			<path class="st8" d="M119,21.9l-0.5-0.2l-0.7-0.3c-0.3-0.1-0.5-0.2-0.6-0.1c0,0-0.1,0-0.1,0.1c0,0-0.2,0.2-0.4,0.4l-0.1,0.2
				l-0.3,0.4v0.1l-0.2,0.3V23l-0.1,0.1l-0.1,0.1c-0.2,0-0.3,0-0.3,0l-0.4-0.2l-0.2-0.1c-0.1,0-0.1-0.2,0-0.4c0,0,0.1-0.1,0.2-0.2
				l0.3-0.4l0.2-0.3l0.2-0.3l0.2-0.3c0.2-0.3,0.3-0.4,0.3-0.5c0,0,0.2-0.3,0.6-0.7l0.4-0.4l0.2-0.3l0.4-0.4l0.3-0.4l0.3-0.3l0.4-0.4
				l0.4-0.3c0.2-0.2,0.3-0.3,0.3-0.3s0,0,0.1-0.1c0,0,0.1,0,0.1-0.1c0,0,0.1,0,0.1,0c0,0,0.1,0,0.1,0.1c0.1,0.1,0.2,0.1,0.3,0.2
				c0.1,0.1,0.2,0.1,0.3,0.1c0,0,0.1,0,0.1,0c0.1,0,0.1,0.1,0.2,0.2c0,0,0,0.1,0,0.1l0,0.2l0.1,0.5c0,0.4,0,0.7,0.1,0.8
				c0,0.3,0.1,0.5,0.1,0.5v0.5c0,0.2,0,0.4,0,0.8c0,0.1,0,0.3,0,0.5c0,0.3,0,0.5,0,0.6c0,0,0,0.2,0,0.5c0,0.3,0,0.7-0.1,1
				c0,0.2,0,0.4,0,0.7l0,0.4l0,0.2c0,0.1,0,0.2,0,0.2c0,0,0,0.1-0.1,0.1c0,0-0.1,0-0.1,0c-0.2,0-0.3,0-0.4,0c0,0-0.1-0.1-0.2-0.2
				c-0.1-0.1-0.2-0.1-0.2-0.1c0,0-0.2-0.1-0.6-0.2c0,0,0,0-0.1,0c-0.1,0-0.1-0.1-0.2-0.1c0-0.1,0-0.3,0.1-0.7c0-0.1,0-0.2,0.1-0.5
				c0-0.1,0-0.1,0-0.2c0.1-0.3,0.1-0.5,0.1-0.5l0-0.3v0c0,0,0,0,0,0c0,0,0,0,0,0c0,0,0,0,0,0c0,0,0,0,0-0.1c0,0,0-0.1-0.1-0.1
				c0-0.1,0-0.1-0.1-0.1l-0.4-0.1L119,21.9z M119.8,18.6C119.8,18.6,119.7,18.6,119.8,18.6c-0.1,0-0.1,0-0.1-0.1l0,0
				c0,0-0.1,0.1-0.3,0.2l-0.4,0.3l-0.3,0.4l-0.1,0.1l-0.3,0.4l-0.4,0.4l0,0.1c0,0.1,0,0.2,0.1,0.2l0.1,0l0.5,0.2l0.5,0.2l0.5,0.2
				c0.1,0,0.2,0,0.2,0c0,0,0,0,0-0.1c0,0,0,0,0-0.1c0,0,0-0.1,0-0.1l0-0.5l0-0.2l0-0.5l0-0.1l0-0.5L119.8,18.6z"/>
			<path class="st8" d="M129.4,21.1c0.3,0.2,0.6,0.4,0.8,0.5c0.2,0.1,0.3,0.2,0.5,0.3c0.1,0.1,0.2,0.1,0.2,0.1l0.9,0.5
				c0,0,0.1,0.1,0.2,0.2c0.1,0.1,0.2,0.2,0.4,0.3c0.2,0.1,0.3,0.2,0.3,0.3c0,0,0,0,0,0h0c0,0,0.1,0,0.1,0c0,0,0.1,0,0.1,0
				c0,0,0.1,0.1,0.2,0.2c0,0.1,0.1,0.2,0.2,0.6c0.1,0.3,0.2,0.4,0.2,0.4c0,0,0,0.1,0,0.1c0.1,0.3,0.1,0.5,0.1,0.5c0,0,0,0.1,0,0.3
				c0,0.2,0,0.5-0.1,0.7l-0.2,0.5l-0.2,0.5l-0.2,0.3l-0.3,0.4l-0.4,0.3c-0.2,0.2-0.3,0.3-0.3,0.4c0,0-0.1,0.1-0.2,0.1
				c-0.1,0.1-0.3,0.2-0.7,0.3c-0.3,0.1-0.5,0.2-0.7,0.2c-0.3,0-0.5,0-0.7,0c-0.3-0.1-0.5-0.1-0.5-0.1l-0.1,0c-0.3-0.1-0.6-0.3-1-0.4
				l-0.5-0.2l0,0l0,0c0,0-0.2-0.1-0.5-0.3l-0.4-0.2l-0.4-0.3l-0.5-0.2c-0.3-0.3-0.5-0.4-0.5-0.4c0,0,0-0.1,0-0.1c0-0.1,0-0.2,0-0.2
				c0,0,0,0,0.1-0.1c0.1,0,0.1-0.1,0.2-0.2c0.1-0.1,0.2-0.3,0.3-0.4c0.1-0.2,0.2-0.3,0.2-0.3c0.2-0.3,0.4-0.6,0.5-0.9l0.3-0.4
				l0.3-0.7c0,0,0.1-0.1,0.2-0.2c0.1-0.1,0.2-0.3,0.3-0.4c0-0.1,0.1-0.2,0.1-0.3c0-0.1,0-0.1,0.1-0.1c0,0,0.2-0.2,0.4-0.5
				c0.1-0.2,0.2-0.3,0.3-0.5c0.1-0.1,0.1-0.2,0.1-0.3c0-0.1,0-0.2,0-0.2l0.1-0.1l0-0.1c0,0,0.1-0.1,0.2-0.1
				C129.2,21,129.3,21,129.4,21.1z M131,22.9c-0.1,0-0.2-0.1-0.5-0.2c-0.1,0-0.2,0-0.2,0c0,0-0.1,0-0.1,0.1c0,0-0.2,0.2-0.4,0.6
				c-0.2,0.4-0.5,0.9-0.8,1.3c-0.1,0.2-0.3,0.5-0.5,0.8l-0.3,0.5c0,0.1-0.1,0.2-0.3,0.4c-0.1,0.1-0.2,0.2-0.2,0.3
				c-0.1,0.2-0.2,0.4-0.2,0.6c0,0.2,0.1,0.3,0.3,0.4c0,0,0.1,0.1,0.3,0.1c0.3,0.1,0.5,0.2,0.5,0.2s0.1,0,0.2,0c0.3,0,0.5,0,0.5,0
				l0.5-0.2c0.1,0,0.1,0,0.1,0c0,0,0.2-0.1,0.4-0.3c0.2-0.1,0.4-0.2,0.4-0.3c0.1,0,0.1-0.1,0.1-0.1L131,27c0.2-0.3,0.4-0.4,0.4-0.5
				c0.2-0.3,0.3-0.6,0.4-0.9c0-0.1,0-0.3,0.1-0.7c0-0.3,0-0.5,0-0.7c-0.1-0.3-0.2-0.4-0.2-0.5l-0.3-0.4
				C131.2,23.1,131.1,23,131,22.9z"/>
			<path class="st8" d="M133.7,30.8l-0.1-0.1c0,0,0-0.2,0.1-0.5c0-0.1,0.1-0.3,0.1-0.5s0.1-0.3,0.1-0.4c0,0,0.1-0.2,0.2-0.5
				c0.1-0.2,0.2-0.4,0.2-0.4l0.2-0.3l0.3-0.4l0.4-0.3c0.1-0.2,0.2-0.2,0.2-0.3s0.1-0.1,0.2-0.1c0.1-0.1,0.3-0.1,0.5-0.3
				c0.1,0,0.3-0.1,0.7-0.2c0.2,0,0.3-0.1,0.4-0.1c0.1,0,0.3,0,0.4,0l0.5,0l0.1,0.1c0,0,0.1,0,0.4,0.1c0,0,0.3,0.2,1,0.5
				c0,0,0,0,0.1,0.1c0,0.1,0.2,0.2,0.4,0.3c0.2,0.2,0.4,0.4,0.6,0.6c0,0.1,0.1,0.2,0.2,0.4l0.2,0.5l0.1,0.5c0.1,0.3,0.1,0.5,0.1,0.5
				c0,0.2,0,0.4,0,0.7c0,0.2,0,0.3-0.1,0.4c0,0.1-0.1,0.2-0.1,0.3l-0.2,0.5l-0.3,0.4l-0.1,0.3l-0.3,0.3c-0.3,0.3-0.4,0.4-0.5,0.5
				c-0.4,0.3-0.7,0.4-0.9,0.5c-0.5,0.2-1.2,0.2-2,0.2l-0.1,0l-0.5-0.2l-0.5-0.2l-0.4-0.3l-0.2-0.1l-0.4-0.4l-0.4-0.4l-0.2-0.4
				l-0.1-0.2c-0.2-0.4-0.3-0.7-0.3-0.8l-0.1-0.2L133.7,30.8L133.7,30.8L133.7,30.8z M139.2,27.9c-0.1-0.1-0.2-0.1-0.5-0.2
				c-0.4-0.1-0.8-0.1-1.2,0.2c-0.3,0.2-0.5,0.3-0.6,0.3s-0.2,0.1-0.3,0.3c-0.1,0.1-0.2,0.2-0.2,0.3c-0.2,0.3-0.4,0.5-0.5,0.6
				l-0.1,0.1l-0.2,0.4l-0.3,0.4l0,0.1c-0.1,0.4-0.2,0.7-0.2,0.8c0,0.3-0.1,0.5-0.1,0.6c0,0.2,0.1,0.4,0.2,0.7
				c0.1,0.2,0.3,0.4,0.4,0.5c0.3,0.2,0.7,0.3,1,0.3c0.4,0,0.6-0.1,0.7-0.2c0-0.1,0.2-0.1,0.4-0.3c0.2-0.1,0.3-0.2,0.5-0.4l0.4-0.4
				l0.3-0.4l0.1-0.1l0.3-0.4c0.2-0.3,0.3-0.4,0.3-0.4c0,0,0,0,0-0.1c0,0,0.1-0.2,0.2-0.5l0.1-0.5c0-0.3,0.1-0.5,0.1-0.6
				c0-0.1,0-0.3-0.1-0.3c-0.1-0.1-0.2-0.2-0.3-0.3L139.2,27.9z"/>
			<path class="st8" d="M146,36.9c0,0,0,0-0.1,0c-0.1,0-0.2,0-0.3,0.1c0,0-0.3,0.2-0.7,0.6c0,0-0.1,0.1-0.2,0.3c0,0,0,0.1-0.1,0.1
				l-0.6,0.5c0,0-0.1,0.1-0.2,0.2c-0.2,0.2-0.2,0.3-0.3,0.3c-0.1,0.1-0.1,0.2-0.1,0.2l-0.3,0.3l-0.1,0.2c0,0,0,0-0.1,0.1
				c0,0-0.1,0-0.2,0c0,0-0.1,0-0.2-0.1l-0.2-0.3l-0.2-0.1c0,0,0-0.1,0-0.1c0-0.1,0-0.2,0.1-0.2c0,0,0,0,0.1-0.1
				c0.2-0.1,0.4-0.3,0.7-0.5l0.3-0.3l0.4-0.3l0.4-0.4l0.4-0.4l0.5-0.6c0,0,0.1-0.1,0.2-0.1c0.1-0.1,0.1-0.1,0.2-0.2
				c0,0,0.1-0.1,0.2-0.2c0.2-0.2,0.4-0.5,0.7-0.8l0.3-0.3l0.4-0.4l0.1-0.2c0-0.1,0.1-0.1,0.1-0.1c0.1-0.1,0.1-0.1,0.2-0.1
				c0,0,0.2,0.1,0.5,0.3l0.2,0.2c0,0.1,0.1,0.1,0.1,0.1c0.1,0.1,0.2,0.1,0.3,0.2c0.1,0.1,0.2,0.2,0.3,0.2c0.1,0.1,0.1,0.2,0.2,0.3
				c0,0.1,0,0.3-0.2,0.7c-0.1,0.3-0.3,0.6-0.4,0.9c-0.2,0.6-0.5,1-0.6,1.3c-0.2,0.3-0.3,0.6-0.2,0.7c0,0.1,0,0.2,0.1,0.2
				s0.1,0,0.1,0.1c0.1,0,0.3-0.1,0.7-0.3l0.5-0.2l0.4-0.2c0,0,0.2-0.1,0.5-0.2c0.2-0.1,0.4-0.1,0.5-0.2l0.4-0.2
				c0.3-0.1,0.5-0.2,0.5-0.2c0,0,0.1,0,0.1,0l0.1,0c0.1,0,0.2,0.1,0.3,0.2l0.4,0.5c0,0,0.1,0.1,0.1,0.1l0.2,0.1l0.2,0.4
				c0.1,0.1,0.1,0.1,0.1,0.2c0,0,0,0.1,0,0.1c0,0,0,0,0,0c-0.1,0-0.1,0-0.1,0l-0.2,0.2l-0.4,0.3l-0.3,0.3l-0.4,0.4l-0.4,0.4
				l-0.4,0.4c0,0-0.1,0.1-0.3,0.4c-0.1,0.1-0.1,0.2-0.2,0.2c0,0-0.1,0.1-0.2,0.1c-0.1,0.1-0.2,0.2-0.2,0.2c-0.5,0.4-0.8,0.7-0.9,0.9
				c-0.1,0.1-0.2,0.2-0.2,0.2c0,0-0.1,0.1-0.1,0.1c-0.1,0.1-0.1,0.1-0.2,0.1c-0.1,0.1-0.1,0.1-0.2,0.3c0,0.1-0.1,0.2-0.1,0.2
				c0,0,0,0,0,0h0c0,0,0,0-0.1,0c-0.1,0.1-0.1,0.1-0.2,0.1c-0.1,0-0.2,0-0.3,0l-0.7-0.8c0,0-0.1-0.1-0.2-0.2c0,0-0.1,0-0.1-0.1
				s0,0,0-0.1c0,0,0-0.1,0-0.1c0-0.1,0-0.1,0-0.1c0,0,0,0,0.1,0c0,0,0,0,0,0l0.3-0.3c0,0,0.1-0.1,0.3-0.2c0.1,0,0.1-0.1,0.2-0.1
				c0,0,0.1-0.1,0.1-0.1c0.2-0.2,0.3-0.3,0.3-0.3l0.5-0.5l0.4-0.4l0.3-0.3c0,0,0.1-0.2,0.2-0.4c0-0.1,0-0.2,0-0.3
				c0,0-0.1-0.1-0.2-0.1c-0.1,0-0.1,0-0.2,0c0,0-0.4,0.2-1.1,0.5c-0.3,0.2-0.7,0.3-1,0.4c-0.2,0.1-0.4,0.2-0.5,0.2
				c-0.1,0.1-0.2,0.1-0.2,0c-0.1,0-0.2-0.1-0.2-0.1c0,0-0.2-0.2-0.4-0.4c-0.1-0.1-0.1-0.1-0.1-0.2c0-0.1,0.1-0.3,0.2-0.6
				c0.1-0.2,0.2-0.5,0.3-0.9c0.1-0.2,0.1-0.4,0.2-0.4l0.2-0.4c0.1-0.4,0.2-0.7,0.2-0.7C146,37,146,36.9,146,36.9z"/>
			<path class="st8" d="M151.8,46.4l-0.3-0.4l-0.4-0.6c-0.2-0.2-0.4-0.4-0.4-0.4c0,0-0.1,0-0.2,0c0,0-0.2,0.1-0.6,0.2l-0.2,0.1
				l-0.5,0.2l0,0.1l-0.3,0.2l-0.1,0.1h-0.1l-0.1,0c-0.2-0.1-0.2-0.1-0.3-0.1l-0.2-0.4l-0.2-0.1c0-0.1,0-0.2,0.2-0.3
				c0,0,0.1,0,0.3-0.1l0.5-0.2l0.3-0.1l0.3-0.2l0.3-0.1c0.3-0.1,0.5-0.2,0.5-0.2s0.3-0.1,0.9-0.3l0.5-0.1l0.3-0.1l0.5-0.1l0.5-0.2
				l0.5-0.1l0.5-0.1l0.5-0.1c0.3-0.1,0.4-0.1,0.4-0.1s0,0,0.1,0c0,0,0.1,0,0.2,0c0,0,0.1,0,0.1,0s0,0.1,0.1,0.1
				c0,0.1,0.1,0.2,0.2,0.3c0.1,0.1,0.2,0.2,0.2,0.3c0,0,0.1,0.1,0.1,0.1c0,0.1,0.1,0.1,0,0.2c0,0.1,0,0.1,0,0.1l-0.1,0.1l-0.2,0.5
				c-0.2,0.3-0.3,0.6-0.4,0.8c-0.1,0.3-0.2,0.4-0.2,0.5l-0.3,0.4c-0.1,0.2-0.2,0.4-0.4,0.7c-0.1,0.1-0.2,0.3-0.2,0.4
				c-0.1,0.2-0.2,0.4-0.3,0.6c0,0-0.1,0.2-0.3,0.4c-0.2,0.3-0.4,0.6-0.6,0.8c-0.1,0.1-0.2,0.3-0.4,0.6l-0.2,0.3l-0.1,0.2
				c-0.1,0.1-0.1,0.1-0.1,0.1c0,0-0.1,0-0.1,0c0,0-0.1,0-0.1-0.1c-0.2-0.1-0.3-0.2-0.3-0.2c0,0-0.1-0.1-0.1-0.2
				c0-0.1-0.1-0.2-0.1-0.2c0,0-0.2-0.2-0.4-0.4c0,0,0,0,0,0c0-0.1-0.1-0.1-0.1-0.2s0.1-0.2,0.4-0.5c0.1-0.1,0.2-0.2,0.3-0.4
				c0-0.1,0.1-0.1,0.1-0.1c0.2-0.2,0.4-0.3,0.4-0.4l0.1-0.2l0,0l0,0c0,0,0,0,0,0s0,0,0,0c0,0,0.1,0,0.1,0c0,0,0-0.1,0-0.1
				c0-0.1,0-0.1,0-0.1l-0.3-0.2L151.8,46.4z M154.2,44.1C154.2,44,154.2,44,154.2,44.1c-0.1-0.1-0.1-0.1-0.1-0.1c0,0,0,0,0,0
				c0,0-0.1,0-0.3,0.1l-0.5,0.1l-0.5,0.2l-0.2,0l-0.5,0.2l-0.5,0.1l0,0.1c-0.1,0.1-0.1,0.1,0,0.2l0,0.1l0.3,0.4l0.3,0.4l0.3,0.4
				c0.1,0.1,0.2,0.1,0.2,0.1c0,0,0,0,0,0c0,0,0,0,0.1-0.1c0,0,0-0.1,0.1-0.1l0.2-0.5l0.1-0.2l0.2-0.5l0.1-0.1l0.2-0.5L154.2,44.1z"
				/>
			<path class="st8" d="M154.1,52.9L154.1,52.9c-0.2,0.1-0.3,0.1-0.3,0.1c-0.1,0-0.1,0-0.1-0.1l-0.1-0.2l-0.3-0.4l-0.2-0.4l-0.3-0.4
				c0-0.1,0-0.2-0.1-0.2c0,0,0-0.1,0-0.1l0.1-0.1l0.1-0.1l0.3-0.1l0.4-0.3l0.4-0.1l0.6-0.5c0,0,0.1,0,0.2-0.1
				c0.2-0.1,0.3-0.1,0.4-0.2l0.5-0.3l0.5-0.2l0.4-0.3l0.6-0.4c0,0,0.1-0.1,0.2-0.2c0.2-0.1,0.3-0.2,0.4-0.3c0.2-0.1,0.3-0.2,0.4-0.3
				c0-0.1,0.1-0.1,0.1-0.1l0.2-0.1l0.1-0.1l0.1,0c0.1,0,0.2,0,0.2,0c0,0,0,0.1,0,0.1c0.2,0.3,0.3,0.6,0.5,0.9l0.4,0.6
				c0,0,0.1,0.1,0.2,0.3c0,0.1,0.1,0.2,0.2,0.3c0.1,0.2,0.2,0.4,0.4,0.6c0.1,0.1,0.1,0.1,0.2,0.2c0,0.1,0.1,0.1,0.1,0.2
				c0.1,0.2,0.1,0.4,0.2,0.4c0,0,0,0,0.1,0.1c0,0,0,0,0,0c0,0,0,0,0,0c0,0,0,0.2,0.1,0.4c0.1,0.4,0,0.7-0.1,0.9
				c-0.2,0.4-0.3,0.5-0.3,0.5l-0.4,0.1l-0.5,0.2h-0.2c-0.4,0-0.6,0-0.6,0c0,0-0.2-0.1-0.5-0.2c-0.1-0.1-0.3-0.1-0.4-0.1
				c0,0-0.1,0-0.1,0c0,0-0.1,0.1-0.1,0.1c0,0-0.1,0.2-0.2,0.5c-0.1,0.2-0.4,0.6-0.8,1.1l-0.3,0.4c-0.3,0.3-0.5,0.5-0.6,0.7
				c0,0,0,0.1-0.1,0.1c0,0-0.1,0-0.2,0c-0.1,0-0.2,0-0.2,0c0,0,0,0,0,0c0,0,0-0.1,0-0.1c0-0.1,0-0.2-0.1-0.2l-0.4-0.5l-0.2-0.4
				l-0.1-0.1c0,0,0-0.1,0-0.3c0-0.1,0.1-0.2,0.3-0.3c0.1-0.1,0.2-0.2,0.4-0.4c0.2-0.2,0.3-0.3,0.3-0.4l0.2-0.1l0.2-0.5
				c0,0,0.1-0.1,0.1-0.2c0.2-0.2,0.3-0.3,0.3-0.4c0-0.1,0-0.2,0-0.2c0.1-0.1,0.1-0.1,0.1-0.1l0-0.1l0-0.1l0-0.1l0-0.1l-0.2-0.2
				c0,0-0.1-0.1-0.2-0.2s-0.1-0.1-0.2-0.1c-0.2,0.1-0.3,0.1-0.4,0.2c-0.1,0.1-0.4,0.2-0.8,0.5l-0.2,0.1L154.1,52.9z M160,50.9
				c-0.1,0-0.1,0-0.1,0c0,0-0.1-0.2-0.1-0.4c0-0.1,0-0.1,0-0.1c-0.1-0.1-0.2-0.2-0.3-0.3c-0.1-0.1-0.3-0.1-0.4-0.1
				c-0.3,0.1-0.4,0.1-0.5,0.2l-0.4,0.3l-0.4,0.2l-0.3,0.2l-0.2,0.1c0,0.1,0,0.1,0,0.1c0,0,0,0.1,0,0.1c0,0,0,0.1,0,0.1
				c0,0,0.2,0.2,0.5,0.5c0.1,0.1,0.2,0.1,0.3,0.2c0.4,0.2,0.6,0.2,0.6,0.3c0.1,0,0.3,0,0.5-0.1l0.4-0.1c0.3-0.3,0.5-0.5,0.5-0.6
				c0,0,0-0.1,0-0.1L160,50.9z"/>
		</g>
		<circle class="st8" cx="16.2" cy="72.7" r="2.3"/>
		<circle class="st8" cx="165.7" cy="72.7" r="2.3"/>
	</g>
	<g>
		<path class="st9" d="M47.9,135.1c0.6,0.6,1.2,1.2,1.9,1.8c11,9.8,25.5,15.8,41.4,15.8c15.8,0,30.2-5.9,41.2-15.6
			c0.7-0.6,1.4-1.3,2.1-2c0.5-0.5,1.1-1.1,1.6-1.6H46.3C46.8,134,47.3,134.5,47.9,135.1z"/>
		<path class="st10" d="M123.5,121.3H58.8H37.2c2.5,4.4,5.6,8.5,9.1,12.2H136c3.5-3.7,6.6-7.8,9.1-12.2H123.5z"/>
	</g>
	<g>
		<path class="st8" d="M91.1,152.8c-34.3,0-62.2-27.9-62.2-62.2s27.9-62.2,62.2-62.2s62.2,27.9,62.2,62.2S125.5,152.8,91.1,152.8z
			 M91.1,35.3c-30.4,0-55.2,24.8-55.2,55.2s24.8,55.2,55.2,55.2s55.2-24.8,55.2-55.2C146.4,60.1,121.6,35.3,91.1,35.3z"/>
	</g>
</g>
</svg>
