<?xml version="1.0" encoding="utf-8"?>
<!-- Generator: Adobe Illustrator 26.3.1, SVG Export Plug-In . SVG Version: 6.00 Build 0)  -->
<svg version="1.1" id="Layer_1" xmlns="http://www.w3.org/2000/svg" xmlns:xlink="http://www.w3.org/1999/xlink" x="0px" y="0px"
	 viewBox="0 0 15.9 7.9" style="enable-background:new 0 0 15.9 7.9;" xml:space="preserve">
<style type="text/css">
	.st0{fill:#1A313B;}
</style>
<path class="st0" d="M13.4,4.5L13,4.4L11.6,4l-0.6,0l-0.5,0.2L9.6,4.6L9.2,4.9L8.3,5.3L7.9,5.5l-0.1,0L7.3,5.4L6.8,5.1L6.4,4.8
	L4.5,4l-0.2,0L3.8,4.2L3.3,4.3L2.8,4.5L2.3,4.6L2.2,4.4l0.3-0.5L3,3.6l0.4-0.3l0.5-0.3l0.4-0.4l0.2,0L5,2.7l2.8,1.8l0.2,0l0.4-0.3
	l0.8-0.6l1.3-0.9l0.4-0.3L11,2.6l0.4,0.3l1.3,0.8l0.5,0.2l0.4,0.3L13.4,4.5z"/>
</svg>
