<?xml version="1.0" encoding="utf-8"?>
<!-- Generator: Adobe Illustrator 26.3.1, SVG Export Plug-In . SVG Version: 6.00 Build 0)  -->
<svg version="1.1" id="Layer_1" xmlns="http://www.w3.org/2000/svg" xmlns:xlink="http://www.w3.org/1999/xlink" x="0px" y="0px"
	 viewBox="0 0 111.83 38.3" style="enable-background:new 0 0 111.83 38.3;" xml:space="preserve">
<style type="text/css">
	.st0{fill:#1A313B;}
</style>
<path class="st0" d="M61.37,19.67l-0.38-0.12l-1.47-0.34l-0.61-0.05l-0.47,0.17l-0.88,0.43l-0.41,0.26l-0.85,0.49l-0.47,0.16
	l-0.07,0.01l-0.51-0.16l-0.45-0.29l-0.46-0.25l-1.92-0.85l-0.16-0.03l-0.48,0.22l-0.5,0.15l-0.47,0.24l-0.52,0.06l-0.11-0.24
	l0.32-0.48l0.45-0.32l0.44-0.33l0.46-0.31l0.4-0.37l0.19-0.03l0.51,0.22l2.78,1.75l0.17,0.04l0.41-0.31l0.83-0.6l1.27-0.87l0.4-0.33
	L59,17.75l0.42,0.3l1.33,0.8l0.45,0.25l0.44,0.27L61.37,19.67z"/>
</svg>
