<?xml version="1.0" encoding="utf-8"?>
<!-- Generator: Adobe Illustrator 26.3.1, SVG Export Plug-In . SVG Version: 6.00 Build 0)  -->
<svg version="1.1" id="Layer_1" xmlns="http://www.w3.org/2000/svg" xmlns:xlink="http://www.w3.org/1999/xlink" x="0px" y="0px"
	 viewBox="0 0 841.89 595.28" style="enable-background:new 0 0 841.89 595.28;" xml:space="preserve">
<style type="text/css">
	.st0{fill:#3C5F75;}
	.st1{fill:#FFFFFF;}
</style>
<g>
	<path class="st0" d="M286.75,410.01c-0.75-4.3,2.2-4.81,1.45-9.11l-1.73-1.22c-4.31,0.75-3.79,3.7-8.1,4.45
		c-4.31,0.75-4.82-2.2-9.12-1.45c-4.3,0.75-3.79,3.7-8.09,4.45c-4.3,0.75-4.82-2.2-9.12-1.45c-4.3,0.75-3.79,3.7-8.09,4.45
		c-4.3,0.75-4.81-2.2-9.12-1.45c-4.3,0.75-3.79,3.7-8.09,4.45s-4.81-2.2-9.12-1.45c-4.3,0.75-3.79,3.7-8.09,4.45
		c-4.3,0.75-4.82-2.2-9.12-1.45c-4.3,0.75-3.79,3.7-8.09,4.45c-4.3,0.75-4.81-2.2-9.12-1.45l-1.22,1.73c0.75,4.31,3.7,3.79,4.45,8.1
		s-2.2,4.82-1.45,9.13c0,0.01,0,0.01,0,0.02c0,0.01,0,0.01,0,0.02c0.75,4.3,3.7,3.79,4.45,8.09c0.75,4.3-2.2,4.82-1.45,9.12
		c0.75,4.3,3.7,3.79,4.45,8.09c0.75,4.3-2.2,4.82-1.45,9.12c0.75,4.3,3.7,3.79,4.45,8.09c0.75,4.3-2.2,4.82-1.45,9.12
		c0.75,4.3,3.7,3.79,4.45,8.09c0.75,4.3-2.2,4.82-1.45,9.12c0.75,4.3,3.7,3.79,4.45,8.09c0.75,4.3-2.2,4.82-1.45,9.12
		c0.75,4.3,3.7,3.79,4.45,8.09c0.75,4.3-2.2,4.81-1.45,9.11l1.76,1.38c4.31-0.75,3.79-3.7,8.1-4.45c4.31-0.75,4.82,2.2,9.12,1.45
		c4.3-0.75,3.79-3.7,8.09-4.45c4.3-0.75,4.82,2.2,9.12,1.45c4.3-0.75,3.79-3.7,8.09-4.45c4.3-0.75,4.81,2.2,9.12,1.45
		c4.3-0.75,3.79-3.7,8.09-4.45c4.3-0.75,4.81,2.2,9.12,1.45c4.3-0.75,3.79-3.7,8.09-4.45c4.3-0.75,4.82,2.2,9.12,1.45
		c4.3-0.75,3.79-3.7,8.09-4.45c4.3-0.75,4.81,2.2,9.12,1.45l1.19-1.89c-0.75-4.31-3.7-3.79-4.45-8.1c-0.75-4.31,2.2-4.82,1.45-9.13
		c-0.75-4.3-3.7-3.79-4.45-8.09c-0.75-4.3,2.2-4.82,1.45-9.12c-0.75-4.3-3.7-3.79-4.45-8.09c-0.75-4.3,2.2-4.82,1.45-9.12
		c-0.75-4.3-3.7-3.79-4.45-8.09c-0.75-4.3,2.2-4.82,1.45-9.12c-0.75-4.3-3.7-3.79-4.45-8.09c-0.75-4.3,2.2-4.82,1.45-9.12
		c-0.75-4.3-3.7-3.79-4.45-8.09c-0.75-4.3,2.2-4.82,1.45-9.12c0,0,0-0.01,0-0.01c0,0,0-0.01,0-0.01
		C290.44,413.8,287.49,414.31,286.75,410.01z"/>
	<g>
		<path class="st1" d="M219.05,521.18c0,0-0.04-0.04-0.1-0.1l-0.16-0.21l-0.23-0.13c-0.27-0.2-0.63-0.3-1.1-0.29l-0.25-0.01
			c-0.01,0-0.02,0-0.02,0.01l0,0.04c0,0.01-0.01,0.02-0.04,0.03c-0.02,0-0.05,0-0.09,0c-0.03,0-0.05,0-0.07,0
			c-0.02,0-0.12,0.04-0.3,0.12l-0.24,0.1c-0.03,0.03-0.12,0.1-0.25,0.2c-0.07,0.05-0.16,0.14-0.26,0.26
			c-0.04,0.05-0.06,0.08-0.07,0.1c-0.01,0.02-0.05,0.09-0.11,0.23c-0.07,0.13-0.11,0.22-0.13,0.28c-0.02,0.08-0.04,0.19-0.07,0.33
			l-0.02,0.08l0.03,0.26l0.01,0.26l0.02,0.04l0.04,0.37c0,0.03,0.01,0.06,0.03,0.08c0.02,0.03,0.08,0.12,0.19,0.27l0.08,0.17
			c0.02,0.04,0.08,0.11,0.18,0.19c0.15,0.13,0.31,0.23,0.49,0.3c0.26,0.1,0.43,0.16,0.52,0.17c0.2,0.02,0.32,0.02,0.34,0.02
			l0.35-0.07c0.01,0,0.05,0,0.13-0.01c0.04,0,0.07-0.01,0.09-0.01c0.05-0.01,0.09-0.02,0.12-0.03c0.03-0.01,0.11-0.06,0.23-0.13
			c0.16-0.08,0.26-0.12,0.27-0.14c0.14-0.12,0.22-0.19,0.24-0.22c0.01-0.02,0.03-0.03,0.06-0.05c0-0.02,0.01-0.05,0.02-0.06
			c0.02-0.04,0.02-0.1,0.01-0.18c-0.01-0.04-0.03-0.07-0.06-0.09c-0.04-0.02-0.07-0.03-0.09-0.02c-0.01,0-0.03,0.02-0.05,0.05
			c-0.07,0.09-0.11,0.14-0.12,0.15c-0.1,0.09-0.17,0.14-0.2,0.17c-0.02,0.02-0.12,0.07-0.28,0.15c-0.13,0.07-0.21,0.11-0.25,0.12
			l-0.25,0.02l-0.26,0.02l-0.26-0.06c-0.15-0.03-0.25-0.06-0.29-0.07c-0.06-0.03-0.17-0.1-0.35-0.22l-0.04-0.02l-0.05-0.04
			c-0.04-0.07-0.11-0.17-0.2-0.3c-0.04-0.06-0.06-0.09-0.06-0.1c0-0.01-0.02-0.04-0.03-0.1c-0.02-0.09-0.05-0.17-0.08-0.25
			c-0.04-0.09-0.06-0.17-0.07-0.22c0-0.02,0-0.14,0-0.36c0-0.18,0.01-0.28,0.02-0.3c0.01-0.02,0.04-0.12,0.1-0.31l0.15-0.22
			l0.08-0.14c0-0.03,0.06-0.08,0.2-0.16c0.11-0.06,0.17-0.11,0.18-0.14c0.01-0.01,0.01-0.01,0.01-0.01c0,0,0.01,0,0.02,0.01
			c0.02,0.01,0.03,0.01,0.04,0.01c0,0,0,0,0,0c0.11-0.06,0.18-0.09,0.21-0.1l0.25-0.06l0.17-0.04c0.21,0.03,0.35,0.05,0.4,0.05
			c0.08,0.01,0.13,0.02,0.14,0.02c0.01,0,0.03,0.01,0.06,0.03l0.23,0.13c0.03,0.02,0.1,0.08,0.19,0.18
			c0.06,0.07,0.12,0.13,0.16,0.17c0.01,0.01,0.01,0.01,0.01,0.02c0,0,0,0.01-0.01,0.02c-0.02,0.03-0.02,0.06-0.02,0.08
			c0,0,0.04,0.06,0.1,0.18l0.11,0.19c0.01,0.01,0,0.04-0.02,0.07c-0.01,0.01-0.01,0.02-0.02,0.03l0.06,0.28l-0.03,0.23l-0.01,0.1
			c-0.14,0.24-0.22,0.36-0.24,0.37c-0.01,0-0.03,0-0.07,0c-0.03,0-0.05,0-0.07-0.01c-0.02-0.01-0.04-0.08-0.06-0.2
			c0-0.01,0-0.11,0-0.31l-0.02-0.28c-0.01-0.33-0.01-0.52-0.01-0.57c0.01-0.03,0.01-0.05,0.01-0.06c-0.01-0.04-0.04-0.08-0.11-0.1
			c-0.04-0.01-0.06-0.02-0.09-0.01c-0.01,0-0.03,0.01-0.05,0.02c-0.1,0.05-0.16,0.07-0.2,0.08c-0.14,0.04-0.21,0.06-0.22,0.08
			l0,0.01l-0.01-0.01c-0.02-0.03-0.07-0.05-0.14-0.05c-0.11,0-0.2,0-0.28,0.02c-0.02,0-0.07,0.02-0.14,0.05
			c-0.11,0.04-0.18,0.08-0.23,0.12c-0.17,0.14-0.27,0.24-0.31,0.3c-0.01,0.01-0.04,0.1-0.1,0.27l-0.06,0.14l-0.01,0.26l-0.01,0.13
			l0.07,0.25l0.01,0.05l0.17,0.19l0.04,0.07l0.24,0.09l0.05,0.03l0.26,0l0.04,0l0.25-0.12l0.03,0.01l0.18-0.19l0.03-0.01l0.02-0.03
			l0.03,0.03c0,0.03,0.01,0.04,0.01,0.05c0.01,0.01,0.03,0.02,0.06,0.04c0.02,0.01,0.03,0.02,0.03,0.02c0,0,0.02,0,0.07-0.01
			l0.29-0.01c0,0,0.04-0.02,0.11-0.07c0.03-0.02,0.11-0.05,0.24-0.09c0.12-0.04,0.2-0.09,0.25-0.15l0.14-0.15
			c0.04-0.04,0.08-0.1,0.11-0.18c0.06-0.13,0.1-0.24,0.12-0.33c0.02-0.06,0.02-0.1,0.02-0.11c0-0.01-0.01-0.11-0.03-0.3l-0.02-0.2
			c-0.08-0.19-0.13-0.31-0.15-0.35C219.08,521.23,219.06,521.18,219.05,521.18z M217.77,521.97c-0.02,0.06-0.02,0.15,0,0.26
			c0.02,0.17,0.02,0.35-0.02,0.55l-0.01,0.14c0,0.03-0.02,0.06-0.04,0.09c-0.04,0.06-0.12,0.1-0.23,0.12
			c-0.04,0.01-0.07,0.01-0.11,0.01c-0.05,0-0.09-0.02-0.13-0.05c-0.09-0.08-0.14-0.16-0.16-0.22c-0.01-0.24-0.02-0.38-0.02-0.41
			c0-0.1,0-0.16,0.01-0.2l0.06-0.18c0.01-0.07,0.02-0.11,0.04-0.14c0.07-0.09,0.15-0.14,0.25-0.16c0.09-0.02,0.19,0.01,0.3,0.08
			c0.04,0.03,0.06,0.06,0.07,0.09C217.78,521.95,217.78,521.96,217.77,521.97z"/>
		<path class="st1" d="M223.08,519.8l-0.02-0.14c0-0.01-0.03-0.03-0.08-0.05c-0.05-0.03-0.14-0.03-0.24-0.02
			c-0.04,0.01-0.08,0.02-0.14,0.03c-0.06,0.02-0.09,0.03-0.09,0.03l-0.6,0.09c0,0-0.04,0.01-0.1,0.03c-0.06,0.02-0.1,0.03-0.13,0.03
			l-0.4,0.06l-0.26,0.05c-0.03,0.01-0.12,0.02-0.27,0.03c-0.06,0.01-0.11,0.01-0.16,0.02c-0.04,0.01-0.08,0.02-0.1,0.03
			c-0.05,0.02-0.07,0.03-0.07,0.03l-0.27,0.01l-0.01,0.01c-0.01,0.02-0.02,0.04-0.03,0.04c-0.04,0.02-0.06,0.03-0.06,0.04
			c-0.01,0.01-0.01,0.03,0,0.06c0.01,0.08,0.01,0.15,0.01,0.21c0,0.02,0,0.04,0,0.05c0,0.01,0.01,0.02,0.01,0.03
			c0,0.01,0.03,0.02,0.08,0.05c0.05,0.03,0.07,0.04,0.08,0.04l0.07-0.03l0.13-0.06c0,0,0.02-0.01,0.04-0.04
			c0.04-0.04,0.07-0.06,0.08-0.07l0.36-0.05c0,0,0.01-0.01,0.03-0.02c0.03-0.02,0.05-0.03,0.06-0.04c0,0,0.03,0,0.08,0.01
			c0.02,0,0.03,0.01,0.04,0.01c0.01,0,0.02,0.03,0.03,0.07l0.05,0.08l0.03,0.26l0.05,0.26l0.02,0.26l0.04,0.25l0.04,0.26l0.06,0.25
			l0.02,0.26l0.07,0.25l0.03,0.26l0.03,0.21l0,0.26c0.01,0.12,0.01,0.2,0,0.22c0,0.01,0,0.02,0,0.03c0,0.01,0.01,0.02,0.02,0.03
			c0.01,0.01,0.04,0.01,0.09,0.01l0.09,0.03l0.22-0.06l0.22-0.03l0.22-0.04c0.05,0.01,0.07,0.01,0.08,0.01
			c0.01,0,0.03-0.03,0.05-0.08l0.04-0.06l-0.04-0.06l0-0.05l-0.05-0.11l-0.04-0.38c0,0-0.01-0.03-0.03-0.07
			c-0.02-0.05-0.04-0.11-0.05-0.18c-0.04-0.22-0.07-0.42-0.08-0.59c-0.01-0.14-0.02-0.23-0.03-0.25c0-0.02-0.02-0.1-0.06-0.26
			c-0.01-0.04-0.02-0.07-0.02-0.1c-0.01-0.03-0.01-0.09-0.02-0.15c-0.01-0.09-0.01-0.14-0.02-0.16l-0.07-0.38
			c-0.02-0.19-0.02-0.3-0.01-0.33c0.01-0.04,0.03-0.07,0.05-0.07l0.08-0.01l0.05-0.02l0.23-0.02c0.01,0,0.02-0.01,0.05-0.03
			c0.02-0.01,0.03-0.02,0.04-0.02c0.02,0,0.05,0,0.11,0.02c0.11,0.03,0.18,0.06,0.22,0.07c0.01,0,0.02,0.01,0.02,0
			c0,0,0.01,0,0.01-0.01c0.02-0.01,0.04-0.02,0.07-0.03c0.05-0.01,0.08-0.03,0.09-0.05c0.01-0.03,0.02-0.07,0.01-0.1
			c0-0.01-0.01-0.02-0.02-0.04C223.1,519.84,223.08,519.81,223.08,519.8z"/>
		<path class="st1" d="M225.68,522.24l-0.05-0.2c-0.04-0.21-0.08-0.38-0.12-0.51c-0.02-0.06-0.03-0.11-0.03-0.14
			c-0.01-0.03-0.01-0.07-0.01-0.12c0-0.06-0.01-0.1-0.01-0.11l-0.1-0.41l-0.04-0.26l-0.05-0.26l-0.03-0.26l-0.06-0.2
			c-0.01-0.17-0.02-0.31-0.02-0.41c0.01-0.04,0.01-0.06,0.01-0.07c0-0.01-0.02-0.03-0.05-0.06c-0.02-0.02-0.05-0.03-0.06-0.03
			l-0.1,0.03l-0.22,0.02l-0.21,0.07l-0.22,0.03c-0.1,0.02-0.15,0.06-0.14,0.14c0,0.03,0,0.06-0.01,0.06c0,0.01,0,0.02,0,0.03
			c0,0,0,0.01,0.01,0.01c0.05,0.06,0.07,0.09,0.07,0.09l0.05,0.32c0,0.01,0.02,0.06,0.06,0.14c0.02,0.05,0.04,0.1,0.05,0.15
			c0.01,0.03,0.01,0.06,0.01,0.1c0.01,0.15,0.01,0.22,0.01,0.22l0.08,0.29l0.03,0.26l0.07,0.25l0.03,0.26l0.06,0.26l0.04,0.39
			c0,0,0.01,0.03,0.02,0.08c0.01,0.04,0.02,0.08,0.03,0.11c0.02,0.11,0.02,0.21,0.02,0.3c0,0.03,0,0.06,0,0.07
			c0,0.02,0.01,0.03,0.03,0.05c0.01,0.02,0.05,0.02,0.12,0.02c0.1,0,0.16-0.01,0.19-0.01c0.02,0,0.05-0.01,0.08-0.03
			c0.06-0.02,0.09-0.03,0.1-0.03l0.31-0.03l0.11-0.07c0.05-0.02,0.07-0.04,0.07-0.05c0.01-0.03,0.01-0.06,0-0.09
			c0-0.02-0.03-0.07-0.09-0.18L225.68,522.24z"/>
		<path class="st1" d="M229.49,521.7l-0.08-0.01c-0.01,0.03-0.02,0.04-0.02,0.05c-0.01,0-0.06,0.02-0.16,0.05l-0.08,0.03l-0.25,0.07
			c-0.06,0.03-0.12,0.05-0.16,0.05c-0.05,0.01-0.09,0.01-0.15,0c-0.07-0.01-0.1-0.01-0.11-0.01l-0.25,0.05
			c-0.01,0-0.03-0.01-0.06-0.04c-0.05-0.06-0.08-0.13-0.1-0.19l-0.03-0.19l-0.05-0.25l-0.01-0.26l-0.06-0.25l-0.03-0.25l-0.06-0.25
			l-0.02-0.26l-0.06-0.27c0-0.02,0-0.1,0-0.24c0-0.03,0-0.05,0-0.05l-0.06-0.29c-0.01-0.07-0.01-0.16,0-0.27c0-0.03,0-0.06,0-0.07
			c-0.01-0.04-0.03-0.06-0.06-0.07c-0.07-0.02-0.16-0.01-0.28,0.01l-0.27,0.05l-0.25,0.02c-0.04,0.01-0.08,0.02-0.09,0.03
			c-0.01,0.01-0.02,0.03-0.04,0.06c-0.03,0.06-0.04,0.1-0.04,0.12c0,0.01,0.01,0.02,0.02,0.04c0.06,0.17,0.11,0.35,0.15,0.56
			l0.06,0.26l0.04,0.26l0.05,0.26l0.05,0.39c0,0.01,0.01,0.05,0.03,0.13c0.02,0.06,0.03,0.1,0.03,0.14
			c0.01,0.04,0.01,0.08,0.01,0.12c0.01,0.15,0.02,0.23,0.02,0.24l0.03,0.11l0.04,0.17l0,0.21c0.02,0.22,0.03,0.36,0.02,0.41
			c0,0.02,0,0.03,0,0.04s0.02,0.03,0.07,0.07c0.03,0.03,0.05,0.05,0.05,0.05c0,0,0.01,0,0.03,0.01l0.21-0.05c0.01,0,0.04,0,0.11,0
			c0.03,0,0.06,0,0.09-0.01c0.03-0.01,0.08-0.02,0.16-0.03c0.22-0.05,0.34-0.08,0.36-0.08c0.04-0.01,0.09-0.01,0.15-0.01
			c0.1,0,0.15-0.01,0.16-0.01l0.34-0.08c0.21-0.03,0.32-0.04,0.35-0.05c0.09-0.02,0.14-0.02,0.16-0.02
			c0.04,0.01,0.06,0.01,0.07,0.01c0.01,0,0.02-0.02,0.04-0.06l0.04-0.03l0.01-0.08c0.03-0.14,0.04-0.21,0.04-0.22
			c-0.01-0.04-0.02-0.08-0.05-0.1C229.58,521.7,229.55,521.7,229.49,521.7z"/>
		<path class="st1" d="M233.87,521.15l-0.09-0.19c-0.08-0.14-0.14-0.25-0.17-0.33c-0.05-0.14-0.13-0.29-0.22-0.44
			c-0.08-0.13-0.12-0.21-0.13-0.22c-0.04-0.07-0.09-0.17-0.17-0.28c-0.06-0.09-0.11-0.16-0.15-0.22c-0.09-0.14-0.16-0.25-0.21-0.33
			l-0.14-0.22c0-0.02-0.06-0.09-0.16-0.21c-0.06-0.07-0.14-0.18-0.25-0.35l-0.17-0.2l-0.04-0.09c0,0-0.01-0.01-0.03-0.02
			c-0.04-0.02-0.07-0.03-0.11-0.03c-0.01,0-0.02,0.01-0.04,0.02c-0.04,0.02-0.1,0.03-0.17,0.05c-0.07,0.01-0.14,0.02-0.19,0.01
			c-0.03,0-0.05,0-0.07,0c-0.02,0-0.04,0.01-0.04,0.03c-0.01,0.03-0.02,0.05-0.03,0.07c-0.02,0.03-0.03,0.04-0.03,0.05
			c0,0.01-0.02,0.08-0.05,0.22l-0.08,0.25l-0.07,0.25l-0.08,0.22l-0.03,0.26l-0.06,0.25l-0.03,0.18l-0.06,0.25
			c-0.05,0.3-0.07,0.46-0.07,0.47c0,0.02-0.01,0.11-0.01,0.28l-0.04,0.18l0,0.2l-0.03,0.18l-0.03,0.24
			c-0.03,0.09-0.04,0.14-0.04,0.15c0.02,0.11,0.05,0.17,0.09,0.16l0.11-0.04l0.21,0c0.01,0,0.05-0.03,0.12-0.08l0.01-0.06l0.03-0.06
			l-0.03-0.05l0-0.18l-0.03-0.04l0.02-0.26l0-0.12c0.04-0.18,0.06-0.27,0.06-0.29c-0.01-0.04,0-0.07,0.02-0.08
			c0.03-0.02,0.12-0.05,0.29-0.09l0.35-0.05l0.27-0.05l0.15,0.01l0.19-0.08c0,0,0.02,0.01,0.05,0.03c0.04,0.01,0.06,0.02,0.06,0.03
			s0,0.02-0.01,0.04c0,0.01,0,0.01,0,0.01c0,0,0,0,0,0.01c0,0,0,0.01,0,0.01l0,0l0.09,0.1c0.01,0.01,0.03,0.09,0.08,0.25
			c0,0.02,0.02,0.05,0.03,0.09c0.05,0.12,0.08,0.2,0.09,0.24c0.06,0.2,0.1,0.3,0.13,0.31c0.04,0.01,0.07,0.01,0.11,0.01
			c0.01,0,0.02,0,0.03-0.01c0.18-0.05,0.27-0.08,0.29-0.08c0.04-0.01,0.09-0.01,0.14,0c0.07,0.01,0.11,0.01,0.13,0.01
			c0.03,0,0.09-0.03,0.18-0.08c0.03-0.02,0.05-0.03,0.06-0.04c0.01-0.02,0.02-0.04,0.02-0.06c0,0-0.01-0.03-0.04-0.09L233.87,521.15
			z M232.2,520.14l-0.27,0.04l-0.27,0.06l-0.27,0.04l-0.03,0.01c-0.02,0-0.05-0.02-0.07-0.06l-0.02-0.04l0.06-0.25l0.05-0.26
			l0.03-0.08l0.02-0.26l0.08-0.25c0.03-0.11,0.05-0.17,0.06-0.17c0,0,0.01,0,0.01,0c0.02,0.01,0.03,0.01,0.03,0.01
			c0.01,0,0.02-0.01,0.03-0.01l0.13,0.23l0.16,0.21l0.02,0.07l0.15,0.21l0.04,0.09l0.15,0.21c0,0.01,0.01,0.02,0.01,0.04
			c0,0.02,0.01,0.03,0.01,0.04c0.01,0.01,0.01,0.02,0.01,0.03C232.3,520.09,232.27,520.12,232.2,520.14z"/>
		<path class="st1" d="M237.41,517.61c-0.03-0.03-0.12-0.1-0.29-0.2c-0.02-0.02-0.03-0.03-0.05-0.04c-0.01-0.01-0.06-0.03-0.16-0.05
			c-0.16-0.04-0.28-0.06-0.37-0.06c-0.05,0-0.14,0.01-0.28,0.03c-0.12,0.02-0.2,0.03-0.26,0.03c-0.13,0.01-0.2,0.01-0.2,0.01
			l-0.3,0.07l-0.26,0.03l-0.26,0.03l-0.2-0.01c-0.03,0-0.07,0.03-0.14,0.07c-0.03,0.02-0.05,0.03-0.05,0.04
			c-0.02,0.09-0.02,0.13-0.02,0.13c0,0,0.01,0.02,0.02,0.04l0.03,0.12l0.11,0.33c0,0,0,0.04,0,0.12c0,0.03,0,0.06,0,0.07l0.07,0.36
			c0,0.01,0,0.04,0.01,0.09c0.01,0.14,0.02,0.23,0.02,0.26c0.04,0.24,0.06,0.42,0.06,0.52c0,0.09,0,0.14,0,0.15l0.1,0.37l0,0.26
			l0.06,0.25c0,0.02,0,0.09,0,0.21c0,0.06,0,0.11,0,0.16c0,0.04,0,0.06-0.02,0.07l0,0l0.01,0c0.02,0,0.03,0.02,0.05,0.05
			s0.04,0.05,0.05,0.05l0.1-0.03l0.22-0.01l0.22-0.05l0.26,0c0.04-0.01,0.08-0.05,0.1-0.12c0.02-0.05,0.02-0.09,0.01-0.13
			c0-0.02-0.02-0.06-0.06-0.12c-0.02-0.04-0.04-0.09-0.05-0.14c-0.01-0.04-0.01-0.07-0.01-0.11c0-0.05,0-0.08,0-0.09l-0.06-0.28
			c0,0,0-0.01,0-0.03c0.01-0.07,0.01-0.11,0.01-0.13l-0.03-0.14c0-0.01,0.01-0.03,0.03-0.06c0.02-0.02,0.05-0.04,0.09-0.06
			l0.05-0.03l0.23-0.03c0.03,0,0.09-0.03,0.18-0.08c0.04-0.02,0.12-0.06,0.24-0.1c0.1-0.05,0.18-0.08,0.23-0.12
			c0.15-0.1,0.25-0.16,0.3-0.2c0.05-0.03,0.09-0.07,0.11-0.11c0.12-0.16,0.19-0.26,0.21-0.29c0.05-0.09,0.09-0.21,0.1-0.35
			c0.01-0.2,0.02-0.31,0.02-0.32c0-0.01-0.02-0.05-0.05-0.13C237.51,517.78,237.45,517.67,237.41,517.61z M236.61,518.75
			c-0.02,0.04-0.04,0.07-0.06,0.09c-0.02,0.02-0.09,0.08-0.21,0.17c-0.06,0.08-0.1,0.13-0.12,0.14c-0.05,0.04-0.1,0.06-0.14,0.07
			c-0.02,0-0.03,0-0.06,0c-0.05-0.01-0.07-0.01-0.08-0.01l-0.11,0.04c0,0-0.01-0.01-0.03-0.03l-0.05-0.01l0-0.01l-0.01,0l0,0
			c0-0.03,0-0.05,0-0.08l-0.04-0.21l-0.02-0.24l-0.03-0.23l-0.02-0.15l-0.04-0.19c0-0.03,0-0.1,0.03-0.21
			c0.01-0.06,0.05-0.11,0.11-0.12c0.05-0.01,0.12-0.02,0.21-0.03c0.18-0.01,0.27-0.02,0.28-0.02c0.08,0.03,0.15,0.06,0.22,0.09
			c0.03,0.02,0.08,0.07,0.13,0.15c0.07,0.11,0.12,0.2,0.13,0.27C236.72,518.4,236.69,518.58,236.61,518.75z"/>
		<path class="st1" d="M240.13,519.72l-0.05-0.2c-0.04-0.21-0.08-0.38-0.12-0.51c-0.02-0.06-0.03-0.11-0.04-0.14
			c-0.01-0.03-0.01-0.07-0.01-0.12c0-0.06-0.01-0.1-0.01-0.11l-0.1-0.41l-0.04-0.26l-0.05-0.26l-0.03-0.26l-0.06-0.2
			c-0.01-0.17-0.02-0.31-0.02-0.41c0.01-0.04,0.01-0.06,0.01-0.07c0-0.01-0.02-0.03-0.05-0.06c-0.02-0.02-0.05-0.03-0.06-0.03
			l-0.1,0.03l-0.22,0.02l-0.21,0.07l-0.22,0.03c-0.1,0.02-0.15,0.06-0.14,0.14c0,0.03,0,0.06-0.01,0.06c0,0.01,0,0.02,0,0.03
			c0,0,0,0.01,0.01,0.01c0.05,0.06,0.07,0.09,0.07,0.09l0.05,0.32c0,0.01,0.02,0.06,0.06,0.14c0.02,0.05,0.04,0.1,0.05,0.15
			c0.01,0.03,0.01,0.06,0.01,0.1c0.01,0.15,0.01,0.22,0.01,0.22l0.08,0.29l0.03,0.26l0.07,0.25l0.03,0.26l0.06,0.26l0.04,0.39
			c0,0,0.01,0.03,0.02,0.08c0.01,0.04,0.02,0.08,0.03,0.11c0.02,0.11,0.02,0.21,0.02,0.3c0,0.03,0,0.06,0,0.07
			c0,0.02,0.01,0.03,0.03,0.05c0.01,0.02,0.05,0.02,0.12,0.02c0.1,0,0.16-0.01,0.19-0.01c0.02,0,0.05-0.01,0.08-0.03
			c0.06-0.02,0.09-0.03,0.1-0.03l0.31-0.03l0.11-0.07c0.05-0.02,0.07-0.04,0.07-0.05c0.01-0.03,0.01-0.06,0-0.09
			c0-0.02-0.03-0.07-0.09-0.18L240.13,519.72z"/>
		<path class="st1" d="M244.62,519.28l-0.09-0.19c-0.08-0.14-0.14-0.25-0.17-0.33c-0.05-0.14-0.13-0.29-0.22-0.44
			c-0.08-0.13-0.12-0.21-0.13-0.22c-0.04-0.07-0.09-0.17-0.17-0.28c-0.06-0.09-0.11-0.16-0.15-0.22c-0.09-0.14-0.16-0.25-0.21-0.33
			l-0.14-0.22c0-0.02-0.06-0.09-0.16-0.21c-0.06-0.07-0.14-0.18-0.25-0.35l-0.17-0.2l-0.04-0.09c0,0-0.01-0.01-0.03-0.02
			c-0.04-0.02-0.07-0.03-0.11-0.03c-0.01,0-0.02,0.01-0.04,0.02c-0.04,0.02-0.1,0.03-0.17,0.05c-0.07,0.01-0.14,0.02-0.19,0.01
			c-0.03,0-0.05,0-0.07,0c-0.02,0-0.04,0.01-0.04,0.03c-0.01,0.03-0.02,0.05-0.03,0.07c-0.02,0.03-0.03,0.04-0.03,0.05
			c0,0.01-0.02,0.08-0.05,0.22l-0.08,0.25l-0.07,0.25l-0.08,0.22l-0.03,0.26l-0.06,0.25l-0.03,0.18l-0.06,0.25
			c-0.05,0.3-0.07,0.46-0.07,0.47c0,0.02-0.01,0.11-0.01,0.28l-0.04,0.18l0,0.2l-0.03,0.18l-0.03,0.24
			c-0.03,0.09-0.04,0.14-0.04,0.15c0.02,0.11,0.05,0.17,0.09,0.16l0.11-0.04l0.21,0c0.01,0,0.05-0.03,0.12-0.08l0.01-0.06l0.03-0.06
			l-0.03-0.05l0-0.18l-0.03-0.04l0.02-0.26l0-0.12c0.04-0.18,0.06-0.27,0.06-0.29c-0.01-0.04,0-0.07,0.02-0.08
			c0.03-0.02,0.12-0.05,0.29-0.09l0.35-0.05l0.27-0.05l0.15,0.01l0.19-0.08c0,0,0.02,0.01,0.05,0.03c0.04,0.01,0.06,0.02,0.06,0.03
			c0,0.01,0,0.02-0.01,0.04c0,0.01,0,0.01,0,0.01c0,0,0,0,0,0.01c0,0,0,0.01,0,0.01l0,0l0.09,0.1c0.01,0.01,0.03,0.09,0.08,0.25
			c0,0.02,0.02,0.05,0.03,0.09c0.05,0.12,0.08,0.2,0.09,0.24c0.06,0.2,0.1,0.3,0.13,0.31c0.04,0.01,0.07,0.01,0.11,0.01
			c0.01,0,0.02,0,0.03-0.01c0.18-0.05,0.27-0.08,0.29-0.08c0.04-0.01,0.09-0.01,0.14,0c0.07,0.01,0.11,0.01,0.13,0.01
			c0.03-0.01,0.09-0.03,0.18-0.08c0.03-0.02,0.05-0.03,0.06-0.04c0.01-0.02,0.02-0.04,0.02-0.06c0,0-0.01-0.03-0.04-0.09
			L244.62,519.28z M242.94,518.27l-0.27,0.04l-0.27,0.06l-0.27,0.04l-0.03,0.01c-0.02,0-0.05-0.02-0.07-0.06l-0.02-0.04l0.06-0.25
			l0.05-0.26l0.03-0.08l0.02-0.26l0.08-0.25c0.03-0.11,0.05-0.17,0.06-0.17c0,0,0.01,0,0.01,0c0.02,0.01,0.03,0.01,0.03,0.01
			c0.01,0,0.02-0.01,0.03-0.01l0.13,0.23l0.16,0.21l0.02,0.07l0.15,0.21l0.04,0.09l0.15,0.21c0,0.01,0.01,0.02,0.01,0.04
			c0,0.02,0.01,0.03,0.01,0.04c0.01,0.01,0.01,0.02,0.01,0.03C243.04,518.22,243.01,518.24,242.94,518.27z"/>
		<path class="st1" d="M248.23,517.21c-0.01-0.01-0.04-0.06-0.1-0.14c-0.12-0.11-0.19-0.17-0.22-0.19c-0.03-0.02-0.13-0.05-0.3-0.1
			l-0.11-0.04l-0.26-0.02l-0.28-0.03c-0.2,0.01-0.3,0.01-0.32,0.01c-0.09,0-0.19-0.02-0.31-0.06c-0.06-0.02-0.1-0.05-0.14-0.09
			c-0.1-0.12-0.15-0.21-0.16-0.27c-0.01-0.03,0-0.09,0.03-0.17c0.02-0.08,0.05-0.15,0.08-0.2c0.02-0.03,0.07-0.07,0.15-0.12
			c0.14-0.08,0.22-0.12,0.24-0.13l0.15,0.02c0.19,0,0.3,0,0.34,0.01c0.14,0.01,0.26,0.06,0.36,0.12c0.13,0.09,0.21,0.13,0.23,0.13
			c0.02,0,0.05-0.03,0.09-0.08c0.02-0.04,0.03-0.08,0.02-0.14c-0.02-0.11-0.05-0.19-0.08-0.23l-0.04-0.05
			c-0.01-0.01-0.02-0.02-0.03-0.02l0-0.05c0,0-0.02,0-0.04,0c-0.01,0-0.03-0.01-0.06-0.03c-0.05-0.04-0.13-0.06-0.25-0.05
			c-0.09,0-0.22,0-0.39-0.02l-0.15,0.01l-0.24,0.02c-0.01,0-0.02,0.02-0.04,0.05l-0.25,0.06l-0.23,0.12
			c-0.02-0.02-0.05-0.03-0.08-0.03c-0.02,0-0.14,0.11-0.34,0.33c-0.09,0.09-0.15,0.2-0.21,0.34c-0.07,0.2-0.09,0.38-0.06,0.53
			c0,0.02,0.02,0.08,0.04,0.16c0.04,0.16,0.09,0.27,0.12,0.33c0.02,0.04,0.08,0.09,0.16,0.17c0.05,0.04,0.08,0.07,0.11,0.09
			c0.02,0.01,0.08,0.04,0.18,0.07c0.18,0.07,0.29,0.11,0.33,0.13c0.05,0.01,0.08,0.02,0.1,0.02c0.02,0,0.12,0,0.3-0.01
			c0.07,0.01,0.15,0.01,0.22,0.02c0.01,0,0.08,0,0.22,0c0.09,0,0.18,0.01,0.25,0.02c0.1,0.02,0.18,0.07,0.24,0.15
			c0.07,0.09,0.11,0.17,0.12,0.24c0.01,0.06,0,0.12-0.03,0.19c-0.03,0.07-0.07,0.14-0.12,0.19c-0.01,0.01-0.09,0.07-0.23,0.18
			c-0.02,0.03-0.05,0.04-0.08,0.05c-0.05,0.02-0.14,0.04-0.28,0.06c-0.15,0.03-0.31,0.02-0.48-0.02c-0.16-0.04-0.28-0.07-0.34-0.11
			c-0.13-0.08-0.2-0.11-0.21-0.12c-0.02-0.01-0.04-0.01-0.05-0.01c-0.02,0-0.04,0.01-0.07,0.03c-0.04,0.03-0.05,0.04-0.06,0.04
			l0.01,0.07l0.02,0.24c0,0.01,0.02,0.03,0.05,0.08c0.01,0.01,0.03,0.01,0.06,0.02l0,0.03c0,0.02,0.07,0.04,0.19,0.05
			c0.08,0.02,0.17,0.05,0.25,0.07c0.09,0.02,0.24,0.03,0.47,0.03c0.05,0,0.1,0,0.13,0c0.1,0,0.17,0,0.2,0
			c0.02,0,0.19-0.06,0.51-0.17c0.06-0.03,0.12-0.05,0.16-0.07c0.08-0.04,0.12-0.06,0.13-0.06c0,0,0.07-0.07,0.19-0.2l0.04-0.04
			c0.01-0.01,0.04-0.05,0.1-0.14c0.1-0.16,0.17-0.28,0.19-0.36c0.04-0.16,0.06-0.26,0.05-0.32l-0.05-0.26l0-0.1L248.23,517.21z"/>
		<path class="st1" d="M253.43,517.64c-0.03-0.06-0.04-0.11-0.05-0.16c0-0.01-0.01-0.05-0.01-0.1c0-0.03,0-0.06-0.01-0.08
			c0-0.02-0.01-0.06-0.03-0.13c-0.02-0.11-0.06-0.32-0.12-0.63c0,0-0.01-0.05-0.02-0.15c-0.01-0.04-0.01-0.08-0.02-0.11
			c-0.01-0.05-0.02-0.1-0.03-0.15c-0.04-0.16-0.07-0.24-0.07-0.24l-0.04-0.27l-0.06-0.26l-0.04-0.26l-0.06-0.2l-0.01-0.25
			l-0.02-0.16c0-0.01,0-0.03,0.02-0.07c0.01-0.01,0.01-0.02,0.01-0.03c0-0.01-0.01-0.02-0.02-0.03c-0.01-0.01-0.04-0.01-0.1-0.01
			l-0.24-0.03l-0.08,0.04c-0.03,0.01-0.05,0.02-0.06,0.02l-0.32,0.05c-0.06,0.01-0.12,0.04-0.17,0.08l-0.04,0.03
			c0,0.01-0.01,0.02-0.01,0.05c0,0.02-0.02,0.11-0.04,0.28l-0.02,0.25c0,0.04-0.02,0.13-0.06,0.25c-0.04,0.15-0.06,0.23-0.06,0.24
			l-0.02,0.25l-0.06,0.24c-0.03,0.22-0.06,0.34-0.08,0.36c-0.02,0.03-0.04,0.04-0.06,0.05c-0.02,0-0.06,0-0.11-0.02
			c-0.06-0.03-0.13-0.13-0.21-0.3c-0.08-0.16-0.2-0.38-0.38-0.65c-0.1-0.16-0.19-0.3-0.27-0.43c-0.11-0.19-0.19-0.29-0.24-0.29
			c-0.08-0.01-0.14-0.01-0.18,0c-0.03,0.01-0.08,0.02-0.16,0.05c-0.06,0.02-0.12,0.04-0.17,0.05c-0.02,0-0.05,0.01-0.08,0.01
			l-0.14,0c-0.17,0.06-0.26,0.1-0.26,0.11c-0.01,0.03-0.01,0.06-0.01,0.1c0,0.01,0.01,0.03,0.03,0.07l0.06,0.11l0.05,0.25l0.05,0.2
			c0.04,0.21,0.08,0.38,0.12,0.51c0.02,0.06,0.03,0.11,0.03,0.14c0,0.03,0.01,0.07,0.01,0.12c0,0.07,0,0.1,0.01,0.11l0.1,0.4
			l0.04,0.26l0.05,0.26l0.03,0.26l0.06,0.2c0.01,0.17,0.02,0.31,0.02,0.41c-0.01,0.03-0.01,0.05-0.01,0.06
			c0,0.02,0.02,0.05,0.06,0.08c0.02,0.01,0.03,0.02,0.05,0.02l0.1-0.03l0.18-0.01c0.06-0.04,0.09-0.06,0.09-0.06
			c0.02-0.02,0.04-0.04,0.04-0.07c0.01-0.04,0.01-0.06,0.01-0.07l-0.04-0.1l-0.03-0.23c0-0.01-0.01-0.04-0.04-0.09
			c-0.01-0.02-0.03-0.09-0.06-0.2c-0.02-0.07-0.03-0.12-0.04-0.13l-0.06-0.39c0-0.01-0.01-0.02-0.01-0.04
			c-0.03-0.1-0.05-0.16-0.05-0.16c-0.03-0.3-0.05-0.46-0.05-0.49c-0.01-0.06,0.01-0.11,0.04-0.13c0.02-0.02,0.04-0.03,0.05-0.03
			c0.03,0,0.06,0.01,0.09,0.03c0.02,0.02,0.1,0.12,0.23,0.3l0.1,0.22c0.02,0.04,0.06,0.11,0.13,0.2c0.13,0.17,0.22,0.3,0.27,0.39
			c0.09,0.16,0.15,0.25,0.2,0.27c0.03,0.02,0.07,0.02,0.12,0.02c0.17-0.02,0.26-0.03,0.29-0.04c0.03-0.01,0.07-0.03,0.11-0.06
			c0.03-0.02,0.05-0.06,0.05-0.11c0-0.06,0.02-0.16,0.05-0.28c0.04-0.18,0.08-0.36,0.1-0.56c0.05-0.38,0.08-0.59,0.09-0.61
			c0.01-0.03,0.03-0.05,0.06-0.08c0.03-0.03,0.05-0.04,0.07-0.04c0.03,0,0.06,0.02,0.11,0.07c0.07,0.09,0.11,0.14,0.11,0.17
			l0.01,0.22l0.06,0.28l0.05,0.36c0,0.01,0.02,0.07,0.06,0.21c0.01,0.04,0.02,0.07,0.02,0.1c0.01,0.04,0.01,0.07,0.01,0.11
			c0,0.11,0,0.16,0,0.17l0.05,0.22c0,0,0,0.01,0,0.02c-0.01,0.03-0.01,0.04-0.01,0.05c0,0,0.02,0.02,0.06,0.05
			c0.03,0.03,0.05,0.05,0.06,0.05c0.02,0.01,0.03,0.01,0.05,0.01c0.01,0,0.03-0.01,0.05-0.02c0.07-0.03,0.12-0.05,0.14-0.05
			l0.54-0.08c0.04-0.01,0.07-0.04,0.09-0.1c0.01-0.02,0.01-0.06,0-0.1c0-0.02,0-0.04,0-0.04l0-0.01c0,0,0,0-0.01,0
			C253.48,517.71,253.45,517.69,253.43,517.64z"/>
		<path class="st1" d="M257.89,516.97l-0.09-0.19c-0.08-0.14-0.14-0.25-0.17-0.33c-0.05-0.14-0.13-0.29-0.22-0.44
			c-0.08-0.13-0.12-0.21-0.13-0.22c-0.04-0.07-0.09-0.17-0.17-0.28c-0.06-0.09-0.11-0.16-0.15-0.22c-0.09-0.14-0.16-0.25-0.21-0.33
			l-0.14-0.22c0-0.02-0.06-0.09-0.16-0.21c-0.06-0.07-0.14-0.18-0.25-0.35l-0.17-0.2l-0.04-0.09c0,0-0.01-0.01-0.03-0.02
			c-0.04-0.02-0.07-0.03-0.11-0.03c-0.01,0-0.02,0.01-0.04,0.02c-0.04,0.02-0.1,0.03-0.17,0.05c-0.07,0.01-0.14,0.02-0.19,0.01
			c-0.03,0-0.05,0-0.07,0c-0.02,0-0.04,0.01-0.04,0.03c-0.01,0.03-0.02,0.05-0.03,0.07c-0.02,0.03-0.03,0.04-0.03,0.05
			s-0.02,0.08-0.05,0.22l-0.08,0.25l-0.07,0.25l-0.08,0.22l-0.03,0.26l-0.06,0.25l-0.03,0.18l-0.06,0.25
			c-0.05,0.3-0.07,0.46-0.07,0.47c0,0.02-0.01,0.11-0.01,0.28l-0.04,0.18l0,0.2l-0.03,0.18l-0.03,0.24
			c-0.03,0.09-0.04,0.14-0.04,0.15c0.02,0.11,0.05,0.17,0.09,0.16l0.11-0.04l0.21,0c0.01,0,0.05-0.03,0.12-0.08l0.01-0.06l0.03-0.06
			l-0.03-0.05l0-0.18l-0.03-0.04l0.02-0.26l0-0.12c0.04-0.18,0.06-0.27,0.06-0.29c-0.01-0.04,0-0.07,0.02-0.08
			c0.03-0.02,0.12-0.05,0.29-0.09l0.35-0.05l0.27-0.05l0.15,0.01l0.19-0.08c0,0,0.02,0.01,0.05,0.03c0.04,0.01,0.06,0.02,0.06,0.03
			s0,0.02-0.01,0.04c0,0.01,0,0.01,0,0.01c0,0,0,0,0,0.01c0,0,0,0.01,0,0.01l0,0l0.09,0.1c0.01,0.01,0.03,0.09,0.08,0.25
			c0.01,0.02,0.02,0.05,0.03,0.09c0.05,0.12,0.08,0.2,0.09,0.24c0.06,0.2,0.1,0.3,0.13,0.31c0.04,0.01,0.07,0.01,0.11,0.01
			c0.01,0,0.02,0,0.03-0.01c0.18-0.05,0.27-0.08,0.29-0.08c0.04-0.01,0.09-0.01,0.14,0c0.07,0.01,0.11,0.01,0.13,0.01
			c0.03-0.01,0.09-0.03,0.18-0.08c0.03-0.02,0.05-0.03,0.06-0.04c0.01-0.02,0.02-0.04,0.02-0.06c0,0-0.01-0.03-0.04-0.09
			L257.89,516.97z M256.21,515.96l-0.27,0.04l-0.27,0.06l-0.27,0.04l-0.03,0.01c-0.03,0-0.05-0.02-0.07-0.06l-0.02-0.04l0.06-0.25
			l0.05-0.26l0.03-0.08l0.02-0.26l0.08-0.25c0.03-0.11,0.05-0.17,0.06-0.17c0,0,0.01,0,0.01,0c0.02,0.01,0.03,0.01,0.03,0.01
			c0.01,0,0.02-0.01,0.03-0.01l0.13,0.23l0.15,0.21l0.02,0.07l0.15,0.21l0.04,0.09l0.15,0.21c0,0.01,0.01,0.02,0.01,0.04
			c0,0.02,0.01,0.03,0.01,0.04c0.01,0.01,0.01,0.02,0.01,0.03C256.31,515.91,256.28,515.93,256.21,515.96z"/>
		<path class="st1" d="M261.48,512.98c-0.04-0.08-0.07-0.12-0.1-0.14c-0.03-0.02-0.05-0.03-0.06-0.03l-0.24,0.06
			c-0.07,0.02-0.11,0.03-0.12,0.04c-0.01,0.01-0.03,0.05-0.05,0.1l0.04,0.06l0,0.08c0,0,0.02,0.03,0.05,0.07l0.04,0.25l0.08,0.34
			c0,0,0,0.05,0.01,0.15c0,0.04,0.01,0.08,0.01,0.12l0.03,0.16c0.07,0.35,0.1,0.54,0.11,0.56c0.01,0.08,0,0.13-0.05,0.14
			c-0.01,0-0.04,0-0.09-0.02c-0.02-0.01-0.09-0.07-0.22-0.18l-0.2-0.17c-0.03-0.03-0.09-0.1-0.16-0.21
			c-0.09-0.12-0.14-0.18-0.15-0.19l-0.2-0.17l-0.18-0.19l-0.11-0.09c-0.23-0.19-0.36-0.31-0.39-0.34c-0.08-0.1-0.13-0.16-0.16-0.17
			c-0.03-0.01-0.05-0.02-0.06-0.03c-0.03-0.02-0.05-0.03-0.07-0.03c-0.01,0-0.02,0.01-0.04,0.01c-0.04,0.02-0.06,0.03-0.07,0.03
			l-0.53,0.08c-0.03,0.01-0.06,0.03-0.08,0.06c-0.03,0.04-0.04,0.07-0.04,0.09l0.02,0.06l0,0.07c0,0.01,0.02,0.03,0.05,0.07
			c0.03,0.04,0.05,0.1,0.07,0.19c0.02,0.09,0.03,0.18,0.03,0.26c0.02,0.21,0.03,0.33,0.03,0.36c0,0.01,0.02,0.07,0.04,0.16
			c0.01,0.05,0.02,0.09,0.03,0.13c0.01,0.03,0.01,0.07,0.02,0.13c0.01,0.06,0.01,0.11,0.02,0.13c0.01,0.04,0.02,0.09,0.03,0.13
			c0.04,0.14,0.06,0.21,0.06,0.21l0.03,0.31l0.06,0.28c0.02,0.19,0.04,0.33,0.06,0.43c0.02,0.09,0.03,0.18,0.04,0.26
			c0.01,0.08,0.01,0.13,0,0.16c-0.01,0.02-0.01,0.03-0.01,0.04c0,0.01,0.02,0.03,0.07,0.08c0.02,0.02,0.03,0.03,0.04,0.03
			c0.01,0,0.1,0,0.27-0.01c0.06-0.04,0.1-0.07,0.1-0.07c0.02-0.01,0.03-0.02,0.03-0.02c0,0,0-0.02,0.01-0.07l0.01-0.07
			c0,0-0.01-0.01-0.02-0.04c-0.03-0.09-0.08-0.21-0.13-0.35l-0.02-0.21l-0.07-0.24l-0.03-0.24l-0.04-0.24l-0.03-0.24l-0.07-0.33
			c-0.01-0.08-0.01-0.17,0.01-0.28c0.01-0.05,0.03-0.08,0.05-0.08c0.01,0,0.04,0,0.09,0.02c0.04,0.01,0.08,0.03,0.11,0.06
			c0.02,0.02,0.1,0.08,0.23,0.19l0.16,0.2l0.2,0.17l0.2,0.22l0.23,0.19l0.2,0.22c0.02,0,0.04,0,0.05,0.02l0.12,0.19
			c0.02,0.04,0.08,0.1,0.18,0.19c0.1,0.09,0.16,0.15,0.19,0.18c0.1,0.12,0.16,0.18,0.19,0.2c0.02,0.01,0.04,0.02,0.07,0.02
			c0.02,0,0.15-0.01,0.4-0.04c0.02,0,0.04-0.03,0.07-0.08l0.04-0.04l-0.02-0.08l-0.02-0.25l-0.06-0.24l-0.01-0.25l-0.11-0.36
			l-0.01-0.12c0-0.03,0-0.07-0.01-0.1c-0.01-0.03-0.02-0.08-0.03-0.15c-0.01-0.06-0.03-0.14-0.05-0.24l-0.04-0.24l-0.03-0.16
			c0-0.03-0.01-0.13-0.02-0.32l-0.08-0.25c-0.01-0.14-0.03-0.29-0.05-0.47C261.47,513.04,261.48,512.99,261.48,512.98z"/>
		<path class="st1" d="M266.57,513.95l0.02-0.07c0-0.02-0.03-0.04-0.08-0.07c-0.04-0.02-0.08-0.03-0.12-0.02l-0.25,0.06l-0.23,0.01
			c-0.22,0.04-0.34,0.07-0.35,0.08c-0.03,0.02-0.05,0.06-0.04,0.1c0,0.01,0.01,0.02,0.01,0.03c0.01,0.02,0.02,0.04,0.03,0.07
			c0.01,0.03,0.04,0.08,0.09,0.15c0.04,0.05,0.06,0.1,0.07,0.15l0.04,0.32l0.06,0.22c0.01,0.03,0,0.12-0.04,0.29
			c-0.01,0.07-0.08,0.14-0.19,0.22c-0.09,0.06-0.21,0.1-0.37,0.13c-0.1,0.02-0.16,0.02-0.18,0.01l-0.26-0.09
			c-0.01,0.01-0.02,0.02-0.02,0.02c0,0-0.01,0-0.01,0c0,0-0.01,0-0.02-0.01c-0.02-0.01-0.08-0.06-0.17-0.15
			c-0.13-0.14-0.21-0.21-0.21-0.22c-0.03-0.05-0.08-0.14-0.14-0.26c-0.08-0.14-0.11-0.22-0.12-0.23l-0.06-0.37l-0.06-0.22l0.03-0.28
			c0,0-0.01-0.01-0.02-0.03c-0.02-0.02-0.03-0.04-0.03-0.06c0-0.01,0.02-0.08,0.07-0.2l0.06-0.25l0.04-0.01l0.1-0.24l0.18-0.19
			l0.02-0.04c0.01-0.02,0.05-0.05,0.1-0.08c0.05-0.02,0.15-0.07,0.33-0.15l0.17,0.02c0.05,0,0.1,0,0.15,0.01
			c0.05,0.01,0.11,0.01,0.15,0.01c0.11,0.01,0.22,0.04,0.34,0.1c0.05,0.02,0.14,0.09,0.29,0.19c0.04,0.03,0.07,0.04,0.1,0.04
			c0.02,0,0.05-0.03,0.08-0.07c0.03-0.03,0.04-0.07,0.04-0.09l-0.06-0.3l-0.01-0.06c0-0.01-0.02-0.01-0.05-0.02
			c-0.01-0.02-0.02-0.03-0.02-0.04c-0.01,0-0.02-0.01-0.05-0.02l-0.1-0.04l-0.25-0.08l-0.16-0.05l-0.26,0.01l-0.2-0.01l-0.26,0.03
			c-0.04-0.02-0.06-0.03-0.07-0.03l-0.23,0.08c-0.2,0.07-0.33,0.12-0.39,0.15c-0.17,0.09-0.3,0.18-0.38,0.27
			c-0.18,0.18-0.28,0.3-0.32,0.34c-0.03,0.05-0.11,0.19-0.21,0.41l-0.05,0.26l-0.06,0.23l0,0.26l-0.02,0.27l0.09,0.25
			c0.04,0.19,0.07,0.31,0.09,0.35c0.04,0.08,0.1,0.17,0.18,0.28c0.12,0.16,0.26,0.29,0.42,0.4l0.21,0.15
			c0.04,0.03,0.12,0.06,0.24,0.09c0.12,0.03,0.19,0.05,0.22,0.07c0.01,0,0.01,0.01,0.02,0c0.01,0,0.01-0.01,0.02-0.04
			c0.01-0.01,0.01-0.01,0.01-0.01s0.01,0,0.02,0.01c0.05,0.03,0.15,0.05,0.33,0.07c0.08,0.01,0.12,0.01,0.13,0.01
			c0.01,0,0.1-0.02,0.29-0.05l0.16,0.01l0.15-0.06l0.24-0.09l0.04-0.02l0.24-0.1c0.02-0.01,0.11-0.07,0.25-0.17
			c0.16-0.11,0.28-0.21,0.36-0.3c0.02-0.03,0.04-0.06,0.04-0.1l0.01-0.04c0,0-0.01-0.02-0.03-0.04c-0.01-0.01-0.04-0.1-0.1-0.26
			l-0.02-0.21c0-0.02-0.02-0.06-0.05-0.11l-0.01-0.03l-0.01-0.3L266.57,513.95z"/>
		<path class="st1" d="M271.13,514.66l-0.09-0.19c-0.08-0.14-0.14-0.25-0.17-0.33c-0.05-0.14-0.13-0.29-0.22-0.44
			c-0.08-0.13-0.12-0.21-0.13-0.22c-0.04-0.07-0.09-0.17-0.17-0.28c-0.06-0.09-0.11-0.16-0.15-0.22c-0.09-0.14-0.16-0.25-0.21-0.33
			l-0.14-0.22c0-0.02-0.06-0.09-0.16-0.21c-0.06-0.07-0.14-0.18-0.25-0.35l-0.17-0.2l-0.04-0.09c0,0-0.01-0.01-0.03-0.02
			c-0.04-0.02-0.07-0.03-0.11-0.03c-0.01,0-0.02,0.01-0.04,0.02c-0.04,0.02-0.1,0.03-0.17,0.05c-0.07,0.01-0.14,0.02-0.19,0.01
			c-0.03,0-0.05,0-0.07,0c-0.02,0-0.04,0.01-0.04,0.03c-0.01,0.03-0.02,0.05-0.03,0.07c-0.02,0.03-0.03,0.04-0.03,0.05
			c0,0.01-0.02,0.08-0.05,0.22l-0.08,0.25l-0.07,0.25l-0.08,0.22l-0.03,0.26l-0.06,0.25l-0.03,0.18l-0.06,0.25
			c-0.05,0.3-0.07,0.46-0.07,0.47c0,0.02-0.01,0.11-0.01,0.28l-0.04,0.18l0,0.2l-0.03,0.18l-0.03,0.24
			c-0.03,0.09-0.04,0.14-0.04,0.15c0.02,0.11,0.05,0.17,0.09,0.16l0.11-0.04l0.21,0c0.01,0,0.05-0.03,0.12-0.08l0.01-0.06l0.03-0.06
			l-0.03-0.05l0-0.18l-0.03-0.04l0.02-0.26l-0.01-0.12c0.04-0.18,0.06-0.27,0.06-0.29c-0.01-0.04,0-0.07,0.02-0.08
			c0.03-0.02,0.12-0.05,0.29-0.09l0.35-0.05l0.27-0.05l0.15,0.01l0.19-0.08c0,0,0.02,0.01,0.05,0.03c0.04,0.01,0.06,0.02,0.06,0.03
			c0,0.01,0,0.02-0.01,0.04c0,0.01,0,0.01,0,0.01c0,0,0,0,0,0.01c0,0,0,0.01,0,0.01l0,0l0.09,0.1c0.01,0.01,0.03,0.09,0.08,0.25
			c0,0.02,0.02,0.05,0.03,0.09c0.05,0.12,0.08,0.2,0.09,0.24c0.06,0.2,0.1,0.3,0.13,0.31c0.04,0.01,0.07,0.01,0.11,0.01
			c0.01,0,0.02,0,0.03-0.01c0.18-0.05,0.27-0.08,0.29-0.08c0.04-0.01,0.09-0.01,0.14,0c0.07,0.01,0.11,0.01,0.13,0.01
			c0.03,0,0.09-0.03,0.18-0.08c0.03-0.02,0.05-0.03,0.06-0.04c0.01-0.02,0.02-0.04,0.02-0.06c0,0-0.01-0.03-0.04-0.09L271.13,514.66
			z M269.46,513.65l-0.27,0.04l-0.27,0.06l-0.27,0.04l-0.03,0.01c-0.03,0-0.05-0.02-0.07-0.06l-0.02-0.04l0.06-0.25l0.05-0.26
			l0.03-0.08l0.02-0.26l0.08-0.25c0.03-0.11,0.05-0.17,0.06-0.17c0,0,0.01,0,0.01,0c0.02,0.01,0.03,0.01,0.03,0.01
			c0.01,0,0.02-0.01,0.03-0.01l0.13,0.23l0.16,0.21l0.02,0.07l0.15,0.21l0.04,0.09l0.15,0.21c0,0.01,0.01,0.02,0.01,0.04
			c0,0.02,0.01,0.03,0.01,0.04c0.01,0.01,0.01,0.02,0.01,0.03C269.56,513.6,269.53,513.62,269.46,513.65z"/>
		<path class="st1" d="M275.11,513.59l-0.13-0.21c-0.16-0.3-0.29-0.5-0.38-0.59c-0.13-0.13-0.19-0.2-0.2-0.21
			c-0.02-0.03-0.04-0.06-0.04-0.08c0-0.02,0-0.04,0.02-0.06c0.05-0.05,0.1-0.1,0.14-0.16c0.13-0.13,0.2-0.2,0.21-0.21
			c0.01-0.02,0.04-0.12,0.1-0.3l0.03-0.08l-0.02-0.26l0-0.2c0-0.01-0.06-0.09-0.18-0.26c-0.09-0.12-0.23-0.19-0.42-0.22
			c-0.15-0.02-0.23-0.04-0.22-0.05c-0.01,0-0.01-0.01-0.01-0.01c0,0-0.01,0-0.01,0.01c-0.02,0.01-0.03,0.02-0.04,0.02
			c-0.04,0.01-0.11,0-0.24-0.01c-0.05,0-0.09,0-0.13,0c-0.03,0.01-0.08,0.02-0.13,0.03c-0.14,0.04-0.25,0.06-0.34,0.08
			c-0.05,0.01-0.1,0.01-0.17,0.02c-0.11,0-0.17,0.01-0.17,0.01l-0.33,0.08c-0.17,0.02-0.34,0.04-0.51,0.07
			c-0.04-0.01-0.06-0.01-0.08-0.01c-0.01,0-0.03,0.03-0.05,0.08l-0.03,0.06l0.02,0.06l0,0.1c0,0,0.01,0.02,0.03,0.05
			c0.02,0.03,0.04,0.11,0.06,0.23c0,0.05,0.02,0.12,0.05,0.22c0.03,0.08,0.04,0.13,0.04,0.15l0.04,0.37l0.05,0.26l0.03,0.26
			l0.06,0.31c0.01,0.06,0.01,0.13,0.01,0.22c0,0.07,0,0.12,0,0.13l0.11,0.39l0,0.21l0.04,0.25l-0.01,0.16l0.02,0.06l0.02,0.07
			c0.01,0,0.02,0.01,0.04,0.01c0.03,0,0.07,0.01,0.12,0.02l0.21-0.06l0.22-0.02l0.22-0.05l0.1,0c0.02,0,0.04-0.02,0.05-0.06
			c0.01-0.03,0.01-0.08,0-0.14l-0.01-0.04l-0.13-0.42l-0.02-0.14c-0.04-0.24-0.06-0.39-0.07-0.46c0-0.06-0.01-0.13,0-0.22
			c0-0.04,0.03-0.07,0.09-0.08c0.07-0.01,0.11-0.02,0.12-0.03l0.12-0.06l0.05,0.01l0.04,0l0.04,0.03l0.05,0
			c0.01,0,0.02,0.02,0.04,0.06c0.01,0.01,0.03,0.03,0.07,0.06c0.03,0.02,0.08,0.1,0.14,0.22c0.02,0.04,0.04,0.07,0.05,0.09
			l0.17,0.19l0.02,0.09c0.01,0.03,0.04,0.11,0.11,0.23c0.05,0.08,0.08,0.16,0.09,0.24c0.02,0.1,0.04,0.16,0.07,0.19
			c0.05,0.05,0.09,0.08,0.11,0.07l0.06-0.02l0.22-0.04l0.31-0.08c0.02-0.01,0.06,0,0.12,0.01c0.03,0,0.05,0,0.07,0
			c0.01,0,0.02-0.01,0.03-0.01c0.01-0.01,0.02-0.03,0.03-0.08c0.03-0.05,0.04-0.08,0.04-0.09c0-0.01-0.01-0.03-0.03-0.05
			C275.26,513.94,275.19,513.8,275.11,513.59z M273.95,511.86c-0.01,0.11-0.03,0.19-0.07,0.25c-0.02,0.03-0.1,0.12-0.25,0.25
			c-0.05,0.05-0.1,0.08-0.15,0.11c-0.21,0.09-0.33,0.14-0.35,0.14c-0.01,0-0.03,0-0.04-0.01c-0.03-0.02-0.04-0.03-0.05-0.03
			c-0.01,0-0.04-0.01-0.08-0.01l0.01-0.11l-0.04-0.21l-0.03-0.25l-0.08-0.26c-0.01-0.03,0-0.11,0.01-0.25
			c0.01-0.08,0.05-0.15,0.12-0.19c0.07-0.05,0.14-0.07,0.21-0.09c0.02,0,0.04,0,0.07,0c0.14,0.02,0.21,0.03,0.23,0.02
			c0.01,0,0.03-0.02,0.03-0.06l0.23,0.12c0.03,0,0.05,0,0.06,0.01c0.03,0.04,0.09,0.16,0.17,0.36L273.95,511.86z"/>
		<path class="st1" d="M279.48,513.21l-0.09-0.19c-0.08-0.14-0.14-0.25-0.17-0.33c-0.05-0.14-0.13-0.29-0.22-0.44
			c-0.08-0.13-0.12-0.21-0.13-0.22c-0.04-0.07-0.09-0.17-0.17-0.28c-0.06-0.09-0.11-0.16-0.15-0.22c-0.09-0.14-0.16-0.25-0.21-0.33
			l-0.14-0.22c0-0.02-0.06-0.09-0.16-0.21c-0.06-0.07-0.14-0.18-0.25-0.35l-0.17-0.2l-0.04-0.09c0,0-0.01-0.01-0.03-0.02
			c-0.04-0.02-0.07-0.03-0.11-0.03c-0.01,0-0.02,0.01-0.04,0.02c-0.04,0.02-0.1,0.03-0.17,0.05c-0.07,0.01-0.14,0.02-0.19,0.01
			c-0.03,0-0.05,0-0.07,0c-0.02,0-0.04,0.01-0.04,0.03c-0.01,0.03-0.02,0.05-0.03,0.07c-0.02,0.03-0.03,0.04-0.03,0.05
			c0,0.01-0.02,0.08-0.05,0.22l-0.08,0.25l-0.07,0.25l-0.08,0.22l-0.03,0.26l-0.06,0.25l-0.03,0.18l-0.06,0.25
			c-0.05,0.3-0.07,0.46-0.07,0.47s-0.01,0.11-0.01,0.28l-0.04,0.18l0,0.2l-0.03,0.18l-0.03,0.24c-0.03,0.09-0.04,0.14-0.04,0.15
			c0.02,0.11,0.05,0.17,0.09,0.16l0.11-0.04l0.21,0c0.01,0,0.05-0.03,0.12-0.08l0.01-0.06l0.03-0.06l-0.03-0.05l0-0.18l-0.03-0.04
			l0.02-0.26l-0.01-0.12c0.04-0.18,0.06-0.27,0.06-0.29c-0.01-0.04,0-0.07,0.02-0.08c0.03-0.02,0.12-0.05,0.29-0.09l0.35-0.05
			l0.27-0.05l0.15,0.01l0.19-0.08c0,0,0.02,0.01,0.05,0.03c0.04,0.01,0.06,0.02,0.06,0.03c0,0.01,0,0.02-0.01,0.04
			c0,0.01,0,0.01,0,0.01c0,0,0,0,0,0.01c0,0,0,0.01,0,0.01l0,0l0.09,0.1c0.01,0.01,0.03,0.09,0.08,0.25c0,0.02,0.02,0.05,0.03,0.09
			c0.05,0.12,0.08,0.2,0.09,0.24c0.06,0.2,0.1,0.3,0.13,0.31c0.04,0.01,0.07,0.01,0.11,0.01c0.01,0,0.02,0,0.03-0.01
			c0.18-0.05,0.27-0.08,0.29-0.08c0.04-0.01,0.09-0.01,0.14,0c0.07,0.01,0.11,0.01,0.13,0.01c0.03-0.01,0.09-0.03,0.18-0.08
			c0.03-0.02,0.05-0.03,0.06-0.04c0.01-0.02,0.02-0.04,0.02-0.05c0,0-0.01-0.03-0.04-0.09L279.48,513.21z M277.81,512.19l-0.27,0.04
			l-0.27,0.06l-0.27,0.04l-0.03,0.01c-0.03,0-0.05-0.02-0.07-0.06l-0.02-0.04l0.06-0.25l0.05-0.26l0.03-0.08l0.02-0.26l0.08-0.25
			c0.03-0.11,0.05-0.17,0.06-0.17c0,0,0.01,0,0.01,0c0.02,0.01,0.03,0.01,0.03,0.01c0.01,0,0.02-0.01,0.03-0.01l0.13,0.23l0.16,0.21
			l0.02,0.07l0.15,0.21l0.04,0.09l0.15,0.21c0,0.01,0.01,0.02,0.01,0.04c0,0.02,0.01,0.03,0.01,0.04c0.01,0.01,0.01,0.02,0.01,0.03
			C277.91,512.14,277.88,512.17,277.81,512.19z"/>
		<path class="st1" d="M282.52,509.44l-0.02-0.14c0-0.01-0.03-0.03-0.08-0.05c-0.05-0.03-0.14-0.03-0.24-0.02
			c-0.04,0.01-0.08,0.02-0.14,0.03c-0.06,0.02-0.09,0.03-0.09,0.03l-0.6,0.09c0,0-0.04,0.01-0.1,0.03c-0.06,0.02-0.1,0.03-0.13,0.03
			l-0.4,0.06l-0.26,0.05c-0.03,0.01-0.12,0.02-0.27,0.03c-0.06,0.01-0.11,0.01-0.16,0.02c-0.04,0.01-0.08,0.02-0.1,0.03
			c-0.05,0.02-0.07,0.03-0.07,0.03l-0.27,0.01l-0.01,0.01c-0.01,0.02-0.02,0.04-0.03,0.04c-0.04,0.02-0.06,0.03-0.06,0.04
			c-0.01,0.01-0.01,0.03,0,0.06c0.01,0.08,0.01,0.15,0.01,0.21c0,0.02,0,0.04,0,0.05c0,0.01,0.01,0.02,0.01,0.03
			c0,0.01,0.03,0.02,0.08,0.05c0.05,0.03,0.07,0.04,0.08,0.04l0.07-0.03l0.13-0.06c0,0,0.02-0.01,0.04-0.04
			c0.04-0.04,0.07-0.06,0.08-0.07l0.36-0.05c0,0,0.01-0.01,0.03-0.02c0.03-0.02,0.05-0.03,0.06-0.04c0,0,0.03,0,0.08,0.01
			c0.02,0,0.03,0.01,0.04,0.01c0.01,0,0.02,0.03,0.03,0.07l0.05,0.08l0.03,0.26l0.05,0.26l0.02,0.26l0.04,0.25l0.04,0.26l0.06,0.25
			l0.02,0.26l0.07,0.25l0.03,0.26l0.03,0.21l0,0.26c0.01,0.12,0.01,0.2,0,0.22c0,0.01,0,0.02,0,0.03c0,0.01,0.01,0.02,0.02,0.03
			c0.01,0.01,0.04,0.01,0.09,0.01l0.09,0.03l0.22-0.06l0.22-0.03l0.22-0.04c0.05,0.01,0.07,0.01,0.08,0.01
			c0.01,0,0.03-0.03,0.05-0.08l0.04-0.06l-0.04-0.06l0-0.05l-0.05-0.11l-0.04-0.38c0,0-0.01-0.03-0.03-0.07
			c-0.02-0.05-0.04-0.11-0.05-0.18c-0.04-0.22-0.07-0.42-0.08-0.59c-0.01-0.14-0.02-0.23-0.03-0.25c0-0.02-0.02-0.1-0.06-0.26
			c-0.01-0.04-0.02-0.07-0.02-0.1c-0.01-0.03-0.01-0.09-0.02-0.15c-0.01-0.08-0.01-0.14-0.02-0.16l-0.07-0.38
			c-0.02-0.19-0.02-0.3-0.01-0.33c0.01-0.04,0.03-0.07,0.05-0.07l0.08-0.01l0.05-0.02l0.23-0.02c0.01,0,0.02-0.01,0.05-0.03
			c0.02-0.01,0.03-0.02,0.04-0.02c0.02,0,0.05,0,0.11,0.02c0.11,0.03,0.18,0.06,0.22,0.07c0.01,0,0.02,0.01,0.02,0
			c0,0,0.01,0,0.01-0.01c0.02-0.01,0.04-0.02,0.07-0.03c0.05-0.01,0.08-0.03,0.09-0.05c0.01-0.03,0.02-0.07,0.01-0.1
			c0-0.01-0.01-0.02-0.02-0.04C282.54,509.48,282.52,509.45,282.52,509.44z"/>
		<path class="st1" d="M285.12,511.88l-0.05-0.2c-0.04-0.21-0.08-0.38-0.12-0.51c-0.02-0.06-0.03-0.11-0.03-0.14
			c-0.01-0.03-0.01-0.07-0.01-0.12c0-0.06-0.01-0.1-0.01-0.11l-0.1-0.41l-0.04-0.26l-0.05-0.26l-0.03-0.26l-0.06-0.2
			c-0.01-0.17-0.02-0.31-0.02-0.41c0.01-0.04,0.01-0.06,0.01-0.07c0-0.01-0.02-0.03-0.05-0.06c-0.02-0.02-0.05-0.03-0.06-0.03
			l-0.1,0.03l-0.22,0.02l-0.21,0.07l-0.22,0.03c-0.1,0.02-0.15,0.06-0.14,0.14c0,0.03,0,0.06-0.01,0.06c0,0.01,0,0.02,0,0.03
			c0,0,0,0.01,0.01,0.01c0.05,0.06,0.07,0.09,0.07,0.09l0.05,0.32c0,0.01,0.02,0.06,0.06,0.14c0.02,0.05,0.04,0.1,0.05,0.15
			c0.01,0.03,0.01,0.06,0.01,0.1c0.01,0.15,0.01,0.22,0.01,0.22l0.08,0.29l0.04,0.26l0.07,0.25l0.03,0.26l0.06,0.26l0.04,0.39
			c0,0,0.01,0.03,0.02,0.08c0.01,0.04,0.02,0.08,0.03,0.11c0.02,0.11,0.02,0.21,0.02,0.3c0,0.03,0,0.06,0,0.07
			c0,0.02,0.01,0.03,0.03,0.05c0.01,0.02,0.05,0.02,0.12,0.02c0.1,0,0.16-0.01,0.19-0.01c0.02,0,0.05-0.01,0.08-0.03
			c0.06-0.02,0.09-0.03,0.1-0.03l0.31-0.03l0.11-0.07c0.05-0.02,0.07-0.04,0.07-0.05c0.01-0.03,0.01-0.06,0-0.09
			c0-0.02-0.03-0.07-0.09-0.18L285.12,511.88z"/>
		<path class="st1" d="M289.22,510.04c-0.11-0.07-0.21-0.11-0.29-0.12c-0.15-0.03-0.22-0.06-0.23-0.08l0-0.04l-0.03-0.04l0.05-0.01
			l0.04-0.07l0.18-0.18l0.03-0.06l0.13-0.22l0-0.1l0.02-0.26l-0.05-0.1l-0.1-0.24c-0.05-0.05-0.1-0.09-0.16-0.14
			c-0.11-0.09-0.19-0.14-0.26-0.16c-0.12-0.02-0.33-0.02-0.64,0.01l-0.31,0.03c-0.01,0-0.08,0.02-0.23,0.05
			c-0.04,0.01-0.08,0.02-0.11,0.02c-0.04,0.01-0.09,0.01-0.17,0.02c-0.12,0.01-0.19,0.02-0.24,0.03l-0.32,0.06l-0.28,0.03
			c-0.04,0.01-0.08,0.02-0.09,0.03c-0.01,0.01-0.02,0.03-0.04,0.06c-0.03,0.06-0.04,0.1-0.04,0.12c0,0.01,0.01,0.02,0.02,0.04
			c0.06,0.17,0.11,0.36,0.15,0.57l0.06,0.26l0.04,0.26l0.05,0.26l0.05,0.4c0,0.01,0.01,0.05,0.03,0.12c0.01,0.05,0.03,0.1,0.03,0.13
			c0.01,0.04,0.01,0.08,0.01,0.12c0.01,0.16,0.02,0.24,0.02,0.24l0.06,0.28l0,0.21c0.02,0.22,0.03,0.36,0.02,0.41
			c0,0.02,0,0.03,0,0.04c0,0.01,0.02,0.03,0.07,0.07c0.03,0.03,0.05,0.05,0.05,0.05c0,0,0.01,0,0.03,0.01l0.21-0.05
			c0,0,0.04,0,0.1,0c0.03,0,0.06,0,0.09,0c0.04-0.01,0.09-0.02,0.16-0.03c0.22-0.05,0.34-0.08,0.35-0.08
			c0.04-0.01,0.09-0.01,0.14-0.01c0.09,0,0.14-0.01,0.15-0.01l0.34-0.08l0.06,0l0.25-0.05l0.24-0.04c0.01,0,0.02-0.02,0.03-0.04
			c0.01-0.01,0.08-0.04,0.24-0.1c0.07-0.04,0.16-0.12,0.29-0.25c0.08-0.08,0.14-0.21,0.18-0.38c0.01-0.06,0.02-0.09,0.02-0.1
			c0-0.01-0.01-0.1-0.04-0.28l-0.02-0.15c-0.05-0.08-0.1-0.17-0.16-0.25C289.38,510.16,289.31,510.09,289.22,510.04z M287.28,509.77
			c-0.01-0.02-0.01-0.04-0.01-0.05c0-0.01-0.01-0.04-0.01-0.08c0-0.04-0.01-0.08-0.02-0.13c-0.01-0.05-0.02-0.09-0.03-0.12
			l-0.03-0.09l-0.01-0.29l-0.02-0.11c0-0.01,0-0.02,0.01-0.04c0.02-0.03,0.08-0.07,0.19-0.1l0.22-0.08c0.22,0,0.35,0,0.38,0.03
			c0,0,0.01,0.01,0.02,0.01l0,0.03l0,0c0.04,0.01,0.09,0.05,0.15,0.14c0.04,0.06,0.06,0.12,0.08,0.18c0.01,0.08,0.01,0.17-0.03,0.28
			c-0.03,0.1-0.07,0.17-0.11,0.2l-0.2,0.16c-0.02,0.01-0.06,0.05-0.1,0.13c-0.04,0.06-0.07,0.1-0.1,0.1l-0.08,0.01l-0.05,0.02
			l-0.1,0.01c-0.02,0.02-0.03,0.03-0.04,0.03l-0.03-0.03l-0.05,0l-0.01-0.01l-0.01,0c0,0,0,0,0-0.01c0-0.01,0-0.06-0.01-0.15
			C287.29,509.79,287.28,509.78,287.28,509.77z M288.66,510.99c0,0.15-0.04,0.26-0.13,0.33c-0.04,0.03-0.12,0.1-0.26,0.19
			c-0.02,0.01-0.11,0.04-0.28,0.08l-0.05,0.02c-0.02,0.01-0.07,0-0.14-0.02c-0.04-0.01-0.08-0.01-0.13-0.02
			c-0.07,0-0.1-0.01-0.1-0.03l-0.01-0.17c0,0-0.01-0.03-0.04-0.08c-0.01-0.02-0.02-0.05-0.03-0.09c-0.01-0.05-0.01-0.09-0.01-0.14
			c0-0.1-0.01-0.16-0.01-0.19c0-0.01-0.01-0.02-0.01-0.04c-0.03-0.09-0.05-0.17-0.06-0.24c-0.01-0.04,0.01-0.09,0.06-0.14
			c0.05-0.05,0.1-0.09,0.16-0.1c0.03-0.01,0.07-0.01,0.13-0.01c0.03,0,0.07-0.01,0.09-0.01c0.07-0.01,0.11-0.04,0.14-0.08
			c0.02-0.04,0.04-0.06,0.04-0.06l0.04,0.01c0.05,0,0.09,0,0.12,0.01c0.01,0.01,0.09,0.06,0.24,0.16l0,0l0,0
			c0-0.01,0.01-0.02,0.01-0.03l0.17,0.22c0.04,0,0.06,0.02,0.07,0.06C288.66,510.65,288.66,510.77,288.66,510.99z"/>
		<path class="st1" d="M294,510.67l-0.09-0.19c-0.08-0.14-0.14-0.25-0.17-0.33c-0.05-0.14-0.13-0.29-0.22-0.44
			c-0.08-0.13-0.12-0.21-0.13-0.22c-0.04-0.07-0.09-0.17-0.17-0.28c-0.06-0.09-0.11-0.16-0.15-0.22c-0.09-0.14-0.16-0.25-0.21-0.33
			l-0.14-0.22c0-0.02-0.06-0.09-0.16-0.21c-0.06-0.07-0.14-0.18-0.25-0.35l-0.17-0.2l-0.04-0.09c0,0-0.01-0.01-0.03-0.02
			c-0.04-0.02-0.07-0.03-0.11-0.03c-0.01,0-0.02,0.01-0.04,0.02c-0.04,0.02-0.1,0.03-0.17,0.05c-0.07,0.01-0.14,0.02-0.19,0.01
			c-0.03,0-0.05,0-0.07,0c-0.02,0-0.04,0.01-0.04,0.03c-0.01,0.03-0.02,0.05-0.03,0.07c-0.02,0.03-0.03,0.04-0.03,0.05
			s-0.02,0.08-0.05,0.22l-0.08,0.25l-0.07,0.25l-0.08,0.22l-0.03,0.26l-0.06,0.25l-0.03,0.18l-0.06,0.25
			c-0.05,0.3-0.07,0.46-0.07,0.47c0,0.02-0.01,0.11-0.01,0.28l-0.04,0.18l0,0.2l-0.03,0.18l-0.03,0.24
			c-0.03,0.09-0.04,0.14-0.04,0.15c0.02,0.11,0.05,0.17,0.09,0.16l0.11-0.04l0.21,0c0.01,0,0.05-0.03,0.12-0.08l0.01-0.06l0.03-0.06
			l-0.03-0.05l0-0.18l-0.03-0.04l0.02-0.26l-0.01-0.12c0.04-0.18,0.06-0.27,0.06-0.29c-0.01-0.04,0-0.07,0.02-0.08
			c0.03-0.02,0.12-0.05,0.29-0.09l0.35-0.05l0.27-0.05l0.15,0.01l0.19-0.08c0,0,0.02,0.01,0.05,0.03c0.04,0.01,0.06,0.02,0.06,0.03
			s0,0.02-0.01,0.04c0,0.01,0,0.01,0,0.01c0,0,0,0,0,0.01c0,0,0,0.01,0,0.01l0,0l0.09,0.1c0.01,0.01,0.03,0.09,0.08,0.25
			c0,0.02,0.02,0.05,0.03,0.09c0.05,0.12,0.08,0.2,0.09,0.24c0.06,0.2,0.1,0.3,0.13,0.31c0.04,0.01,0.07,0.01,0.11,0.01
			c0.01,0,0.02,0,0.03-0.01c0.18-0.05,0.27-0.08,0.29-0.08c0.04-0.01,0.09-0.01,0.14,0c0.07,0.01,0.11,0.01,0.13,0.01
			c0.03,0,0.09-0.03,0.18-0.08c0.03-0.02,0.05-0.03,0.06-0.04c0.01-0.02,0.02-0.04,0.02-0.06c0,0-0.01-0.03-0.04-0.09L294,510.67z
			 M292.33,509.66l-0.27,0.04l-0.27,0.06l-0.27,0.04l-0.03,0.01c-0.03,0-0.05-0.02-0.07-0.06l-0.02-0.04l0.06-0.25l0.05-0.26
			l0.03-0.08l0.02-0.26l0.08-0.25c0.03-0.11,0.05-0.17,0.06-0.17c0,0,0.01,0,0.01,0c0.02,0.01,0.03,0.01,0.03,0.01
			c0.01,0,0.02-0.01,0.03-0.01l0.13,0.23l0.16,0.21l0.02,0.07l0.15,0.21l0.04,0.09l0.15,0.21c0,0.01,0.01,0.02,0.01,0.04
			c0,0.02,0.01,0.03,0.01,0.04c0.01,0.01,0.01,0.02,0.01,0.03C292.43,509.61,292.39,509.64,292.33,509.66z"/>
		<path class="st1" d="M270.58,495.91c-2.69-2.15-6.36-2.73-9.67-3.13c-1.42-0.17-2.97,0.02-4.37-0.47
			c-3.57,0.54-7.07,1.31-10.64,1.9c-0.34,0.09-0.68,0.18-1.02,0.26c-0.34,0.17-0.67,0.37-1.03,0.49c-4.83,1.59-9.91,4.45-12.17,9.15
			c-0.29,0.6-0.71,1.16-1.08,1.74c-0.05,0.12-0.1,0.24-0.15,0.36c-0.74,2.16-1.29,4.42-1.83,6.96c0.09,0.28,0.17,0.57,0.53,0.63
			c3.6-0.64,7.16-1.66,10.81-1.93c2.66-0.2,7.6-1.35,11.41-2.02c5.21-0.91,10.44-1.81,15.66-2.7c0.56-0.46,7.58-1.3,11.37-1.95
			c0.37-0.86-0.45-1.23-0.78-1.74C275.69,500.52,273.25,498.05,270.58,495.91z M258.48,502.77l-0.39-0.05l-1.51-0.09l-0.61,0.05
			l-0.43,0.24l-0.79,0.57l-0.36,0.33l-0.75,0.62l-0.44,0.23l-0.06,0.02l-0.53-0.07l-0.49-0.21l-0.5-0.17l-2.04-0.52l-0.17-0.01
			l-0.44,0.29l-0.47,0.23l-0.43,0.31l-0.51,0.15l-0.15-0.22l0.23-0.53l0.39-0.39l0.38-0.39l0.4-0.38l0.34-0.43l0.19-0.06l0.54,0.13
			l3.03,1.27l0.17,0.02l0.35-0.37l0.72-0.73l1.11-1.06l0.34-0.39l0.2,0.11l0.47,0.22l1.44,0.57l0.49,0.17l0.48,0.2L258.48,502.77z"
			/>
		<path class="st1" d="M282.42,489.42C282.42,489.41,282.42,489.41,282.42,489.42c-0.02-0.03-0.04-0.04-0.07-0.07
			C282.38,489.37,282.39,489.39,282.42,489.42z"/>
		<path class="st1" d="M279.3,494.14c0.04,0.02,0.05,0.03,0.09,0.05c0,0,0,0,0,0c0,0,0,0,0-0.01
			C279.39,494.18,279.3,494.14,279.3,494.14z"/>
		<path class="st1" d="M285.13,484.38c0.04,0.32-0.02,0.59-0.31,0.78c-0.06,0.11-0.13,0.21-0.19,0.32
			c-0.12,0.16-0.24,0.32-0.36,0.48c0,0,0.07,0,0.07,0c-0.09,0.54-0.28,1.04-0.75,1.37c0,0,0,0.11,0,0.11
			c-0.11,0.83-0.57,1.44-1.17,1.98c-0.95,1.63-1.65,3.42-3.03,4.78c-0.14,0.58-0.39,1.1-0.83,1.53c0.01-0.01,0.01-0.01,0.02-0.01
			c0.02,0.81-0.54,1.21-1.14,1.58c0.08,0.21,0.17,0.42,0.25,0.63c0,0,0.06,0.14,0.06,0.14s0.04,0.04,0.04,0.04
			c1.13,0.04,1.9-0.64,2.39-1.46c1.01-1.69,1.82-3.4,3.2-4.95c1.89-2.12,3.47-4.75,4.81-7.24c1.09-2.02,2.06-4.06,2.92-6.13
			l-1.09-6.27c-0.09,0.32-0.18,0.62-0.28,0.92C288.54,476.78,287.3,480.86,285.13,484.38z"/>
		<path class="st1" d="M285.12,484.4c0-0.01,0.01-0.01,0.01-0.02c0-0.01,0-0.02,0-0.03C285.13,484.35,285.12,484.4,285.12,484.4z"/>
		<path class="st1" d="M278.34,485.97c0.01,0,0.01-0.01,0.02-0.01c0,0,0-0.01,0.01-0.01C278.37,485.94,278.34,485.97,278.34,485.97z
			"/>
		<path class="st1" d="M283.05,472.87c-0.01,0.17-0.01,0.33-0.02,0.5c-0.15,1.4-0.32,2.79-0.87,4.1c-0.08,0.69-0.38,1.29-0.72,1.87
			c-0.36,1.51-0.69,3.03-1.79,4.23c0,0,0.02,0,0.02,0c-0.17,0.75-0.47,1.43-1.04,1.96c0,0-0.01-0.02-0.01-0.02
			c0.02,0.22-0.07,0.36-0.27,0.44c-0.08,0.14-0.16,0.28-0.24,0.43c0,0,0.03,0.03,0.03,0.03c-0.83,2.4-2.6,4.4-3.73,6.69
			c0,0.04,0,0.07,0,0.11c-0.09,0.19-0.18,0.38-0.28,0.57c0.04,0.07,0.04,0.14-0.02,0.2c0.12,0.31,0.24,0.63,0.35,0.94
			c0.11,0.11,0.21,0.22,0.32,0.33c0.74,0.35,0.82-0.51,1.3-0.63c0,0.01-0.01,0.02-0.01,0.03c0.08-0.16,0.16-0.32,0.23-0.48
			c0,0-0.04,0-0.04,0c0.09-0.14,0.18-0.28,0.27-0.42c0,0,0-0.03,0-0.03c0.09-0.13,0.18-0.26,0.27-0.38c0,0,0.01-0.04,0.01-0.03
			c0.09-0.12,0.18-0.25,0.27-0.37c0,0,0-0.09,0-0.09c0.63-2.2,1.72-4.13,3.37-5.71c0,0.02,0,0.02,0,0.04
			c0.01-0.24,0.08-0.43,0.34-0.48c0,0,0.1,0.02,0.1,0.02c0.28-0.86,0.66-1.71,0.8-2.6c0.2-1.26,0.83-1.97,2.07-2.16
			c0,0,0,0.05,0,0.05c0.1-0.15,0.19-0.31,0.29-0.46c0,0-0.04,0.04-0.04,0.04c0.09-0.15,0.18-0.31,0.27-0.46c0,0-0.05,0.03-0.04,0.03
			c0.11-0.24,0.22-0.48,0.33-0.72c-0.01,0.01-0.01,0.01-0.02,0.01c0-0.35,0.13-0.65,0.41-0.87c0,0,0.03,0,0.03,0
			c-0.01-0.38,0.08-0.72,0.35-1c0,0,0,0.01,0,0.01c0.07-0.2,0.15-0.4,0.22-0.61c-0.01-0.05-0.01-0.07-0.02-0.12
			c-0.03-0.3-0.04-0.59,0.21-0.81c-0.01,0-0.01,0.01-0.02,0.01c0.19-1.44,0.52-2.85,1.06-4.2c-0.05-0.06-0.04-0.12,0.02-0.17
			c0.06-0.16,0.12-0.32,0.18-0.48c0,0-0.06,0.03-0.06,0.03c-0.04-0.29-0.01-0.55,0.21-0.76c0,0-0.02-0.01-0.02-0.01
			c0.15-1.72,0.45-3.41,0.96-5.06c0,0-0.03,0.02-0.03,0.02c-0.07-0.39-0.09-0.77,0.18-1.11c0,0-0.05,0-0.05,0
			c0.02-0.21,0.03-0.42,0.04-0.64c0.05-0.25,0.1-0.5,0.16-0.75c0.02-0.22,0.03-0.44,0.05-0.65l-1.48-8.49
			c-1.33,3.9-2.25,7.71-2.8,11.95C283.94,468.79,283.85,470.91,283.05,472.87z"/>
		<path class="st1" d="M219.22,449.68c2.33,1.14,5.41,1.43,7.83,3.29c6.78,4.21,5.89,11.81,6.06,18.49
			c0.22,8.56-0.74,15.46,5.73,21.9c0.87,0.87,1.85,0.97,2.79,0.23c-0.05-0.2-0.1-0.4-0.15-0.6c-1.9-2.74-4.34-5.72-5.01-8.87
			c-0.77-3.62-0.74-7.61-0.99-11.51c0-0.06-0.01-0.09-0.01-0.15c0.05-5.21,1.95-10.39,0.68-15.42c-0.08-0.33,0.02-0.82,0.03-1.22
			c-0.45-0.32-0.62-0.89-0.82-1.46c-0.14-0.16-0.28-0.33-0.43-0.49c0,0,0.02,0.06,0.02,0.06c-0.12-0.19-0.25-0.38-0.38-0.56
			c0.01,0.01,0.02,0.02,0.04,0.04c-0.14-0.18-0.27-0.35-0.41-0.52c0,0.02,0,0.02,0,0.04c-0.33-0.12-0.54-0.35-0.56-0.75
			c0.15-0.29,0.07-0.15-0.01-0.01c-0.37-0.04-0.58-0.28-0.69-0.63c0.02,0,0.03,0,0.04-0.01c-0.19-0.16-0.38-0.31-0.57-0.46
			c-2.07-1.86-5.01-2.54-7.59-3.36c-0.34-0.11-0.69-0.21-1.03-0.31c0,0,0.03,0.03,0.03,0.03c-0.83-0.03-1.62-0.13-2.29-0.58
			c0,0,0,0.02,0,0.02c-1.24-0.2-2.28-0.54-3.27-1.12c-0.02-0.01-0.03-0.01-0.04-0.01c-0.17-0.07-0.33-0.13-0.5-0.19
			c0.02,0.01,0.02,0.01,0.04,0.02c-0.18-0.08-0.36-0.16-0.54-0.24c0,0,0.06,0.04,0.06,0.04c-0.29-0.09-0.59-0.18-0.88-0.26
			c-0.26-0.09-0.53-0.17-0.8-0.25c-0.37-0.12-0.75-0.23-1.13-0.34c-0.1,0.02-0.19,0-0.27-0.07c-1.08-0.22-2.16-0.47-3.2-0.95
			c0,0-0.13-0.02-0.13-0.02c-0.81,0.14-1.52-0.12-2.21-0.55c0.01,0,0.01,0,0.02,0c-0.2-0.05-0.4-0.11-0.59-0.16
			c0.02,0.01,0.03,0.01,0.05,0.02c-0.2-0.06-0.4-0.11-0.61-0.17c0,0,0.06,0.03,0.06,0.03c-0.31,0.06-0.61,0.01-0.88-0.19
			c0,0,0,0,0,0c-0.18-0.06-0.36-0.12-0.53-0.17c-0.18-0.06-0.35-0.11-0.53-0.17c-0.32,0-0.59-0.12-0.8-0.35c0,0,0,0.03,0,0.03
			c-0.33-0.14-0.67-0.28-0.99-0.42c0.02,0,0.02-0.01,0.04-0.01c-0.18-0.07-0.37-0.14-0.55-0.21c0.01,0.01,0.02,0.01,0.03,0.02
			c-0.28-0.14-0.55-0.27-0.82-0.41c-0.17-0.07-0.33-0.14-0.5-0.21c0,0-0.08-0.06-0.08-0.06s-0.09-0.07-0.09-0.07
			c-0.36-0.02-0.63-0.2-0.86-0.46c0,0,0.04-0.02,0.04-0.02c-0.16-0.08-0.32-0.17-0.48-0.25c0.01,0,0.01,0.01,0.02,0.01
			c-0.3-0.04-0.51-0.21-0.66-0.46c0,0,0.03,0.02,0.03,0.02c-0.22-0.16-0.43-0.32-0.64-0.48c-0.2-0.14-0.4-0.27-0.6-0.41
			c0,0,0.05-0.01,0.05-0.01c-0.14-0.1-0.27-0.19-0.4-0.29c-0.08-0.06-0.15-0.13-0.23-0.19l0.74,4.23c2.59,1.76,5.72,2.79,8.71,3.62
			C211.59,446.81,215.57,447.9,219.22,449.68z"/>
		<path class="st1" d="M199.41,438.79c-0.01-0.01-0.02-0.02-0.02-0.02C199.38,438.77,199.41,438.79,199.41,438.79z"/>
		<polygon class="st1" points="199.38,438.76 199.38,438.76 199.38,438.77 		"/>
		<path class="st1" d="M271.37,427.9c0.27,0.27,0.53,0.54,0.79,0.81c2.29,2,4.1,4.85,5.72,7.32c1.08,1.65,2.11,3.39,2.61,5.35
			c0.46,1.22,0.77,2.48,0.6,3.78c-0.92,4.47-2.53,7.08-5.08,10.85c-0.15,0.23-0.31,0.46-0.46,0.69c-1.44,2.54-3,6.14-2.89,9.03
			c0.19,5.03-0.39,10.23-2.32,14.82c-1.2,2.85-3.29,6.08-3.96,9.27c-0.09,0.43-0.56,0.89,0.25,1.1c0.59,0.15,0.96-0.12,1.37-0.51
			c0.73-0.7,0.53-1.86,1.65-2.36c0.37-0.6,0.36-1.27,0.79-1.92c2.54-3.85,4.81-7.91,5.22-12.68c0.33-3.84,0.33-8.05,1.08-11.54
			c0.36-1.68,1.28-3.59,2.54-5.32c1.18-1.63,1.73-3.26,3.19-4.85c0.05-0.1,0.11-0.2,0.19-0.3c0.01-0.1,0.06-0.2,0.15-0.31
			c0.02-0.09,0.04-0.19,0.08-0.29c-0.18-0.1-0.08-0.28,0.2-0.52c0-0.06,0.03-0.13,0.1-0.2c1.63-4.57,1.55-6.81,0.58-11.54
			c-0.49-0.22-0.53-0.89-0.75-1.37c-1.68-3.7-3.32-6.83-5.8-9.96c-2.26-2.84-5.85-2.89-9.18-1.89
			C269.37,426.07,270.51,426.87,271.37,427.9z M279.19,454.99c1.08-1.61,2.22-3.21,3.25-5.07
			C281.76,451.79,280.41,453.41,279.19,454.99z"/>
		<path class="st1" d="M269.72,488.16c-0.03-0.05-0.04-0.07-0.07-0.12c0,0-0.01,0-0.01,0c0,0,0,0,0,0
			C269.65,488.05,269.72,488.16,269.72,488.16z"/>
		<path class="st1" d="M206.51,440.26c0,0-0.01-0.01-0.01-0.01c0,0,0,0,0,0C206.49,440.25,206.51,440.26,206.51,440.26z"/>
		<path class="st1" d="M198.26,435.53c0.01,0.01,0.01,0.01,0.02,0.02c0.16,0.15,0.33,0.3,0.5,0.45c0.17,0.14,0.35,0.28,0.53,0.41
			c0.4,0.33,0.82,0.65,1.27,0.96c0.1,0.07,0.21,0.14,0.32,0.21c0.23,0.15,0.47,0.3,0.72,0.44c0,0,0-0.03,0-0.03
			c0.34,0.05,0.65,0.21,0.9,0.49c0.19,0.12,0.39,0.24,0.59,0.36c0.34,0.17,0.69,0.35,1.04,0.52c0,0,0.13,0.09,0.13,0.09
			c0.22,0.1,0.44,0.2,0.66,0.3c0,0-0.07-0.04-0.07-0.04c0.19,0.07,0.39,0.13,0.58,0.2c0,0-0.03-0.04-0.03-0.04
			c0.39,0,0.74,0.14,1.06,0.37c0.56,0,1.09,0.19,1.62,0.46c0,0-0.01,0.02-0.01,0.02c0.3,0.06,0.61,0.11,0.91,0.17c0,0-0.04,0-0.04,0
			c0.21,0.06,0.42,0.12,0.63,0.18c0,0-0.06-0.03-0.06-0.03c0.31,0.06,0.62,0.13,0.93,0.2c-0.01,0-0.02,0-0.03-0.01
			c0.21,0.06,0.42,0.11,0.63,0.17c0,0-0.08-0.03-0.08-0.03c0.33,0.05,0.67,0.1,1,0.16c0.14,0.03,0.29,0.06,0.43,0.09
			c0.24,0.09,0.47,0.19,0.71,0.28c0,0-0.07-0.06-0.07-0.06c0.32,0.07,0.63,0.15,0.95,0.23c-0.02,0-0.03-0.01-0.05-0.01
			c0.3,0.08,0.61,0.16,0.91,0.24c0.01,0,0.02,0.01,0.04,0.01c0.2,0.05,0.4,0.11,0.6,0.17c0.28,0.06,0.57,0.12,0.84,0.19
			c0.22,0.06,0.45,0.12,0.67,0.18c6.19,1.73,13.06,2.82,18.54,6.2c2.42,1.49,3.94,3.62,4.04,6.66c1.23,1.94,0.35,4.8-0.58,7.49
			c-1.73,5.04-1.63,9.14-1.21,14.21c0.24,2.95,0.8,6.94,2.27,9.71c0.85,1.6,1.96,3.28,2.81,5.18c0.62,0.07,1.16,0.55,1.82,0.41
			c0.78-1.95-0.89-3.35-1.46-4.72c-1.61-3.91-2.12-7.74-2.94-11.64c-0.84-4.01,0.81-8.78,2.31-12.57
			c3.24-8.18,4.32-15.55-5.74-18.53c-1.79-0.53-3.72-1.1-5.64-1.61c0-0.01-0.01-0.01-0.01-0.02c-1.7-0.23-3.34-0.63-4.97-1.15
			c0,0.01-0.01,0.01-0.01,0.02c-6.91-1.46-14.41-2.51-20.81-5.4c-0.15-0.07-0.3-0.14-0.44-0.21c-0.42-0.2-0.84-0.42-1.24-0.63
			c0,0,0.01,0,0.01,0c-1.62-0.54-2.87-1.55-3.93-2.57c-0.11-0.09-0.21-0.19-0.31-0.28c-0.17-0.16-0.34-0.31-0.51-0.47
			c0,0,0.02,0.03,0.02,0.03c-0.33-0.07-0.58-0.31-0.77-0.66c0.02-0.05,0.03-0.08,0.05-0.14c0,0-0.06,0.13-0.06,0.13
			c-0.35,0.06-0.68,0.16-1,0.31l0.42,2.42c0.07,0.06,0.14,0.13,0.22,0.19C198.03,435.33,198.15,435.43,198.26,435.53z"/>
		<path class="st1" d="M209.48,430.87c-0.02,0.01-0.02,0.01-0.04,0.01c0.18,0.11,0.36,0.21,0.54,0.32
			c-0.01-0.01-0.01-0.01-0.02-0.01c0.26,0.17,0.53,0.34,0.81,0.51c0,0-0.02-0.04-0.02-0.04c0.99,0.34,2.04,0.67,3.15,1.01
			c-0.01-0.01-0.01-0.01-0.02-0.01c2.21,0.4,4.57,1,7.03,1.68c0.38,0.08,0.76,0.16,1.14,0.23c1.21,0.08,2.44,0.24,3.71,0.65
			c0,0-0.06-0.02-0.06-0.02c0.43,0.07,0.85,0.14,1.28,0.21c0,0,0.08-0.02,0.08-0.02c5.52,0.63,11.15,1.35,16.47,3.03
			c-0.01-0.01-0.02-0.01-0.03-0.02c0.64,0,1.24,0.2,1.82,0.52c0,0-0.05-0.01-0.05-0.01c0.25,0.09,0.5,0.18,0.74,0.27
			c0,0,0.02-0.03,0.02-0.03c4.04,1.58,8.87,3.23,10.46,7.75c0,0-0.01,0-0.01,0c0.36,0.55,0.42,1.26,0.2,2.12
			c-0.01,0-0.02,0-0.03,0.01c0.27,1.3-0.28,3-0.98,4.64c-2.13,5-7.01,11.31-6.79,16.96c0.03,0.84,0.29,1.74-0.2,2.6
			c0.04,0.07,0.04,0.15-0.02,0.23c-0.22,3.56-0.51,7.22,0.43,10.71c0.44,1.64,0.57,3.41-0.09,5.33c0.02,0.23,0.03,0.47,0.06,0.71
			c0.4,0.3,0.76,0.91,1.35,0.61c0.47-0.24,0.52-0.83,0.63-1.36c1.26-5.97,1.17-12.45,2.07-18.57c0.83-5.62,4.03-10.9,6.38-16.01
			c0.89-1.93-0.13-3.28,0.82-4.71c1.31-1.96,1.13-3.32,0.66-4.47c-2.78-6.8-12.95-9.3-19.72-10.38c-7.04-1.12-14.22-1.83-21.08-3.42
			c-1.26-0.29-2.5-0.65-3.69-0.98c0,0,0.02-0.01,0.02-0.01c-0.23-0.07-0.46-0.14-0.69-0.21c0,0-0.13,0.05-0.13,0.05
			c-0.88-0.11-1.82-0.21-2.46-0.65c-1.94-1.31-3.73-1.47-5.5-0.94c0.08,0.19,0.16,0.39,0.25,0.58
			C208.44,430.12,208.94,430.49,209.48,430.87z"/>
		<path class="st1" d="M206.06,449.86C206.06,449.86,206.06,449.86,206.06,449.86c-0.02-0.01-0.03-0.02-0.05-0.03
			C206.01,449.84,206.06,449.86,206.06,449.86z"/>
		<path class="st1" d="M206.05,449.86c0.15,0.07,0.31,0.15,0.46,0.22c0,0-0.02-0.04-0.02-0.04c0.42-0.01,0.72,0.13,0.87,0.5
			c0.42-0.03,0.71,0.14,0.87,0.51c0.33,0.02,0.55,0.17,0.65,0.5c0,0-0.01-0.04-0.01-0.04c0.3,0.14,0.6,0.28,0.9,0.43
			c0,0,0.05,0.04,0.05,0.04c0.49-0.03,0.88,0.19,1.23,0.53c0.32-0.05,0.59,0.04,0.81,0.31c-0.01,0-0.02-0.01-0.03-0.01
			c0.18,0.08,0.36,0.17,0.55,0.25c0,0,0.02-0.07,0.02-0.07c0.48,0.14,0.96,0.28,1.44,0.44c0.03,0.01,0.05,0.02,0.08,0.03
			c1.97,0.13,3.65,1.31,5.32,2.65c0-0.01-0.01-0.01-0.01-0.02c0.39,0.07,0.71,0.29,0.97,0.74c-0.01,0.01-0.02,0.01-0.03,0.02
			c0.17,0.15,0.34,0.3,0.52,0.45c-0.03-0.01-0.04-0.02-0.07-0.03c0.22,0.16,0.43,0.32,0.65,0.48c0.06,0.02,0.09,0.03,0.16,0.05
			c1-0.44,1.42,0.36,1.62,1.59c0-0.02,0-0.02,0-0.04c0.71,0.4,1.26,1.08,1.71,1.92c-0.01,0-0.01-0.01-0.01-0.01
			c1.1,0.98,2.07,2.08,2.53,3.77c0.24,0.24,0.35,0.57,0.38,0.95c0.7,1.75,1.13,3.46,1.35,5.01c0.06,0.25,0.12,0.5,0.18,0.74
			c0.78,3.44-0.16,7.21-0.69,10.6c-0.01,0.24-0.03,0.48-0.04,0.72c0.18,0.28,0.14,0.67,0,1.11c-0.03,0.17-0.06,0.33-0.08,0.5
			c0.33,0.39,0.29,0.99,0.2,1.62c-0.01,0-0.01-0.01-0.02-0.01c0.42,0.41,0.34,1.12,0.4,1.76c0.04,0.11,0.08,0.22,0.12,0.33
			c0.63,1.7,1.71,3.2,3.24,4.47c0.14,0.09,0.29,0.18,0.43,0.27c0.14,0.09,0.29,0.17,0.44,0.25c-0.01-0.01-0.01-0.01-0.02-0.02
			c0.14,0.1,0.28,0.2,0.42,0.29c0.14,0.1,0.27,0.2,0.41,0.3c0.14,0.1,0.27,0.19,0.41,0.29c0.31,0.04,0.51,0.21,0.63,0.48
			c0-0.02,0-0.02,0-0.04c0.37,0.05,0.64,0.25,0.86,0.54c-0.01,0.01-0.02,0.01-0.04,0.02c0.16,0.1,0.32,0.2,0.49,0.29
			c0-0.01,0.01-0.01,0.01-0.02c0.6-0.04,1.45,0.46,1.76-0.2c0.36-0.78-0.59-1.23-1.04-1.6c-4.15-3.4-5.59-6.73-5.4-12.14
			c0.1-2.75,0.51-5.85,0.59-8.62c-0.29-1.26-0.72-2.6-0.67-4.16c-0.13-3.71-1.05-7.43-3.57-10.26c-0.66-0.74-1.21-1.71-1.87-2.55
			c-2.29-2.05-5.33-4.03-8.25-5.06c-3.99-0.9-8-2.05-11.66-3.87c-1.14-0.57-2.29-1.34-3.52-1.55c-1.35-0.23-2.41-0.68-3.4-1.28
			l0.48,2.74c1.96,0.8,3.91,1.64,5.7,2.74C205.76,449.57,205.94,449.65,206.05,449.86z"/>
		<path class="st1" d="M207.37,450.54C207.37,450.53,207.37,450.53,207.37,450.54c-0.01-0.01-0.01-0.01-0.02-0.01
			C207.36,450.53,207.36,450.53,207.37,450.54z"/>
		<path class="st1" d="M211.05,452.5C211.05,452.5,211.05,452.5,211.05,452.5c-0.01,0-0.02,0-0.03,0
			C211.02,452.5,211.05,452.5,211.05,452.5z"/>
		<polygon class="st1" points="208.24,451.04 208.23,451.04 208.23,451.04 		"/>
		<path class="st1" d="M206.68,435.2c3.56,1.33,7.29,2.23,11.07,2.76c-0.01,0-0.01,0-0.01,0c3.94,0.7,7.92,1.18,11.76,2.37
			c0.41,0.1,0.81,0.19,1.22,0.29c-0.02-0.01-0.04-0.01-0.06-0.02c0.43-0.01,0.86,0.04,1.28,0.27c-0.01-0.01-0.01-0.02-0.01-0.03
			c2.9,0.39,6,0.95,8.74,2.01c0,0,0-0.01,0-0.01c9.46,3.68,9.31,8.47,5.65,17.15c-1.89,4.47-4.75,9.74-4.47,14.68
			c0.09,1.66,0.71,3.27,1.11,4.77c0.94,3.54,1.85,7.08,2.57,10.63c0.11,0.56,0.3,1.16,0.95,1.32c0.71,0.17,0.8-0.47,1.03-0.91
			c-0.19-1.03-0.36-2-0.53-2.93c-0.2-1.5-0.31-2.95-0.6-4.27c-0.79-3.5-1.39-7.09-1.12-10.47c0.5-6.14,5.43-12.73,8.1-18.73
			c0-0.04,0-0.06-0.01-0.1c0.04-0.05,0.06-0.07,0.1-0.12c1.12-7.52-1.23-9.71-8.12-12.62c0,0-0.06-0.07-0.06-0.07
			c-0.52,0.01-1.01-0.14-1.5-0.42c0,0,0,0,0,0c-3.8-0.8-7.6-1.56-11.41-2.31c-0.11,0.03-0.23,0.01-0.36-0.05
			c-2.06-0.29-4.14-0.68-6.19-1.23c-0.42,0.02-0.83-0.04-1.24-0.27c0,0,0,0,0,0c-0.8-0.01-1.6-0.12-2.42-0.41
			c-0.4-0.01-0.8-0.04-1.14-0.3c-3.63-0.42-7.4-0.82-10.73-2.42c-0.73,0.15-1.38-0.2-2-0.57c0,0,0,0,0.01,0.01
			c-1.48-0.56-2.77-1.24-3.59-2.38c0.01,0,0.01,0,0.01,0.01c-1.46-0.9-1.78-0.92-3.42,0.29C202.56,432.73,204.2,434.27,206.68,435.2
			z"/>
		<path class="st1" d="M222.08,436.49c0.02,0.01,0.03,0.01,0.05,0.02c0,0,0.01,0,0.01,0C222.14,436.51,222.08,436.49,222.08,436.49z
			"/>
		<path class="st1" d="M225.76,437.18c0.01,0,0.02,0.01,0.03,0.01c0,0,0,0,0,0C225.79,437.19,225.78,437.18,225.76,437.18z"/>
		<path class="st1" d="M229.52,440.34c-0.01,0-0.01,0-0.02-0.01c-0.02,0-0.03-0.01-0.05-0.01
			C229.47,440.33,229.49,440.33,229.52,440.34z"/>
		<path class="st1" d="M217.38,429.35c0.44,0.2,0.9,0.4,1.37,0.6c0.12-0.01,0.23,0.01,0.33,0.08c1.61,0.14,3.2,0.67,4.81,1.04
			c4.5,1.04,9.17,1.64,13.87,1.86c0.88,0.04,1.81,0.23,2.69,0.34c0.08-0.03,0.18-0.01,0.28,0.05c7.04,0.3,13.7,3.41,19.11,7.76
			c5.34,4.3,2.8,9.86,0.62,15.11c-1.57,3.8-3.1,7.58-4.18,11.46c-0.28,1.01-0.18,1.99-0.28,2.93c-0.32,2.81-0.97,5.42-0.83,7.88
			c-0.01,0-0.01,0-0.01,0c-0.33,3.91-0.61,7.37-1.84,10.9c-0.1,0.29-0.39,0.66,0.14,0.88c0.59,0.24,0.86-0.11,1.1-0.46
			c0.3-0.45,0.56-0.93,0.85-1.39c0,0,0.08-0.01,0.08-0.01c1.63-2.5,2.61-5.07,2.98-7.59c0.58-3.96,0.96-8.11,1.72-12.01
			c0.39-1.97,0.86-3.97,1.54-6.16c0.51-1.65,1.16-3.35,2.06-5.12c1.91-3.76,5.17-8.58,3.1-12.72c-3.65-7.28-13.57-11.87-21.53-12.99
			c-1.17-0.17-2.35-0.3-3.62-0.47c-1.41-0.02-2.92-0.02-4.5-0.11c-3.8-0.2-7.67-0.51-11.33-1.68c0,0,0,0.01,0,0.01
			c-2.95-0.57-5.83-1.15-8.48-1.74C215.74,428.28,215.67,428.3,217.38,429.35z"/>
		<path class="st1" d="M243.9,429.37c0.23-0.04,0.46-0.08,0.7-0.11c2.79-0.3,6.29,0.36,8.74,1.69c6.21,3.39,16.17,9.1,16.43,16.61
			c0.23,6.77-7.31,12.43-7.43,19.69c-0.12,7.28-1.81,13.67-4.39,20.38c-0.18,0.48-0.91,1.09-0.09,1.55c0.76,0.44,1.4,0.06,1.99-0.43
			c0,0-0.01,0.01-0.01,0.01c0.23-0.28,0.47-0.56,0.7-0.85c0.07-0.15,0.13-0.3,0.2-0.45c1.21-3.87,2.58-7.64,3.96-11.45
			c0.58-1.03,0.7-2.06,0.38-3.05c0.55-1.48-0.26-2.94,0.8-4.48c-0.41-3.46,0.64-6.45,2.26-9.08c1.42-2.31,4.12-5.46,4.49-8.38
			c0.23-1.77,1.53-3.98,0.55-5.78c-0.39-0.25-0.99-0.4-1.05-0.91c-0.28-2.52-2.57-4.47-4.04-6.72c0.01,0,0.01,0.01,0.02,0.01
			c-1.08-0.89-1.95-1.91-2.87-2.92c0,0-0.05-0.07-0.05-0.07c-0.88-0.5-1.64-1.09-2.32-1.76c-0.38-0.12-0.67-0.32-0.85-0.6
			c0,0,0.05,0.03,0.05,0.03c-0.2-0.12-0.41-0.24-0.61-0.36c0,0,0,0,0,0c-0.2-0.12-0.39-0.23-0.59-0.35c0,0-0.04,0.03-0.04,0.02
			c-0.59-0.16-1.09-0.43-1.54-0.79c0.02,0.01,0.03,0.01,0.04,0.01c-0.23-0.12-0.45-0.24-0.68-0.36c0.01,0.01,0.02,0.02,0.03,0.04
			c-2.37-0.92-4.8-1.82-7.13-2.68c-0.37-0.09-0.73-0.17-1.09-0.26c0,0,0.05,0.03,0.05,0.03c-0.51,0.01-1.01,0.01-1.49-0.3
			c0,0-0.03,0.04-0.03,0.04c-3.3-0.92-5.85-0.71-8.58-0.59c-0.25,0-0.51,0-0.78,0c-3.76-0.34-7.57,0.18-11.29,0.58
			c4.4,1.19,8.82,2.3,13.37,1.76C242.41,429.03,243.03,428.61,243.9,429.37z"/>
		<path class="st1" d="M261.52,431.87c-0.02,0.03-0.03,0.04-0.05,0.07c0.01,0,0.01,0.01,0.02,0.01
			C261.49,431.96,261.52,431.87,261.52,431.87z"/>
		<path class="st1" d="M262.88,432.87C262.88,432.87,262.88,432.87,262.88,432.87c0.01,0.01,0.02,0.01,0.03,0.01
			C262.89,432.88,262.89,432.88,262.88,432.87z"/>
		<path class="st1" d="M251.54,427.84c0.01,0,0.02,0.01,0.02,0.01c0,0,0,0,0.01,0C251.56,427.85,251.56,427.84,251.54,427.84z"/>
		<path class="st1" d="M257.55,427.16c6.61,3.09,13.44,7.38,16.22,14.25c3.04,7.53-1.62,12.84-4.71,19.66
			c-0.61,1.34-1.49,2.97-1.13,4.32c0.41,0.27,0.43,0.65,0.11,1.09c-0.02,0.6-0.03,1.2-0.05,1.79c0.15,0.82,0.27,1.63-0.34,2.46
			c0.59,1.13-0.32,2.26-0.61,3.38c0.04,0.28-0.03,0.52-0.35,0.71c0.4,0.92-0.03,1.84-0.55,2.74c-1.35,3.61-2.71,7.22-4.04,10.84
			c0,0,0.02,0.02,0.02,0.02c0.07,0.75,0.06,1.53,0.75,2.09c0.24-0.04,0.48-0.08,0.72-0.12c0.11-0.12,0.23-0.25,0.35-0.37
			c0.11-0.13,0.22-0.26,0.34-0.4c1-1.77,1.4-3.76,2.16-5.59c1.79-4.27,3.9-8.63,4.4-13.16c0.44-3.97,0.17-7.72,1.72-11.1
			c2.13-4.65,6.78-9.65,6.52-14.57c-0.14-2.55-1.93-6.13-3.43-8.66c-2.53-4.28-7.12-7.39-11.31-9.96c0,0,0.01,0.01,0.01,0.01
			c-2.35-1.44-5.79-1.67-8.47-1.56c-0.5,0-0.99,0.01-1.48,0.01c-0.46,0-0.93,0.01-1.38,0.02
			C253.98,426.36,256.04,426.45,257.55,427.16z"/>
		<path class="st1" d="M214.41,461.54C214.41,461.54,214.4,461.53,214.41,461.54c-0.02-0.01-0.04-0.01-0.06-0.01
			C214.38,461.53,214.39,461.53,214.41,461.54z"/>
		<path class="st1" d="M213.37,460.87c0-0.01-0.01-0.01-0.01-0.01c0,0,0,0,0,0C213.36,460.86,213.36,460.86,213.37,460.87z"/>
		<path class="st1" d="M205.38,456.98c0,0-0.01,0-0.01-0.01c0,0,0,0-0.01,0C205.37,456.97,205.37,456.98,205.38,456.98z"/>
		<path class="st1" d="M201.35,455.3C201.35,455.29,201.35,455.29,201.35,455.3c-0.01-0.01-0.01-0.01-0.02-0.01
			C201.34,455.29,201.35,455.29,201.35,455.3z"/>
		<path class="st1" d="M221.29,468.37c-0.01-0.02-0.01-0.04-0.02-0.05c0,0,0,0-0.01,0C221.28,468.34,221.28,468.35,221.29,468.37z"
			/>
		<path class="st1" d="M205.59,452.36c-0.03,0.07-0.05,0.1-0.09,0.17c0,0,0,0,0.01,0c0,0,0,0,0,0
			C205.51,452.53,205.59,452.36,205.59,452.36z"/>
		<path class="st1" d="M203.24,456.11c0.03,0.01,0.04,0.02,0.07,0.03c0.77,0.05,1.45,0.33,2.05,0.83c1.15,0.2,2.27,0.54,3.26,1.31
			c0.14,0.05,0.28,0.11,0.42,0.16c0.3,0.14,0.61,0.29,0.91,0.44c-0.01,0-0.01,0-0.02-0.01c0.18,0.11,0.36,0.22,0.54,0.33
			c0-0.02-0.01-0.03-0.01-0.05c0.54-0.02,0.96,0.28,1.33,0.71c0.01,0,0.01,0.01,0.01,0.01c0.25,0.2,0.5,0.4,0.74,0.6
			c-0.02-0.02-0.03-0.03-0.06-0.05c0.34-0.02,0.62,0.12,0.85,0.43c0.35,0.22,0.7,0.45,1.04,0.68c0.32,0,0.59,0.13,0.82,0.45
			c0,0,0,0,0,0c0.56,0.2,1.05,0.53,1.35,1.19c-0.01,0.01-0.02,0.01-0.04,0.02c0.41-0.05,0.68,0.22,0.88,0.64
			c0-0.01,0.01-0.01,0.01-0.01c1.2,0.64,2.02,1.75,2.64,3.04c0.01,0.06,0.02,0.1,0.03,0.16c0.19,0.22,0.38,0.43,0.57,0.64
			c-0.01-0.03-0.01-0.04-0.02-0.07c0.35,0.1,0.53,0.39,0.64,0.74c1.12,0.63,1.5,1.91,1.95,2.83c1.28,2.62,1.11,6.7,0.31,9.51
			c-0.1,0.38-0.21,0.77-0.32,1.16c-0.02,0.13-0.04,0.27-0.06,0.4c0.05,2.35-0.33,4.96,0.65,6.79c0.63,1.18,1.47,2.22,2.29,3.43
			c2.06,1.21,3.86,3.28,6.46,4.29c0.83,0.32,1.66,0.75,2.52,1.08c0.34-0.65,0.04-1.21-0.6-1.69c-1.22-0.92-2.39-1.84-3.46-2.8
			c-1.47-1.66-3.3-2.64-3.93-4.62c-0.54-0.93-1.4-1.75-1.31-2.91c0.24-2.94,0.73-6.33,1.19-9.04c0.7-4.09-0.55-6.58-2.69-10.47
			c-0.07-0.12-0.15-0.25-0.22-0.38c-1.93-2.35-3.68-4.96-5.97-6.99c-0.09-0.01-0.15-0.06-0.19-0.17c-0.35-0.27-0.7-0.55-1.05-0.81
			c-0.02-0.01-0.04-0.01-0.06-0.02c-1.16-0.52-2.26-1.2-3.22-2.13c0.02-0.01,0.02-0.01,0.04-0.01c-0.28-0.13-0.56-0.26-0.84-0.39
			c0,0.01,0,0.01,0,0.02c-0.91-0.28-1.86-0.43-2.58-1.16c-0.31-0.08-0.63-0.16-0.94-0.24c-0.33-0.13-0.66-0.26-0.98-0.39
			c0,0,0.04,0.01,0.04,0.01c-0.27-0.1-0.54-0.19-0.81-0.28c-0.01,0-0.01,0-0.02,0c-0.35-0.14-0.69-0.28-1.03-0.41
			c-0.12,0.03-0.22,0.01-0.3-0.07c-0.21-0.1-0.42-0.2-0.62-0.3c-0.32,0.06-0.58-0.03-0.76-0.26c0.01,0,0.01,0,0.02,0
			c-0.15-0.09-0.3-0.18-0.45-0.26c-0.15-0.03-0.31-0.06-0.46-0.09c-1.04-0.43-2-0.89-2.81-1.6c0,0,0.02,0,0.02,0
			c-0.22-0.12-0.43-0.25-0.65-0.37c0,0-0.06-0.01-0.06-0.01c-0.02-0.01-0.03-0.02-0.05-0.03l0.9,5.18c0.05,0.06,0.11,0.12,0.15,0.2
			C201.97,455.55,202.6,455.82,203.24,456.11z"/>
		<polygon class="st1" points="227.07,488.7 227.07,488.7 227.08,488.7 		"/>
		<path class="st1" d="M280.99,424.5c-0.84-1.24-1.8-0.63-2.76-0.26c-0.75,0.29,0,0.88,0.23,1.17c1.55,1.9,3.02,3.7,4.07,5.92
			c0.21,0.45,0.43,0.89,0.61,1.35l-1.21-6.97C281.61,425.32,281.28,424.93,280.99,424.5z"/>
		<path class="st1" d="M276.85,477.21c-0.27,1.72-0.23,3.66-1.71,5.18c-1.07,1.09-1.32,2.75-2.52,3.9
			c-0.11,0.23-0.23,0.46-0.34,0.68c-0.43,1.29-0.77,2.59-1.27,3.83c-0.37,0.91-0.09,1.41,0.81,1.74c0,0-0.03,0.04-0.03,0.04
			c0.65-1,1.69-1.84,1.97-3.02c0.63-2.62,2.3-4.84,3.35-7.2c0.27-0.61,0.6-0.91,1.22-0.92c-0.07-0.32,0.11-0.5,0.39-0.63
			c0,0,0,0,0,0.01c0.09-0.14,0.18-0.28,0.27-0.43c0.08-0.24,0.15-0.48,0.23-0.72c0.07-0.16,0.15-0.32,0.22-0.47
			c0,0-0.05,0.01-0.05,0.01c0.24-0.84,0.2-1.77,0.7-2.54c0,0.01-0.01,0.01-0.01,0.01c-0.1-0.76-0.04-1.5,0.31-2.2
			c-0.01,0-0.01,0-0.02,0.01c-0.03-0.67,0.1-1.3,0.4-1.9c0.67-4.35,0.95-8.85,1.94-13.13c0.22-1.17,0.5-2.32,1.42-3.48
			c0.04-0.11,0.09-0.21,0.16-0.32c0.06-0.61,0.29-1.23,0.86-1.87c0.43-0.87,0.84-1.74,1.22-2.61l-0.61-3.5
			c-1.37,4.86-5.72,9.05-6.62,13.46C278.14,465.98,277.68,471.86,276.85,477.21z"/>
		<path class="st1" d="M278.36,481.44c-0.01,0-0.02,0-0.03,0c0.01,0.02,0.01,0.04,0.02,0.07
			C278.34,481.51,278.36,481.44,278.36,481.44z"/>
		<path class="st1" d="M209.38,480.11c0.91,3.34,1.45,6.8,1.95,10.31c0.42,2.92,1.8,5.03,4.16,6.17c3.54,1.72,7.12,2.72,11.04,3.52
			c1.17,0.24,2.24,0.76,3.33,1.29c0.73,0.36,1.57,0.63,1.92-0.04c0.31-0.61-0.57-0.86-1.03-1.24c-1.99-1.64-4.42-1.76-6.53-2.62
			c-2.87-1.18-5.71-2.28-7.82-3.71c-0.74-0.5-1.18-1.22-1.23-2.4c-0.1-2.38-0.35-4.67-0.17-7.22c0.18-2.58-0.19-5.09-0.91-7.29
			c-0.88-2.7-4.77-4.46-7.15-5.54c-0.87-0.39-1.87-0.74-2.77-1.08c-0.12-0.05-0.24-0.09-0.35-0.14l0.89,5.11
			C206.87,476.24,208.74,477.77,209.38,480.11z"/>
		<path class="st1" d="M280.1,498.69c-0.08,0.09-0.15,0.19-0.23,0.28c-0.04,0.33-0.2,0.55-0.53,0.63c0,0,0.02-0.03,0.01-0.03
			c-0.1,0.13-0.2,0.27-0.3,0.4c0,0,0.05,0.03,0.04,0.03c0.43,1.69,1.22,1.91,2.54,0.48c1.15-1.24,2.58-2.11,3.79-3.24
			c1.98-2.74,4.44-5.05,6.37-7.82c0.1-0.13,0.2-0.26,0.3-0.39c0.16-0.48,0.38-0.92,0.63-1.35l-0.89-5.13
			c-0.13,0.27-0.26,0.54-0.39,0.81C288.68,489.04,284.8,494.4,280.1,498.69z"/>
		<path class="st1" d="M220.87,502.66c2.1,0.1,4.41,0.51,6.59,1.45c0.52,0.22,0.95,0.26,1.43,0.19c0.57-0.07,1.3,0.05,1.35-0.62
			c0.05-0.73-0.75-0.82-1.3-1.08c-2.62-1.23-5.87-1.86-8.71-2.21c-5.91-0.71-11.06-4.81-11.05-11.22c0-2.94-1.47-6.55-3.57-8.71
			l2.72,15.62c0.91,1.3,1.92,2.51,3.22,3.47C214.02,501.39,217.88,502.51,220.87,502.66z"/>
		<path class="st1" d="M288.05,502.04C288.05,502.04,288.05,502.04,288.05,502.04c-0.01,0.01-0.02,0.02-0.03,0.03
			C288.04,502.05,288.04,502.05,288.05,502.04z"/>
		<path class="st1" d="M281.83,504.21c0-0.01-0.01-0.02-0.01-0.03c-0.01,0-0.01,0-0.02-0.01
			C281.81,504.19,281.82,504.19,281.83,504.21z"/>
		<path class="st1" d="M292.4,493.44c-0.11,0.12-0.22,0.23-0.33,0.35c-0.11,0.13-0.21,0.25-0.32,0.38
			c-0.12,0.12-0.23,0.24-0.35,0.36c-0.41,0.41-0.81,0.83-1.22,1.25c-0.19,0.41-0.53,0.66-0.92,0.85c-0.47,0.63-1.03,1.15-1.69,1.55
			c-0.01,0-0.02,0-0.03-0.01c-0.25,0.6-0.78,0.87-1.31,1.14c0-0.01,0-0.01,0-0.02c-0.2,0.16-0.4,0.33-0.6,0.49
			c-0.37,0.61-0.94,1-1.56,1.31c0-0.02,0-0.02,0-0.04c-0.12,0.12-0.23,0.25-0.35,0.37c-0.03,0.08-0.08,0.12-0.17,0.12
			c-0.37,0.26-0.71,0.67-1.11,0.76c-1.35,0.29-1.08,1.03-0.63,1.86c1.23,0.52,2.21-0.34,3.31-0.58c0.21-0.39,0.59-0.48,0.98-0.53
			c-0.01,0.01-0.01,0.02-0.01,0.03c0.52-0.59,1.21-0.87,1.95-1.06c0.23-0.34,0.6-0.45,0.97-0.52c-0.01,0.01-0.02,0.01-0.03,0.02
			c1.54-1.23,3.08-2.46,4.62-3.68c0.25-0.29,0.5-0.57,0.75-0.86l-0.85-4.88c-0.21,0.25-0.43,0.49-0.64,0.74
			C292.71,493.06,292.55,493.25,292.4,493.44z"/>
		<path class="st1" d="M293.62,497.85C293.62,497.85,293.61,497.85,293.62,497.85c-0.01,0.01-0.02,0.02-0.02,0.02
			C293.6,497.87,293.62,497.85,293.62,497.85z"/>
		<path class="st1" d="M285.61,499.82c0.01-0.01,0.02-0.02,0.03-0.03c0,0,0,0,0-0.01C285.63,499.8,285.62,499.81,285.61,499.82z"/>
		<path class="st1" d="M285.14,503.59c0,0-0.01,0-0.01,0c0,0.01-0.01,0.01-0.01,0.01C285.13,503.6,285.13,503.6,285.14,503.59z"/>
		<path class="st1" d="M223.06,506.77c1.82,0.01,3.72,0.19,5.36-0.39c-0.02-0.29,0.2-0.4,0.45-0.49c-0.48-0.8-1.23-0.84-2.06-0.91
			c-4.14-0.35-8.42-0.54-12.45-1.64c-1.93-0.53-3.81-1.87-5.35-3.41l0.61,3.52c2.88,1.77,6.15,2.88,9.55,3.11
			C220.44,506.64,221.74,506.71,223.06,506.77z"/>
		<path class="st1" d="M228.9,505.88c-0.01,0-0.02,0.01-0.03,0.01c0,0,0.01,0.01,0.01,0.01
			C228.89,505.89,228.89,505.89,228.9,505.88z"/>
		<path class="st1" d="M226.93,513.67c0.1-0.1,0.2-0.19,0.3-0.29c0.02-0.59-0.36-0.84-0.89-0.86c-2.16-0.06-4.36-0.63-6.49-0.3
			c-3.11,0.49-5.9,0.48-8.71-0.08l0.79,4.51c0.93-0.06,1.87-0.22,2.81-0.41C218.79,515.43,222.87,514.79,226.93,513.67z"/>
		<path class="st1" d="M218.99,508.26c-1.64-0.14-3.28,0.06-4.88-0.77c-0.05,0-0.08,0-0.13,0c-1.2-0.1-2.4-0.1-3.51-0.88
			c-0.1-0.04-0.21-0.08-0.31-0.13l0.58,3.32c2.34,0.65,4.91,0.94,7.18,0.91c2.92-0.03,5.88-0.36,8.77-0.13
			c0.91,0.07,1.46-0.31,1.04-1.27C224.91,508.57,221.83,508.51,218.99,508.26z"/>
		<path class="st1" d="M290.04,503.17c1.4-0.27,2.81-0.49,4.2-0.81c0.34-0.08,0.68-0.14,1.02-0.2l-0.5-2.85
			c-1.7,1.2-3.39,2.4-5.09,3.6C289.79,503,289.92,503.09,290.04,503.17z"/>
		<path class="st1" d="M217.92,478.69c-0.48,2.76-0.6,5.92-0.72,8.79c-0.18,4.31,3.11,7.01,6.81,8.36c2.69,0.98,5.47,2.24,8.09,3.56
			c0.52,0.26,1.06,0.78,1.45,0c0.36-0.71-0.22-0.95-0.76-1.25c-2.02-1.12-3.94-2.59-5.85-3.28c-2.55-0.93-6.27-3.45-6.32-6.62
			c-0.06-3.52,0.85-7.25,1.24-10.7c0.29-2.57-0.31-5.21-2.32-7.28c-3.41-3.5-7.34-6.01-11.86-8.01c-1.97-0.87-3.89-2.02-5.73-2.9
			l0.96,5.49c2.2,1.11,4.45,2.13,6.65,3.17C213.29,469.77,218.77,473.85,217.92,478.69z"/>
	</g>
</g>
</svg>
