<?xml version="1.0" encoding="utf-8"?>
<!-- Generator: Adobe Illustrator 26.3.1, SVG Export Plug-In . SVG Version: 6.00 Build 0)  -->
<svg version="1.1" id="Layer_1" xmlns="http://www.w3.org/2000/svg" xmlns:xlink="http://www.w3.org/1999/xlink" x="0px" y="0px"
	 viewBox="0 0 127.2 141.6" style="enable-background:new 0 0 127.2 141.6;" xml:space="preserve">
<style type="text/css">
	.st0{fill:#3C5F75;}
	.st1{fill:#FFFFFF;}
</style>
<g>
	<path class="st0" d="M104.8,10.3C104,6,107,5.5,106.2,1.2L104.5,0c-4.3,0.8-3.8,3.7-8.1,4.5S91.6,2.2,87.3,3s-3.8,3.7-8.1,4.5
		S74.4,5.2,70.1,6c-4.3,0.8-3.8,3.7-8.1,4.5S57.2,8.2,52.8,9c-4.3,0.8-3.8,3.7-8.1,4.5s-4.8-2.2-9.1-1.5c-4.3,0.8-3.8,3.7-8.1,4.5
		s-4.8-2.2-9.1-1.5c-4.3,0.8-3.8,3.7-8.1,4.5S5.5,17.2,1.2,18L0,19.7c0.8,4.3,3.7,3.8,4.4,8.1S2.2,32.7,3,37c0,0,0,0,0,0
		c0,0,0,0,0,0c0.8,4.3,3.7,3.8,4.4,8.1S5.2,49.9,6,54.2s3.7,3.8,4.4,8.1S8.2,67.1,9,71.4s3.7,3.8,4.4,8.1s-2.2,4.8-1.4,9.1
		s3.7,3.8,4.4,8.1s-2.2,4.8-1.4,9.1s3.7,3.8,4.4,8.1s-2.2,4.8-1.4,9.1s3.7,3.8,4.4,8.1c0.8,4.3-2.2,4.8-1.4,9.1l1.8,1.4
		c4.3-0.8,3.8-3.7,8.1-4.5c4.3-0.8,4.8,2.2,9.1,1.5c4.3-0.8,3.8-3.7,8.1-4.5s4.8,2.2,9.1,1.5c4.3-0.8,3.8-3.7,8.1-4.5
		s4.8,2.2,9.1,1.5c4.3-0.8,3.8-3.7,8.1-4.5s4.8,2.2,9.1,1.5c4.3-0.8,3.8-3.7,8.1-4.5s4.8,2.2,9.1,1.5s3.8-3.7,8.1-4.5
		s4.8,2.2,9.1,1.5l1.2-1.9c-0.8-4.3-3.7-3.8-4.5-8.1s2.2-4.8,1.5-9.1c-0.8-4.3-3.7-3.8-4.5-8.1s2.2-4.8,1.5-9.1s-3.7-3.8-4.5-8.1
		s2.2-4.8,1.5-9.1s-3.7-3.8-4.5-8.1s2.2-4.8,1.5-9.1s-3.7-3.8-4.5-8.1s2.2-4.8,1.5-9.1s-3.7-3.8-4.5-8.1s2.2-4.8,1.5-9.1v0v0
		C108.5,14.1,105.5,14.6,104.8,10.3z"/>
	<g>
		<path class="st1" d="M37.1,121.5c0,0,0,0-0.1-0.1l-0.2-0.2l-0.2-0.1c-0.3-0.2-0.6-0.3-1.1-0.3l-0.2,0c0,0,0,0,0,0v0c0,0,0,0,0,0
			c0,0-0.1,0-0.1,0c0,0-0.1,0-0.1,0s-0.1,0-0.3,0.1l-0.2,0.1c0,0-0.1,0.1-0.2,0.2c-0.1,0-0.2,0.1-0.3,0.3c0,0-0.1,0.1-0.1,0.1
			c0,0-0.1,0.1-0.1,0.2c-0.1,0.1-0.1,0.2-0.1,0.3c0,0.1,0,0.2-0.1,0.3l0,0.1l0,0.3l0,0.3l0,0l0,0.4c0,0,0,0.1,0,0.1
			c0,0,0.1,0.1,0.2,0.3L34,124c0,0,0.1,0.1,0.2,0.2c0.1,0.1,0.3,0.2,0.5,0.3c0.3,0.1,0.4,0.2,0.5,0.2c0.2,0,0.3,0,0.3,0l0.4-0.1
			c0,0,0.1,0,0.1,0c0,0,0.1,0,0.1,0c0.1,0,0.1,0,0.1,0s0.1-0.1,0.2-0.1c0.2-0.1,0.3-0.1,0.3-0.1c0.1-0.1,0.2-0.2,0.2-0.2
			c0,0,0,0,0.1,0c0,0,0,0,0-0.1c0,0,0-0.1,0-0.2c0,0,0-0.1-0.1-0.1c0,0-0.1,0-0.1,0c0,0,0,0-0.1,0c-0.1,0.1-0.1,0.1-0.1,0.2
			c-0.1,0.1-0.2,0.1-0.2,0.2c0,0-0.1,0.1-0.3,0.2c-0.1,0.1-0.2,0.1-0.2,0.1l-0.2,0l-0.3,0l-0.3-0.1c-0.1,0-0.2-0.1-0.3-0.1
			c-0.1,0-0.2-0.1-0.4-0.2l0,0l-0.1,0c0-0.1-0.1-0.2-0.2-0.3c0-0.1-0.1-0.1-0.1-0.1c0,0,0,0,0-0.1c0-0.1-0.1-0.2-0.1-0.2
			c0-0.1-0.1-0.2-0.1-0.2c0,0,0-0.1,0-0.4c0-0.2,0-0.3,0-0.3c0,0,0-0.1,0.1-0.3l0.1-0.2l0.1-0.1c0,0,0.1-0.1,0.2-0.2
			c0.1-0.1,0.2-0.1,0.2-0.1c0,0,0,0,0,0s0,0,0,0c0,0,0,0,0,0l0,0c0.1-0.1,0.2-0.1,0.2-0.1l0.2-0.1l0.2,0c0.2,0,0.4,0,0.4,0
			c0.1,0,0.1,0,0.1,0s0,0,0.1,0l0.2,0.1c0,0,0.1,0.1,0.2,0.2c0.1,0.1,0.1,0.1,0.2,0.2c0,0,0,0,0,0c0,0,0,0,0,0c0,0,0,0.1,0,0.1
			c0,0,0,0.1,0.1,0.2l0.1,0.2c0,0,0,0,0,0.1c0,0,0,0,0,0l0.1,0.3l0,0.2l0,0.1c-0.1,0.2-0.2,0.4-0.2,0.4c0,0,0,0-0.1,0
			c0,0-0.1,0-0.1,0s0-0.1-0.1-0.2c0,0,0-0.1,0-0.3l0-0.3c0-0.3,0-0.5,0-0.6c0,0,0,0,0-0.1c0,0,0-0.1-0.1-0.1c0,0-0.1,0-0.1,0
			c0,0,0,0-0.1,0c-0.1,0-0.2,0.1-0.2,0.1c-0.1,0-0.2,0.1-0.2,0.1v0l0,0c0,0-0.1,0-0.1,0c-0.1,0-0.2,0-0.3,0c0,0-0.1,0-0.1,0
			c-0.1,0-0.2,0.1-0.2,0.1c-0.2,0.1-0.3,0.2-0.3,0.3c0,0,0,0.1-0.1,0.3l-0.1,0.1l0,0.3l0,0.1l0.1,0.2l0,0l0.2,0.2l0,0.1l0.2,0.1
			l0.1,0h0.3h0l0.2-0.1l0,0l0.2-0.2l0,0l0,0l0,0c0,0,0,0,0,0c0,0,0,0,0.1,0c0,0,0,0,0,0s0,0,0.1,0l0.3,0c0,0,0,0,0.1-0.1
			c0,0,0.1,0,0.2-0.1c0.1,0,0.2-0.1,0.2-0.2l0.1-0.2c0,0,0.1-0.1,0.1-0.2c0.1-0.1,0.1-0.2,0.1-0.3c0-0.1,0-0.1,0-0.1s0-0.1,0-0.3
			l0-0.2c-0.1-0.2-0.1-0.3-0.1-0.3C37.1,121.5,37.1,121.5,37.1,121.5z M35.8,122.3c0,0.1,0,0.2,0,0.3c0,0.2,0,0.3,0,0.5l0,0.1
			c0,0,0,0.1,0,0.1c0,0.1-0.1,0.1-0.2,0.1c0,0-0.1,0-0.1,0c-0.1,0-0.1,0-0.1,0c-0.1-0.1-0.1-0.2-0.2-0.2c0-0.2,0-0.4,0-0.4
			c0-0.1,0-0.2,0-0.2l0.1-0.2c0-0.1,0-0.1,0-0.1c0.1-0.1,0.1-0.1,0.2-0.2c0.1,0,0.2,0,0.3,0.1C35.8,122.2,35.8,122.2,35.8,122.3
			C35.8,122.3,35.8,122.3,35.8,122.3z"/>
		<path class="st1" d="M41.1,120.1l0-0.1c0,0,0,0-0.1,0c-0.1,0-0.1,0-0.2,0c0,0-0.1,0-0.1,0c-0.1,0-0.1,0-0.1,0l-0.6,0.1
			c0,0,0,0-0.1,0c-0.1,0-0.1,0-0.1,0l-0.4,0.1l-0.3,0c0,0-0.1,0-0.3,0c-0.1,0-0.1,0-0.2,0c0,0-0.1,0-0.1,0c-0.1,0-0.1,0-0.1,0
			l-0.3,0l0,0c0,0,0,0,0,0c0,0-0.1,0-0.1,0c0,0,0,0,0,0.1c0,0.1,0,0.2,0,0.2c0,0,0,0,0,0s0,0,0,0s0,0,0.1,0c0.1,0,0.1,0,0.1,0l0.1,0
			l0.1-0.1c0,0,0,0,0,0c0,0,0.1-0.1,0.1-0.1l0.4,0c0,0,0,0,0,0c0,0,0.1,0,0.1,0c0,0,0,0,0.1,0c0,0,0,0,0,0s0,0,0,0.1l0.1,0.1l0,0.3
			l0.1,0.3l0,0.3l0,0.2l0,0.3l0.1,0.2l0,0.3l0.1,0.2l0,0.3l0,0.2v0.3c0,0.1,0,0.2,0,0.2c0,0,0,0,0,0s0,0,0,0c0,0,0,0,0.1,0l0.1,0
			l0.2-0.1l0.2,0l0.2,0c0.1,0,0.1,0,0.1,0s0,0,0.1-0.1l0-0.1l0-0.1v0l-0.1-0.1l0-0.4c0,0,0,0,0-0.1c0,0,0-0.1-0.1-0.2
			c0-0.2-0.1-0.4-0.1-0.6c0-0.1,0-0.2,0-0.2c0,0,0-0.1-0.1-0.3c0,0,0-0.1,0-0.1c0,0,0-0.1,0-0.2c0-0.1,0-0.1,0-0.2l-0.1-0.4
			c0-0.2,0-0.3,0-0.3c0,0,0-0.1,0.1-0.1l0.1,0l0.1,0l0.2,0c0,0,0,0,0.1,0c0,0,0,0,0,0c0,0,0.1,0,0.1,0c0.1,0,0.2,0.1,0.2,0.1
			c0,0,0,0,0,0c0,0,0,0,0,0c0,0,0,0,0.1,0c0.1,0,0.1,0,0.1,0c0,0,0-0.1,0-0.1C41.1,120.2,41.1,120.2,41.1,120.1
			C41.1,120.2,41.1,120.1,41.1,120.1z"/>
		<path class="st1" d="M43.7,122.6l-0.1-0.2c0-0.2-0.1-0.4-0.1-0.5c0-0.1,0-0.1,0-0.1c0,0,0-0.1,0-0.1c0-0.1,0-0.1,0-0.1l-0.1-0.4
			l0-0.3l-0.1-0.3l0-0.3l-0.1-0.2c0-0.2,0-0.3,0-0.4c0,0,0-0.1,0-0.1s0,0-0.1-0.1c0,0-0.1,0-0.1,0l-0.1,0l-0.2,0l-0.2,0.1l-0.2,0
			c-0.1,0-0.1,0.1-0.1,0.1c0,0,0,0.1,0,0.1c0,0,0,0,0,0c0,0,0,0,0,0c0.1,0.1,0.1,0.1,0.1,0.1l0.1,0.3c0,0,0,0.1,0.1,0.1
			c0,0,0,0.1,0.1,0.2c0,0,0,0.1,0,0.1c0,0.2,0,0.2,0,0.2l0.1,0.3l0,0.3l0.1,0.2l0,0.3l0.1,0.3l0,0.4c0,0,0,0,0,0.1c0,0,0,0.1,0,0.1
			c0,0.1,0,0.2,0,0.3c0,0,0,0.1,0,0.1c0,0,0,0,0,0c0,0,0.1,0,0.1,0c0.1,0,0.2,0,0.2,0c0,0,0.1,0,0.1,0c0.1,0,0.1,0,0.1,0l0.3,0
			l0.1-0.1c0.1,0,0.1,0,0.1,0c0,0,0-0.1,0-0.1c0,0,0-0.1-0.1-0.2L43.7,122.6z"/>
		<path class="st1" d="M47.5,122L47.5,122c-0.1,0-0.1,0-0.1,0c0,0-0.1,0-0.2,0l-0.1,0l-0.2,0.1c-0.1,0-0.1,0-0.2,0
			c-0.1,0-0.1,0-0.1,0c-0.1,0-0.1,0-0.1,0l-0.2,0c0,0,0,0-0.1,0c-0.1-0.1-0.1-0.1-0.1-0.2l0-0.2l-0.1-0.2l0-0.3l-0.1-0.2l0-0.2
			l-0.1-0.2l0-0.3l-0.1-0.3c0,0,0-0.1,0-0.2c0,0,0,0,0,0l-0.1-0.3c0-0.1,0-0.2,0-0.3c0,0,0-0.1,0-0.1c0,0,0-0.1-0.1-0.1
			c-0.1,0-0.2,0-0.3,0l-0.3,0l-0.2,0c0,0-0.1,0-0.1,0s0,0,0,0.1c0,0.1,0,0.1,0,0.1c0,0,0,0,0,0c0.1,0.2,0.1,0.3,0.1,0.6l0.1,0.3
			l0,0.3l0.1,0.3l0.1,0.4c0,0,0,0,0,0.1c0,0.1,0,0.1,0,0.1c0,0,0,0.1,0,0.1c0,0.2,0,0.2,0,0.2l0,0.1l0,0.2v0.2c0,0.2,0,0.4,0,0.4
			c0,0,0,0,0,0s0,0,0.1,0.1c0,0,0.1,0,0.1,0s0,0,0,0l0.2,0c0,0,0,0,0.1,0c0,0,0.1,0,0.1,0s0.1,0,0.2,0c0.2,0,0.3-0.1,0.4-0.1
			c0,0,0.1,0,0.1,0c0.1,0,0.1,0,0.2,0l0.3-0.1c0.2,0,0.3,0,0.4,0c0.1,0,0.1,0,0.2,0c0,0,0.1,0,0.1,0c0,0,0,0,0-0.1l0,0l0-0.1
			c0-0.1,0-0.2,0-0.2c0,0,0-0.1-0.1-0.1C47.6,122,47.6,122,47.5,122z"/>
		<path class="st1" d="M51.9,121.5l-0.1-0.2c-0.1-0.1-0.1-0.2-0.2-0.3c-0.1-0.1-0.1-0.3-0.2-0.4c-0.1-0.1-0.1-0.2-0.1-0.2
			c0-0.1-0.1-0.2-0.2-0.3c-0.1-0.1-0.1-0.2-0.1-0.2c-0.1-0.1-0.2-0.2-0.2-0.3l-0.1-0.2c0,0-0.1-0.1-0.2-0.2
			c-0.1-0.1-0.1-0.2-0.2-0.3l-0.2-0.2l0-0.1c0,0,0,0,0,0c0,0-0.1,0-0.1,0c0,0,0,0,0,0c0,0-0.1,0-0.2,0c-0.1,0-0.1,0-0.2,0
			c0,0-0.1,0-0.1,0s0,0,0,0c0,0,0,0,0,0.1c0,0,0,0,0,0s0,0.1-0.1,0.2l-0.1,0.2l-0.1,0.2l-0.1,0.2l0,0.3l-0.1,0.2l0,0.2l-0.1,0.2
			c-0.1,0.3-0.1,0.5-0.1,0.5c0,0,0,0.1,0,0.3l0,0.2v0.2l0,0.2l0,0.2c0,0.1,0,0.1,0,0.2c0,0.1,0.1,0.2,0.1,0.2l0.1,0H49
			c0,0,0.1,0,0.1-0.1l0-0.1l0-0.1l0,0v-0.2l0,0l0-0.3v-0.1c0-0.2,0.1-0.3,0.1-0.3c0,0,0-0.1,0-0.1c0,0,0.1,0,0.3-0.1l0.4,0l0.3,0
			l0.1,0l0.2-0.1c0,0,0,0,0.1,0c0,0,0.1,0,0.1,0s0,0,0,0c0,0,0,0,0,0s0,0,0,0v0l0,0l0.1,0.1c0,0,0,0.1,0.1,0.2c0,0,0,0,0,0.1
			c0.1,0.1,0.1,0.2,0.1,0.2c0.1,0.2,0.1,0.3,0.1,0.3c0,0,0.1,0,0.1,0c0,0,0,0,0,0c0.2,0,0.3-0.1,0.3-0.1c0,0,0.1,0,0.1,0
			c0.1,0,0.1,0,0.1,0c0,0,0.1,0,0.2-0.1c0,0,0.1,0,0.1,0c0,0,0,0,0-0.1C51.9,121.7,51.9,121.6,51.9,121.5L51.9,121.5z M50.2,120.5
			l-0.3,0l-0.3,0.1l-0.3,0l0,0c0,0-0.1,0-0.1-0.1l0,0l0.1-0.2l0.1-0.3l0-0.1l0-0.3l0.1-0.2c0-0.1,0.1-0.2,0.1-0.2h0c0,0,0,0,0,0
			c0,0,0,0,0,0l0.1,0.2l0.2,0.2l0,0.1l0.1,0.2l0,0.1l0.1,0.2c0,0,0,0,0,0c0,0,0,0,0,0c0,0,0,0,0,0C50.3,120.4,50.3,120.4,50.2,120.5
			z"/>
		<path class="st1" d="M55.4,117.9c0,0-0.1-0.1-0.3-0.2c0,0,0,0-0.1,0c0,0-0.1,0-0.2,0c-0.2,0-0.3-0.1-0.4-0.1c-0.1,0-0.1,0-0.3,0
			c-0.1,0-0.2,0-0.3,0c-0.1,0-0.2,0-0.2,0l-0.3,0.1l-0.3,0l-0.3,0l-0.2,0c0,0-0.1,0-0.1,0.1c0,0-0.1,0-0.1,0c0,0.1,0,0.1,0,0.1
			s0,0,0,0l0,0.1l0.1,0.3c0,0,0,0,0,0.1c0,0,0,0.1,0,0.1l0.1,0.4c0,0,0,0,0,0.1c0,0.1,0,0.2,0,0.3c0,0.2,0.1,0.4,0.1,0.5
			c0,0.1,0,0.1,0,0.2l0.1,0.4v0.3l0.1,0.2c0,0,0,0.1,0,0.2c0,0.1,0,0.1,0,0.2c0,0,0,0.1,0,0.1l0,0h0c0,0,0,0,0.1,0s0,0,0.1,0l0.1,0
			l0.2,0l0.2,0H54c0,0,0.1,0,0.1-0.1c0,0,0-0.1,0-0.1c0,0,0-0.1-0.1-0.1c0,0,0-0.1-0.1-0.1c0,0,0-0.1,0-0.1c0,0,0-0.1,0-0.1
			l-0.1-0.3c0,0,0,0,0,0c0-0.1,0-0.1,0-0.1l0-0.1c0,0,0,0,0-0.1c0,0,0.1,0,0.1-0.1l0.1,0l0.2,0c0,0,0.1,0,0.2-0.1
			c0,0,0.1-0.1,0.2-0.1c0.1,0,0.2-0.1,0.2-0.1c0.1-0.1,0.2-0.2,0.3-0.2c0.1,0,0.1-0.1,0.1-0.1c0.1-0.2,0.2-0.3,0.2-0.3
			c0.1-0.1,0.1-0.2,0.1-0.3c0-0.2,0-0.3,0-0.3s0,0-0.1-0.1C55.5,118.1,55.5,118,55.4,117.9z M54.6,119.1
			C54.6,119.1,54.6,119.1,54.6,119.1c-0.1,0.1-0.1,0.2-0.3,0.3c-0.1,0.1-0.1,0.1-0.1,0.1c-0.1,0-0.1,0.1-0.1,0.1c0,0,0,0-0.1,0
			c-0.1,0-0.1,0-0.1,0l-0.1,0c0,0,0,0,0,0l-0.1,0v0h0l0,0c0,0,0,0,0-0.1l0-0.2l0-0.2l0-0.2l0-0.2l0-0.2c0,0,0-0.1,0-0.2
			c0-0.1,0.1-0.1,0.1-0.1c0.1,0,0.1,0,0.2,0c0.2,0,0.3,0,0.3,0c0.1,0,0.1,0.1,0.2,0.1c0,0,0.1,0.1,0.1,0.2c0.1,0.1,0.1,0.2,0.1,0.3
			C54.7,118.7,54.7,118.9,54.6,119.1z"/>
		<path class="st1" d="M58.1,120l-0.1-0.2c0-0.2-0.1-0.4-0.1-0.5c0-0.1,0-0.1,0-0.1s0-0.1,0-0.1c0-0.1,0-0.1,0-0.1l-0.1-0.4l0-0.3
			l-0.1-0.3l0-0.3l-0.1-0.2c0-0.2,0-0.3,0-0.4c0,0,0-0.1,0-0.1s0,0-0.1-0.1c0,0-0.1,0-0.1,0l-0.1,0l-0.2,0l-0.2,0.1l-0.2,0
			c-0.1,0-0.1,0.1-0.1,0.1c0,0,0,0.1,0,0.1c0,0,0,0,0,0c0,0,0,0,0,0c0.1,0.1,0.1,0.1,0.1,0.1l0.1,0.3c0,0,0,0.1,0.1,0.1
			c0,0,0,0.1,0.1,0.2c0,0,0,0.1,0,0.1c0,0.2,0,0.2,0,0.2l0.1,0.3l0,0.3l0.1,0.2l0,0.3l0.1,0.3l0,0.4c0,0,0,0,0,0.1c0,0,0,0.1,0,0.1
			c0,0.1,0,0.2,0,0.3c0,0,0,0.1,0,0.1c0,0,0,0,0,0c0,0,0.1,0,0.1,0c0.1,0,0.2,0,0.2,0c0,0,0.1,0,0.1,0c0.1,0,0.1,0,0.1,0l0.3,0
			l0.1-0.1c0.1,0,0.1,0,0.1,0c0,0,0-0.1,0-0.1c0,0,0-0.1-0.1-0.2L58.1,120z"/>
		<path class="st1" d="M62.6,119.6l-0.1-0.2c-0.1-0.1-0.1-0.2-0.2-0.3c-0.1-0.1-0.1-0.3-0.2-0.4c-0.1-0.1-0.1-0.2-0.1-0.2
			c0-0.1-0.1-0.2-0.2-0.3c-0.1-0.1-0.1-0.2-0.1-0.2c-0.1-0.1-0.2-0.2-0.2-0.3l-0.1-0.2c0,0-0.1-0.1-0.2-0.2
			c-0.1-0.1-0.1-0.2-0.2-0.3l-0.2-0.2l0-0.1c0,0,0,0,0,0c0,0-0.1,0-0.1,0c0,0,0,0,0,0c0,0-0.1,0-0.2,0c-0.1,0-0.1,0-0.2,0
			c0,0-0.1,0-0.1,0s0,0,0,0c0,0,0,0,0,0.1c0,0,0,0,0,0s0,0.1-0.1,0.2l-0.1,0.2l-0.1,0.2l-0.1,0.2l0,0.3l-0.1,0.2l0,0.2l-0.1,0.2
			c-0.1,0.3-0.1,0.5-0.1,0.5c0,0,0,0.1,0,0.3l0,0.2v0.2l0,0.2l0,0.2c0,0.1,0,0.1,0,0.2c0,0.1,0.1,0.2,0.1,0.2l0.1,0h0.2
			c0,0,0.1,0,0.1-0.1l0-0.1l0-0.1l0,0V120l0,0l0-0.3v-0.1c0-0.2,0.1-0.3,0.1-0.3c0,0,0-0.1,0-0.1c0,0,0.1,0,0.3-0.1l0.4,0l0.3,0
			l0.1,0l0.2-0.1c0,0,0,0,0.1,0c0,0,0.1,0,0.1,0s0,0,0,0c0,0,0,0,0,0s0,0,0,0v0l0,0l0.1,0.1c0,0,0,0.1,0.1,0.2c0,0,0,0,0,0.1
			c0.1,0.1,0.1,0.2,0.1,0.2c0.1,0.2,0.1,0.3,0.1,0.3c0,0,0.1,0,0.1,0c0,0,0,0,0,0c0.2,0,0.3-0.1,0.3-0.1c0,0,0.1,0,0.1,0
			c0.1,0,0.1,0,0.1,0c0,0,0.1,0,0.2-0.1c0,0,0.1,0,0.1,0c0,0,0,0,0-0.1C62.7,119.8,62.7,119.8,62.6,119.6L62.6,119.6z M61,118.6
			l-0.3,0l-0.3,0.1l-0.3,0l0,0c0,0-0.1,0-0.1-0.1l0,0l0.1-0.2l0.1-0.3l0-0.1l0-0.3l0.1-0.2c0-0.1,0.1-0.2,0.1-0.2h0c0,0,0,0,0,0
			c0,0,0,0,0,0l0.1,0.2l0.2,0.2l0,0.1l0.1,0.2l0,0.1l0.1,0.2c0,0,0,0,0,0c0,0,0,0,0,0c0,0,0,0,0,0C61.1,118.5,61,118.6,61,118.6z"/>
		<path class="st1" d="M66.2,117.5c0,0,0-0.1-0.1-0.1c-0.1-0.1-0.2-0.2-0.2-0.2s-0.1,0-0.3-0.1l-0.1,0l-0.3,0l-0.3,0
			c-0.2,0-0.3,0-0.3,0c-0.1,0-0.2,0-0.3-0.1c-0.1,0-0.1,0-0.1-0.1c-0.1-0.1-0.1-0.2-0.2-0.3c0,0,0-0.1,0-0.2c0-0.1,0.1-0.2,0.1-0.2
			c0,0,0.1-0.1,0.1-0.1c0.1-0.1,0.2-0.1,0.2-0.1l0.1,0c0.2,0,0.3,0,0.3,0c0.1,0,0.3,0.1,0.4,0.1c0.1,0.1,0.2,0.1,0.2,0.1
			c0,0,0.1,0,0.1-0.1c0,0,0-0.1,0-0.1c0-0.1-0.1-0.2-0.1-0.2l0,0c0,0,0,0,0,0v0c0,0,0,0,0,0c0,0,0,0-0.1,0c-0.1,0-0.1-0.1-0.2,0
			c-0.1,0-0.2,0-0.4,0l-0.1,0l-0.2,0c0,0,0,0,0,0l-0.2,0.1l-0.2,0.1c0,0-0.1,0-0.1,0c0,0-0.1,0.1-0.3,0.3c-0.1,0.1-0.1,0.2-0.2,0.3
			c-0.1,0.2-0.1,0.4-0.1,0.5c0,0,0,0.1,0,0.2c0,0.2,0.1,0.3,0.1,0.3c0,0,0.1,0.1,0.2,0.2c0.1,0,0.1,0.1,0.1,0.1c0,0,0.1,0,0.2,0.1
			c0.2,0.1,0.3,0.1,0.3,0.1c0.1,0,0.1,0,0.1,0s0.1,0,0.3,0c0.1,0,0.1,0,0.2,0c0,0,0.1,0,0.2,0c0.1,0,0.2,0,0.2,0
			c0.1,0,0.2,0.1,0.2,0.2c0.1,0.1,0.1,0.2,0.1,0.2c0,0.1,0,0.1,0,0.2s-0.1,0.1-0.1,0.2c0,0-0.1,0.1-0.2,0.2c0,0-0.1,0-0.1,0
			c-0.1,0-0.1,0-0.3,0.1c-0.1,0-0.3,0-0.5,0c-0.2,0-0.3-0.1-0.3-0.1c-0.1-0.1-0.2-0.1-0.2-0.1c0,0,0,0-0.1,0c0,0,0,0-0.1,0
			c0,0-0.1,0-0.1,0l0,0.1l0,0.2c0,0,0,0,0.1,0.1c0,0,0,0,0.1,0v0c0,0,0.1,0,0.2,0c0.1,0,0.2,0,0.2,0.1c0.1,0,0.2,0,0.5,0
			c0.1,0,0.1,0,0.1,0c0.1,0,0.2,0,0.2,0c0,0,0.2-0.1,0.5-0.2c0.1,0,0.1,0,0.2-0.1c0.1,0,0.1-0.1,0.1-0.1c0,0,0.1-0.1,0.2-0.2l0,0
			c0,0,0,0,0.1-0.1c0.1-0.2,0.2-0.3,0.2-0.4c0-0.2,0.1-0.3,0.1-0.3l-0.1-0.3v-0.1L66.2,117.5z"/>
		<path class="st1" d="M71.4,118c0-0.1,0-0.1-0.1-0.2c0,0,0,0,0-0.1c0,0,0-0.1,0-0.1c0,0,0-0.1,0-0.1c0-0.1-0.1-0.3-0.1-0.6
			c0,0,0,0,0-0.2c0,0,0-0.1,0-0.1c0,0,0-0.1,0-0.2c0-0.2-0.1-0.2-0.1-0.2l0-0.3l-0.1-0.3l0-0.3l-0.1-0.2l0-0.2l0-0.2c0,0,0,0,0-0.1
			c0,0,0,0,0,0s0,0,0,0c0,0,0,0-0.1,0l-0.2,0l-0.1,0c0,0-0.1,0-0.1,0l-0.3,0c-0.1,0-0.1,0-0.2,0.1l0,0c0,0,0,0,0,0c0,0,0,0.1,0,0.3
			l0,0.2c0,0,0,0.1-0.1,0.2c0,0.2-0.1,0.2-0.1,0.2l0,0.2l-0.1,0.2c0,0.2-0.1,0.3-0.1,0.4c0,0,0,0-0.1,0c0,0-0.1,0-0.1,0
			c-0.1,0-0.1-0.1-0.2-0.3c-0.1-0.2-0.2-0.4-0.4-0.7c-0.1-0.2-0.2-0.3-0.3-0.4c-0.1-0.2-0.2-0.3-0.2-0.3c-0.1,0-0.1,0-0.2,0
			c0,0-0.1,0-0.2,0c-0.1,0-0.1,0-0.2,0c0,0-0.1,0-0.1,0h-0.1c-0.2,0.1-0.3,0.1-0.3,0.1c0,0,0,0.1,0,0.1c0,0,0,0,0,0.1l0.1,0.1
			l0.1,0.2l0.1,0.2c0,0.2,0.1,0.4,0.1,0.5c0,0.1,0,0.1,0,0.1s0,0.1,0,0.1c0,0.1,0,0.1,0,0.1l0.1,0.4l0,0.3l0.1,0.3l0,0.3l0.1,0.2
			c0,0.2,0,0.3,0,0.4c0,0,0,0,0,0.1c0,0,0,0,0.1,0.1c0,0,0,0,0.1,0l0.1,0l0.2,0c0.1,0,0.1-0.1,0.1-0.1c0,0,0,0,0-0.1
			c0,0,0-0.1,0-0.1l0-0.1l0-0.2c0,0,0,0,0-0.1c0,0,0-0.1-0.1-0.2c0-0.1,0-0.1,0-0.1l-0.1-0.4c0,0,0,0,0,0c0-0.1-0.1-0.2-0.1-0.2
			c0-0.3-0.1-0.5-0.1-0.5c0-0.1,0-0.1,0-0.1c0,0,0,0,0.1,0c0,0,0.1,0,0.1,0c0,0,0.1,0.1,0.2,0.3l0.1,0.2c0,0,0.1,0.1,0.1,0.2
			c0.1,0.2,0.2,0.3,0.3,0.4c0.1,0.2,0.1,0.2,0.2,0.3c0,0,0.1,0,0.1,0c0.2,0,0.3,0,0.3,0c0,0,0.1,0,0.1-0.1c0,0,0.1-0.1,0.1-0.1
			c0-0.1,0-0.2,0.1-0.3c0-0.2,0.1-0.4,0.1-0.6c0.1-0.4,0.1-0.6,0.1-0.6c0,0,0,0,0.1-0.1s0.1,0,0.1,0c0,0,0.1,0,0.1,0.1
			c0.1,0.1,0.1,0.1,0.1,0.2l0,0.2l0.1,0.3l0.1,0.4c0,0,0,0.1,0.1,0.2c0,0,0,0.1,0,0.1c0,0,0,0.1,0,0.1c0,0.1,0,0.2,0,0.2l0.1,0.2
			c0,0,0,0,0,0c0,0,0,0,0,0c0,0,0,0,0.1,0c0,0,0.1,0,0.1,0c0,0,0,0,0.1,0c0,0,0,0,0.1,0c0.1,0,0.1,0,0.1,0l0.5-0.1
			c0,0,0.1,0,0.1-0.1c0,0,0-0.1,0-0.1c0,0,0,0,0,0v0C71.5,118,71.5,118,71.4,118C71.5,118,71.5,118,71.4,118z"/>
		<path class="st1" d="M75.9,117.3l-0.1-0.2c-0.1-0.1-0.1-0.2-0.2-0.3c0-0.1-0.1-0.3-0.2-0.4c-0.1-0.1-0.1-0.2-0.1-0.2
			c0-0.1-0.1-0.2-0.2-0.3c-0.1-0.1-0.1-0.2-0.1-0.2c-0.1-0.1-0.2-0.2-0.2-0.3l-0.1-0.2c0,0-0.1-0.1-0.2-0.2
			c-0.1-0.1-0.1-0.2-0.2-0.3l-0.2-0.2l0-0.1c0,0,0,0,0,0c0,0-0.1,0-0.1,0c0,0,0,0,0,0c0,0-0.1,0-0.2,0c-0.1,0-0.1,0-0.2,0
			c0,0-0.1,0-0.1,0s0,0,0,0c0,0,0,0,0,0.1c0,0,0,0,0,0s0,0.1-0.1,0.2l-0.1,0.2l-0.1,0.2l-0.1,0.2l0,0.3l-0.1,0.2l0,0.2l-0.1,0.2
			c-0.1,0.3-0.1,0.5-0.1,0.5c0,0,0,0.1,0,0.3l0,0.2v0.2l0,0.2l0,0.2c0,0.1,0,0.1,0,0.2c0,0.1,0.1,0.2,0.1,0.2l0.1,0H73
			c0,0,0.1,0,0.1-0.1l0-0.1l0-0.1l0,0v-0.2l0,0l0-0.3v-0.1c0-0.2,0.1-0.3,0.1-0.3c0,0,0-0.1,0-0.1c0,0,0.1,0,0.3-0.1l0.4,0l0.3,0
			l0.1,0l0.2-0.1c0,0,0,0,0,0c0,0,0.1,0,0.1,0s0,0,0,0c0,0,0,0,0,0s0,0,0,0v0l0,0l0.1,0.1c0,0,0,0.1,0.1,0.2c0,0,0,0,0,0.1
			c0,0.1,0.1,0.2,0.1,0.2c0.1,0.2,0.1,0.3,0.1,0.3c0,0,0.1,0,0.1,0c0,0,0,0,0,0c0.2,0,0.3-0.1,0.3-0.1c0,0,0.1,0,0.1,0
			c0.1,0,0.1,0,0.1,0c0,0,0.1,0,0.2-0.1c0,0,0,0,0.1,0c0,0,0,0,0-0.1C76,117.5,75.9,117.4,75.9,117.3L75.9,117.3z M74.2,116.3
			l-0.3,0l-0.3,0.1l-0.3,0l0,0c0,0-0.1,0-0.1-0.1l0,0l0.1-0.2l0.1-0.3l0-0.1l0-0.3l0.1-0.2c0-0.1,0.1-0.2,0.1-0.2h0c0,0,0,0,0,0
			c0,0,0,0,0,0l0.1,0.2l0.1,0.2l0,0.1l0.2,0.2l0,0.1l0.1,0.2c0,0,0,0,0,0c0,0,0,0,0,0c0,0,0,0,0,0C74.3,116.2,74.3,116.2,74.2,116.3
			z"/>
		<path class="st1" d="M79.5,113.3c0-0.1-0.1-0.1-0.1-0.1s0,0-0.1,0l-0.2,0.1c-0.1,0-0.1,0-0.1,0c0,0,0,0,0,0.1l0,0.1v0.1
			c0,0,0,0,0,0.1l0,0.2l0.1,0.3c0,0,0,0,0,0.2c0,0,0,0.1,0,0.1l0,0.2c0.1,0.3,0.1,0.5,0.1,0.6c0,0.1,0,0.1,0,0.1c0,0,0,0-0.1,0
			c0,0-0.1-0.1-0.2-0.2l-0.2-0.2c0,0-0.1-0.1-0.2-0.2c-0.1-0.1-0.1-0.2-0.1-0.2l-0.2-0.2l-0.2-0.2l-0.1-0.1
			c-0.2-0.2-0.4-0.3-0.4-0.3c-0.1-0.1-0.1-0.2-0.2-0.2s0,0-0.1,0c0,0,0,0-0.1,0c0,0,0,0,0,0c0,0-0.1,0-0.1,0l-0.5,0.1
			c0,0-0.1,0-0.1,0.1c0,0,0,0.1,0,0.1l0,0.1v0.1c0,0,0,0,0,0.1s0,0.1,0.1,0.2c0,0.1,0,0.2,0,0.3c0,0.2,0,0.3,0,0.4c0,0,0,0.1,0,0.2
			c0,0,0,0.1,0,0.1c0,0,0,0.1,0,0.1c0,0.1,0,0.1,0,0.1c0,0,0,0.1,0,0.1c0,0.1,0.1,0.2,0.1,0.2l0,0.3l0.1,0.3c0,0.2,0,0.3,0.1,0.4
			c0,0.1,0,0.2,0,0.3s0,0.1,0,0.2c0,0,0,0,0,0c0,0,0,0,0.1,0.1c0,0,0,0,0,0s0.1,0,0.3,0c0.1,0,0.1-0.1,0.1-0.1c0,0,0,0,0,0
			s0,0,0-0.1l0-0.1c0,0,0,0,0,0c0-0.1-0.1-0.2-0.1-0.3l0-0.2l-0.1-0.2l0-0.2l0-0.2l0-0.2l-0.1-0.3c0-0.1,0-0.2,0-0.3
			c0,0,0-0.1,0-0.1c0,0,0,0,0.1,0c0,0,0.1,0,0.1,0.1c0,0,0.1,0.1,0.2,0.2l0.2,0.2l0.2,0.2l0.2,0.2l0.2,0.2l0.2,0.2c0,0,0,0,0,0
			l0.1,0.2c0,0,0.1,0.1,0.2,0.2s0.2,0.2,0.2,0.2c0.1,0.1,0.2,0.2,0.2,0.2c0,0,0,0,0.1,0c0,0,0.1,0,0.4,0c0,0,0,0,0.1-0.1l0,0l0-0.1
			l0-0.2l-0.1-0.2l0-0.2l-0.1-0.4l0-0.1c0,0,0-0.1,0-0.1c0,0,0-0.1,0-0.2c0-0.1,0-0.1,0-0.2l0-0.2l0-0.2c0,0,0-0.1,0-0.3l-0.1-0.2
			c0-0.1,0-0.3,0-0.5C79.5,113.4,79.5,113.3,79.5,113.3z"/>
		<path class="st1" d="M84.6,114.3L84.6,114.3c0-0.1,0-0.1-0.1-0.1c0,0-0.1,0-0.1,0l-0.2,0.1l-0.2,0c-0.2,0-0.3,0.1-0.4,0.1
			c0,0,0,0.1,0,0.1c0,0,0,0,0,0c0,0,0,0,0,0.1s0,0.1,0.1,0.2c0,0,0.1,0.1,0.1,0.2l0,0.3l0.1,0.2c0,0,0,0.1,0,0.3
			c0,0.1-0.1,0.1-0.2,0.2c-0.1,0.1-0.2,0.1-0.4,0.1c-0.1,0-0.2,0-0.2,0l-0.3-0.1c0,0,0,0,0,0h0c0,0,0,0,0,0c0,0-0.1-0.1-0.2-0.2
			c-0.1-0.1-0.2-0.2-0.2-0.2c0,0-0.1-0.1-0.1-0.3c-0.1-0.1-0.1-0.2-0.1-0.2l-0.1-0.4l-0.1-0.2l0-0.3c0,0,0,0,0,0c0,0,0,0,0-0.1
			c0,0,0-0.1,0.1-0.2l0.1-0.2l0,0l0.1-0.2l0.2-0.2l0,0c0,0,0,0,0.1-0.1c0,0,0.1-0.1,0.3-0.2l0.2,0c0,0,0.1,0,0.1,0s0.1,0,0.1,0
			c0.1,0,0.2,0,0.3,0.1c0,0,0.1,0.1,0.3,0.2c0,0,0.1,0,0.1,0c0,0,0,0,0.1-0.1c0,0,0-0.1,0-0.1l-0.1-0.3l0-0.1c0,0,0,0,0,0
			c0,0,0,0,0,0c0,0,0,0,0,0l-0.1,0l-0.2-0.1l-0.2,0l-0.3,0l-0.2,0l-0.3,0c0,0-0.1,0-0.1,0l-0.2,0.1c-0.2,0.1-0.3,0.1-0.4,0.2
			c-0.2,0.1-0.3,0.2-0.4,0.3c-0.2,0.2-0.3,0.3-0.3,0.3c0,0-0.1,0.2-0.2,0.4l0,0.3l-0.1,0.2v0.3l0,0.3l0.1,0.2c0,0.2,0.1,0.3,0.1,0.3
			c0,0.1,0.1,0.2,0.2,0.3c0.1,0.2,0.3,0.3,0.4,0.4l0.2,0.2c0,0,0.1,0.1,0.2,0.1s0.2,0,0.2,0.1c0,0,0,0,0,0c0,0,0,0,0,0c0,0,0,0,0,0
			s0,0,0,0c0,0,0.1,0,0.3,0.1c0.1,0,0.1,0,0.1,0s0.1,0,0.3,0l0.2,0l0.1-0.1l0.2-0.1l0,0l0.2-0.1c0,0,0.1-0.1,0.2-0.2
			c0.2-0.1,0.3-0.2,0.4-0.3c0,0,0-0.1,0-0.1l0,0c0,0,0,0,0,0c0,0,0-0.1-0.1-0.3l0-0.2c0,0,0-0.1,0-0.1l0,0l0-0.3L84.6,114.3z"/>
		<path class="st1" d="M89.1,115l-0.1-0.2c-0.1-0.1-0.1-0.2-0.2-0.3c0-0.1-0.1-0.3-0.2-0.4c-0.1-0.1-0.1-0.2-0.1-0.2
			c0-0.1-0.1-0.2-0.2-0.3c-0.1-0.1-0.1-0.2-0.1-0.2c-0.1-0.1-0.2-0.2-0.2-0.3l-0.1-0.2c0,0-0.1-0.1-0.2-0.2
			c-0.1-0.1-0.1-0.2-0.2-0.4l-0.2-0.2l0-0.1c0,0,0,0,0,0c0,0-0.1,0-0.1,0c0,0,0,0,0,0c0,0-0.1,0-0.2,0c-0.1,0-0.1,0-0.2,0
			c0,0,0,0-0.1,0c0,0,0,0,0,0c0,0,0,0,0,0.1c0,0,0,0,0,0c0,0,0,0.1,0,0.2l-0.1,0.3l-0.1,0.2l-0.1,0.2l0,0.3l-0.1,0.2l0,0.2l-0.1,0.2
			c0,0.3-0.1,0.5-0.1,0.5c0,0,0,0.1,0,0.3l0,0.2v0.2l0,0.2l0,0.2c0,0.1,0,0.1,0,0.2c0,0.1,0,0.2,0.1,0.2l0.1,0h0.2c0,0,0,0,0.1-0.1
			l0-0.1l0-0.1l0,0v-0.2l0,0l0-0.3l0-0.1c0-0.2,0.1-0.3,0.1-0.3c0,0,0-0.1,0-0.1c0,0,0.1,0,0.3-0.1l0.4,0l0.3,0l0.1,0l0.2-0.1
			c0,0,0,0,0,0c0,0,0.1,0,0.1,0s0,0,0,0c0,0,0,0,0,0s0,0,0,0v0l0,0l0.1,0.1c0,0,0,0.1,0.1,0.2c0,0,0,0,0,0.1c0,0.1,0.1,0.2,0.1,0.2
			c0.1,0.2,0.1,0.3,0.1,0.3c0,0,0.1,0,0.1,0c0,0,0,0,0,0c0.2,0,0.3-0.1,0.3-0.1c0,0,0.1,0,0.1,0c0.1,0,0.1,0,0.1,0
			c0,0,0.1,0,0.2-0.1c0,0,0,0,0.1,0c0,0,0,0,0-0.1c0,0,0,0,0-0.1L89.1,115z M87.5,114l-0.3,0l-0.3,0.1l-0.3,0l0,0c0,0,0,0-0.1-0.1
			l0,0l0.1-0.2l0-0.3l0-0.1l0-0.3l0.1-0.2c0-0.1,0-0.2,0.1-0.2h0c0,0,0,0,0,0c0,0,0,0,0,0L87,113l0.2,0.2l0,0.1l0.1,0.2l0,0.1
			l0.1,0.2c0,0,0,0,0,0c0,0,0,0,0,0c0,0,0,0,0,0C87.6,113.9,87.5,113.9,87.5,114z"/>
		<path class="st1" d="M93.1,113.9l-0.1-0.2c-0.2-0.3-0.3-0.5-0.4-0.6c-0.1-0.1-0.2-0.2-0.2-0.2c0,0,0-0.1,0-0.1s0,0,0-0.1
			c0,0,0.1-0.1,0.1-0.2c0.1-0.1,0.2-0.2,0.2-0.2c0,0,0-0.1,0.1-0.3l0-0.1l0-0.3v-0.2c0,0-0.1-0.1-0.2-0.3c-0.1-0.1-0.2-0.2-0.4-0.2
			c-0.1,0-0.2,0-0.2,0c0,0,0,0,0,0s0,0,0,0c0,0,0,0,0,0c0,0-0.1,0-0.2,0c0,0-0.1,0-0.1,0c0,0-0.1,0-0.1,0c-0.1,0-0.2,0.1-0.3,0.1
			c0,0-0.1,0-0.2,0c-0.1,0-0.2,0-0.2,0l-0.3,0.1c-0.2,0-0.3,0-0.5,0.1c0,0-0.1,0-0.1,0c0,0,0,0,0,0.1l0,0.1l0,0.1v0.1c0,0,0,0,0,0
			s0,0.1,0.1,0.2c0,0,0,0.1,0,0.2c0,0.1,0,0.1,0,0.1l0,0.4l0,0.3l0,0.3l0.1,0.3c0,0.1,0,0.1,0,0.2c0,0.1,0,0.1,0,0.1l0.1,0.4v0.2
			l0,0.2l0,0.2l0,0.1l0,0.1c0,0,0,0,0,0c0,0,0.1,0,0.1,0l0.2-0.1l0.2,0l0.2,0h0.1c0,0,0,0,0-0.1c0,0,0-0.1,0-0.1l0,0l-0.1-0.4l0-0.1
			c0-0.2-0.1-0.4-0.1-0.5c0-0.1,0-0.1,0-0.2c0,0,0-0.1,0.1-0.1c0.1,0,0.1,0,0.1,0l0.1-0.1l0,0h0l0,0h0c0,0,0,0,0,0.1
			c0,0,0,0,0.1,0.1c0,0,0.1,0.1,0.1,0.2c0,0,0,0.1,0,0.1l0.2,0.2l0,0.1c0,0,0,0.1,0.1,0.2c0,0.1,0.1,0.2,0.1,0.2
			c0,0.1,0,0.2,0.1,0.2c0,0,0.1,0.1,0.1,0.1l0.1,0l0.2,0l0.3-0.1c0,0,0.1,0,0.1,0c0,0,0,0,0.1,0c0,0,0,0,0,0c0,0,0,0,0-0.1
			c0,0,0-0.1,0-0.1s0,0,0,0C93.3,114.3,93.2,114.1,93.1,113.9z M92,112.2c0,0.1,0,0.2-0.1,0.2c0,0-0.1,0.1-0.2,0.2
			c0,0-0.1,0.1-0.1,0.1c-0.2,0.1-0.3,0.1-0.4,0.1c0,0,0,0,0,0c0,0,0,0,0,0c0,0,0,0-0.1,0l0-0.1l0-0.2l0-0.2l-0.1-0.3
			c0,0,0-0.1,0-0.2c0-0.1,0-0.1,0.1-0.2c0.1,0,0.1-0.1,0.2-0.1c0,0,0,0,0.1,0c0.1,0,0.2,0,0.2,0c0,0,0,0,0-0.1l0.2,0.1
			c0,0,0,0,0.1,0c0,0,0.1,0.2,0.2,0.4L92,112.2z"/>
		<path class="st1" d="M97.5,113.5l-0.1-0.2c-0.1-0.1-0.1-0.2-0.2-0.3c0-0.1-0.1-0.3-0.2-0.4c-0.1-0.1-0.1-0.2-0.1-0.2
			c0-0.1-0.1-0.2-0.2-0.3c-0.1-0.1-0.1-0.2-0.1-0.2c-0.1-0.1-0.2-0.2-0.2-0.3l-0.1-0.2c0,0-0.1-0.1-0.2-0.2
			c-0.1-0.1-0.1-0.2-0.2-0.4l-0.2-0.2l0-0.1c0,0,0,0,0,0c0,0-0.1,0-0.1,0c0,0,0,0,0,0c0,0-0.1,0-0.2,0c-0.1,0-0.1,0-0.2,0
			c0,0,0,0-0.1,0c0,0,0,0,0,0c0,0,0,0,0,0.1c0,0,0,0,0,0c0,0,0,0.1,0,0.2l-0.1,0.2l-0.1,0.2l-0.1,0.2l0,0.3l-0.1,0.2l0,0.2l-0.1,0.3
			c0,0.3-0.1,0.5-0.1,0.5s0,0.1,0,0.3l0,0.2v0.2l0,0.2l0,0.2c0,0.1,0,0.1,0,0.2c0,0.1,0,0.2,0.1,0.2l0.1,0h0.2c0,0,0,0,0.1-0.1
			l0-0.1l0-0.1l0,0v-0.2l0,0l0-0.3l0-0.1c0-0.2,0.1-0.3,0.1-0.3c0,0,0-0.1,0-0.1c0,0,0.1,0,0.3-0.1l0.4,0l0.3,0l0.1,0l0.2-0.1
			c0,0,0,0,0,0c0,0,0.1,0,0.1,0s0,0,0,0c0,0,0,0,0,0s0,0,0,0v0l0,0l0.1,0.1c0,0,0,0.1,0.1,0.2c0,0,0,0,0,0.1c0,0.1,0.1,0.2,0.1,0.2
			c0.1,0.2,0.1,0.3,0.1,0.3c0,0,0.1,0,0.1,0c0,0,0,0,0,0c0.2,0,0.3-0.1,0.3-0.1c0,0,0.1,0,0.1,0c0.1,0,0.1,0,0.1,0
			c0,0,0.1,0,0.2-0.1c0,0,0,0,0.1,0c0,0,0,0,0,0c0,0,0,0,0-0.1L97.5,113.5z M95.8,112.5l-0.3,0l-0.3,0.1l-0.3,0l0,0c0,0,0,0-0.1-0.1
			l0,0l0.1-0.2l0-0.3l0-0.1l0-0.3l0.1-0.2c0-0.1,0-0.2,0.1-0.2h0c0,0,0,0,0,0c0,0,0,0,0,0l0.1,0.2l0.2,0.2l0,0.1l0.1,0.2l0,0.1
			l0.1,0.2c0,0,0,0,0,0s0,0,0,0c0,0,0,0,0,0C95.9,112.5,95.9,112.5,95.8,112.5z"/>
		<path class="st1" d="M100.5,109.8l0-0.1c0,0,0,0-0.1,0c0,0-0.1,0-0.2,0c0,0-0.1,0-0.1,0c-0.1,0-0.1,0-0.1,0l-0.6,0.1
			c0,0,0,0-0.1,0s-0.1,0-0.1,0l-0.4,0.1l-0.3,0c0,0-0.1,0-0.3,0c-0.1,0-0.1,0-0.2,0c0,0-0.1,0-0.1,0c0,0-0.1,0-0.1,0l-0.3,0l0,0
			c0,0,0,0,0,0c0,0-0.1,0-0.1,0c0,0,0,0,0,0.1c0,0.1,0,0.1,0,0.2c0,0,0,0,0,0c0,0,0,0,0,0s0,0,0.1,0s0.1,0,0.1,0l0.1,0l0.1-0.1
			c0,0,0,0,0,0c0,0,0.1-0.1,0.1-0.1l0.4,0c0,0,0,0,0,0c0,0,0,0,0.1,0c0,0,0,0,0.1,0c0,0,0,0,0,0s0,0,0,0.1l0,0.1l0,0.3l0,0.3l0,0.3
			l0,0.2l0,0.3l0.1,0.2l0,0.3l0.1,0.2l0,0.3l0,0.2v0.3c0,0.1,0,0.2,0,0.2c0,0,0,0,0,0s0,0,0,0c0,0,0,0,0.1,0l0.1,0l0.2-0.1l0.2,0
			l0.2,0c0,0,0.1,0,0.1,0c0,0,0,0,0-0.1l0-0.1l0-0.1v0l0-0.1l0-0.4c0,0,0,0,0-0.1c0,0,0-0.1,0-0.2c0-0.2-0.1-0.4-0.1-0.6
			c0-0.1,0-0.2,0-0.2c0,0,0-0.1-0.1-0.3c0,0,0-0.1,0-0.1c0,0,0-0.1,0-0.1c0-0.1,0-0.1,0-0.2l-0.1-0.4c0-0.2,0-0.3,0-0.3
			c0,0,0-0.1,0-0.1l0.1,0l0,0l0.2,0c0,0,0,0,0,0c0,0,0,0,0,0c0,0,0,0,0.1,0c0.1,0,0.2,0.1,0.2,0.1c0,0,0,0,0,0c0,0,0,0,0,0
			c0,0,0,0,0.1,0c0,0,0.1,0,0.1,0c0,0,0-0.1,0-0.1C100.6,109.9,100.6,109.9,100.5,109.8C100.6,109.8,100.5,109.8,100.5,109.8z"/>
		<path class="st1" d="M103.1,112.2l0-0.2c0-0.2-0.1-0.4-0.1-0.5c0-0.1,0-0.1,0-0.1c0,0,0-0.1,0-0.1c0-0.1,0-0.1,0-0.1l-0.1-0.4
			l0-0.3l0-0.3l0-0.3l-0.1-0.2c0-0.2,0-0.3,0-0.4c0,0,0-0.1,0-0.1s0,0,0-0.1c0,0,0,0-0.1,0l-0.1,0l-0.2,0l-0.2,0.1l-0.2,0
			c-0.1,0-0.1,0.1-0.1,0.1c0,0,0,0.1,0,0.1c0,0,0,0,0,0c0,0,0,0,0,0c0,0.1,0.1,0.1,0.1,0.1l0,0.3c0,0,0,0.1,0.1,0.1c0,0,0,0.1,0,0.1
			c0,0,0,0.1,0,0.1c0,0.1,0,0.2,0,0.2l0.1,0.3l0,0.3l0.1,0.2l0,0.3l0.1,0.3l0,0.4c0,0,0,0,0,0.1c0,0,0,0.1,0,0.1c0,0.1,0,0.2,0,0.3
			c0,0,0,0.1,0,0.1c0,0,0,0,0,0c0,0,0,0,0.1,0c0.1,0,0.2,0,0.2,0c0,0,0,0,0.1,0c0.1,0,0.1,0,0.1,0l0.3,0l0.1-0.1c0,0,0.1,0,0.1,0
			c0,0,0-0.1,0-0.1c0,0,0-0.1-0.1-0.2L103.1,112.2z"/>
		<path class="st1" d="M107.2,110.4c-0.1-0.1-0.2-0.1-0.3-0.1c-0.1,0-0.2-0.1-0.2-0.1v0l0,0l0,0l0-0.1l0.2-0.2l0-0.1l0.1-0.2v-0.1
			l0-0.3l0-0.1l-0.1-0.2c0,0-0.1-0.1-0.2-0.1c-0.1-0.1-0.2-0.1-0.3-0.2c-0.1,0-0.3,0-0.6,0l-0.3,0c0,0-0.1,0-0.2,0c0,0-0.1,0-0.1,0
			c0,0-0.1,0-0.2,0c-0.1,0-0.2,0-0.2,0l-0.3,0.1l-0.3,0c0,0-0.1,0-0.1,0s0,0,0,0.1c0,0.1,0,0.1,0,0.1c0,0,0,0,0,0
			c0.1,0.2,0.1,0.4,0.1,0.6l0.1,0.3l0,0.3l0,0.3l0,0.4c0,0,0,0,0,0.1c0,0,0,0.1,0,0.1c0,0,0,0.1,0,0.1c0,0.2,0,0.2,0,0.2l0.1,0.3
			v0.2c0,0.2,0,0.4,0,0.4c0,0,0,0,0,0s0,0,0.1,0.1c0,0,0,0,0,0s0,0,0,0l0.2,0c0,0,0,0,0.1,0c0,0,0.1,0,0.1,0c0,0,0.1,0,0.2,0
			c0.2,0,0.3-0.1,0.4-0.1c0,0,0.1,0,0.1,0c0.1,0,0.1,0,0.1,0l0.3-0.1h0.1l0.2,0l0.2,0c0,0,0,0,0,0c0,0,0.1,0,0.2-0.1
			c0.1,0,0.2-0.1,0.3-0.2c0.1-0.1,0.1-0.2,0.2-0.4c0-0.1,0-0.1,0-0.1s0-0.1,0-0.3l0-0.1c0-0.1-0.1-0.2-0.2-0.2
			C107.4,110.5,107.3,110.4,107.2,110.4z M105.3,110.1C105.3,110.1,105.3,110,105.3,110.1c0-0.1,0-0.1,0-0.1c0,0,0-0.1,0-0.1
			c0,0,0-0.1,0-0.1l0-0.1l0-0.3l0-0.1c0,0,0,0,0,0c0,0,0.1-0.1,0.2-0.1l0.2-0.1c0.2,0,0.4,0,0.4,0c0,0,0,0,0,0v0l0,0
			c0,0,0.1,0,0.1,0.1c0,0.1,0.1,0.1,0.1,0.2c0,0.1,0,0.2,0,0.3c0,0.1-0.1,0.2-0.1,0.2l-0.2,0.2c0,0-0.1,0-0.1,0.1
			c0,0.1-0.1,0.1-0.1,0.1l-0.1,0l0,0l-0.1,0c0,0,0,0,0,0l0,0h0l0,0h0c0,0,0,0,0,0S105.3,110.2,105.3,110.1
			C105.3,110.1,105.3,110.1,105.3,110.1z M106.7,111.3c0,0.1,0,0.3-0.1,0.3c0,0-0.1,0.1-0.3,0.2c0,0-0.1,0-0.3,0.1l0,0
			c0,0-0.1,0-0.1,0c0,0-0.1,0-0.1,0c-0.1,0-0.1,0-0.1,0l0-0.2c0,0,0,0,0-0.1c0,0,0,0,0-0.1c0,0,0-0.1,0-0.1c0-0.1,0-0.2,0-0.2
			c0,0,0,0,0,0c0-0.1,0-0.2-0.1-0.2c0,0,0-0.1,0.1-0.1c0,0,0.1-0.1,0.2-0.1c0,0,0.1,0,0.1,0c0,0,0.1,0,0.1,0c0.1,0,0.1,0,0.1-0.1
			c0,0,0-0.1,0-0.1l0,0c0,0,0.1,0,0.1,0c0,0,0.1,0.1,0.2,0.2l0,0l0,0c0,0,0,0,0,0l0.2,0.2c0,0,0.1,0,0.1,0.1
			C106.7,111,106.7,111.1,106.7,111.3z"/>
		<path class="st1" d="M112,111l-0.1-0.2c-0.1-0.1-0.1-0.2-0.2-0.3c0-0.1-0.1-0.3-0.2-0.4c-0.1-0.1-0.1-0.2-0.1-0.2
			c0-0.1-0.1-0.2-0.2-0.3c-0.1-0.1-0.1-0.2-0.1-0.2c-0.1-0.1-0.2-0.2-0.2-0.3l-0.1-0.2c0,0-0.1-0.1-0.2-0.2
			c-0.1-0.1-0.1-0.2-0.2-0.4l-0.2-0.2l0-0.1c0,0,0,0,0,0c0,0-0.1,0-0.1,0c0,0,0,0,0,0c0,0-0.1,0-0.2,0c-0.1,0-0.1,0-0.2,0
			c0,0,0,0-0.1,0c0,0,0,0,0,0c0,0,0,0,0,0.1c0,0,0,0,0,0s0,0.1,0,0.2l-0.1,0.2l-0.1,0.2l-0.1,0.2l0,0.3l-0.1,0.2l0,0.2l-0.1,0.2
			c0,0.3-0.1,0.5-0.1,0.5c0,0,0,0.1,0,0.3l0,0.2v0.2l0,0.2l0,0.2c0,0.1,0,0.1,0,0.1c0,0.1,0,0.2,0.1,0.2l0.1,0h0.2c0,0,0,0,0.1-0.1
			l0-0.1l0-0.1l0,0v-0.2l0,0l0-0.3l0-0.1c0-0.2,0.1-0.3,0.1-0.3c0,0,0-0.1,0-0.1c0,0,0.1,0,0.3-0.1l0.4,0l0.3,0l0.1,0l0.2-0.1
			c0,0,0,0,0,0c0,0,0.1,0,0.1,0s0,0,0,0c0,0,0,0,0,0s0,0,0,0v0l0,0l0.1,0.1c0,0,0,0.1,0.1,0.2c0,0,0,0,0,0.1c0,0.1,0.1,0.2,0.1,0.2
			c0.1,0.2,0.1,0.3,0.1,0.3c0,0,0.1,0,0.1,0c0,0,0,0,0,0c0.2,0,0.3-0.1,0.3-0.1c0,0,0.1,0,0.1,0c0.1,0,0.1,0,0.1,0
			c0,0,0.1,0,0.2-0.1c0,0,0,0,0.1,0c0,0,0,0,0-0.1c0,0,0,0,0-0.1L112,111z M110.3,110l-0.3,0l-0.3,0.1l-0.3,0l0,0c0,0,0,0-0.1-0.1
			l0,0l0.1-0.2l0-0.3l0-0.1l0-0.3l0.1-0.2c0-0.1,0-0.2,0.1-0.2h0c0,0,0,0,0,0c0,0,0,0,0,0l0.1,0.2l0.2,0.2l0,0.1l0.1,0.2l0,0.1
			l0.1,0.2c0,0,0,0,0,0c0,0,0,0,0,0c0,0,0,0,0,0C110.4,109.9,110.4,110,110.3,110z"/>
		<path class="st1" d="M88.6,96.2c-2.7-2.1-6.4-2.7-9.7-3.1c-1.4-0.2-3,0-4.4-0.5c-3.6,0.5-7.1,1.3-10.6,1.9c-0.3,0.1-0.7,0.2-1,0.3
			c-0.3,0.2-0.7,0.4-1,0.5c-4.8,1.6-9.9,4.5-12.2,9.1c-0.3,0.6-0.7,1.2-1.1,1.7c-0.1,0.1-0.1,0.2-0.1,0.4c-0.7,2.2-1.3,4.4-1.8,7
			c0.1,0.3,0.2,0.6,0.5,0.6c3.6-0.6,7.2-1.7,10.8-1.9c2.7-0.2,7.6-1.4,11.4-2c5.2-0.9,10.4-1.8,15.7-2.7c0.6-0.5,7.6-1.3,11.4-2
			c0.4-0.9-0.5-1.2-0.8-1.7C93.7,100.8,91.3,98.4,88.6,96.2z M76.5,103.1l-0.4,0l-1.5-0.1l-0.6,0l-0.4,0.2l-0.8,0.6l-0.4,0.3
			l-0.8,0.6l-0.4,0.2l-0.1,0l-0.5-0.1l-0.5-0.2l-0.5-0.2l-2-0.5l-0.2,0l-0.4,0.3l-0.5,0.2l-0.4,0.3l-0.5,0.1l-0.1-0.2l0.2-0.5
			l0.4-0.4l0.4-0.4l0.4-0.4l0.3-0.4l0.2-0.1l0.5,0.1l3,1.3l0.2,0l0.4-0.4l0.7-0.7l1.1-1.1l0.3-0.4l0.2,0.1l0.5,0.2l1.4,0.6l0.5,0.2
			l0.5,0.2L76.5,103.1z"/>
		<path class="st1" d="M100.4,89.7C100.4,89.7,100.4,89.7,100.4,89.7C100.4,89.7,100.4,89.7,100.4,89.7
			C100.4,89.7,100.4,89.7,100.4,89.7z"/>
		<path class="st1" d="M97.3,94.5C97.4,94.5,97.4,94.5,97.3,94.5L97.3,94.5C97.4,94.5,97.4,94.5,97.3,94.5
			C97.4,94.5,97.3,94.5,97.3,94.5z"/>
		<path class="st1" d="M103.1,84.7c0,0.3,0,0.6-0.3,0.8c-0.1,0.1-0.1,0.2-0.2,0.3c-0.1,0.2-0.2,0.3-0.4,0.5h0.1
			c-0.1,0.5-0.3,1-0.8,1.4v0.1c-0.1,0.8-0.6,1.4-1.2,2c-1,1.6-1.6,3.4-3,4.8c-0.1,0.6-0.4,1.1-0.8,1.5c0,0,0,0,0,0
			c0,0.8-0.5,1.2-1.1,1.6c0.1,0.2,0.2,0.4,0.2,0.6l0.1,0.1l0,0c1.1,0,1.9-0.6,2.4-1.5c1-1.7,1.8-3.4,3.2-5c1.9-2.1,3.5-4.8,4.8-7.2
			c1.1-2,2.1-4.1,2.9-6.1l-1.1-6.3c-0.1,0.3-0.2,0.6-0.3,0.9C106.6,77.1,105.3,81.2,103.1,84.7z"/>
		<path class="st1" d="M103.1,84.7C103.1,84.7,103.1,84.7,103.1,84.7C103.1,84.7,103.1,84.7,103.1,84.7L103.1,84.7z"/>
		<path class="st1" d="M96.4,86.3C96.4,86.3,96.4,86.3,96.4,86.3C96.4,86.3,96.4,86.3,96.4,86.3C96.4,86.3,96.4,86.3,96.4,86.3z"/>
		<path class="st1" d="M101.1,73.2c0,0.2,0,0.3,0,0.5c-0.1,1.4-0.3,2.8-0.9,4.1c-0.1,0.7-0.4,1.3-0.7,1.9c-0.4,1.5-0.7,3-1.8,4.2h0
			c-0.2,0.8-0.5,1.4-1,2l0,0c0,0.2-0.1,0.4-0.3,0.4c-0.1,0.1-0.2,0.3-0.2,0.4l0,0c-0.8,2.4-2.6,4.4-3.7,6.7c0,0,0,0.1,0,0.1
			c-0.1,0.2-0.2,0.4-0.3,0.6c0,0.1,0,0.1,0,0.2c0.1,0.3,0.2,0.6,0.4,0.9c0.1,0.1,0.2,0.2,0.3,0.3c0.7,0.4,0.8-0.5,1.3-0.6
			c0,0,0,0,0,0c0.1-0.2,0.2-0.3,0.2-0.5h0c0.1-0.1,0.2-0.3,0.3-0.4v0c0.1-0.1,0.2-0.3,0.3-0.4c0,0,0,0,0,0c0.1-0.1,0.2-0.2,0.3-0.4
			v-0.1c0.6-2.2,1.7-4.1,3.4-5.7c0,0,0,0,0,0c0-0.2,0.1-0.4,0.3-0.5l0.1,0c0.3-0.9,0.7-1.7,0.8-2.6c0.2-1.3,0.8-2,2.1-2.2v0
			c0.1-0.1,0.2-0.3,0.3-0.5l0,0c0.1-0.1,0.2-0.3,0.3-0.5c0,0,0,0,0,0c0.1-0.2,0.2-0.5,0.3-0.7c0,0,0,0,0,0c0-0.4,0.1-0.6,0.4-0.9h0
			c0-0.4,0.1-0.7,0.4-1v0c0.1-0.2,0.1-0.4,0.2-0.6c0,0,0-0.1,0-0.1c0-0.3,0-0.6,0.2-0.8c0,0,0,0,0,0c0.2-1.4,0.5-2.9,1.1-4.2
			c0-0.1,0-0.1,0-0.2c0.1-0.2,0.1-0.3,0.2-0.5l-0.1,0c0-0.3,0-0.5,0.2-0.8l0,0c0.1-1.7,0.5-3.4,1-5.1l0,0c-0.1-0.4-0.1-0.8,0.2-1.1
			h0c0-0.2,0-0.4,0-0.6c0-0.2,0.1-0.5,0.2-0.8c0-0.2,0-0.4,0-0.6l-1.5-8.5c-1.3,3.9-2.2,7.7-2.8,12C102,69.1,101.9,71.2,101.1,73.2z
			"/>
		<path class="st1" d="M37.2,50c2.3,1.1,5.4,1.4,7.8,3.3c6.8,4.2,5.9,11.8,6.1,18.5c0.2,8.6-0.7,15.5,5.7,21.9
			c0.9,0.9,1.9,1,2.8,0.2c-0.1-0.2-0.1-0.4-0.1-0.6c-1.9-2.7-4.3-5.7-5-8.9c-0.8-3.6-0.7-7.6-1-11.5c0-0.1,0-0.1,0-0.1
			c0.1-5.2,1.9-10.4,0.7-15.4c-0.1-0.3,0-0.8,0-1.2c-0.4-0.3-0.6-0.9-0.8-1.5c-0.1-0.2-0.3-0.3-0.4-0.5l0,0.1
			c-0.1-0.2-0.2-0.4-0.4-0.6c0,0,0,0,0,0c-0.1-0.2-0.3-0.4-0.4-0.5c0,0,0,0,0,0c-0.3-0.1-0.5-0.4-0.6-0.8c0.1-0.3,0.1-0.1,0,0
			c-0.4,0-0.6-0.3-0.7-0.6c0,0,0,0,0,0c-0.2-0.2-0.4-0.3-0.6-0.5c-2.1-1.9-5-2.5-7.6-3.4c-0.3-0.1-0.7-0.2-1-0.3l0,0
			c-0.8,0-1.6-0.1-2.3-0.6v0c-1.2-0.2-2.3-0.5-3.3-1.1c0,0,0,0,0,0c-0.2-0.1-0.3-0.1-0.5-0.2c0,0,0,0,0,0c-0.2-0.1-0.4-0.2-0.5-0.2
			l0.1,0c-0.3-0.1-0.6-0.2-0.9-0.3c-0.3-0.1-0.5-0.2-0.8-0.2c-0.4-0.1-0.8-0.2-1.1-0.3c-0.1,0-0.2,0-0.3-0.1c-1.1-0.2-2.2-0.5-3.2-1
			l-0.1,0c-0.8,0.1-1.5-0.1-2.2-0.5c0,0,0,0,0,0c-0.2,0-0.4-0.1-0.6-0.2c0,0,0,0,0.1,0C26,43,25.8,43,25.5,42.9l0.1,0
			c-0.3,0.1-0.6,0-0.9-0.2l0,0c-0.2-0.1-0.4-0.1-0.5-0.2c-0.2-0.1-0.4-0.1-0.5-0.2c-0.3,0-0.6-0.1-0.8-0.4v0c-0.3-0.1-0.7-0.3-1-0.4
			c0,0,0,0,0,0c-0.2-0.1-0.4-0.1-0.6-0.2c0,0,0,0,0,0c-0.3-0.1-0.6-0.3-0.8-0.4c-0.2-0.1-0.3-0.1-0.5-0.2L20,40.8l-0.1-0.1
			c-0.4,0-0.6-0.2-0.9-0.5l0,0c-0.2-0.1-0.3-0.2-0.5-0.2c0,0,0,0,0,0c-0.3,0-0.5-0.2-0.7-0.5l0,0c-0.2-0.2-0.4-0.3-0.6-0.5
			c-0.2-0.1-0.4-0.3-0.6-0.4l0.1,0c-0.1-0.1-0.3-0.2-0.4-0.3c-0.1-0.1-0.1-0.1-0.2-0.2l0.7,4.2c2.6,1.8,5.7,2.8,8.7,3.6
			C29.6,47.1,33.6,48.2,37.2,50z"/>
		<path class="st1" d="M17.4,39.1C17.4,39.1,17.4,39.1,17.4,39.1C17.4,39.1,17.4,39.1,17.4,39.1z"/>
		<polygon class="st1" points="17.4,39.1 17.4,39.1 17.4,39.1 		"/>
		<path class="st1" d="M89.4,28.2c0.3,0.3,0.5,0.5,0.8,0.8c2.3,2,4.1,4.9,5.7,7.3c1.1,1.6,2.1,3.4,2.6,5.4c0.5,1.2,0.8,2.5,0.6,3.8
			c-0.9,4.5-2.5,7.1-5.1,10.9c-0.1,0.2-0.3,0.5-0.5,0.7c-1.4,2.5-3,6.1-2.9,9c0.2,5-0.4,10.2-2.3,14.8c-1.2,2.9-3.3,6.1-4,9.3
			c-0.1,0.4-0.6,0.9,0.2,1.1c0.6,0.1,1-0.1,1.4-0.5c0.7-0.7,0.5-1.9,1.6-2.4c0.4-0.6,0.4-1.3,0.8-1.9c2.5-3.9,4.8-7.9,5.2-12.7
			c0.3-3.8,0.3-8,1.1-11.5c0.4-1.7,1.3-3.6,2.5-5.3c1.2-1.6,1.7-3.3,3.2-4.9c0-0.1,0.1-0.2,0.2-0.3c0-0.1,0.1-0.2,0.1-0.3
			c0-0.1,0-0.2,0.1-0.3c-0.2-0.1-0.1-0.3,0.2-0.5c0-0.1,0-0.1,0.1-0.2c1.6-4.6,1.5-6.8,0.6-11.5c-0.5-0.2-0.5-0.9-0.8-1.4
			c-1.7-3.7-3.3-6.8-5.8-10c-2.3-2.8-5.9-2.9-9.2-1.9C87.4,26.4,88.5,27.2,89.4,28.2z M97.2,55.3c1.1-1.6,2.2-3.2,3.2-5.1
			C99.8,52.1,98.4,53.7,97.2,55.3z"/>
		<path class="st1" d="M87.7,88.5c0,0,0-0.1-0.1-0.1h0l0,0C87.7,88.4,87.7,88.5,87.7,88.5z"/>
		<path class="st1" d="M24.5,40.6L24.5,40.6L24.5,40.6C24.5,40.6,24.5,40.6,24.5,40.6z"/>
		<path class="st1" d="M16.3,35.8C16.3,35.9,16.3,35.9,16.3,35.8c0.2,0.2,0.4,0.3,0.5,0.5c0.2,0.1,0.4,0.3,0.5,0.4
			c0.4,0.3,0.8,0.6,1.3,1c0.1,0.1,0.2,0.1,0.3,0.2c0.2,0.1,0.5,0.3,0.7,0.4v0c0.3,0,0.6,0.2,0.9,0.5c0.2,0.1,0.4,0.2,0.6,0.4
			c0.3,0.2,0.7,0.4,1,0.5l0.1,0.1c0.2,0.1,0.4,0.2,0.7,0.3l-0.1,0c0.2,0.1,0.4,0.1,0.6,0.2l0,0c0.4,0,0.7,0.1,1.1,0.4
			c0.6,0,1.1,0.2,1.6,0.5l0,0c0.3,0.1,0.6,0.1,0.9,0.2h0c0.2,0.1,0.4,0.1,0.6,0.2l-0.1,0c0.3,0.1,0.6,0.1,0.9,0.2c0,0,0,0,0,0
			c0.2,0.1,0.4,0.1,0.6,0.2l-0.1,0c0.3,0,0.7,0.1,1,0.2c0.1,0,0.3,0.1,0.4,0.1c0.2,0.1,0.5,0.2,0.7,0.3l-0.1-0.1
			c0.3,0.1,0.6,0.1,0.9,0.2c0,0,0,0-0.1,0c0.3,0.1,0.6,0.2,0.9,0.2c0,0,0,0,0,0c0.2,0,0.4,0.1,0.6,0.2c0.3,0.1,0.6,0.1,0.8,0.2
			c0.2,0.1,0.4,0.1,0.7,0.2c6.2,1.7,13.1,2.8,18.5,6.2c2.4,1.5,3.9,3.6,4,6.7c1.2,1.9,0.4,4.8-0.6,7.5c-1.7,5-1.6,9.1-1.2,14.2
			c0.2,3,0.8,6.9,2.3,9.7c0.9,1.6,2,3.3,2.8,5.2c0.6,0.1,1.2,0.5,1.8,0.4c0.8-2-0.9-3.4-1.5-4.7c-1.6-3.9-2.1-7.7-2.9-11.6
			c-0.8-4,0.8-8.8,2.3-12.6c3.2-8.2,4.3-15.5-5.7-18.5c-1.8-0.5-3.7-1.1-5.6-1.6c0,0,0,0,0,0c-1.7-0.2-3.3-0.6-5-1.1c0,0,0,0,0,0
			c-6.9-1.5-14.4-2.5-20.8-5.4c-0.1-0.1-0.3-0.1-0.4-0.2c-0.4-0.2-0.8-0.4-1.2-0.6h0C20.2,36,18.9,35,17.8,34
			c-0.1-0.1-0.2-0.2-0.3-0.3c-0.2-0.2-0.3-0.3-0.5-0.5l0,0c-0.3-0.1-0.6-0.3-0.8-0.7c0,0,0-0.1,0.1-0.1l-0.1,0.1
			c-0.4,0.1-0.7,0.2-1,0.3l0.4,2.4c0.1,0.1,0.1,0.1,0.2,0.2C16,35.6,16.2,35.7,16.3,35.8z"/>
		<path class="st1" d="M27.5,31.2C27.5,31.2,27.5,31.2,27.5,31.2c0.1,0.1,0.3,0.2,0.5,0.3c0,0,0,0,0,0c0.3,0.2,0.5,0.3,0.8,0.5l0,0
			c1,0.3,2,0.7,3.1,1c0,0,0,0,0,0c2.2,0.4,4.6,1,7,1.7c0.4,0.1,0.8,0.2,1.1,0.2c1.2,0.1,2.4,0.2,3.7,0.6l-0.1,0
			c0.4,0.1,0.9,0.1,1.3,0.2l0.1,0c5.5,0.6,11.1,1.4,16.5,3c0,0,0,0,0,0c0.6,0,1.2,0.2,1.8,0.5l-0.1,0c0.2,0.1,0.5,0.2,0.7,0.3l0,0
			c4,1.6,8.9,3.2,10.5,7.8h0c0.4,0.5,0.4,1.3,0.2,2.1c0,0,0,0,0,0c0.3,1.3-0.3,3-1,4.6c-2.1,5-7,11.3-6.8,17c0,0.8,0.3,1.7-0.2,2.6
			c0,0.1,0,0.1,0,0.2c-0.2,3.6-0.5,7.2,0.4,10.7c0.4,1.6,0.6,3.4-0.1,5.3c0,0.2,0,0.5,0.1,0.7c0.4,0.3,0.8,0.9,1.4,0.6
			c0.5-0.2,0.5-0.8,0.6-1.4c1.3-6,1.2-12.5,2.1-18.6c0.8-5.6,4-10.9,6.4-16c0.9-1.9-0.1-3.3,0.8-4.7c1.3-2,1.1-3.3,0.7-4.5
			c-2.8-6.8-12.9-9.3-19.7-10.4c-7-1.1-14.2-1.8-21.1-3.4c-1.3-0.3-2.5-0.6-3.7-1l0,0c-0.2-0.1-0.5-0.1-0.7-0.2l-0.1,0
			c-0.9-0.1-1.8-0.2-2.5-0.6c-1.9-1.3-3.7-1.5-5.5-0.9c0.1,0.2,0.2,0.4,0.2,0.6C26.5,30.4,27,30.8,27.5,31.2z"/>
		<path class="st1" d="M24.1,50.2L24.1,50.2C24.1,50.2,24,50.2,24.1,50.2C24,50.2,24.1,50.2,24.1,50.2z"/>
		<path class="st1" d="M24.1,50.2c0.1,0.1,0.3,0.1,0.5,0.2l0,0c0.4,0,0.7,0.1,0.9,0.5c0.4,0,0.7,0.1,0.9,0.5c0.3,0,0.6,0.2,0.6,0.5
			l0,0c0.3,0.1,0.6,0.3,0.9,0.4l0.1,0c0.5,0,0.9,0.2,1.2,0.5c0.3,0,0.6,0,0.8,0.3c0,0,0,0,0,0c0.2,0.1,0.4,0.2,0.6,0.2l0-0.1
			c0.5,0.1,1,0.3,1.4,0.4c0,0,0.1,0,0.1,0c2,0.1,3.6,1.3,5.3,2.6c0,0,0,0,0,0c0.4,0.1,0.7,0.3,1,0.7c0,0,0,0,0,0
			c0.2,0.1,0.3,0.3,0.5,0.5c0,0,0,0-0.1,0c0.2,0.2,0.4,0.3,0.6,0.5c0.1,0,0.1,0,0.2,0c1-0.4,1.4,0.4,1.6,1.6c0,0,0,0,0,0
			c0.7,0.4,1.3,1.1,1.7,1.9c0,0,0,0,0,0c1.1,1,2.1,2.1,2.5,3.8c0.2,0.2,0.4,0.6,0.4,1c0.7,1.8,1.1,3.5,1.4,5
			c0.1,0.2,0.1,0.5,0.2,0.7c0.8,3.4-0.2,7.2-0.7,10.6c0,0.2,0,0.5,0,0.7c0.2,0.3,0.1,0.7,0,1.1c0,0.2-0.1,0.3-0.1,0.5
			c0.3,0.4,0.3,1,0.2,1.6c0,0,0,0,0,0c0.4,0.4,0.3,1.1,0.4,1.8c0,0.1,0.1,0.2,0.1,0.3c0.6,1.7,1.7,3.2,3.2,4.5
			c0.1,0.1,0.3,0.2,0.4,0.3s0.3,0.2,0.4,0.2c0,0,0,0,0,0c0.1,0.1,0.3,0.2,0.4,0.3c0.1,0.1,0.3,0.2,0.4,0.3c0.1,0.1,0.3,0.2,0.4,0.3
			c0.3,0,0.5,0.2,0.6,0.5c0,0,0,0,0,0c0.4,0,0.6,0.2,0.9,0.5c0,0,0,0,0,0c0.2,0.1,0.3,0.2,0.5,0.3c0,0,0,0,0,0
			c0.6,0,1.4,0.5,1.8-0.2c0.4-0.8-0.6-1.2-1-1.6c-4.1-3.4-5.6-6.7-5.4-12.1c0.1-2.8,0.5-5.9,0.6-8.6c-0.3-1.3-0.7-2.6-0.7-4.2
			c-0.1-3.7-1.1-7.4-3.6-10.3c-0.7-0.7-1.2-1.7-1.9-2.5c-2.3-2-5.3-4-8.2-5.1c-4-0.9-8-2-11.7-3.9c-1.1-0.6-2.3-1.3-3.5-1.5
			c-1.4-0.2-2.4-0.7-3.4-1.3l0.5,2.7c2,0.8,3.9,1.6,5.7,2.7C23.8,49.9,24,50,24.1,50.2z"/>
		<path class="st1" d="M25.4,50.9C25.4,50.8,25.4,50.8,25.4,50.9C25.4,50.8,25.4,50.8,25.4,50.9C25.4,50.8,25.4,50.8,25.4,50.9z"/>
		<path class="st1" d="M29.1,52.8L29.1,52.8C29.1,52.8,29,52.8,29.1,52.8L29.1,52.8z"/>
		<polygon class="st1" points="26.3,51.4 26.2,51.4 26.2,51.4 		"/>
		<path class="st1" d="M24.7,35.5c3.6,1.3,7.3,2.2,11.1,2.8c0,0,0,0,0,0c3.9,0.7,7.9,1.2,11.8,2.4c0.4,0.1,0.8,0.2,1.2,0.3
			c0,0,0,0-0.1,0c0.4,0,0.9,0,1.3,0.3c0,0,0,0,0,0c2.9,0.4,6,1,8.7,2v0c9.5,3.7,9.3,8.5,5.6,17.1c-1.9,4.5-4.8,9.7-4.5,14.7
			c0.1,1.7,0.7,3.3,1.1,4.8c0.9,3.5,1.9,7.1,2.6,10.6c0.1,0.6,0.3,1.2,0.9,1.3c0.7,0.2,0.8-0.5,1-0.9c-0.2-1-0.4-2-0.5-2.9
			c-0.2-1.5-0.3-3-0.6-4.3c-0.8-3.5-1.4-7.1-1.1-10.5c0.5-6.1,5.4-12.7,8.1-18.7c0,0,0-0.1,0-0.1c0,0,0.1-0.1,0.1-0.1
			c1.1-7.5-1.2-9.7-8.1-12.6l-0.1-0.1c-0.5,0-1-0.1-1.5-0.4l0,0c-3.8-0.8-7.6-1.6-11.4-2.3c-0.1,0-0.2,0-0.4,0
			c-2.1-0.3-4.1-0.7-6.2-1.2c-0.4,0-0.8,0-1.2-0.3l0,0c-0.8,0-1.6-0.1-2.4-0.4c-0.4,0-0.8,0-1.1-0.3c-3.6-0.4-7.4-0.8-10.7-2.4
			c-0.7,0.1-1.4-0.2-2-0.6c0,0,0,0,0,0c-1.5-0.6-2.8-1.2-3.6-2.4c0,0,0,0,0,0c-1.5-0.9-1.8-0.9-3.4,0.3C20.6,33,22.2,34.6,24.7,35.5
			z"/>
		<path class="st1" d="M40.1,36.8C40.1,36.8,40.1,36.8,40.1,36.8L40.1,36.8C40.2,36.8,40.1,36.8,40.1,36.8z"/>
		<path class="st1" d="M43.8,37.5C43.8,37.5,43.8,37.5,43.8,37.5L43.8,37.5C43.8,37.5,43.8,37.5,43.8,37.5z"/>
		<path class="st1" d="M47.5,40.7C47.5,40.7,47.5,40.7,47.5,40.7C47.5,40.6,47.5,40.6,47.5,40.7C47.5,40.6,47.5,40.6,47.5,40.7z"/>
		<path class="st1" d="M35.4,29.7c0.4,0.2,0.9,0.4,1.4,0.6c0.1,0,0.2,0,0.3,0.1c1.6,0.1,3.2,0.7,4.8,1c4.5,1,9.2,1.6,13.9,1.9
			c0.9,0,1.8,0.2,2.7,0.3c0.1,0,0.2,0,0.3,0c7,0.3,13.7,3.4,19.1,7.8c5.3,4.3,2.8,9.9,0.6,15.1c-1.6,3.8-3.1,7.6-4.2,11.5
			c-0.3,1-0.2,2-0.3,2.9c-0.3,2.8-1,5.4-0.8,7.9c0,0,0,0,0,0c-0.3,3.9-0.6,7.4-1.8,10.9c-0.1,0.3-0.4,0.7,0.1,0.9
			c0.6,0.2,0.9-0.1,1.1-0.5c0.3-0.5,0.6-0.9,0.9-1.4l0.1,0c1.6-2.5,2.6-5.1,3-7.6c0.6-4,1-8.1,1.7-12c0.4-2,0.9-4,1.5-6.2
			c0.5-1.6,1.2-3.4,2.1-5.1c1.9-3.8,5.2-8.6,3.1-12.7c-3.6-7.3-13.6-11.9-21.5-13c-1.2-0.2-2.4-0.3-3.6-0.5c-1.4,0-2.9,0-4.5-0.1
			c-3.8-0.2-7.7-0.5-11.3-1.7v0c-2.9-0.6-5.8-1.1-8.5-1.7C33.8,28.6,33.7,28.6,35.4,29.7z"/>
		<path class="st1" d="M61.9,29.7c0.2,0,0.5-0.1,0.7-0.1c2.8-0.3,6.3,0.4,8.7,1.7c6.2,3.4,16.2,9.1,16.4,16.6
			c0.2,6.8-7.3,12.4-7.4,19.7c-0.1,7.3-1.8,13.7-4.4,20.4c-0.2,0.5-0.9,1.1-0.1,1.5c0.8,0.4,1.4,0.1,2-0.4l0,0
			c0.2-0.3,0.5-0.6,0.7-0.9c0.1-0.1,0.1-0.3,0.2-0.5c1.2-3.9,2.6-7.6,4-11.5c0.6-1,0.7-2.1,0.4-3c0.5-1.5-0.3-2.9,0.8-4.5
			c-0.4-3.5,0.6-6.5,2.3-9.1c1.4-2.3,4.1-5.5,4.5-8.4c0.2-1.8,1.5-4,0.5-5.8c-0.4-0.2-1-0.4-1-0.9c-0.3-2.5-2.6-4.5-4-6.7
			c0,0,0,0,0,0C85,37,84.2,36,83.3,35l0-0.1c-0.9-0.5-1.6-1.1-2.3-1.8c-0.4-0.1-0.7-0.3-0.9-0.6l0,0c-0.2-0.1-0.4-0.2-0.6-0.4l0,0
			c-0.2-0.1-0.4-0.2-0.6-0.4c0,0,0,0,0,0c-0.6-0.2-1.1-0.4-1.5-0.8c0,0,0,0,0,0c-0.2-0.1-0.5-0.2-0.7-0.4c0,0,0,0,0,0
			c-2.4-0.9-4.8-1.8-7.1-2.7c-0.4-0.1-0.7-0.2-1.1-0.3l0.1,0c-0.5,0-1,0-1.5-0.3l0,0c-3.3-0.9-5.9-0.7-8.6-0.6c-0.2,0-0.5,0-0.8,0
			c-3.8-0.3-7.6,0.2-11.3,0.6c4.4,1.2,8.8,2.3,13.4,1.8C60.4,29.3,61,28.9,61.9,29.7z"/>
		<path class="st1" d="M79.5,32.2C79.5,32.2,79.5,32.2,79.5,32.2C79.5,32.3,79.5,32.3,79.5,32.2C79.5,32.3,79.5,32.2,79.5,32.2z"/>
		<path class="st1" d="M80.9,33.2L80.9,33.2C80.9,33.2,80.9,33.2,80.9,33.2C80.9,33.2,80.9,33.2,80.9,33.2z"/>
		<path class="st1" d="M69.6,28.2C69.6,28.2,69.6,28.2,69.6,28.2C69.6,28.2,69.6,28.2,69.6,28.2C69.6,28.2,69.6,28.2,69.6,28.2z"/>
		<path class="st1" d="M75.6,27.5c6.6,3.1,13.4,7.4,16.2,14.2c3,7.5-1.6,12.8-4.7,19.7c-0.6,1.3-1.5,3-1.1,4.3
			c0.4,0.3,0.4,0.6,0.1,1.1c0,0.6,0,1.2,0,1.8c0.1,0.8,0.3,1.6-0.3,2.5c0.6,1.1-0.3,2.3-0.6,3.4c0,0.3,0,0.5-0.4,0.7
			c0.4,0.9,0,1.8-0.5,2.7c-1.4,3.6-2.7,7.2-4,10.8l0,0c0.1,0.8,0.1,1.5,0.8,2.1c0.2,0,0.5-0.1,0.7-0.1c0.1-0.1,0.2-0.2,0.4-0.4
			c0.1-0.1,0.2-0.3,0.3-0.4c1-1.8,1.4-3.8,2.2-5.6c1.8-4.3,3.9-8.6,4.4-13.2c0.4-4,0.2-7.7,1.7-11.1c2.1-4.6,6.8-9.6,6.5-14.6
			c-0.1-2.5-1.9-6.1-3.4-8.7c-2.5-4.3-7.1-7.4-11.3-10l0,0c-2.4-1.4-5.8-1.7-8.5-1.6c-0.5,0-1,0-1.5,0c-0.5,0-0.9,0-1.4,0
			C72,26.7,74.1,26.8,75.6,27.5z"/>
		<path class="st1" d="M32.4,61.9C32.4,61.9,32.4,61.8,32.4,61.9C32.4,61.8,32.4,61.8,32.4,61.9C32.4,61.8,32.4,61.8,32.4,61.9z"/>
		<path class="st1" d="M31.4,61.2C31.4,61.2,31.4,61.2,31.4,61.2L31.4,61.2C31.4,61.2,31.4,61.2,31.4,61.2z"/>
		<path class="st1" d="M23.4,57.3C23.4,57.3,23.4,57.3,23.4,57.3C23.4,57.3,23.4,57.3,23.4,57.3C23.4,57.3,23.4,57.3,23.4,57.3z"/>
		<path class="st1" d="M19.4,55.6C19.4,55.6,19.4,55.6,19.4,55.6C19.4,55.6,19.4,55.6,19.4,55.6C19.4,55.6,19.4,55.6,19.4,55.6z"/>
		<path class="st1" d="M39.3,68.7C39.3,68.7,39.3,68.6,39.3,68.7C39.3,68.6,39.3,68.6,39.3,68.7C39.3,68.7,39.3,68.7,39.3,68.7z"/>
		<path class="st1" d="M23.6,52.7c0,0.1-0.1,0.1-0.1,0.2c0,0,0,0,0,0l0,0L23.6,52.7z"/>
		<path class="st1" d="M21.3,56.4C21.3,56.4,21.3,56.4,21.3,56.4c0.8,0.1,1.5,0.4,2.1,0.9c1.1,0.2,2.3,0.5,3.3,1.3
			c0.1,0,0.3,0.1,0.4,0.2c0.3,0.1,0.6,0.3,0.9,0.4c0,0,0,0,0,0c0.2,0.1,0.4,0.2,0.5,0.3c0,0,0,0,0,0c0.5,0,1,0.3,1.3,0.7
			c0,0,0,0,0,0c0.2,0.2,0.5,0.4,0.7,0.6c0,0,0,0-0.1,0c0.3,0,0.6,0.1,0.9,0.4c0.4,0.2,0.7,0.5,1,0.7c0.3,0,0.6,0.1,0.8,0.5l0,0
			c0.6,0.2,1.1,0.5,1.4,1.2c0,0,0,0,0,0c0.4,0,0.7,0.2,0.9,0.6c0,0,0,0,0,0c1.2,0.6,2,1.8,2.6,3c0,0.1,0,0.1,0,0.2
			c0.2,0.2,0.4,0.4,0.6,0.6c0,0,0,0,0-0.1c0.4,0.1,0.5,0.4,0.6,0.7c1.1,0.6,1.5,1.9,1.9,2.8c1.3,2.6,1.1,6.7,0.3,9.5
			c-0.1,0.4-0.2,0.8-0.3,1.2c0,0.1,0,0.3-0.1,0.4c0.1,2.4-0.3,5,0.6,6.8c0.6,1.2,1.5,2.2,2.3,3.4c2.1,1.2,3.9,3.3,6.5,4.3
			c0.8,0.3,1.7,0.8,2.5,1.1c0.3-0.6,0-1.2-0.6-1.7c-1.2-0.9-2.4-1.8-3.5-2.8C47.5,92,45.7,91,45.1,89c-0.5-0.9-1.4-1.8-1.3-2.9
			c0.2-2.9,0.7-6.3,1.2-9c0.7-4.1-0.6-6.6-2.7-10.5c-0.1-0.1-0.1-0.2-0.2-0.4c-1.9-2.4-3.7-5-6-7c-0.1,0-0.1-0.1-0.2-0.2
			c-0.4-0.3-0.7-0.5-1.1-0.8c0,0,0,0-0.1,0c-1.2-0.5-2.3-1.2-3.2-2.1c0,0,0,0,0,0c-0.3-0.1-0.6-0.3-0.8-0.4c0,0,0,0,0,0
			c-0.9-0.3-1.9-0.4-2.6-1.2c-0.3-0.1-0.6-0.2-0.9-0.2c-0.3-0.1-0.7-0.3-1-0.4l0,0c-0.3-0.1-0.5-0.2-0.8-0.3c0,0,0,0,0,0
			c-0.4-0.1-0.7-0.3-1-0.4c-0.1,0-0.2,0-0.3-0.1c-0.2-0.1-0.4-0.2-0.6-0.3c-0.3,0.1-0.6,0-0.8-0.3c0,0,0,0,0,0
			c-0.1-0.1-0.3-0.2-0.4-0.3c-0.1,0-0.3-0.1-0.5-0.1c-1-0.4-2-0.9-2.8-1.6h0c-0.2-0.1-0.4-0.2-0.6-0.4l-0.1,0c0,0,0,0-0.1,0l0.9,5.2
			c0.1,0.1,0.1,0.1,0.1,0.2C20,55.9,20.6,56.1,21.3,56.4z"/>
		<polygon class="st1" points="45.1,89 45.1,89 45.1,89 		"/>
		<path class="st1" d="M99,24.8c-0.8-1.2-1.8-0.6-2.8-0.3c-0.8,0.3,0,0.9,0.2,1.2c1.5,1.9,3,3.7,4.1,5.9c0.2,0.5,0.4,0.9,0.6,1.4
			l-1.2-7C99.6,25.6,99.3,25.2,99,24.8z"/>
		<path class="st1" d="M94.9,77.5c-0.3,1.7-0.2,3.7-1.7,5.2c-1.1,1.1-1.3,2.8-2.5,3.9c-0.1,0.2-0.2,0.5-0.3,0.7
			c-0.4,1.3-0.8,2.6-1.3,3.8c-0.4,0.9-0.1,1.4,0.8,1.7l0,0c0.6-1,1.7-1.8,2-3c0.6-2.6,2.3-4.8,3.4-7.2c0.3-0.6,0.6-0.9,1.2-0.9
			c-0.1-0.3,0.1-0.5,0.4-0.6c0,0,0,0,0,0c0.1-0.1,0.2-0.3,0.3-0.4c0.1-0.2,0.1-0.5,0.2-0.7c0.1-0.2,0.1-0.3,0.2-0.5l0,0
			c0.2-0.8,0.2-1.8,0.7-2.5c0,0,0,0,0,0c-0.1-0.8,0-1.5,0.3-2.2c0,0,0,0,0,0c0-0.7,0.1-1.3,0.4-1.9c0.7-4.4,1-8.9,1.9-13.1
			c0.2-1.2,0.5-2.3,1.4-3.5c0-0.1,0.1-0.2,0.2-0.3c0.1-0.6,0.3-1.2,0.9-1.9c0.4-0.9,0.8-1.7,1.2-2.6l-0.6-3.5
			c-1.4,4.9-5.7,9-6.6,13.5C96.2,66.3,95.7,72.2,94.9,77.5z"/>
		<path class="st1" d="M96.4,81.8C96.4,81.8,96.4,81.8,96.4,81.8C96.4,81.8,96.4,81.8,96.4,81.8C96.4,81.8,96.4,81.8,96.4,81.8z"/>
		<path class="st1" d="M27.4,80.4c0.9,3.3,1.4,6.8,1.9,10.3c0.4,2.9,1.8,5,4.2,6.2c3.5,1.7,7.1,2.7,11,3.5c1.2,0.2,2.2,0.8,3.3,1.3
			c0.7,0.4,1.6,0.6,1.9,0c0.3-0.6-0.6-0.9-1-1.2c-2-1.6-4.4-1.8-6.5-2.6c-2.9-1.2-5.7-2.3-7.8-3.7c-0.7-0.5-1.2-1.2-1.2-2.4
			c-0.1-2.4-0.4-4.7-0.2-7.2c0.2-2.6-0.2-5.1-0.9-7.3c-0.9-2.7-4.8-4.5-7.1-5.5c-0.9-0.4-1.9-0.7-2.8-1.1c-0.1,0-0.2-0.1-0.4-0.1
			l0.9,5.1C24.9,76.6,26.8,78.1,27.4,80.4z"/>
		<path class="st1" d="M98.1,99c-0.1,0.1-0.1,0.2-0.2,0.3c0,0.3-0.2,0.5-0.5,0.6c0,0,0,0,0,0c-0.1,0.1-0.2,0.3-0.3,0.4c0,0,0,0,0,0
			c0.4,1.7,1.2,1.9,2.5,0.5c1.1-1.2,2.6-2.1,3.8-3.2c2-2.7,4.4-5,6.4-7.8c0.1-0.1,0.2-0.3,0.3-0.4c0.2-0.5,0.4-0.9,0.6-1.4l-0.9-5.1
			c-0.1,0.3-0.3,0.5-0.4,0.8C106.7,89.4,102.8,94.7,98.1,99z"/>
		<path class="st1" d="M38.9,103c2.1,0.1,4.4,0.5,6.6,1.5c0.5,0.2,0.9,0.3,1.4,0.2c0.6-0.1,1.3,0,1.4-0.6c0.1-0.7-0.8-0.8-1.3-1.1
			c-2.6-1.2-5.9-1.9-8.7-2.2c-5.9-0.7-11.1-4.8-11.1-11.2c0-2.9-1.5-6.5-3.6-8.7l2.7,15.6c0.9,1.3,1.9,2.5,3.2,3.5
			C32,101.7,35.9,102.8,38.9,103z"/>
		<path class="st1" d="M106.1,102.4L106.1,102.4C106.1,102.4,106,102.4,106.1,102.4C106.1,102.4,106.1,102.4,106.1,102.4z"/>
		<path class="st1" d="M99.8,104.5C99.8,104.5,99.8,104.5,99.8,104.5C99.8,104.5,99.8,104.5,99.8,104.5
			C99.8,104.5,99.8,104.5,99.8,104.5z"/>
		<path class="st1" d="M110.4,93.8c-0.1,0.1-0.2,0.2-0.3,0.4c-0.1,0.1-0.2,0.2-0.3,0.4c-0.1,0.1-0.2,0.2-0.4,0.4
			c-0.4,0.4-0.8,0.8-1.2,1.2c-0.2,0.4-0.5,0.7-0.9,0.9c-0.5,0.6-1,1.1-1.7,1.5c0,0,0,0,0,0c-0.2,0.6-0.8,0.9-1.3,1.1c0,0,0,0,0,0
			c-0.2,0.2-0.4,0.3-0.6,0.5c-0.4,0.6-0.9,1-1.6,1.3c0,0,0,0,0,0c-0.1,0.1-0.2,0.2-0.4,0.4c0,0.1-0.1,0.1-0.2,0.1
			c-0.4,0.3-0.7,0.7-1.1,0.8c-1.4,0.3-1.1,1-0.6,1.9c1.2,0.5,2.2-0.3,3.3-0.6c0.2-0.4,0.6-0.5,1-0.5c0,0,0,0,0,0
			c0.5-0.6,1.2-0.9,2-1.1c0.2-0.3,0.6-0.5,1-0.5c0,0,0,0,0,0c1.5-1.2,3.1-2.5,4.6-3.7c0.2-0.3,0.5-0.6,0.8-0.9l-0.9-4.9
			c-0.2,0.2-0.4,0.5-0.6,0.7C110.7,93.4,110.6,93.6,110.4,93.8z"/>
		<path class="st1" d="M111.6,98.2C111.6,98.2,111.6,98.2,111.6,98.2C111.6,98.2,111.6,98.2,111.6,98.2L111.6,98.2z"/>
		<path class="st1" d="M103.6,100.1C103.6,100.1,103.6,100.1,103.6,100.1C103.7,100.1,103.7,100.1,103.6,100.1
			C103.6,100.1,103.6,100.1,103.6,100.1z"/>
		<path class="st1" d="M103.2,103.9L103.2,103.9C103.1,103.9,103.1,103.9,103.2,103.9C103.1,103.9,103.1,103.9,103.2,103.9z"/>
		<path class="st1" d="M41.1,107.1c1.8,0,3.7,0.2,5.4-0.4c0-0.3,0.2-0.4,0.4-0.5c-0.5-0.8-1.2-0.8-2.1-0.9
			c-4.1-0.4-8.4-0.5-12.4-1.6c-1.9-0.5-3.8-1.9-5.4-3.4l0.6,3.5c2.9,1.8,6.1,2.9,9.6,3.1C38.5,107,39.8,107,41.1,107.1z"/>
		<path class="st1" d="M46.9,106.2C46.9,106.2,46.9,106.2,46.9,106.2L46.9,106.2C46.9,106.2,46.9,106.2,46.9,106.2z"/>
		<path class="st1" d="M44.9,114c0.1-0.1,0.2-0.2,0.3-0.3c0-0.6-0.4-0.8-0.9-0.9c-2.2-0.1-4.4-0.6-6.5-0.3c-3.1,0.5-5.9,0.5-8.7-0.1
			l0.8,4.5c0.9-0.1,1.9-0.2,2.8-0.4C36.8,115.7,40.9,115.1,44.9,114z"/>
		<path class="st1" d="M37,108.6c-1.6-0.1-3.3,0.1-4.9-0.8c-0.1,0-0.1,0-0.1,0c-1.2-0.1-2.4-0.1-3.5-0.9c-0.1,0-0.2-0.1-0.3-0.1
			l0.6,3.3c2.3,0.6,4.9,0.9,7.2,0.9c2.9,0,5.9-0.4,8.8-0.1c0.9,0.1,1.5-0.3,1-1.3C42.9,108.9,39.8,108.8,37,108.6z"/>
		<path class="st1" d="M108.1,103.5c1.4-0.3,2.8-0.5,4.2-0.8c0.3-0.1,0.7-0.1,1-0.2l-0.5-2.9c-1.7,1.2-3.4,2.4-5.1,3.6
			C107.8,103.3,107.9,103.4,108.1,103.5z"/>
		<path class="st1" d="M35.9,79c-0.5,2.8-0.6,5.9-0.7,8.8c-0.2,4.3,3.1,7,6.8,8.4c2.7,1,5.5,2.2,8.1,3.6c0.5,0.3,1.1,0.8,1.4,0
			c0.4-0.7-0.2-1-0.8-1.2c-2-1.1-3.9-2.6-5.9-3.3c-2.6-0.9-6.3-3.5-6.3-6.6c-0.1-3.5,0.9-7.2,1.2-10.7c0.3-2.6-0.3-5.2-2.3-7.3
			c-3.4-3.5-7.3-6-11.9-8c-2-0.9-3.9-2-5.7-2.9l1,5.5c2.2,1.1,4.4,2.1,6.6,3.2C31.3,70.1,36.8,74.2,35.9,79z"/>
	</g>
</g>
</svg>
